<svg version="1.1" xmlns="http://www.w3.org/2000/svg" viewBox="0 0 560 186.5" width="560" height="186.5">
  <!-- svg-source:excalidraw -->
  <g transform="translate(288 14.5) rotate(0 85 16)"><text x="0" y="23" font-family="Virgil, Segoe UI Emoji" font-size="20px" fill="#000000" text-anchor="start" style="white-space: pre;" direction="ltr">CombinedContext</text></g><g transform="translate(315 61.5) rotate(0 18.5 16)"><text x="0" y="23" font-family="Virgil, Segoe UI Emoji" font-size="20px" fill="#000000" text-anchor="start" style="white-space: pre;" direction="ltr">left</text></g><g transform="translate(314 90) rotate(0 79 16)"><text x="0" y="23" font-family="Virgil, Segoe UI Emoji" font-size="20px" fill="#000000" text-anchor="start" style="white-space: pre;" direction="ltr">element: Element</text></g><g transform="translate(10 112.5) rotate(0 270 32)"><text x="0" y="23" font-family="Virgil, Segoe UI Emoji" font-size="20px" fill="#000000" text-anchor="start" style="white-space: pre;" direction="ltr">Note:</text><text x="0" y="55" font-family="Virgil, Segoe UI Emoji" font-size="20px" fill="#000000" text-anchor="start" style="white-space: pre;" direction="ltr">Element, CombinedContext are both CoroutineContext</text></g><g transform="translate(42.5 62.5) rotate(0 89 16)"><text x="0" y="23" font-family="Virgil, Segoe UI Emoji" font-size="20px" fill="#000000" text-anchor="start" style="white-space: pre;" direction="ltr">CoroutineContext</text></g><g transform="translate(290 68.5) rotate(0 7.5 7.75)"><path d="M0 0 C0 0, 0 0, 0 0 M0 0 C0 0, 0 0, 0 0 M-0.24643750783520435 6.595197574098699 C0.9390023522285856 4.66544739714689, 2.6454809451635937 2.475245759934138, 5.5325413588010735 0.6432851258513742 M-0.5466030399920294 6.104794831995957 C1.934989436394823 4.130059550526926, 3.1439659750760254 2.2633212600660633, 5.163010337161368 0.6113395556655936 M-0.2308232403267516 10.911544780849992 C2.159124754586828 8.649235433520383, 7.38303181548895 4.159717186604457, 9.367504671168458 0.9165928701951862 M0.38927208791483503 12.333134330480872 C2.7262373817283123 8.109348354562526, 6.265329917192182 6.210087201486203, 9.959346467954052 0.11196550755647439 M1.2219038641311677 15.921546394362409 C2.74897813276813 14.780008834201551, 8.306827471891474 7.997056345703008, 15.133969241290767 -1.1327883166330883 M1.0305792771511229 16.492408280617852 C7.284656114272815 9.707495956041779, 12.61133380199701 3.442777115861537, 15.510542957581062 0.4570707322028449 M6.3936130176477945 16.653352253705606 C9.89179176129534 14.953985040856333, 10.342965656083036 10.349725728498777, 15.111258695310408 5.986584952702383 M6.941855197743781 16.75162766702321 C8.265560821464582 15.179714950039445, 10.284002455721524 13.154942900967537, 15.949272332422861 6.942862007949139 M11.387247981851726 16.546063780870373 C12.667472221675185 15.040873750924264, 13.848350638845053 14.487906702448681, 15.558465621819167 12.712174763288395 M12.002066133053779 16.63304045516261 C13.003194650960156 15.454091044330502, 14.416198468121673 13.863328320219152, 15.705048336939335 12.606416328847455" stroke="#868e96" stroke-width="0.5" fill="none"></path><path d="M-1.17812334978953 -1.1922176904045045 C4.413967855274677 0.3176054409239441, 10.922629246953875 1.4843581816647202, 14.335974802728742 -1.1602974808774889 M0.2588816892821342 -0.021976662101224065 C5.444844274548814 -0.26415597293525933, 12.039407905424014 0.5284061914309859, 15.747042902978137 0.507969657657668 M13.900865044025704 0.15654016477055843 C13.685973816872576 4.661191066447645, 14.582846899093129 7.058655507629737, 16.546405250160024 14.027830474497751 M14.9086120078573 -0.0897687202552333 C15.560627358509228 6.106032433104702, 14.512873207135126 12.420225934754127, 15.095640538842417 16.264450462325478 M15.862526749726385 16.528736042324454 C9.73698243778199 16.40365929263644, 7.290428966749458 16.73814331847243, 0.9298733077012002 15.414436044637114 M15.513250367017463 15.108466299949214 C10.03445417038165 16.21906192013994, 5.150675645330921 15.924622760806233, 0.2626368042547256 15.241178179858252 M0.3780547845643014 14.882505703391507 C-0.4199029022501782 11.326861102879047, -0.26330110222566877 5.284382214723154, -0.9318868246395141 0.9910878260154277 M-0.051217160164378606 15.446461705281399 C-0.5172436822764576 12.936592596606351, -0.006795328538864803 9.288626273232511, 0.08322162053082138 -0.40915535672102127" stroke="#000000" stroke-width="1" fill="none"></path></g><g transform="translate(290.5 99.75) rotate(0 7.5 7.75)"><path d="M0 0 C0 0, 0 0, 0 0 M0 0 C0 0, 0 0, 0 0 M0.15450288656634592 6.788975731332891 C0.877222994833155 4.729847289162336, 1.3675098191714246 4.479856636124834, 5.291616976591295 -0.21756852233435575 M-0.655579821360285 6.4865814049291535 C1.1690343775901404 4.517403286954498, 2.878756562803716 2.6519627724658834, 5.144137086676902 -0.019334580019373326 M0.7736194991599428 13.167022543072283 C2.621243865410129 8.733146297833404, 7.264028465953385 6.383047823500616, 9.509458091807497 -1.2498394627973675 M0.4153134287427771 11.774697436064065 C3.29484156079969 9.011922451426743, 5.765053220433704 6.123831825588975, 10.620990378362071 0.7251648130908372 M1.3670733010627778 15.395436520113904 C5.353720644836542 9.243700293700392, 11.111563852623338 2.427143310306521, 14.069374197631557 1.7998592096311024 M1.7066560767822416 17.39560327435221 C5.584014547909626 11.542488815405505, 8.349785075128839 8.421872654821536, 15.332593916452904 0.6789064348605445 M5.640341601818136 16.48883874025975 C9.217973922564685 14.404899093274548, 10.55154140548274 10.54955883961849, 14.155108995026403 6.884402543535094 M7.2026985596579385 16.12155062533763 C9.876639532311225 13.358428048805868, 12.360273904334273 10.23813781481098, 15.518464779191145 6.231459959778572 M11.59749688727203 17.070977324333125 C12.4371225440037 15.645449671836467, 13.233193452684983 14.626656680699629, 16.159410671343476 12.130660351123709 M11.809354466827392 16.648200041234578 C13.446922013745562 15.2530624285029, 14.512733011824347 13.335445230803531, 15.75851539309454 12.31468399673705" stroke="#868e96" stroke-width="0.5" fill="none"></path><path d="M1.4170842370949686 1.0732088112272322 C5.547637470066548 1.0406843817327172, 8.48772048437968 0.8082867509219795, 16.051462178584188 1.1308224373497069 M0.03937178221531212 0.015299315331503749 C5.943123674718663 -0.46576476786285637, 11.136511463904753 0.6417709892615676, 15.635297001572326 0.42156289773993194 M13.527113136975094 0.7782349247951059 C15.324564941735007 4.575288432184607, 14.379318568618036 10.680394431715833, 14.58941021147184 14.220317957224324 M15.101096603483892 0.6341467709979042 C15.047891622437163 3.664574880641885, 14.602084421021862 8.023268538038247, 15.013423992157914 15.589525454654359 M15.24340652441606 16.976340087596327 C9.75129425805062 14.88710884260945, 6.484452739823608 16.888268912909552, -1.195645595435053 14.491462754551321 M15.142656990559772 15.195591310737655 C9.48953567049466 15.503686815593392, 4.540494216838852 15.348485775385052, -0.3716677862685174 16.22428903239779 M-0.6581207331735641 16.154088978888467 C-0.09948837504256516 10.910330827534198, -0.6133293946133925 5.418317184923216, 0.060599433211609766 -1.2047594423871488 M0.09739608040545134 15.75619725154247 C-0.6073364825360477 9.225376923964358, 0.5632878861017526 3.927318909275344, -0.6916165863862261 0.42575855047907674" stroke="#000000" stroke-width="1" fill="none"></path></g><g><g transform="translate(274.5 54) rotate(0 112.33271631775864 -0.8537817309718605)"><path d="M0.5800678228632576 0.30793623527373315 C67.27629715266708 -3.0576724307051273, 133.01550346436258 -2.7168046429015185, 223.45166736255598 -1.1999133175343157 M0.4949357710582945 0.3813664259390837 C50.44391167039839 1.0334120353437812, 100.52789866926314 -0.10036255624167556, 224.170496864459 0.46551688863633967" stroke="#000000" stroke-width="1" fill="none"></path></g></g><g transform="translate(276.5 10) rotate(0 111.75 60.75)"><path d="M-0.7435223931832146 1.5224818530485285 C63.21317402689831 2.2485984660732425, 127.36856265788566 0.318307637089137, 223.66773212335303 1.5946295742627155 M-0.31024725040701573 0.32644720294425134 C83.36275713545818 1.1391351085497732, 166.97964214045237 1.5324996311204966, 224.3364495248327 -0.626792001493237 M223.02283851988614 -1.0618065763264894 C225.56982956816907 31.899799693236137, 225.56531338383908 61.68157922634857, 223.60932658798993 122.80372886173429 M223.65618415828794 -0.8344952827319503 C222.7604964025924 37.38947302023881, 222.86155753812287 75.95904621975498, 224.47429066058248 121.48447697702797 M223.28005131353066 119.79434983928242 C141.83087970166324 121.06511333329792, 57.00909264135104 123.95923560637756, -1.0892221323132945 121.57898710496912 M223.78617514644108 121.27469225731211 C141.14867955776955 120.87864276611171, 59.62789980286327 121.78915672966106, 0.4496626017417377 121.12474147541985 M-0.5266346465796232 120.31897495500745 C-1.0594238603627308 76.84981253012083, 1.0459346806490795 30.85548645472153, -1.2238036524504423 1.7738925646990538 M0.5818063234910369 121.87304123584182 C0.0007380497595295132 88.36705104378052, 1.1257497620722279 53.98187326779589, 0.059655181132256985 -0.38475156482309103" stroke="#000000" stroke-width="1" fill="none"></path></g><g><g transform="translate(289 77.7050108073243) rotate(0 -30.0618057269603 -1.0428212614632741)"><path d="M-1.1890653502196074 -1.3735204506665468 C-16.748634384101948 0.004571125640255969, -30.747929600338647 -1.199513508084375, -58.688261181116104 -2.1144621966212185 M-0.5188616598024964 0.0288196736946702 C-17.900789880946057 -0.9154585680241061, -34.321503192111294 -0.6373008842975136, -59.604749794118106 -1.9363004162713082" stroke="#000000" stroke-width="1" fill="none"></path></g><g transform="translate(289 77.7050108073243) rotate(0 -30.0618057269603 -1.0428212614632741)"><path d="M-32.332945601079324 -12.407448596057696 C-39.68523432461896 -7.989288284284655, -45.55292367842087 -6.40060522300592, -58.556511112488806 -2.4068994883253367 M-31.662741910662213 -11.005108471696479 C-40.151657201657166 -8.978386611960982, -47.639748871414156 -5.6323555494890885, -59.47299972549081 -2.2287377079754265" stroke="#000000" stroke-width="1" fill="none"></path></g><g transform="translate(289 77.7050108073243) rotate(0 -30.0618057269603 -1.0428212614632741)"><path d="M-33.143681802571535 8.01528626891625 C-40.42906001091264 7.129984014006668, -46.08595945635467 3.408793897397765, -58.556511112488806 -2.4068994883253367 M-32.473478112154424 9.417626393277468 C-40.655531510043474 5.608907040793788, -47.912069101914774 3.122008068984557, -59.47299972549081 -2.2287377079754265" stroke="#000000" stroke-width="1" fill="none"></path></g></g><g transform="translate(36.5 58.5) rotate(0 94.75 21.25)"><path d="M-0.5567613374441862 0.5734802316874266 C50.756640035891905 1.5747575901588426, 102.98085569450632 -0.6052517153182997, 188.66691850312054 -1.6769358683377504 M-0.8745077038183808 0.6386289829388261 C62.066562903625886 -1.0802110419934614, 126.03945476198568 -0.8129092739289625, 188.8492460763082 -0.5426505273208022 M189.40424941666424 -1.9764082003384829 C190.35786607845222 12.830170184141028, 189.37201711519157 24.459546343889095, 189.59947352297604 44.1864275764674 M189.34284334536642 -0.10887581761926413 C190.15471076441463 17.019391174661, 189.9876644856995 31.562751588877298, 189.59588541742414 42.9849844807759 M189.10052208788693 43.30170438997448 C118.72534290528856 42.8690922263125, 49.834830547031004 42.302535832212314, -0.21433795802295208 44.192428274080164 M189.30442561861128 41.92903598491103 C141.17658592206425 42.828531701168984, 89.92547714440151 43.32789485534188, -0.1768243396654725 43.0123000079766 M1.643689977005124 41.05888001434506 C0.032721921219490524 31.218167793238543, -0.5923978245118633 22.56976018333808, 0.1828204859048128 0.9276751112192869 M-0.9991908157244325 42.560134165920324 C0.45357890913728627 29.218024051515393, 0.5336887736106292 17.865043003577743, 0.14571031089872122 -0.41758260782808065" stroke="#000000" stroke-width="1" fill="none"></path></g></svg>