<svg version="1.1" xmlns="http://www.w3.org/2000/svg" viewBox="0 0 549 222.75" width="549" height="222.75">
  <!-- svg-source:excalidraw -->
  
  <defs>
    <style>
      @font-face {
        font-family: "Virgil";
        src: url("https://excalidraw.com/FG_Virgil.woff2");
      }
      @font-face {
        font-family: "Cascadia";
        src: url("https://excalidraw.com/Cascadia.woff2");
      }
    </style>
  </defs>
  <g transform="translate(108.49999999999989 10) rotate(0 89 16)"><text x="89" y="23" font-family="Virgil, Segoe UI Emoji" font-size="20px" fill="#000000" text-anchor="middle" style="white-space: pre;" direction="ltr">CoroutineContext</text></g><g transform="translate(168.2499999999999 65) rotate(0 36 16)"><text x="36" y="23" font-family="Virgil, Segoe UI Emoji" font-size="20px" fill="#000000" text-anchor="middle" style="white-space: pre;" direction="ltr">Element</text></g><g><g transform="translate(202.64284299567032 61.5) rotate(0 3.4226182615047946 -7.900516114383933)"><path d="M0.4803506948053837 0.6083889506757258 C1.8358914200306153 -1.9385027306775253, 6.44205731642257 -13.51747410868605, 7.571840442770849 -16.409421179443598 M-0.7266039197612555 -0.11781079555861651 C0.6200541895996994 -2.3974528614214314, 5.947917499614987 -12.47057122752381, 7.223889964826162 -15.086942047430203" stroke="#000000" stroke-width="1" fill="none"></path></g><g transform="translate(202.64284299567032 61.5) rotate(0 3.4226182615047946 -7.900516114383933)"><path d="M6.59372274150702 -5.710396980126096 C6.213134753323773 -8.105743519192544, 6.2435096208568615 -10.523209518663174, 6.772924377487503 -15.774252961421277 M6.4445570615637635 -6.169961441389219 C6.942556163909698 -10.036260490918892, 6.657594172063054 -12.475561936136089, 7.551365530204315 -15.258828454394967" stroke="#000000" stroke-width="1" fill="none"></path></g><g transform="translate(202.64284299567032 61.5) rotate(0 3.4226182615047946 -7.900516114383933)"><path d="M1.3441716970458109 -8.397990365185738 C2.267590845955464 -10.133807887085126, 3.627237820605783 -11.870731323625174, 6.772924377487503 -15.774252961421277 M1.1950060171025543 -8.85755482644886 C3.588269009015197 -11.76594857285091, 5.208599295219624 -13.22980452192457, 7.551365530204315 -15.258828454394967" stroke="#000000" stroke-width="1" fill="none"></path></g></g><g transform="translate(318 64.25) rotate(0 85 16)"><text x="0" y="23" font-family="Virgil, Segoe UI Emoji" font-size="20px" fill="#000000" text-anchor="start" style="white-space: pre;" direction="ltr">CombinedContext</text></g><g><g transform="translate(308.6413998842943 57.423823950194134) rotate(0 -18.82578160358085 -5.180235189673567)"><path d="M1.318206237629056 -0.8667034078389406 C-12.241871696099018 -2.2622504643254393, -22.205886265015412 -7.256125288095823, -38.96976944479076 -8.551227568293143 M0.2997791385278106 0.6387958759441972 C-14.282528090510796 -3.921876572099414, -26.801952031119264 -6.23102805750414, -38.86437382503328 -10.999266255291332" stroke="#000000" stroke-width="1" fill="none"></path></g><g transform="translate(308.6413998842943 57.423823950194134) rotate(0 -18.82578160358085 -5.180235189673567)"><path d="M-17.70838016118255 -12.271847578791817 C-25.684163776914158 -10.368675967938175, -30.057973366206898 -12.029281600621726, -39.542826914676645 -9.051031478761558 M-18.71926249593519 -10.777501412726345 C-26.78084547653995 -11.593549414544112, -32.729138089149615 -10.014488406107635, -39.43821209220466 -11.480934478850033" stroke="#000000" stroke-width="1" fill="none"></path></g><g transform="translate(308.6413998842943 57.423823950194134) rotate(0 -18.82578160358085 -5.180235189673567)"><path d="M-22.08680500471203 0.5823731569994417 C-28.69364114911544 -1.422094259059817, -31.73707300341844 -6.988435328269658, -39.542826914676645 -9.051031478761558 M-23.09768733946467 2.0767193230649137 C-29.519054865408236 -3.3648312770303566, -33.90496706401417 -6.372621346912626, -39.43821209220466 -11.480934478850033" stroke="#000000" stroke-width="1" fill="none"></path></g></g><g transform="translate(10 120.25) rotate(0 135.5 12.5)"><text x="0" y="18" font-family="Virgil, Segoe UI Emoji" font-size="16px" fill="#000000" text-anchor="start" style="white-space: pre;" direction="ltr">AbstractCoroutineContextElement</text></g><g><g transform="translate(148.59524665391422 114.16413652133774) rotate(0 10.014754992200551 -6.875111738129611)"><path d="M-1.2250485587865114 1.681018816307187 C5.353809544947077 -1.5813352599075778, 8.95598428462816 -6.3614853015953265, 21.254558543187613 -15.43124229256641 M0.5584593648090959 -0.6080013001337647 C3.4763058365602433 -2.7049940822932528, 8.93721697159949 -5.698617018772665, 19.133919288848574 -14.808688492333701" stroke="#000000" stroke-width="1" fill="none"></path></g><g transform="translate(148.59524665391422 114.16413652133774) rotate(0 10.014754992200551 -6.875111738129611)"><path d="M12.109944985748436 -2.8980237904104893 C14.761960009228574 -5.275850194323206, 15.539479847071908 -8.560624215500155, 20.069507368938662 -14.819406127282479 M13.227403333449976 -4.332211215839426 C13.748099111462631 -5.9513674507055, 15.856635071898076 -8.084195019446677, 18.740819110325667 -14.429344534754845" stroke="#000000" stroke-width="1" fill="none"></path></g><g transform="translate(148.59524665391422 114.16413652133774) rotate(0 10.014754992200551 -6.875111738129611)"><path d="M6.5946533223316814 -9.4597264598406 C10.527117121923556 -10.213014887572562, 12.636782669702871 -11.912896468892281, 20.069507368938666 -14.819406127282479 M7.712111670033222 -10.893913885269537 C9.38491091762619 -11.063141874656592, 12.675737069228909 -11.789364466387845, 18.740819110325667 -14.429344534754845" stroke="#000000" stroke-width="1" fill="none"></path></g></g><g transform="translate(303 106.75) rotate(0 118 16)"><text x="0" y="23" font-family="Virgil, Segoe UI Emoji" font-size="20px" fill="#000000" text-anchor="start" style="white-space: pre;" direction="ltr">ContinuationInterceptor</text></g><g><g transform="translate(292.7297898658587 105.89754852607223) rotate(0 -19.35707906880822 -6.813380259545184)"><path d="M0.4076294731348753 0.6822976935654879 C-15.704300754822892 -5.45529939033603, -28.851255284248094 -11.814640470898961, -39.12178761075131 -14.309058212655856 M0.18725737277418375 -0.8993588173761964 C-11.032078675270657 -3.1234558029234827, -19.58007125726682 -5.87269748886333, -37.00517224549196 -13.168761778603567" stroke="#000000" stroke-width="1" fill="none"></path></g><g transform="translate(292.7297898658587 105.89754852607223) rotate(0 -19.35707906880822 -6.813380259545184)"><path d="M-16.948069452063187 -11.86920232990147 C-25.981978790118355 -13.23661068481983, -32.17786044588637 -14.694562864568438, -38.9284442002967 -14.579326470217275 M-17.164764910456284 -13.42447081487739 C-23.56426937127152 -12.550460832491792, -27.435780238954894 -12.024172499230842, -36.84714200248655 -13.458054503046563" stroke="#000000" stroke-width="1" fill="none"></path></g><g transform="translate(292.7297898658587 105.89754852607223) rotate(0 -19.35707906880822 -6.813380259545184)"><path d="M-21.950849271124653 0.6185321235624877 C-29.071202372370273 -5.763928631263907, -33.273106184086025 -12.199166784650771, -38.9284442002967 -14.579326470217275 M-22.16754472951775 -0.9367363614134315 C-27.3266218582178 -3.4649220852378955, -29.85517460670686 -6.290870904354388, -36.84714200248655 -13.458054503046563" stroke="#000000" stroke-width="1" fill="none"></path></g></g><g transform="translate(18 183.75) rotate(0 122 12.5)"><text x="0" y="18" font-family="Virgil, Segoe UI Emoji" font-size="16px" fill="#000000" text-anchor="start" style="white-space: pre;" direction="ltr">CoroutineName, CoroutineId ...</text></g><g><g transform="translate(133.9367975390569 175.75) rotate(0 2.6705055152764317 -11.41284267790616)"><path d="M-0.8199369441717863 0.8237678837031126 C1.490064980142324 -6.84810025252382, 2.2154100648435633 -13.566398550085527, 6.295515975868284 -23.649453239515427 M-0.9545049453154206 -0.9082153206691146 C0.8682881565209293 -6.610277753462625, 1.8485450979515536 -12.247314730239644, 4.697175707621454 -21.13254178222269" stroke="#000000" stroke-width="1" fill="none"></path></g><g transform="translate(133.9367975390569 175.75) rotate(0 2.6705055152764317 -11.41284267790616)"><path d="M4.92700566150332 -9.438935235363095 C5.233249637858693 -13.431305268499424, 4.647387342279666 -16.870942473611073, 5.577579036377678 -22.06047663306271 M4.8513015826743 -10.413299065694357 C4.993292176559467 -13.322165898294953, 4.665985697070653 -16.192893572834638, 4.6783988699590555 -20.644534791397287" stroke="#000000" stroke-width="1" fill="none"></path></g><g transform="translate(133.9367975390569 175.75) rotate(0 2.6705055152764317 -11.41284267790616)"><path d="M-2.4533012703475015 -11.622065548879606 C0.042262688805617454 -14.931330803178447, 1.64453204221017 -17.723708134551625, 5.577579036377678 -22.06047663306271 M-2.529005349176521 -12.596429379210868 C-0.46131754718579987 -14.929594713098947, 1.1460036350390632 -17.228050213506233, 4.6783988699590555 -20.644534791397287" stroke="#000000" stroke-width="1" fill="none"></path></g></g><g transform="translate(290 180.75) rotate(0 101 16)"><text x="0" y="23" font-family="Virgil, Segoe UI Emoji" font-size="20px" fill="#000000" text-anchor="start" style="white-space: pre;" direction="ltr">CoroutineDispatcher</text></g><g><g transform="translate(370.4533852485025 171.75) rotate(0 -40.00559791286713 -9.730676597077338)"><path d="M1.4130351413041353 0.6193058919161558 C-18.87267405128296 -4.921425662098922, -33.158821221832625 -9.015739976307694, -81.4242309670384 -20.13721997030067 M-0.858223863877356 0.6758667761459947 C-22.090019292272856 -4.856042516940986, -45.78238973437671 -9.765351838701399, -81.08724933801693 -17.697005475126083" stroke="#000000" stroke-width="1" fill="none"></path></g><g transform="translate(370.4533852485025 171.75) rotate(0 -40.00559791286713 -9.730676597077338)"><path d="M-49.92868011193207 -20.976827948774208 C-59.23507095858153 -21.40885457754587, -62.62886481338626 -20.661740678509947, -82.32388449958069 -19.312889319099362 M-52.19993911711356 -20.92026706454437 C-58.985997682606154 -19.953453919589812, -68.3756033260785 -18.505476894110405, -81.98690287055922 -16.872674823924775" stroke="#000000" stroke-width="1" fill="none"></path></g><g transform="translate(370.4533852485025 171.75) rotate(0 -40.00559791286713 -9.730676597077338)"><path d="M-54.381501701498316 -0.9445444474523441 C-62.804061263567725 -5.678706371676485, -65.23632213674901 -9.257321877314151, -82.32388449958069 -19.312889319099362 M-56.65276070667981 -0.8879835632225053 C-62.30397191060271 -5.588806511400945, -70.43098721352786 -9.820950986216381, -81.98690287055922 -16.872674823924775" stroke="#000000" stroke-width="1" fill="none"></path></g></g><g><g transform="translate(411.97025529091786 172.75) rotate(0 3.0741234130445605 -14.514709242269761)"><path d="M1.5697016585618258 -0.9312395621091127 C1.8074424122115789 -8.822140226303722, 5.04782246779564 -20.371578270323415, 7.086739907457627 -29.029887745388574 M-0.938493081368506 0.0004692608490586281 C2.151858179718407 -7.616526746994079, 3.347946146329031 -15.257348937139325, 6.130248173556424 -27.842374890343077" stroke="#000000" stroke-width="1" fill="none"></path></g><g transform="translate(411.97025529091786 172.75) rotate(0 3.0741234130445605 -14.514709242269761)"><path d="M9.255748518639642 -14.183512914076612 C7.4238247564288 -17.627277201117124, 7.724810298176746 -23.770119839214278, 7.467682862875657 -28.253128314236132 M7.441059262268454 -13.509417731524957 C8.141428387132686 -17.443498179871852, 7.501097480169203 -21.340856654852182, 6.775657141871803 -27.39395785767358" stroke="#000000" stroke-width="1" fill="none"></path></g><g transform="translate(411.97025529091786 172.75) rotate(0 3.0741234130445605 -14.514709242269761)"><path d="M-0.4226087276318169 -16.257680215841123 C1.180413354271732 -19.05537094781392, 4.903252490234471 -24.464876651145627, 7.467682862875657 -28.253128314236132 M-2.2372979840030043 -15.583585033289468 C0.9745785619625482 -18.886948665200276, 2.855631523191812 -22.243949738451434, 6.775657141871803 -27.39395785767358" stroke="#000000" stroke-width="1" fill="none"></path></g></g></svg>