<svg version="1.1" xmlns="http://www.w3.org/2000/svg" viewBox="0 0 238.29950183844903 195.4003725298361" width="238.29950183844903" height="195.4003725298361">
  <!-- svg-source:excalidraw -->
  
  <defs>
    <style>
      @font-face {
        font-family: "Virgil";
        src: url("https://excalidraw.com/FG_Virgil.woff2");
      }
      @font-face {
        font-family: "Cascadia";
        src: url("https://excalidraw.com/Cascadia.woff2");
      }
    </style>
  </defs>
  <g transform="translate(178.29950183844903 114.06582200493561) rotate(0 25 28.500000000000014)"><text class="emoji" x="0" y="41" font-family="Virgil, Segoe UI Emoji" font-size="36px" fill="#000000" text-anchor="start" style="white-space: pre;" direction="ltr">🧐</text></g><g><g transform="translate(81.25 11.61064811496675) rotate(0 0.1256400993797797 14.657897769535609)"><path d="M0.4579028774052858 -0.5702047694474458 C0.40236040583276916 4.40597092952166, -0.6950973351287756 24.89064087847044, -0.9273003444210188 29.886000308518646 M-0.7608368412964046 1.7448337812535466 C-0.4134338939150257 6.339327803715655, 0.8269902216841365 23.109095794556485, 1.1785805431805056 27.9223257217122" stroke="#000000" stroke-width="1" fill="none"></path></g><g transform="translate(81.25 11.61064811496675) rotate(0 0.1256400993797797 14.657897769535609)"><path d="M-5.589803436883062 13.007965529033022 C-2.991195303506759 16.35446719529723, -2.0684834697179495 20.837199319893404, 2.2262050048258493 26.56234903331516 M-4.356443882271473 14.731696802494827 C-3.4622972504971825 17.77274508611461, -1.6967714125210325 22.611428595824137, 0.7042006816751614 27.306853936628897" stroke="#000000" stroke-width="1" fill="none"></path></g><g transform="translate(81.25 11.61064811496675) rotate(0 0.1256400993797797 14.657897769535609)"><path d="M4.501313956016497 12.265504106984018 C4.572314552006013 15.836495807465093, 2.967239753628987 20.505211702191115, 2.2262050048258493 26.56234903331516 M5.7346735106280855 13.989235380445823 C3.6633336613841188 17.28483652136995, 2.458414094532569 22.342072747643762, 0.7042006816751614 27.306853936628897" stroke="#000000" stroke-width="1" fill="none"></path></g></g><g transform="translate(62.916666666666515 78.19398144830014) rotate(0 22.5 10.5)"><path d="M-1.9240433294326067 0.5044449586421251 C11.671146544162186 -0.08847574894316493, 26.77130887564272 1.6302913575898856, 43.1612124722451 -0.11275225691497326 M0.40656688902527094 -0.6096998611465096 C15.683567125815898 -0.9594110799487681, 33.36184395104647 -0.9641589177306742, 44.16783732268959 0.675403549335897 M44.08855059556663 -0.5742014031857252 C43.87558100062422 8.579490906838327, 43.34193638402037 16.170135807804762, 44.795294968411326 19.68342018313706 M44.27687257621437 -0.08387355599552393 C44.181443072194234 6.440150667820126, 44.43610555612482 10.897355700656773, 45.41973576042801 20.06489162053913 M43.08525821380317 22.499238492920995 C36.015924090053886 22.540399114089087, 23.585717697627842 20.27184245963581, -1.4618140179663897 21.775538744404912 M45.798508257605135 21.792102857492864 C31.02788890665397 21.78501635431312, 18.826820069923997 22.195835914602505, -0.36389493849128485 21.427424087189138 M-1.5001436192542315 19.567354978993535 C0.7106115254480392 14.156576123740525, 1.120284322174266 6.7771102109923955, -0.881415756419301 1.180021883919835 M0.23554253671318293 20.87378968205303 C-0.28466383890248836 14.628334697615355, -0.8781554229650647 7.017903783917426, -0.23832210805267096 -0.046477810479700565" stroke="#000000" stroke-width="1" fill="none"></path></g><g transform="translate(69.17753623188446 86.49832927438736) rotate(0 3.152173913043498 2.065217391304344)"><path d="M2.3926483346493406 -0.6818475779626119 C2.9575268580639196 -0.7524562077466773, 3.1631148830178644 0.3482634019735375, 3.7645525433669866 0.7149165320657045 C4.365990203716109 1.0815696621578714, 5.5106185271967165 1.3811317479875795, 6.001274296744075 1.5180712025903904 C6.491930066291434 1.6550106571932013, 6.931446492797811 1.3200451440473335, 6.70848716065114 1.5365532596825695 C6.48552782850447 1.7530613753178055, 5.126927917655145 2.494850644415616, 4.66351830386405 2.817119896401806 C4.200108690072955 3.139389148387996, 4.598945405203845 3.1918126849158424, 3.928029477904574 3.4701687715997096 C3.257113550605303 3.748524858283577, 1.200226427492959 4.496223415083295, 0.6380227400684242 4.48725641650501 C0.07581905264388922 4.478289417926725, 0.7324089402055894 4.0263191769616995, 0.5548073533573645 3.4163667801300006 C0.3772057665091396 2.8064143832983017, -0.6170867239408764 1.4785329785197527, -0.42758678102092507 0.827542035514818 C-0.23808683810097372 0.1765510925098831, 1.1175537953546988 -0.22073138743102488, 1.6918070108770726 -0.4895788778996084 C2.2660602263994463 -0.758426368368192, 2.7946721387667885 -0.9067590808449882, 3.017932512113318 -0.7855429072966833 M3.153501553515475 -0.9738283440002378 C3.8047472695310596 -1.1115083399017573, 3.504434990809197 -1.090567544008998, 4.1632599177590714 -0.8516291709100439 C4.822084844708946 -0.6126907978110898, 6.8573871325055 -0.19778369895740744, 7.106451115214721 0.4598018945934865 C7.355515097923942 1.1173874881443804, 6.220854376001221 2.7124317850242083, 5.657643814014399 3.0938843903953197 C5.094433252027577 3.475336995766431, 3.948330381526953 2.773362989713494, 3.7271877432937903 2.748517526820154 C3.5060451050606276 2.7236720639268137, 5.011612383604555 2.6120749504765914, 4.330787984615423 2.944811613035278 C3.6499635856262906 3.277548275593965, 0.14011101064547898 4.601535013476385, -0.35775865064100243 4.744937502172274 C-0.8556283119274839 4.888339990868163, 1.2036789615018035 4.476425851972127, 1.3435700168965345 3.805226545210613 C1.4834610722912656 3.1340272384490984, 0.5326954153240672 1.2365266108079749, 0.4815876817273832 0.7177416616031871 C0.4304799481306993 0.1989567123983994, 0.7544031786699199 0.8591134044793617, 1.036923615316431 0.6925168499818868 C1.319444051962942 0.5259202954844119, 1.779798770922422 -0.41709496339276764, 2.17671030160645 -0.2818376653816621" stroke="#000000" stroke-width="1" fill="none"></path></g><g transform="translate(81.46014492753648 86.60702492656135) rotate(0 3.152173913043498 2.065217391304344)"><path d="M1.9947793210597407 -0.05048100834559621 C2.7799984271586617 -0.16709324473193404, 4.836695742229601 0.4090207265832442, 5.658152580822478 0.744204910424922 C6.479609419415356 1.0793890942665998, 6.969288313503439 1.728351510313831, 6.923520352617003 1.9606240947044706 C6.877752391730567 2.19289667909511, 5.901764409073671 1.748322684866555, 5.3835448155038605 2.1378404167687597 C4.86532522193405 2.5273581486709644, 4.434894281406828 4.1171178228491385, 3.8142027911981415 4.2977304861176995 C3.1935113009894542 4.47834314938626, 2.09101175163829 3.332029939575115, 1.6593958742517378 3.221516396380128 C1.227779996865186 3.1110028531851412, 1.37825393895506 3.971749954366525, 1.2245075268788295 3.634649226947777 C1.0707611148025988 3.297548499529029, 0.8587127649318855 1.754551037533864, 0.7369174017943538 1.1989120318676403 C0.6151220386568221 0.6432730262014166, 0.21694280513876113 0.38126873761134145, 0.4937353480536393 0.3008151929504348 C0.7705278909685174 0.22036164828952814, 2.1045638837249743 0.6035863093032982, 2.397672659283623 0.7161907639022003 C2.6907814348422714 0.8287952185011024, 2.1611767447812937 1.1708899722614248, 2.252388001405531 0.9764419205438477 M1.5774711986472085 -0.10070442576941652 C2.2281893843734957 -0.16320865915012128, 3.1297976567437154 1.3382340765584786, 3.787718082904467 1.489600634903308 C4.445638509065219 1.6409671932481373, 5.035703381061184 0.821665034054136, 5.524993755611719 0.80749492429956 C6.014284130162254 0.793324814544984, 7.018833012535796 0.6868464152845374, 6.723460330207677 1.4045799763758517 C6.4280876478795586 2.122313537467166, 4.646264406744784 4.90531935153046, 3.7527576616430047 5.113896290847446 C2.8592509165412254 5.322473230164432, 1.6837242057158464 2.730145567064756, 1.3624198595970007 2.6560416122777646 C1.0411155134781551 2.5819376574907733, 1.8149167745643118 4.769536115740242, 1.8249315849299306 4.669272562125499 C1.8349463952955494 4.569009008510757, 1.6440287994055858 2.8972719381277203, 1.422508721790713 2.054460290589311 C1.2009886441758404 1.2116486430509017, 0.19225984076759084 -0.05321298889908105, 0.495811119240694 -0.38759732310495787 C0.7993623977137971 -0.7219816573108346, 2.953089076361511 -0.2246332401783807, 3.243816392629332 0.048154285354049975 C3.5345437088971527 0.32094181088648066, 2.1293234358516506 1.0209416538534324, 2.240175016847618 1.2491278300896262" stroke="#000000" stroke-width="1" fill="none"></path></g><g transform="translate(95.80797101449298 87.4765901439526) rotate(0 3.152173913043498 2.065217391304344)"><path d="M2.745225019275487 0.6807153490067015 C3.319811525558531 0.8805331560005205, 4.614367698888801 1.0305604063951552, 5.253978785116688 1.0625953366609495 C5.893589871344576 1.0946302669267438, 6.588822974864232 0.6740477909193879, 6.582891536642811 0.8729249306014671 C6.57696009842139 1.0718020702835465, 5.498249061973277 1.8556966207415786, 5.218390155788158 2.255858174753425 C4.938531249603039 2.6560197287652714, 5.510465921572392 2.858569261778523, 4.9037380995321 3.2738942546725456 C4.2970102774918075 3.689219247566568, 2.225435735880961 4.624818893756754, 1.578023223546404 4.7478081321175605 C0.930610711211847 4.870797370478367, 1.3916002112860024 4.556582303795074, 1.019263025524758 4.011829684837385 C0.6469258397635134 3.4670770658796948, -0.5832744682774835 2.147487997458897, -0.6559998910210632 1.4792924183714222 C-0.7287253137646428 0.8110968392839472, -0.15478708156738052 0.39984086888865544, 0.5829104890632801 0.0026562103125349346 C1.320608059693941 -0.3945284482635856, 3.1603666021107406 -0.8936203701752518, 3.7701855327629006 -0.9038155330853006 C4.380004463415061 -0.9140106959953495, 4.469056095479175 -0.19168866790893727, 4.241824072976239 -0.058514767147758384 M1.8673723226879964 -0.8459686265565032 C2.478144599238807 -0.9457100331269346, 4.778297926302837 -0.9126587504243693, 5.342145638592016 -0.5027444247059838 C5.905993350881195 -0.09283009898759825, 5.329541323954331 1.2892249366538395, 5.250458596423067 1.61351732775381 C5.171375868891802 1.9378097188537804, 4.661848766529742 1.3077586459744657, 4.867649273404432 1.4430099218938386 C5.073449780279121 1.5782611978132115, 6.9960990234406735 1.789845672182322, 6.4852616376712025 2.425024983270048 C5.974424251901731 3.0602042943577743, 2.4670025514233127 4.807411018001306, 1.8026249587876069 5.254085788420197 C1.138247366151901 5.700760558839087, 2.784196990772518 5.614075468742106, 2.4989960818569683 5.105073605783388 C2.2137951729414187 4.59607174282467, 0.6272979816906114 2.7736309405692063, 0.0914195052943092 2.2000746106678872 C-0.44445897110199295 1.6265182807665681, -1.0370766979403703 2.078268725771035, -0.7162747765208448 1.6637356263754732 C-0.3954728551013193 1.2492025269799116, 1.3635882087225426 -0.23997421902852942, 2.0162310338114624 -0.28712398570548214 C2.6688738589003824 -0.3342737523824349, 2.986081334888451 1.3776046948279403, 3.199582174012674 1.3808370263137568" stroke="#000000" stroke-width="1" fill="none"></path></g><g><g transform="translate(83.31128703768445 51.38678123988514) rotate(0 -0.3751288437213134 11.083484584395805)"><path d="M-0.18138152249157424 -0.2674721907824278 C-0.06757804107300747 3.7033114519979295, 0.9439313152615074 18.523179423941045, 0.9854878636966757 22.662261025095425 M-1.7357455511391164 -1.453499036282301 C-1.7320823289864493 2.726829582255655, 0.31654739582874836 19.6040044852176, 0.48362873931930617 23.620468205073916" stroke="#000000" stroke-width="1" fill="none"></path></g><g transform="translate(83.31128703768445 51.38678123988514) rotate(0 -0.3751288437213134 11.083484584395805)"><path d="M-4.790984727288075 13.68675510740978 C-4.093731499369758 16.290114440137415, -0.578270635508302 20.28539967818405, 1.3359348443391623 24.103590021978533 M-4.31774472088536 12.46408127143336 C-3.9116411690267183 15.853970418957656, -1.979263233122114 18.456976964895034, 0.09014208307574323 23.349700279688882" stroke="#000000" stroke-width="1" fill="none"></path></g><g transform="translate(83.31128703768445 51.38678123988514) rotate(0 -0.3751288437213134 11.083484584395805)"><path d="M3.3073051963850277 12.987491813948328 C1.364040602550875 15.806026458905786, 2.2457574130294384 20.02872767714836, 1.3359348443391623 24.103590021978533 M3.780545202787743 11.764817977971907 C2.2451664756296665 15.270294416462848, 2.2418100586311067 18.04044587714583, 0.09014208307574323 23.349700279688882" stroke="#000000" stroke-width="1" fill="none"></path></g></g><g><g transform="translate(83.63643717338073 107.6523147816334) rotate(0 0.23861284327222165 12.60109543855151)"><path d="M-0.2674721907824278 0.8498787414282558 C-0.3061049511060825 4.788412570422011, -1.5239025915790154 19.60053894999185, -1.3942373935286467 23.44982145147096 M1.7929661797173324 0.25046113533899206 C2.211489358138223 4.403314102263618, 1.0097268125225054 21.35550433450127, 0.7384990716013546 24.95172974176403" stroke="#000000" stroke-width="1" fill="none"></path></g><g transform="translate(83.63643717338073 107.6523147816334) rotate(0 0.23861284327222165 12.60109543855151)"><path d="M-1.6748617392019223 12.567851691377033 C-1.9316939322835163 16.737608401467558, -0.7864680268276805 19.09155675039502, 1.2166069480246688 24.234744877189314 M-2.8848464072974327 13.159728800153395 C-1.4755238817033591 16.337346193842865, -0.7413955701052173 18.17170130606792, 0.4705412330611344 24.782919749529672" stroke="#000000" stroke-width="1" fill="none"></path></g><g transform="translate(83.63643717338073 107.6523147816334) rotate(0 0.23861284327222165 12.60109543855151)"><path d="M6.3498469409002505 13.125554631938193 C4.463799204803407 17.164138628935248, 3.978966592173518 19.404800818194715, 1.2166069480246686 24.234744877189314 M5.13986227280474 13.717431740714556 C4.804951770187098 16.801725137591102, 3.791296447376307 18.514612404535807, 0.47054123306113443 24.782919749529672" stroke="#000000" stroke-width="1" fill="none"></path></g></g><g><g transform="translate(84.88643717338073 141.65231478163338) rotate(0 0.5039109925668299 21.322392615774888)"><path d="M0.8498787414282558 -1.1032725166529416 C1.0752582674760027 6.23264913984458, 1.0347674352618088 36.262966551299904, 1.1708956337949075 43.7480577482027 M-0.16307364866137508 0.9319054667651652 C-0.08576402169581195 7.955728527166649, -0.02746283740381092 35.21547470916412, 0.1873332092394866 42.04626203348162" stroke="#000000" stroke-width="1" fill="none"></path></g><g transform="translate(84.88643717338073 141.65231478163338) rotate(0 0.5039109925668299 21.322392615774888)"><path d="M-9.295648944225846 21.857358749559726 C-3.988087977198708 28.348865664896497, -1.7116777001698065 34.16788960665674, -1.0320665130535327 40.40226722714724 M-8.28902409378135 22.645514555810596 C-5.175129322663794 27.485337263016774, -4.435537692449676 31.052817070798632, -0.09976749235337601 41.40829544441076" stroke="#000000" stroke-width="1" fill="none"></path></g><g transform="translate(84.88643717338073 141.65231478163338) rotate(0 0.5039109925668299 21.322392615774888)"><path d="M5.39745399669489 21.640692251671535 C6.518689261051117 28.297985473395652, 4.609256770932933 34.17873442291737, -1.0320665130535327 40.40226722714724 M6.4040788471393855 22.428848057922405 C6.046236494084694 27.225635686765738, 3.3133311184501544 30.844321408520273, -0.09976749235337601 41.40829544441076" stroke="#000000" stroke-width="1" fill="none"></path></g></g><g transform="translate(116.33333333333348 78.61064811496676) rotate(0 22.5 10.5)"><path d="M-0.11275225691497326 1.3358064573258162 C13.21048085903749 1.8482285120058806, 25.807092347182337 -0.8056725285481661, 43.356005193665624 -1.2732965666800737 M0.675403549335897 0.40472999308258295 C15.799713108222933 -0.2877972210291773, 29.700709335505966 0.0873725031968206, 44.36203341092914 0.7147789606824517 M43.68342018313706 -0.6243397910147905 C43.69032625791617 5.760233215149492, 43.75012348529883 8.632139519043267, 43.67915708012879 22.59141489677131 M44.06489162053913 -0.616584955714643 C45.74538124344312 4.657763883378357, 43.960407651877034 11.645431547239424, 45.870645894668996 21.947981567122042 M45.77553874440491 21.030731169506907 C30.842263801489025 22.24871810222976, 19.432977582328018 22.25529756094329, -0.8059319239109755 21.860100893303752 M45.42742408718914 21.18811270687729 C27.545477176550776 20.848951591411605, 8.56393519602716 20.11992476717569, 0.3960954984650016 20.925806404091418 M1.180021883919835 21.83635869435966 C-0.04201884073205292 12.054033385310323, 0.5585307975392788 5.623665397427976, -0.5965152364224195 1.6130226533859968 M-0.046477810479700565 21.46961033437401 C0.48185658902861184 16.082034682203084, 0.3034904345963151 11.742067405581473, -0.6923855999484658 -0.14529511239379644" stroke="#000000" stroke-width="1" fill="none"></path></g><g transform="translate(122.59420289855143 86.9149959410541) rotate(0 3.152173913043498 2.065217391304344)"><path d="M3.101767355664363 -0.7892291087135419 C3.5147009208172295 -0.7498995487568423, 4.511138440776748 0.7561550002815003, 4.937998620625631 1.0945248895787336 C5.364858800474514 1.432894778875967, 5.446848298346223 0.7894922602358057, 5.662928434757659 1.2409902270698576 C5.879008571169095 1.6924881939039096, 6.443449656827525 3.437319055577163, 6.234479439094248 3.8035126905830454 C6.025509221360972 4.169706325588928, 5.263206284196443 3.4782930763758304, 4.409107128357997 3.4381520371051533 C3.5550079725195514 3.398010997834476, 1.9200670182081734 3.555878437369612, 1.109884504063576 3.562666454958982 C0.2997019899189788 3.5694544725483524, -0.14858635563159966 3.691565446314616, -0.45198795650958656 3.4788801426413754 C-0.7553895573875735 3.2661948389681346, -1.033229004151992 2.930627622601523, -0.7105251012043454 2.286554632919536 C-0.38782119825669875 1.642481643237549, 0.6961399593608707 0.09609798877866732, 1.4842354611762936 -0.38555779545054736 C2.2723309629917163 -0.867213579679762, 3.3412544179672135 -0.6105922731591551, 4.0180479096881925 -0.6033800724557523 C4.694841401409172 -0.5961678717523495, 5.526581086452725 -0.38964487792507463, 5.544996411502169 -0.34228459123013044 M5.003057693158059 -1.2413580855838158 C5.557452732347974 -0.7980128899021706, 5.024474357857104 1.9744819146940336, 5.0307743534220855 2.3624654355571706 C5.037074348987067 2.7504489564203074, 4.84888529613531 0.6442719293141703, 5.040857666547949 1.0865430395950062 C5.232830036960588 1.528814149875842, 6.286014953236464 4.50462973408226, 6.182608575897918 5.016092097242186 C6.079202198559372 5.527554460402112, 5.328987537808493 4.577285452646604, 4.420419402516677 4.15531721855456 C3.5118512672248605 3.733348984462517, 1.3668459914479716 2.7856234270828493, 0.7311997641470196 2.4842826926899275 C0.0955535368460676 2.1829419582970058, 0.7166361075270608 2.4063477473363513, 0.6065420387109648 2.34727281219703 C0.4964479698948689 2.2881978770577085, -0.3978690013260074 2.3076179047626724, 0.07063535125044407 2.129833081853998 C0.5391397038268955 1.9520482589453232, 2.8011731944476126 1.5011393627897638, 3.4175681541696736 1.2805638747449817 C4.033963113891734 1.0599883867001996, 3.3724841438137196 0.7763595073472492, 3.7690051095828094 0.806380153585305 C4.165526075351899 0.8364007998233608, 5.80728086190937 1.4296124602440534, 5.7966939487842115 1.4606877521733164" stroke="#000000" stroke-width="1" fill="none"></path></g><g transform="translate(134.87681159420345 87.02369159322798) rotate(0 3.152173913043498 2.065217391304344)"><path d="M3.436549681939368 -0.5052595663783939 C4.042169736666406 -0.3876863750019403, 5.917297678550139 -0.19563100435799619, 6.247693101472155 0.4083569177457147 C6.578088524394171 1.0123448398494257, 5.533553288316156 2.4564975392839448, 5.418922219471465 3.118667966243872 C5.304291150626774 3.780838393203799, 6.053098590762925 4.288721520951371, 5.559906688404012 4.381379479505277 C5.0667147860450985 4.474037438059184, 3.250437839700158 3.905422823477871, 2.4597708053179863 3.6746157175673084 C1.6691037709358145 3.443808611656746, 1.0996034630998177 3.359040935397297, 0.8159044821109802 2.996536844041902 C0.5322055011221427 2.634032752686507, 0.6647881300650006 1.8468129435307474, 0.7575769193849613 1.4995911694349378 C0.850365708704922 1.152369395339128, 1.2582097462260198 1.1955189896420504, 1.3726372180307442 0.9132061994670446 C1.4870646898354687 0.6308934092920389, 0.983803078154718 -0.21231022231502628, 1.4441417502133083 -0.19428557161509663 C1.9044804222718985 -0.17626092091516699, 3.598507566214984 0.8919423960405075, 4.134669250382285 1.0213541036666225 C4.670830934549587 1.1507658112927375, 4.674603115207153 0.5341907870891135, 4.661111855217117 0.582184674141593 M1.1143779521811126 -0.8825207533836377 C2.0395160418553497 -1.295518309528188, 5.302981937342565 -1.4889253508912792, 5.89165988360478 -0.9370752030155034 C6.480337829866995 -0.3852250551397276, 4.386791630294303 1.5826929365798268, 4.646445629754403 2.428580133871017 C4.906099629214504 3.2744673311622075, 7.418601588529872 3.952291758019273, 7.449583880365386 4.13824798073164 C7.480566172200901 4.3242042034440065, 5.807828681373749 3.4523486674609636, 4.832339380767491 3.5443174701452187 C3.8568500801612315 3.636286272829474, 2.265552214101354 4.779908322757417, 1.5966480767278328 4.690060796837171 C0.9277439393543115 4.6002132709169254, 0.8876082298458485 3.233323488677026, 0.8189145565263631 3.0052323146237416 C0.7502208832068777 2.7771411405704574, 1.0094442186044577 3.7926116002437493, 1.1844860368109207 3.321513752517466 C1.3595278550173837 2.850415904791183, 1.5395604400085898 0.4838938238112957, 1.8691654657651418 0.17864522826604268 C2.1987704915216937 -0.12660336727921034, 2.8418024023748014 1.5969678028446685, 3.1621161913502327 1.490022179245948 C3.482429980325664 1.3830765556472275, 3.7811192329555627 -0.30249345205459954, 3.7910481996177294 -0.4630285133262799" stroke="#000000" stroke-width="1" fill="none"></path></g><g transform="translate(149.22463768115995 87.89325681061923) rotate(0 3.152173913043498 2.065217391304344)"><path d="M3.1519061950380607 0.39323983345146685 C3.78315987704395 0.4505887680877107, 4.3449737549064675 -0.40442695468656736, 4.98273083635368 -0.04841438071986803 C5.620487917800892 0.3075981932468313, 6.770715200087285 2.058684055622232, 6.978448683721335 2.529315277251663 C7.186182167355385 2.9999464988810938, 6.866480729313102 2.560020929688589, 6.2291317381579825 2.7753729490567163 C5.591782747002863 2.9907249684248436, 4.049160433900974 3.5276388868431496, 3.15435473679062 3.821427393460427 C2.2595490396802664 4.115215900077704, 1.5100995591970896 4.5665720914879095, 0.8602975554958596 4.538103988760379 C0.21049555179462964 4.509635886032848, -0.6210681639763214 4.2994551295823475, -0.7444572854167597 3.6506187770952403 C-0.867846406857198 3.0017824246081326, -0.22795381482805438 1.337736365988762, 0.11996282685322956 0.6450858738377332 C0.4678794685345135 -0.047564618313295504, 0.49575600219257565 -0.31152959959084103, 1.343042564670944 -0.5052841758109317 C2.1903291271493126 -0.6990387520310223, 4.585678361448752 -0.5771226180136229, 5.20368220172344 -0.5174415834828108 C5.821686041998128 -0.4577605489519987, 5.054661245538553 -0.23108490243951946, 5.051065606319072 -0.14719796862605916 M1.6141439892868856 1.28085160131999 C1.9332136614705084 1.167652153723047, 2.551238820853843 -1.4047140033282286, 3.484734917820255 -1.1808896978593095 C4.418231014786667 -0.9570653923903905, 6.536169340058996 1.967392169481338, 7.215120571085357 2.6237974341335044 C7.894071802111719 3.2802026987856707, 8.009892768984432 2.7389979108184703, 7.558442303978424 2.757541890053689 C7.106991838972416 2.776085869288908, 5.224076714367295 2.506441079139198, 4.50641778104931 2.735061309544817 C3.7887588477313243 2.9636815399504357, 3.9453511985914136 3.8169031166461975, 3.2524887040705113 4.129263272487403 C2.559626209549609 4.441623428328609, 0.6915787836031342 4.747896457449216, 0.34924281392389567 4.6092222445920505 C0.0069068442446570955 4.470548031734885, 1.2415889468097583 3.8293076433758144, 1.1984728859950797 3.297217995344408 C1.1553568251804012 2.7651283473130017, -0.37415589028440693 1.749428594955953, 0.09054644903582476 1.4166843564036133 C0.5552487883560564 1.0839401178512738, 3.6675376526015047 1.4166834432383217, 3.98668692191647 1.3007525640303705 C4.305836191231435 1.1848216848224193, 2.189472263212819 0.8004353338322137, 2.005442064925616 0.7210990811559062" stroke="#000000" stroke-width="1" fill="none"></path></g><g transform="translate(10 79.44398144830014) rotate(0 22.5 10.5)"><path d="M0.8131337780505419 -1.2193997222930193 C14.86156972264871 -1.596059363288805, 33.71255884412676 -1.6055550388526172, 43.335674645379186 1.350807098671794 M-0.4557247022166848 -0.2871007015928626 C14.683318379800767 1.012800652300939, 29.737781040370464 1.2331566100474447, 44.89764748420566 -0.6582899084314704 M43.553745152428746 -0.16774711199104786 C43.52102161225863 7.235858116205782, 44.030346580119804 10.505824962444605, 45.83947152085602 19.129783241078258 M44.042629106901586 0.7496192464604974 C46.04444246134721 5.953153160121293, 45.19202311477624 9.824046425893904, 44.269092991016805 21.387769372202456 M46.59701651521027 22.58420571498573 C30.624922944698483 22.215066800964998, 19.791930402629077 23.036705921543764, -0.7277898769825697 21.854848174378276 M44.249928190372884 20.283677489496768 C31.04958831751719 20.931523345271124, 16.907917534932494 20.589308731118216, -0.4407078782096505 21.590010941959918 M0.47108507342636585 20.74757936410606 C-0.5829214571136981 15.434846024308353, -1.7699046252388508 7.392160825990139, -0.4766442161053419 -0.09295562095940113 M0.38208441343158484 20.596720756031573 C-0.8100802191998809 13.568523185420782, 0.3419350198004395 7.209943267703057, 0.7253676792606711 0.22324559185653925" stroke="#000000" stroke-width="1" fill="none"></path></g><g transform="translate(16.260869565217945 87.74832927438736) rotate(0 3.152173913043498 2.065217391304344)"><path d="M1.2514053231365223 -0.6601760687410143 C2.042191930442954 -0.8432950604230848, 3.8453942524593376 0.3356478067661056, 4.720284991015717 0.48928048582096073 C5.595175729572096 0.6429131648758158, 6.316020357377878 0.008138546982453587, 6.500749754474798 0.2616200055881166 C6.685479151571718 0.5151014641937797, 6.131127163372557 1.340964498168772, 5.8286613735972335 2.0101692374549387 C5.52619558382191 2.6793739767411053, 5.250318018872909 3.7682749454848548, 4.685955015822861 4.276848441305116 C4.121592012772814 4.785421937125378, 3.0273122407234654 5.263067332949966, 2.4424833552969507 5.061610212376507 C1.857654469870436 4.860153091803049, 1.6214707963050057 3.6123730594146135, 1.1769817032637742 3.0681057178643676 C0.7324926102225426 2.5238383763141217, -0.19664438093376527 2.2369972785902816, -0.22445120295043797 1.7960061630750332 C-0.25225802496711064 1.355015047559785, 0.6300529279304914 0.8133341900969928, 1.010140771163738 0.42215902477287826 C1.3902286143969846 0.03098385944876375, 1.6902466177760849 -0.42983853382682896, 2.0560758564490422 -0.5510448288696539 C2.4219050951219994 -0.6722511239124789, 3.2395219918942737 -0.5177022948819807, 3.2051162032014817 -0.3050787454840713 M0.5462620933036646 -1.214403360576873 C1.4424343499149122 -1.4166443810812561, 3.904950763843426 1.0155977784045187, 4.996999942468919 1.3606257019023138 C6.089049121094411 1.705653625400109, 6.928064905571832 0.901778372604337, 7.09855716505662 0.8557641804098981 C7.269049424541409 0.8097499882154592, 6.197838844225864 0.6434518341389135, 6.019953499377653 1.0845405487356805 C5.842068154529442 1.5256292633324475, 6.5190691989997305 2.799857537414555, 6.0312450959673525 3.502296467990501 C5.5434209929349745 4.204735398566447, 3.6609813984807227 5.052681473711256, 3.0930088811833847 5.299174132191357 C2.5250363638860467 5.545666790671459, 3.2172596914213196 5.313310958714383, 2.623409992183326 4.981252418871108 C2.029560292945332 4.649193879027833, -0.3166553144771549 3.718268565264415, -0.4700893142445781 3.3068228931317063 C-0.6235233140120013 2.8953772209989976, 1.426852260190791 2.9199173499543964, 1.7028059935787865 2.5125783860748547 C1.978759726966782 2.105239422195313, 1.129090997926406 1.1413463778834514, 1.1856330860833957 0.8627891098544551 C1.2421751742403853 0.5842318418254588, 1.9242304024776788 1.104882678567714, 2.042058522520724 0.8412347779008771" stroke="#000000" stroke-width="1" fill="none"></path></g><g transform="translate(28.54347826086996 87.85702492656135) rotate(0 3.152173913043498 2.065217391304344)"><path d="M1.333458547592456 0.7791574815762661 C1.939254141546897 0.8496967551147562, 4.069969415747239 0.8931403711765172, 4.725546377418057 0.8686717443464747 C5.381123339088876 0.8442031175164321, 5.062666820037191 0.4690882566694565, 5.266920317617368 0.6323457205960107 C5.471173815197544 0.7956031845225648, 5.859228518208217 1.489852085969659, 5.951067362899117 1.8482165279057998 C6.0429062075900175 2.2065809698419407, 6.144727799319265 2.419384047851165, 5.817953385762769 2.7825323722128568 C5.491178972206274 3.1456806965745487, 4.894339355636579 3.9419376645799935, 3.990420881560148 4.027106474075953 C3.0865024074837164 4.112275283571912, 1.1795952061912476 3.4578462750081544, 0.39444254130418077 3.2935452291886116 C-0.39071012358288615 3.1292441833690687, -0.612907619007799 3.4411828698177094, -0.7204951077622543 3.0413001991586945 C-0.8280825965167097 2.6414175284996797, -0.6460935994074606 1.2560022622065228, -0.25108239122255105 0.8942492052345232 C0.14392881696235849 0.5324961482625237, 1.2636494677149361 1.0698720606883072, 1.6495721413472029 0.8707818573266974 C2.0354948149794696 0.6716916539650877, 1.8703911086477676 -0.04499176000010269, 2.064453650571049 -0.3002920149351356 M0.7596469436304568 1.2217975177379259 C1.3695686742849054 1.5036492665824084, 4.787476466777973 1.642737172657642, 5.656094002381597 1.5769252532819895 C6.524711537985221 1.511113333906337, 6.058166695841321 0.5750638344321513, 5.971352157252204 0.826926001484011 C5.884537618663086 1.0787881685358707, 5.280217425621897 2.6812067928945718, 5.135206770846889 3.088098255593148 C4.99019611607188 3.4949897182917242, 5.256005281677099 2.895211032272376, 5.101288228602152 3.2682747776754675 C4.946571175527205 3.641338523078559, 4.687551580869226 5.373294793350416, 4.206904452397206 5.326480728011697 C3.7262573239251857 5.2796666626729785, 2.806350800293193 3.2437534330377944, 2.2174054577700315 2.987390385643157 C1.6284601152468698 2.7310273382485195, 0.7511116978458803 4.217080794095864, 0.6732323972582357 3.7883024436438717 C0.5953530966705911 3.3595240931918795, 1.389528484776906 0.98284773881133, 1.750129654244164 0.4147202829312042 C2.110730823711422 -0.1534071729489216, 2.6622704886926707 0.4226940732664261, 2.836839414061784 0.37953770836311684 C3.011408339430897 0.3363813434598076, 3.0759760035001493 0.34909341880219336, 2.797543206458843 0.15578209351134853" stroke="#000000" stroke-width="1" fill="none"></path></g><g transform="translate(42.89130434782646 88.7265901439526) rotate(0 3.152173913043498 2.065217391304344)"><path d="M4.377506081202572 0.43640166794290547 C5.24345930761885 0.5120923941581378, 6.044859123325509 -0.14714727416976126, 6.290045118523514 0.07675569872823562 C6.535231113721519 0.3006586716262325, 6.075756041158647 1.1078127078472848, 5.8486220523906 1.7798195053308867 C5.621488063622553 2.4518263028144887, 5.436645771962825 3.566351499879037, 4.9272411859152285 4.108796483629847 C4.417836599867632 4.6512414673806575, 3.3681540426441257 5.186854456387905, 2.7921945361050216 5.034489407835748 C2.2162350295659174 4.8821243592835915, 1.957342979903051 3.6975316038514725, 1.471484146680604 3.1946061923169076 C0.9856253134581567 2.6916807807823426, -0.022900143167386464 2.443680614652256, -0.12295846322966186 2.0169369386283575 C-0.22301678329193725 1.5901932626044595, 0.6015636880932173 1.0343978915606948, 0.8711342263069515 0.6341441361735185 C1.1407047645206858 0.23389038078634217, 0.8605345677903525 -0.22054366591332178, 1.4944647660527435 -0.38458559369470047 C2.1283949643151345 -0.5486275214760792, 4.3164648176414575 -0.5051295708545211, 4.674715415881297 -0.35010743051475357 C5.032966014121137 -0.19508529017498602, 3.9445515610404063 0.547192147531941, 3.6439683554917828 0.5455472483439048 M5.544069016172751 1.4802753647203157 C6.582251703174492 1.8690619394174388, 7.335076258724574 1.1814751059750066, 7.400248478332058 1.1778120094627136 C7.465420697939542 1.1741489129504206, 6.235218037714146 1.0291193846118498, 5.935102333817653 1.4582967856465578 C5.63498662992116 1.8874741866812659, 6.169326092766921 3.111037771906088, 5.599554254953102 3.7528764156709618 C5.029782417139282 4.3947150594358355, 3.087764678894813 5.143769702119718, 2.5164713069347346 5.309328648235802 C1.9451779349746559 5.474887594351886, 2.688783832170778 5.14168598663456, 2.171794023192629 4.746230092367466 C1.6548042142144799 4.350774198100373, -0.5531105854940546 3.3642356245315557, -0.5854675469341597 2.9365932826332437 C-0.6178245083742648 2.5089509407349317, 1.5930576266239562 2.5491323881752654, 1.9776522545519981 2.1803760409775945 C2.36224688248004 1.8116196937799238, 1.2680740619264343 0.9612817007264387, 1.7221002206340916 0.7240551994472193 C2.1761263793417487 0.4868286981679999, 4.253268028168247 1.0298567289354985, 4.701809206797941 0.7570170333022783 C5.150350385427636 0.48417733766905807, 4.660580533981365 -0.9464036116805683, 4.41334729241226 -0.9129829743521021" stroke="#000000" stroke-width="1" fill="none"></path></g><g><g transform="translate(82.91666666666652 45.360648114966764) rotate(0 27.523253159597516 14.207606817015133)"><path d="M-0.7639779400080442 0.4208578716963529 C4.715793919107973 1.1827137057565948, 22.717914288118443 -1.148287121661851, 32.1469913213203 3.584738120560826 C41.57606835452216 8.317763362783502, 51.857350261550806 24.826697541400772, 55.81048425920308 28.819009325032415 M1.0357949121482672 -0.4037956910021603 C6.964217375154704 0.5613605374739371, 25.38245042042803 0.07535559435476902, 34.45486630138627 4.5979008850765535 C43.52728218234451 9.120446175798339, 51.78489509983402 22.793586310278606, 55.470290197897704 26.731476053328546" stroke="#000000" stroke-width="1" fill="none"></path></g></g><g><g transform="translate(137.3611111111113 73.55509255941122) rotate(0 -0.9833131149824794 -4.28515109862721)"><path d="M0.4208578716963529 -0.7696753453463316 C0.18734333538624237 -1.9424501639963352, -2.16680564018028 -6.638020108819585, -2.387484101661289 -7.800626851908066" stroke="#000000" stroke-width="1.5" fill="none" stroke-dasharray="12 8"></path></g></g><g><g transform="translate(138.25 72.72175922607785) rotate(0 -3.7869197441119695 -0.8396346975717961)"><path d="M-0.7696753453463316 -0.9985952127724885 C-1.9887464602926306 -1.219273674253507, -6.869501590301063 -0.7057098660065908, -8.078404629685839 -0.9032128971897577 M1.0271063690073787 1.0915383551828564 C-0.21222059232010748 0.47089922740297163, -7.040719905272836 -2.3749918685487588, -8.600945857231427 -2.7708077503264463" stroke="#000000" stroke-width="1" fill="none"></path></g></g><g><g transform="translate(92.07975971280894 104.78876829527583) rotate(124.72901861415266 23.65741744534057 12.347984191218785)"><path d="M-0.9985952127724885 0.8104842592030763 C3.663540609156054 1.7307166357454664, 20.5878471396211 0.9742656967361243, 28.393672803267606 4.751718913908009 C36.199498466914115 8.529172131079894, 42.854210496621526 20.391071164884156, 45.83635876910655 23.475203562234384 M0.6780035711824892 0.19038454994559295 C5.187789689799111 0.8480883567896493, 19.761369479903895 -0.9688465123306238, 27.700607235282426 3.0836867014271063 C35.63984499066096 7.136219915184837, 45.204766635598936 21.02645574336547, 48.31343010345368 24.505583832491975" stroke="#000000" stroke-width="1" fill="none"></path></g></g><g><g transform="translate(95.77442794754006 135.8954718693684) rotate(124.72901861415266 0.24936347917707735 -3.8049373446992547)"><path d="M0.8104842592030763 0.4856759916990996 C0.8868039332859556 -0.6971499196884241, 0.11072711747529168 -6.740380180476709, -0.3117573008490555 -8.095550681097631" stroke="#000000" stroke-width="1.5" fill="none" stroke-dasharray="12 8"></path></g></g><g><g transform="translate(99.22448026782695 127.68327035742375) rotate(124.72901861415266 -3.9226926055075637 -0.42931347175456835)"><path d="M0.4856759916990996 0.8657953072339295 C-0.7364016732911924 0.4433108889095742, -6.9366389484905495 -1.2562709470427236, -8.33106120271424 -1.7244222507430553 M-0.7184828419983387 0.27473389819264415 C-1.4707431093941787 -0.06215123834383879, -4.684845962768127 -0.2570571399814089, -6.036337034607326 -0.4741035619182825" stroke="#000000" stroke-width="1" fill="none"></path></g></g><g><g transform="translate(80.69444444444525 43.27731478163339) rotate(0 -26.338771188714418 13.781505120918183)"><path d="M0.8657953072339295 -0.7947245109826326 C-4.545615528261768 -0.09975731658438836, -22.589791921788326 -0.2032640525450402, -31.657980753771106 4.655479158088565 C-40.72616958575389 9.51422236872217, -49.84241373452042 24.363287628814625, -53.543337684662745 28.357734752819 M-0.13880088580772276 1.4024411754123869 C-5.8270014765286025 2.229133895070603, -24.40777377190205 1.8348491080912366, -32.893132779794826 6.012030967306346 C-41.3784917876876 10.189212826521455, -47.5020366608413 23.0250111935847, -51.05095493316437 26.46553233070305" stroke="#000000" stroke-width="1" fill="none"></path></g></g><g><g transform="translate(27.980769230769965 71.86400586832453) rotate(0 0.4181719812668234 -3.832131139023943)"><path d="M-0.7947245109826326 -0.5468696426600218 C-0.6038257640130913 -2.2652825484743855, 1.026393710311455 -7.908348918493163, 1.6310684735163479 -9.444682127652253 M0.9889063914120197 1.7804198496043684 C0.9491416266284788 0.12363111075548905, 0.24731121377269655 -6.509539340893995, 0.50214956788564 -8.309175827545609" stroke="#000000" stroke-width="1" fill="none"></path></g></g><g><g transform="translate(28.454517704518594 71.92688743120603) rotate(351.1002086488003 5.636165655219088 -2.4751294419250485)"><path d="M-0.5468696426600218 -0.34452084191143506 C0.8936920341076947 -0.7009790964793088, 7.886523994417239 -2.5460530305261027, 9.509165367840229 -2.9334740383898747 M1.3668850656040012 -1.5709982292540372 C3.1166818723241487 -2.18849855003838, 10.128137914841373 -4.130500237176032, 11.819200953098385 -4.605738041938646" stroke="#000000" stroke-width="1" fill="none"></path></g></g><g><g transform="translate(84.19421265200799 104.70765607795882) rotate(242.93619598325918 -28.49774265399401 12.150630545382484)"><path d="M-7.183293962205395 -0.7655599068850278 C-11.421189805640381 -0.13002004079808216, -25.648819039643573 -0.8301931389435699, -33.0608726918865 3.2663695538616526 C-40.472926344129434 7.362932246666875, -48.237807046328136 20.431205276541476, -51.65561587566297 23.813816249946306 M-5.163306133548364 1.446917196661234 C-9.414633080212873 2.2396730704576826, -25.780461903468538 0.2971271662399597, -33.55860741028376 4.233777799738084 C-41.336752917098984 8.170428433236207, -48.46935553215856 21.6942457560376, -51.83217917443971 25.06682099764998" stroke="#000000" stroke-width="1" fill="none"></path></g></g><g><g transform="translate(72.89977428978045 136.42508594814234) rotate(242.93619598325918 1.0051149061366687 -3.5540264161482042)"><path d="M-0.7655599068850278 0.8577347528189418 C-0.56877293508663 -0.1569030793536319, 0.2401295626454441 -4.898649104947156, 0.6338521881303654 -6.432347834946878 M1.0333824126608668 0.2624415527097881 C1.6349963551557138 -1.0294937911596012, 2.82025421065394 -6.681765086857533, 2.7757897191583085 -7.965787585115351" stroke="#000000" stroke-width="1" fill="none"></path></g></g><g><g transform="translate(68.70226422498581 129.81687506889966) rotate(594.0364046320593 4.957214198832844 -1.2320734546648993)"><path d="M0.8577347528189418 -1.0857466768473387 C2.592741831296896 -1.528616572666252, 8.849575448305483 -2.9913103716973675, 10.065521628956288 -3.4227792817985074 M-0.15109323129057883 0.9586323724687098 C1.5542272984775054 0.7763697025447246, 7.909263809220071 -1.3644406636212483, 9.706611163939327 -1.9498361155276553" stroke="#000000" stroke-width="1" fill="none"></path></g></g><g><g transform="translate(83.11666597610929 10.789947890117759) rotate(0 -0.42670543689973783 0.16610700599849793)"><path d="M-1.0857466768473387 1.122161902114749 C-1.0224835113148478 0.8475481282919648, -0.4606450649403466 -0.4523156989365816, -0.38598091369008225 -0.7899478901177645 M0.5450975884683431 0.6656929553858935 C0.5065789428827081 0.4512746985070406, -1.0409710140392614 0.4537953473441301, -1.3985084622677186 0.33275471879169327" stroke="#000000" stroke-width="1" fill="none"></path></g></g><g><g transform="translate(98.71320346320363 143.51324551756403) rotate(353.72361805727564 37.15461775555525 3.117314773222276)"><path d="M0.5036829125136137 -1.1221300553530453 C12.885760140814108 0.18230269258898502, 61.62328577984234 6.300606043919027, 73.80555259859693 7.35675960179758" stroke="#000000" stroke-width="1.5" fill="none" stroke-dasharray="3 6"></path></g></g></svg>