<svg version="1.1" xmlns="http://www.w3.org/2000/svg" viewBox="0 0 333 153.27955805161827" width="333" height="153.27955805161827">
  <!-- svg-source:excalidraw -->
  
  <defs>
    <style>
      @font-face {
        font-family: "Virgil";
        src: url("https://excalidraw.com/FG_Virgil.woff2");
      }
      @font-face {
        font-family: "Cascadia";
        src: url("https://excalidraw.com/Cascadia.woff2");
      }
    </style>
  </defs>
  <g transform="translate(131.23076923076962 10) rotate(0 18 16)"><text x="0" y="23" font-family="Virgil, Segoe UI Emoji" font-size="20px" fill="#000000" text-anchor="start" style="white-space: pre;" direction="ltr">loop</text></g><g transform="translate(127.30602006689014 79.91471571906385) rotate(0 22.5 10.5)"><path d="M1.8535752519965172 1.9309891238808632 C16.50732165761292 0.42579248305410144, 35.408649545162916 1.7411580359563232, 46.95660807937384 -0.5714005455374718 M-0.9703309051692486 -0.8431234247982502 C17.41876087523997 0.25159360188990826, 35.19730654358864 -0.15881859045475727, 45.53117125108838 0.16746128723025322 M46.69949176162481 0.16682539135217667 C45.65027700509876 4.180370934680105, 44.589088545702396 8.85221878513694, 44.616756461560726 21.451155997812748 M44.13127176836133 -0.3804694302380085 C45.228599807210266 8.117859219387174, 45.46617760319263 16.374378024041654, 45.43226199224591 20.718627702444792 M44.03059961646795 19.074086524546146 C30.28041516058147 19.902511250413955, 19.738261405378577 23.243740450777114, 1.1134145483374596 22.633662797510624 M45.94834761694074 20.687817346304655 C35.42310154251754 21.750664232484997, 24.670365996658802 19.879688380472363, 0.21105735376477242 20.949523579329252 M-0.4170171990990639 19.162782289087772 C-0.1630029120668769 14.834562535211443, 0.1100524029508233 10.33700836971402, -1.7313961759209633 -0.22480788081884384 M-0.06487972661852837 21.19071639701724 C0.21290573846548794 15.301711797341703, -0.8451783918216824 7.908934462070464, -0.6586877815425396 0.48209716007113457" stroke="#000000" stroke-width="1" fill="none"></path></g><g><g transform="translate(149.726212003231 48.00723517880337) rotate(357.26158449424946 -0.6501263255941012 11.487872208264726)"><path d="M0.5553908452391625 -1.128509460389614 C0.2859454028374179 2.819118685078518, -0.8684259988038624 18.751503339170895, -1.3905127375923259 23.051113601338248 M-0.6121676903497428 0.89341912756674 C-0.9789376301532018 5.020233194882692, -1.3771902737716966 20.471186366838822, -1.8556434964273283 24.104253876919056" stroke="#000000" stroke-width="1" fill="none"></path></g><g transform="translate(149.726212003231 48.00723517880337) rotate(357.26158449424946 -0.6501263255941012 11.487872208264726)"><path d="M-6.303114322814344 13.45027864168522 C-5.10058354312843 15.935440678026945, -2.419868551467184 20.767733446924, -1.3019688644499632 23.81962040978104 M-5.4047760305456585 12.763482661240186 C-3.4908501132628063 16.720281870256652, -3.1421599490507974 20.46740750818075, -1.982821504997014 24.266532551604215" stroke="#000000" stroke-width="1" fill="none"></path></g><g transform="translate(149.726212003231 48.00723517880337) rotate(357.26158449424946 -0.6501263255941012 11.487872208264726)"><path d="M1.9140324892286875 14.027965936615427 C0.4996087244020916 16.366965376209023, 0.5603139024925856 21.015064480746325, -1.3019688644499632 23.81962040978104 M2.812370781497373 13.341169956170393 C1.7550496896967505 17.1544894642462, -0.8654936336229644 20.692870083897716, -1.982821504997014 24.266532551604215" stroke="#000000" stroke-width="1" fill="none"></path></g></g><g transform="translate(51.807692307692264 13.30769230769232) rotate(0 7 16)"><text x="0" y="23" font-family="Virgil, Segoe UI Emoji" font-size="20px" fill="#000000" text-anchor="start" style="white-space: pre;" direction="ltr">if</text></g><g transform="translate(65.53678929765931 77.9147157190639) rotate(0 22.5 10.5)"><path d="M0.40336761623620987 -1.041796661913395 C11.7337427418679 -1.501792741380632, 23.254158455878496 -0.604202819429338, 43.216461040079594 -1.209134317934513 M0.22923721000552177 -0.49063582345843315 C18.242178549990058 -0.008824232406914267, 35.19665965437889 -0.06905603725463155, 45.299182426184416 -0.165105652064085 M45.45841012150049 -0.08502504974603653 C44.6457953998819 8.05490590147674, 43.653024966455995 12.721959350258112, 43.50036249309778 19.99790432304144 M45.51843310520053 -0.7155788652598858 C45.318541605882345 5.986734814569354, 44.34271498482674 11.991466249525548, 44.34839953109622 21.593765545636415 M43.62896928936243 19.976566813886166 C34.90173272974789 20.758502922020853, 20.693150039762255 23.19004364963621, 0.5054934993386269 21.676706574857235 M45.38066900894046 20.27373056486249 C28.81617787666619 20.771981899626553, 12.103138618171215 20.796703402884305, -0.7013404257595539 20.596308160573244 M1.8547423854470253 19.26968791335821 C0.20315751399844884 17.25973154194653, 1.3202351030334831 10.690471886843442, 0.21061382442712784 -1.4600810781121254 M-0.25741933658719063 21.111203599721193 C-0.184177100174129 13.763950711861252, -0.3969345683977008 7.000609719753264, -0.505432952195406 0.24596457555890083" stroke="#000000" stroke-width="1" fill="none"></path></g><g><g transform="translate(72.60289372420004 46.422099121127786) rotate(0 10.598798519116315 11.795409399961521)"><path d="M-0.09424976259469986 0.8697097912430765 C3.8706258103808526 4.909190606340276, 19.267382769565167 19.48715824119502, 22.800466655529 23.310115313616436 M-1.6028696172963828 0.2807034863065927 C2.374620156092397 4.040252448288234, 18.154518921700376 17.83635795983241, 22.357121066533857 21.455188929031458" stroke="#000000" stroke-width="1" fill="none"></path></g><g transform="translate(72.60289372420004 46.422099121127786) rotate(0 10.598798519116315 11.795409399961521)"><path d="M8.76496558901835 17.059179300703374 C11.454419962429892 16.071136806695904, 15.315297624954487 16.97413771716376, 22.145858628333798 21.416547516982828 M7.251385930878738 16.21125356973748 C13.275215650699606 17.403007307451226, 18.265865150996436 20.003481587252192, 22.593587055492076 20.987322876852417" stroke="#000000" stroke-width="1" fill="none"></path></g><g transform="translate(72.60289372420004 46.422099121127786) rotate(0 10.598798519116315 11.795409399961521)"><path d="M15.85119236280761 8.91123139937295 C16.935748733041468 9.690625716846705, 19.254655644302247 12.366629065388466, 22.145858628333798 21.416547516982828 M14.337612704667999 8.063305668407054 C17.961755097149073 12.04016444599028, 20.532255772632595 17.423395638254593, 22.593587055492076 20.987322876852417" stroke="#000000" stroke-width="1" fill="none"></path></g></g><g transform="translate(204 13.76923076923083) rotate(0 59.5 16)"><text x="0" y="23" font-family="Virgil, Segoe UI Emoji" font-size="20px" fill="#000000" text-anchor="start" style="white-space: pre;" direction="ltr">function call</text></g><g transform="translate(10 76.5384615384616) rotate(0 22.5 10.5)"><path d="M0.8551574721932411 -0.6936597600579262 C13.660857228562238 1.3310077423229814, 26.28941007331014 0.40852930489927525, 43.710487224161625 1.9287975057959557 M-0.16639648750424385 -0.12484831735491753 C15.161778083071113 0.37704517524689435, 31.802586168050766 0.6389569250866771, 44.11485243961215 -0.9578874818980694 M45.57548318058252 -0.8513901010155678 C43.70871215555817 5.3597608666867025, 46.274291331507264 10.340221831947566, 46.04248438030481 22.763521693646908 M44.72570468112826 -0.5093372575938702 C44.92205383580178 5.376083798334003, 45.97369303505868 10.255328859388829, 45.763068567961454 21.08284406736493 M44.48163805156946 19.150387309491634 C28.498925494030118 20.894473800621927, 9.16767930611968 21.584071168862284, -0.5839764103293419 19.874696992337704 M44.34318960830569 20.105582524091005 C29.952356847003102 20.639721195586027, 16.53406970947981 20.82252375353128, 0.8396713845431805 20.77740328386426 M-0.23668064922094345 20.18838145583868 C-1.6662210336700083 16.858694325760005, -0.818918835259974 12.711891411989926, 1.059864617884159 0.7249698862433434 M0.9876940362155437 21.97882216051221 C0.6217586069181561 16.553857404366134, 0.4755294590070843 10.654210793972014, -0.9357346184551716 -0.8457674495875835" stroke="#000000" stroke-width="1" fill="none"></path></g><g transform="translate(16.26086956521783 84.84280936454888) rotate(0 3.152173913043498 2.065217391304344)"><path d="M4.510092226443726 1.1424791513832486 C5.2411761135192965 1.1566448049347875, 6.357918667257708 1.0457320259540654, 6.598467539888633 1.1278423785955973 C6.839016412519557 1.2099527312371292, 6.105779958998502 1.2087025759202998, 5.953385462229271 1.63514126723244 C5.80099096546004 2.0615799585445798, 6.197882558646672 3.221668695836447, 5.684100559273247 3.6864745264684373 C5.1703185598998225 4.151280357100427, 3.7053700484111154 4.539779486613332, 2.8706934659887238 4.423976251024381 C2.036016883566332 4.308173015435431, 1.109933338609096 3.354588974195444, 0.676041064738897 2.991655112934733 C0.24214879086869812 2.6287212516740217, 0.2534518236977222 2.70202672134676, 0.2673398227675303 2.246373083460114 C0.28122782183733847 1.7907194455734678, 0.5736742701401023 0.6895590759284433, 0.7593690591577458 0.25773328561485553 C0.9450638481753892 -0.17409250469873228, 0.7802295171663046 -0.48389755164927306, 1.3815085568733911 -0.34458165842141275 C1.9827875965804775 -0.20526576519355247, 3.7847318353626207 0.8089598626030634, 4.367043297400265 1.0936286449820172 C4.9493547594379095 1.378297427360971, 4.86351154960068 1.6248615095299062, 4.875377329099257 1.3634310358523096 M2.7495238371032613 -1.22464133549781 C3.4974152767021724 -1.2928170377235735, 4.808171431767162 -0.6635579616883898, 5.429309752329391 -0.02024807323970479 C6.050448072891619 0.6230618152089802, 6.3284232483710765 2.2187481122271127, 6.476353760476632 2.6352179951943 C6.624284272582188 3.051687878161487, 6.601572244503017 2.0805144695941875, 6.316892824962726 2.478571224563417 C6.032213405422435 2.876627979532646, 5.26037980737038 4.532688098231355, 4.768277243234884 5.023558525009674 C4.276174679099388 5.514428951787994, 3.923676362208478 5.558027653569811, 3.3642774401497535 5.423793785233332 C2.804878518091029 5.289559916896854, 1.812974485129135 4.809943185714421, 1.4118837108825377 4.218155314990805 C1.0107929366359405 3.6263674442671894, 1.212283117995249 2.7209056261758615, 0.9577327946701697 1.873066560891637 C0.7031824713450905 1.0252274956074126, -0.5053626269323297 -0.6010555247951677, -0.11541822906793708 -0.8688790767145422 C0.2745261687964556 -1.1367026286339168, 2.7372674102603045 -0.022141880418384885, 3.297399181856526 0.2661252493753894 C3.857530953452747 0.5543923791691636, 3.2026996843510434 0.6899079722633418, 3.24537240050939 0.8607237020481033" stroke="#000000" stroke-width="1" fill="none"></path></g><g transform="translate(28.543478260870074 84.95150501672285) rotate(0 3.152173913043498 2.065217391304344)"><path d="M3.7445267148662746 0.6668677679564428 C4.4062665474429155 0.6974146405897665, 4.903504038076231 0.7648675643721069, 5.333535743717517 0.836993028913221 C5.763567449358804 0.9091184934543352, 6.324594608081146 0.7924305489881289, 6.324716948713994 1.0996205552031277 C6.324839289346842 1.4068105614181265, 5.751409335306483 2.2256897356531433, 5.334269787514607 2.6801330662032137 C4.917130239722732 3.134576396753284, 4.3073088620339 3.6494479943531424, 3.821879661962739 3.8262805385035508 C3.3364504618915776 4.003113082653959, 2.8950954609439505 3.9746052050681318, 2.42169458708764 3.7411283311056636 C1.9482937132313292 3.5076514571431954, 1.307246691777645 2.661000063484938, 0.9814744188248752 2.425419294728742 C0.6557021458721053 2.1898385259725464, 0.4719175121895793 2.7668658330568263, 0.4670609493710205 2.3276437185684897 C0.4622043865524617 1.8884216040801534, 0.27233979083226023 0.1137078446194284, 0.9523350419135226 -0.20991339220127636 C1.632330292994785 -0.5335346290219811, 4.06615421283166 0.3528122175762937, 4.547032455858594 0.38591629764426116 C5.027910698885528 0.4190203777122286, 4.15963331408272 0.026658360105044743, 3.8376045000751264 -0.0112889117934718 M2.3165522681983273 -1.3998734148848353 C3.0350985979323157 -1.3196657104224525, 3.65006123026738 -0.5323436774571215, 4.034343424956546 -0.10807076521178938 C4.418625619645713 0.31620214703354277, 4.40165159617073 0.8728558871484586, 4.622245436333325 1.1457640585871576 C4.842839276495921 1.4186722300258565, 5.202590324807579 0.8562955947167503, 5.357906465932118 1.5293782634204045 C5.513222607056656 2.2024609321240587, 6.112474688198563 4.756265910073043, 5.554142283080555 5.184260070809083 C4.9958098779625475 5.612254231545124, 2.9097274791941423 4.477185860708607, 2.007912035224071 4.097343227836649 C1.1060965912539995 3.71750059496469, 0.31357119397557465 3.3351515242374927, 0.1432496192601267 2.905204273577332 C-0.027071955455321234 2.475257022917171, 0.9787276898608488 1.746497915688691, 0.9859825869313834 1.5176597238756835 C0.993237484001918 1.288821532062676, -0.029965480294154773 1.700388516547857, 0.1867790016833344 1.5321751226992868 C0.4035234836608236 1.3639617288507166, 1.7868125391756502 0.5859907703575885, 2.2864494787963183 0.5083793607842626 C2.7860864184169865 0.43076795121093675, 3.0519915192856533 1.3054580630619625, 3.1846006394073436 1.0665066652593316" stroke="#000000" stroke-width="1" fill="none"></path></g><g transform="translate(42.89130434782646 85.8210702341141) rotate(0 3.152173913043498 2.065217391304344)"><path d="M4.134205656927479 0.36837479865929934 C4.86748473066173 0.2642461987024301, 5.584172009816053 0.6029879014924111, 5.870609266744507 0.7498707282078207 C6.157046523672961 0.8967535549232304, 5.92502174271689 0.9362902800763238, 5.8528291984982035 1.249671758951757 C5.780636654279517 1.5630532378271902, 5.77857025242172 2.1431261414940166, 5.437454001432391 2.63015960146042 C5.096337750443062 3.1171930614268235, 4.468784591194768 3.885895185548845, 3.8061316925622286 4.1718725187501775 C3.1434787939296887 4.45784985195151, 2.1856202191065246 4.48082362217443, 1.4615366096371516 4.346023600668416 C0.7374530001677787 4.211223579162402, -0.3906215112971477 3.8347206955688815, -0.5383699642540085 3.3630723897140946 C-0.6861184172108693 2.8914240838593077, 0.38909435598871545 1.8543115101300014, 0.5750458918959871 1.5161337655396956 C0.7609974278032587 1.1779560209493898, -0.04107881944117897 1.636908502326758, 0.5773392511896214 1.33400592217226 C1.1957573218204218 1.031103342017762, 3.6902545147913237 0.041109404272924366, 4.285554315680789 -0.301281715387292 C4.880854116570255 -0.6436728350475083, 4.233963353363221 -0.7479690998426551, 4.149138056526414 -0.720340795789038 M0.47230769831829567 -0.4607829973037474 C1.2355339184181326 -0.8589612350961389, 2.8468403097579076 -1.4787595020662085, 3.705644481069024 -1.3762652992646058 C4.564448652380141 -1.2737710964630031, 5.394897971892059 -0.5871096465355591, 5.6251327261849955 0.15418221950586886 C5.855367480477932 0.8954740855472968, 4.913881065335593 2.6139517689905802, 5.087053006826644 3.071485896983962 C5.2602249483176955 3.5290200249773434, 6.959404466523063 2.8307803310720763, 6.664164375131302 2.899386987466157 C6.368924283739542 2.967993643860238, 4.30360352396706 3.182541028247673, 3.31561245847608 3.483125835348448 C2.3276213929851 3.783710642449223, 1.3746684355164174 4.9445925993252615, 0.7362179821854227 4.702895830070807 C0.09776752885442808 4.461199060816352, -0.574955062758897 2.668523200847387, -0.5150902615098873 2.032945219821717 C-0.4552254602608778 1.3973672387960467, 0.6127983337632668 1.0934269262669039, 1.0954067896794801 0.8894279439167848 C1.5780152455956935 0.6854289615666658, 2.0759643911617753 0.8414193933082186, 2.3805604739873925 0.8089513257210026 C2.6851565568130096 0.7764832581337866, 3.1750217609602136 0.848747955351928, 2.9229832866331833 0.6946195383934886" stroke="#000000" stroke-width="1" fill="none"></path></g><g transform="translate(71.79765886287726 86.21906354515119) rotate(0 3.152173913043498 2.065217391304344)"><path d="M2.3591784779892806 -0.871080193220505 C3.020717685843089 -0.6878708226587024, 3.49522569522717 0.722721995898337, 4.212546399671096 1.250253771522635 C4.929867104115022 1.7777855471469328, 6.314117233143229 2.111766613287708, 6.663102704652837 2.2941104605252827 C7.012088176162445 2.4764543077628574, 6.557664394302502 2.015022135409312, 6.306459228728745 2.3443168549480835 C6.055254063154988 2.673611574486855, 5.831660408652931 3.925746625339353, 5.155871711210293 4.2698787777579135 C4.480083013767654 4.614010930176474, 2.9491432558570945 4.591605472968643, 2.2517270440729136 4.409109769459446 C1.5543108322887327 4.226614065950249, 1.315533694216051 3.664187918512515, 0.9713744405052065 3.1749045567027325 C0.6272151867943621 2.68562119489295, 0.1005630264516515 1.8499508952527206, 0.18677152180784695 1.4734095986007516 C0.2729800171640424 1.0968683019487826, 1.0285367437570858 1.18111619066202, 1.4886254126423792 0.9156567767909181 C1.9487140815276727 0.6501973629198161, 2.536317847499303 0.12920604588122994, 2.947303535119607 -0.11934688462585985 C3.358289222739911 -0.36789981513294967, 3.9993590992397685 -0.5054136404283047, 3.9545395383642044 -0.5756608062516206 M2.561278871004567 0.8421202326026487 C3.014053117957789 0.7546203554706506, 2.9022085018304167 0.7512455349500673, 3.4430987169943497 0.642347332767546 C3.9839889321582826 0.5334491305850246, 5.417123633502855 0.021656798447231146, 5.806620161988166 0.18873101950752103 C6.196116690473477 0.35580524056781093, 5.777580231451753 1.1337189607034672, 5.780077887906215 1.6447926591292852 C5.782575544360676 2.1558663575551034, 6.232022734092738 2.680715898878952, 5.821606100714933 3.255173210062429 C5.411189467337128 3.829630521245906, 4.309514538970965 5.177163170067077, 3.317578087639385 5.091536526230147 C2.325641636307806 5.005909882393217, 0.18931677961344712 3.2862728801281604, -0.13001260727454245 2.7414133470408464 C-0.449341994162532 2.1965538139535323, 1.3311184670512806 1.8983334509932606, 1.401601766311448 1.8223793277062637 C1.4720850655716153 1.7464252044192667, 0.06818186693784334 2.494085077612445, 0.29288718828646143 2.2856886073188645 C0.5175925096350795 2.077292137025284, 2.238040062958658 0.8442694489699272, 2.7498336944031565 0.5720005059447812 C3.261627325847655 0.29973156291963526, 3.4655174186818387 0.6081502385149871, 3.363648976953452 0.6520749491679887" stroke="#000000" stroke-width="1" fill="none"></path></g><g transform="translate(84.08026755852961 86.32775919732515) rotate(0 3.152173913043498 2.065217391304344)"><path d="M1.037647141335143 -0.44285565730229726 C1.8820849057527966 -0.48639930607222276, 4.082597954005862 0.3374890486945256, 5.0216806614464735 0.6071263567571268 C5.960763368887085 0.8767636648197279, 6.544252731154336 0.802597811568406, 6.672143385978812 1.1749681910733096 C6.800034040803287 1.5473385705782132, 5.954707933587154 2.482416005437388, 5.789024590393327 2.8413486337865486 C5.623341247199499 3.200281262135709, 6.037808370828394 3.0642706744320964, 5.678043326815844 3.3285639611682734 C5.318278282803295 3.5928572479044503, 4.396385038800785 4.332564499233735, 3.6304343263180283 4.427108354203609 C2.8644836138352714 4.521652209173483, 1.7616301521662334 4.099195936983912, 1.0823390519193026 3.8958270909875212 C0.40304795167237173 3.6924582449911307, -0.3611172431263843 3.6762860033976814, -0.4453122751635563 3.2068952782252667 C-0.5295073072007284 2.737504553052852, 0.15717760649254742 1.483917583542657, 0.5771688596962705 1.0794827399530322 C0.9971601128999936 0.6750478963634075, 1.859668728284832 0.999976477334769, 2.0746352440587823 0.7802862166875184 C2.2896017598327325 0.5605959560402678, 1.9556655469457132 -0.07409682910882384, 1.8669679543399724 -0.23865882393047144 M3.8034375797030475 -1.0717076102162717 C4.485191145242075 -1.1828749921651622, 5.284843001696893 -0.16761287115993762, 5.518798226311088 0.2139830718528497 C5.752753450925284 0.595579014865637, 5.299363007236249 0.6008763662471261, 5.207168927388219 1.2178680478604524 C5.114974847540188 1.8348597294737787, 5.194635557969239 3.376989742832565, 4.9656337472229035 3.9159331615328075 C4.736631936476568 4.45487658023305, 4.1332939133979645 4.603455051725288, 3.8331580629102104 4.451528560061908 C3.5330222124224564 4.299602068398527, 3.8503242419373667 2.9860937269817214, 3.16481864429638 3.0043742115525256 C2.4793130466553936 3.02265469612333, 0.3094587266916208 4.813489795948522, -0.27987552293570905 4.561211467486733 C-0.8692097725630389 4.308933139024944, -0.8269724650551162 2.098108293628849, -0.3711868534675986 1.4907042407817916 C0.08459875811991896 0.8833001879347344, 1.8040873621706 1.0020767092238658, 2.4548381465893963 0.9167871504043899 C3.1055889310081923 0.8314975915849139, 3.3464733641832183 1.176315536004769, 3.533317853045179 0.9789668878649356 C3.72016234190714 0.7816182397251021, 3.563219716197515 0.042754375321150395, 3.575905079761163 -0.26730473843461056" stroke="#000000" stroke-width="1" fill="none"></path></g><g transform="translate(98.42809364548577 87.1973244147164) rotate(0 3.152173913043498 2.065217391304344)"><path d="M1.506312883821454 1.0546077420906468 C2.242447673447685 1.1846629684575172, 4.011239470426149 1.086272195039919, 4.781955266711478 1.0045426280597558 C5.552671062996806 0.9228130610795925, 5.799667053081309 0.259621470811184, 6.130607661533425 0.5642303402096671 C6.461548269985541 0.8688392096081503, 6.9732188690871 2.261811194461628, 6.767598917424175 2.8321958444506548 C6.56197896576125 3.4025804944396816, 5.45610962730039 3.7977091565014454, 4.896887951555873 3.9865382401438287 C4.3376662758113556 4.175367323786213, 4.014870549642451 4.111803626105594, 3.412268862957073 3.9651703463049555 C2.809667176271695 3.818537066504317, 1.7292206514196553 3.3296342626288133, 1.2812778314436062 3.106738561339998 C0.8333350114675571 2.8838428600511827, 0.8715661940152265 2.9975155877268578, 0.7246119431007783 2.6277961385720636 C0.57765769218633 2.2580766894172695, 0.02805039776546958 1.415728206575472, 0.3995523259569165 0.8884218664112331 C0.7710542541483634 0.36111552624699417, 2.666994739889488 -0.2787924972659023, 2.9536235122494596 -0.5360419024133705 C3.240252284609431 -0.7932913075608387, 2.301993301168771 -0.7778313514709038, 2.1193249601167437 -0.655074564473576 M2.273415315904214 0.4428322209572393 C2.848332857733679 0.14205201842611304, 4.505760036219497 -0.5254719084436766, 5.106334345674025 -0.45670304224951375 C5.706908655128553 -0.38793417605535085, 5.616221478255369 0.33078538833230753, 5.876861172631382 0.8554454181222165 C6.137500867007395 1.3801054479121255, 6.8961703789067 1.9976790031526663, 6.670172511930105 2.6912571364899405 C6.4441746449535104 3.3848352698272146, 5.488406517607935 4.933623505605521, 4.52087397077181 5.01691421814586 C3.5533414239356866 5.1002049306862, 1.3313364333442612 3.596185362574775, 0.8649772309133614 3.1910014117319747 C0.3986180284824617 2.7858174608891746, 1.9019021077606098 2.6166865855176904, 1.7227187561864121 2.5858105130890587 C1.5435354046122145 2.554934440660427, -0.19934651441576998 3.2847534489649086, -0.21012287853182432 3.0057449771601856 C-0.22089924264787866 2.7267365053554626, 0.9023584560705452 1.320795661968481, 1.658060571490086 0.9117596822607217 C2.4137626869096267 0.5027237025529623, 4.094990765967394 0.6007942578076219, 4.32408981398542 0.5515290989136297 C4.553188862003447 0.5022639400196375, 3.380350080093698 0.6110548870855885, 3.032654859598248 0.6161687288967688" stroke="#000000" stroke-width="1" fill="none"></path></g><g transform="translate(133.56688963210775 88.21906354515113) rotate(0 3.152173913043498 2.065217391304344)"><path d="M2.9805934269964784 1.074241449816826 C3.512616881577916 1.0873176506243354, 3.7215191878029774 1.0512633903940949, 4.071105000391713 1.118890159479219 C4.420690812980448 1.1865169285643433, 4.880011700711331 1.3884930605854837, 5.078108302528891 1.4800020643275718 C5.276204904346451 1.5715110680696598, 5.329089881814141 1.2278128234956172, 5.259684611297072 1.6679441819317478 C5.190279340780003 2.1080755403678784, 5.112528507221278 3.709456341350929, 4.661676679426478 4.120790214944355 C4.210824851631678 4.532124088537781, 3.0723385988748886 4.196727718602465, 2.5545736445282716 4.135947423492302 C2.0368086901816547 4.07516712838214, 2.055683020474587 4.1975287148468485, 1.5550869533467764 3.75610844428338 C1.0544908862189657 3.3146881737199116, -0.12980556906080748 1.8123919222847722, -0.4490027582385929 1.4874258001114915 C-0.7681999474163783 1.1624596779382108, -0.9900111793426992 1.9850211538404856, -0.3600961817199364 1.8063117112436955 C0.2698188159028264 1.6276022686469054, 2.6540440979102 0.7063618891431989, 3.3304872274979838 0.4151691445307506 C4.006930357085768 0.12397639991830234, 3.859690052014618 0.12572634806170813, 3.6985625958067674 0.05915524356900592 M2.808119468210724 -1.2899700820956692 C3.1361816985815887 -1.0222365848855333, 4.290062812126481 0.4954438351444016, 4.866549003729103 1.1828305043515954 C5.443035195331725 1.8702171735587894, 6.106014314172498 2.3746621672801616, 6.267036617826456 2.834349933147494 C6.428058921480414 3.2940376990148263, 6.299190481536425 3.7650500295832114, 5.832682825652853 3.940957099555589 C5.3661751697692806 4.116864169527966, 4.02967373678724 3.7069711690239138, 3.467990682525021 3.88979235298176 C2.906307628262802 4.072613536939606, 3.1180466617230103 5.44526114700403, 2.46258450007954 5.037884203302667 C1.8071223384360702 4.630507259601305, 0.14528358993396784 2.2178467034238887, -0.46478228733579874 1.4455306907735863 C-1.0748481646055654 0.6732146781232838, -1.590217439793474 0.3492839451006518, -1.1978107635390591 0.4039881274008521 C-0.8054040872846442 0.4586923097010524, 0.9663539695780413 1.634692245225713, 1.8896577701906911 1.7737557845747882 C2.812961570803341 1.9128193239238633, 4.256533408324821 1.6957147276517475, 4.34201204013684 1.2383693634953032 C4.427490671948859 0.781023999338859, 2.664537626030228 -1.0373970403426007, 2.4025295610628037 -0.9703164003638776" stroke="#000000" stroke-width="1" fill="none"></path></g><g transform="translate(145.8494983277601 88.3277591973251) rotate(0 3.152173913043498 2.065217391304344)"><path d="M4.319998572267491 -0.2819641478877606 C5.127735858832091 -0.5575518285845125, 5.893136084262762 -0.49359951750063014, 6.282001145271573 -0.303406109284287 C6.670866206280383 -0.1132127010679439, 6.876986737713333 0.3431864797055505, 6.653188938320353 0.8591963014102981 C6.4293911389273735 1.3752061231150456, 5.3033993312397065 2.3386934985087686, 4.939214348913694 2.7926528209441983 C4.575029366587682 3.246612143379628, 4.973722494337047 3.2998811751793937, 4.4680790443642815 3.5829522360228774 C3.9624355943915157 3.866023296866361, 2.566708369793107 4.669534444791297, 1.9053536490770984 4.4910791860051 C1.2439989283610897 4.312623927218904, 0.9445270698949677 3.138705535409685, 0.4999507200682305 2.512220683305697 C0.05537437024149322 1.8857358312017092, -1.03287735935255 1.0692685659166468, -0.7621044498833252 0.7321700733811731 C-0.49133154041410027 0.39507158084569943, 1.321901950568622 0.7008150242066932, 2.12458817688358 0.48962972809285477 C2.927274403198538 0.27844443197901636, 3.77453309919314 -0.3251023982873614, 4.054012908006422 -0.5349417033018575 C4.333492716819705 -0.7447810083163536, 3.9105695882849183 -0.9343084528739032, 3.801467029763274 -0.7694061019941221 M3.1854182232010384 -0.37593282188217136 C4.030211587293405 -0.11034525488942776, 5.900006547438057 0.6431883320438019, 6.551155452891257 1.1638484169651608 C7.202304358344456 1.6845085018865198, 7.250036394535352 2.3859000918282933, 7.092311655920234 2.7480276876459824 C6.934586917305117 3.1101552834636714, 6.338593023816081 2.9883919675244206, 5.604807021200549 3.3366139918712956 C4.871021018585017 3.6848360162181706, 3.2830925981863404 4.927401788603497, 2.689595640227042 4.837359833727231 C2.096098682267743 4.747317878850966, 2.730897541974369 3.450059203650163, 2.043825273444759 2.7963622626137044 C1.3567530049151486 2.1426653215772458, -1.008322001515388 1.1550383859129574, -1.4328379709506192 0.9151781875084788 C-1.8573539403858503 0.6753179891040003, -1.3705306311379677 1.3589552596087886, -0.5032705431666287 1.3572010721868333 C0.36398954480471046 1.355446884764878, 2.734551188217643 1.2812790250127692, 3.7707225568774163 0.9046530629767475 C4.80689392553719 0.5280271009407258, 5.7693275500613 -0.673557604177173, 5.71375766879201 -0.9025547000292966 C5.658187787522721 -1.1315517958814203, 3.426696492342248 -0.6053456204266724, 3.4373032692616787 -0.46932951213599394" stroke="#000000" stroke-width="1" fill="none"></path></g><g transform="translate(160.1973244147166 89.19732441471635) rotate(0 3.152173913043498 2.065217391304344)"><path d="M2.82392368666385 0.9623213429925594 C3.1904027435216795 0.8288037534503022, 3.8672323187493074 0.8558745528404341, 4.276321164624068 0.8348295575115598 C4.685410010498829 0.8137845621826856, 5.0758062192397855 0.393284798667878, 5.278456761912416 0.8360513710193138 C5.481107304585047 1.2788179433707496, 5.7372548046874865 2.963503737003288, 5.492224420659854 3.4914289916201744 C5.247194036632221 4.019354246237061, 4.28275847873781 3.8883900486489216, 3.808274457746621 4.003602898720633 C3.3337904367554323 4.118815748792344, 3.285427568627843 4.47108060185016, 2.6453202947127217 4.182706092050443 C2.0052130207976004 3.8943315822507265, 0.5438525062135907 2.539835398125511, -0.032369185744106854 2.273355839922333 C-0.6085908777018044 2.006876281719155, -1.0135710086742442 2.8101437905292306, -0.8120098570334635 2.5838287428313764 C-0.6104487053926829 2.3575136951335223, 0.5556739877909468 1.3636791126485164, 1.176997724100577 0.9154655537352068 C1.798321460410207 0.4672519948218972, 2.6204487937700778 0.06410981707082916, 2.915932560824317 -0.10545261064848077 C3.211416327878556 -0.27501503836779073, 2.8243966045860134 -0.301471901595317, 2.9499003264260106 -0.10190901258065277 M1.6103479839436683 0.6406507172281473 C2.3196186680651745 0.8526667392156098, 3.5592616701762396 0.8635110862853023, 4.304572817371884 1.0477103361478026 C5.049883964567528 1.231909586010303, 5.830850378268199 1.5349101121205144, 6.082214867117536 1.7458462164031496 C6.333579355966872 1.9567823206857848, 5.858887713586713 1.8013496677185423, 5.812759750467903 2.313326961843614 C5.766631787349093 2.825304255968686, 6.388905169396842 4.755819540940678, 5.8054470884046765 4.81770998115358 C5.221989007412511 4.879600421366483, 3.3273155811984405 3.0671823823695528, 2.31201126451491 2.6846696031210304 C1.2967069478313795 2.302156823872508, 0.014079902002624545 2.339983305562024, -0.28637881169650603 2.5226333056624464 C-0.5868375253956366 2.705283305762869, 0.24224810590046725 3.835284932283923, 0.5092589823201266 3.780569603723565 C0.7762698587397858 3.7258542751632073, 1.2199419262420474 2.978441155363311, 1.31568644682145 2.194341334300298 C1.4114309674008525 1.4102415132372852, 1.053179712265432 -0.818683765923783, 1.0837261057965424 -0.9240293226545124 C1.1142724993276527 -1.0293748793852417, 1.377937437785545 1.2009942621119007, 1.4989648080081122 1.5622679939159219" stroke="#000000" stroke-width="1" fill="none"></path></g><g><g transform="translate(149.0367892976592 108.81032011466829) rotate(0 0.6351614953810554 15.31634991169323)"><path d="M0.9925537213683129 0.36068416982889184 C1.2892854318022728 5.520120892938763, 1.2935221776366232 24.924248524590286, 0.9855618104338644 30.192405645649377 M0.05450569574721165 -0.49556058635003875 C0.3490002653468401 4.834850922743395, 0.29900245194323377 26.052569578972538, 0.5549362972844394 31.1282604097365" stroke="#000000" stroke-width="1" fill="none"></path></g><g transform="translate(149.0367892976592 108.81032011466829) rotate(0 0.6351614953810554 15.31634991169323)"><path d="M-4.633975005660432 17.803962907574597 C-5.37111936554639 18.769121266435885, -1.7274163886269334 22.507202041370444, 0.06083122508783689 31.727586373766947 M-4.6226901274926915 17.250693991831366 C-4.091363213638335 19.01972367643186, -3.1376823011639017 21.946178080189437, 1.0775792853014337 30.766397248316277" stroke="#000000" stroke-width="1" fill="none"></path></g><g transform="translate(149.0367892976592 108.81032011466829) rotate(0 0.6351614953810554 15.31634991169323)"><path d="M6.082086728582253 17.58423581640718 C2.8385104229595637 18.68939408191045, 3.9771807764049782 22.478839205547537, 0.06083122508783689 31.727586373766947 M6.093371606749993 17.030966900663948 C4.378080969825268 18.911147384388574, 3.0830572356461166 21.883710269336117, 1.0775792853014337 30.766397248316277" stroke="#000000" stroke-width="1" fill="none"></path></g></g><g><g transform="translate(158.6630295102982 104.57253436415232) rotate(0 19.01559307681748 -15.122639913991605)"><path d="M0.20775775238871574 -0.9255344443023205 C3.7467041871099807 0.5302956114844278, 15.097858542283863 10.943503560336278, 21.59214796864935 8.409472426406023 C28.086437395014837 5.875441292475767, 39.584129471793055 -8.285524154820305, 39.173494310581646 -16.129721247883857 C38.762859149370236 -23.97391834094741, 25.538762995703017 -36.26925562557951, 19.128337001380896 -38.6557101319753 C12.717911007058774 -41.042164638371084, 3.9767838959618986 -32.02747768297283, 0.7109383446489119 -30.448448286258575 M-1.142308156946674 1.2029560270998627 C2.165849339669485 2.3559548112978086, 13.779714460145549 9.930514661740483, 20.395693023433395 6.732811907024038 C27.011671586721242 3.535109152307592, 38.7770053541709 -10.643805893718088, 38.55356322278041 -17.983260501198814 C38.33012109138992 -25.32271510867954, 25.520944660697005 -35.25810470085777, 19.055040235090456 -37.30391573786031 C12.589135809483906 -39.349726774862845, 2.7930711387227802 -31.51598237244835, -0.2418633308588869 -30.258126723214012" stroke="#000000" stroke-width="1" fill="none"></path></g></g><g><g transform="translate(157.1726422513534 77.40713434058688) rotate(0 1.2611015315804366 -5.68833386330504)"><path d="M0.9870692186057568 -0.38174868151545527 C1.5013955552544984 -2.0166337921939523, 2.0893128698899317 -7.785864953558759, 2.476061234126564 -9.337056369168897 M0.04614182903431363 -1.6277706846501678 C0.43913487027814435 -3.6321582857895374, 0.9559165909628291 -9.307645043732466, 1.4279479184157662 -10.994919045094614" stroke="#000000" stroke-width="1" fill="none"></path></g></g><g><g transform="translate(166.57372626219365 73.2219491554016) rotate(164.22069278362665 -4.291446123581181 0.6707121002063658)"><path d="M0.8851658530533315 0.6408927373588085 C-0.5178774144086824 0.7096994500745267, -6.954022971706385 0.20898461907552246, -8.80000828628754 0.22223484375413138 M-0.10926080343313505 -0.06824252086691551 C-1.5902564084581867 0.1632776864476683, -8.195170567471454 1.0733894434236892, -9.468058100215622 1.4096667212796548" stroke="#000000" stroke-width="1" fill="none"></path></g></g><g transform="translate(263.8042736346888 76.5791510758259) rotate(0 20.978260869565133 9.789855072463723)"><path d="M0.7935262806713581 0.3070942871272564 C8.142768171777835 -0.4429655013322495, 16.641534751605015 -0.21716820576187595, 41.27044246426726 -1.732676912099123 M0.4583949204534292 -0.8187947925180197 C16.64011145184701 -0.723100731299136, 34.00313863692711 -1.2497652863719204, 41.96784027933086 0.35725402273237705 M40.364360157937405 -0.9534248913408798 C43.27443663964895 2.4566521424584096, 42.279994249030835 9.194777232708129, 41.86330952664578 19.550392610366387 M41.14228409602817 0.2448747459245646 C41.961518983105975 4.7017064411152445, 42.431605992817516 7.729968965948407, 42.29327888273468 20.10842675507681 M41.09045276871825 21.564439386507225 C32.26058005739963 20.3459399240833, 19.310944925426707 18.358365942798205, 0.29309653118252754 19.64236685671444 M42.48922684310878 19.787784291809153 C28.26331813491708 20.07524543682483, 13.984223010099395 19.09978556314853, 0.8848345037549734 19.426040901249003 M1.2536016043842433 19.13058146395159 C-1.2155912531018744 14.859548382223453, 0.021476999617087045 8.853133676522306, -1.4517791892874223 0.8653046311810577 M-0.42224993709393643 19.631257553003053 C-0.2444472829965135 11.766858499709036, -0.4008020989305282 4.785715793352552, 0.1993486072773618 -0.6709143463103747" stroke="#000000" stroke-width="1" fill="none"></path></g><g transform="translate(269.64170274621983 84.32185218903768) rotate(0 2.938983406847342 1.925540852762012)"><path d="M2.780414589278608 -0.3392297787972012 C3.245156734195217 -0.21339955502875665, 3.442865966046689 0.9184874992217407, 3.8164929199585016 1.3519762560704107 C4.190119873870314 1.7854650129190808, 4.653263306200165 2.159904933035551, 5.022176312749481 2.2617027622948194 C5.391089319298798 2.3635005915540876, 6.188266852726748 1.7900560254084035, 6.029970959254403 1.9627632316260213 C5.871675065782057 2.135470437843639, 4.6198158247210825 3.1493903515451693, 4.072400951915407 3.297945999600526 C3.5249860791097314 3.4465016476558823, 3.3404655555284744 2.8456700035182365, 2.7454817224203505 2.854097119958161 C2.1504978893122266 2.8625242363980856, 1.122208312026162 3.5184331144198002, 0.5024979532666629 3.348508698240073 C-0.11721240549283607 3.178584282060346, -1.1710477183529653 2.4396251300367857, -0.9727804301366434 1.8345506228797988 C-0.7745131419203214 1.2294761157228118, 1.0642389753404564 -0.08849037164390447, 1.6921016825645947 -0.2819383447018482 C2.319964389788733 -0.4753863177597919, 2.572069869155474 0.5812615914299245, 2.794395813208186 0.6738627845321363 C3.0167217572608975 0.7664639776343481, 2.8375704828275023 0.3598550021528594, 3.0260573468808647 0.2736688139114227 M3.16287849535045 -1.2475196269662707 C4.018906405893005 -1.1621425151686138, 4.650204342245622 -0.05013318300204117, 5.186413901136587 0.5605415630304627 C5.722623460027552 1.1712163090629666, 6.5724479471693185 1.9446560159100048, 6.380135848696238 2.416528849228752 C6.187823750223157 2.8884016825474994, 4.300077008288003 3.293578641648711, 4.032541310298101 3.3917785629429464 C3.7650056123081987 3.4899784842371817, 5.315440555136674 3.1161863884571956, 4.7749216607568234 3.0057283769941634 C4.234402766376973 2.895270365531131, 1.626036507742512 2.498432605379737, 0.7894279440189956 2.7290304941647525 C-0.04718061970452081 2.959628382949768, -0.22812928050389195 4.445470393796624, -0.24472972158427542 4.389315709704256 C-0.2613301626646589 4.333161025611888, 0.667270473642581 3.164348315435585, 0.6898252975366947 2.392102389610544 C0.7123801214308085 1.6198564637855033, -0.5172303428228826 0.1466828034038698, -0.10940077821959271 -0.24415984524598966 C0.29842878638369713 -0.6350024938958492, 2.5695656635614714 0.18209654211716764, 3.1368026851564337 0.04704649771138736 C3.704039706751396 -0.08800354669439292, 3.389040571565045 -1.211895746850108, 3.2940213513501804 -1.0544601116806713" stroke="#000000" stroke-width="1" fill="none"></path></g><g transform="translate(281.0936036073822 84.42319644444623) rotate(0 2.938983406847342 1.925540852762012)"><path d="M2.468609822740316 -0.8645303628039966 C3.239659847715476 -1.0393303000577483, 5.01703380757074 -0.8471172925839108, 5.7051961805504785 -0.3750747621696573 C6.393358553530217 0.09696776824459619, 6.760666775615337 1.4432575544839152, 6.597584060618749 1.9677248196815245 C6.43450134562216 2.4921920848791337, 5.214486838519457 2.376219378355649, 4.726699890570947 2.771728829015997 C4.238912942622436 3.1672382796763454, 4.269361933639537 4.173884638875954, 3.6708623729276866 4.340781523643614 C3.072362812215836 4.507678408411273, 1.6113362384522047 4.168475839350993, 1.135702526299843 3.7731101376219534 C0.6600688141474813 3.377744435892914, 0.9815535231754142 2.188484787205606, 0.8170601000135167 1.9685873132693776 C0.6525666768516192 1.7486898393331494, 0.2614349018493062 2.778730561828556, 0.1487419873284579 2.4537252940045837 C0.036049072807609606 2.1287200261806114, -0.47835572503975454 0.551913500533784, 0.14090261288842698 0.018555706325544374 C0.7601609508166085 -0.5148020878826952, 3.2660182254590673 -0.8706130781253834, 3.864292014897547 -0.746421471244854 C4.462565804336027 -0.6222298643643247, 3.853014649032078 0.6085324366725684, 3.7305453495193057 0.7637053476087206 M0.5709742416667423 0.5206149705472354 C1.2226137934719108 0.399269930014389, 2.998304704646994 0.822372337931881, 3.946428219604128 0.6407520123714343 C4.8945517345612615 0.4591316868109876, 5.856087328397846 -0.9606433565219732, 6.259715331409545 -0.5691069828154451 C6.663343334421244 -0.17757060910891714, 6.71200223136134 2.531423925627161, 6.36819623767432 2.989970254610602 C6.024390243987301 3.448516583594043, 4.916284900437632 2.147194901163408, 4.19687936928743 2.1821709910852025 C3.4774738381372274 2.217147081006997, 2.312120974221719 2.8801472973195046, 2.0517630507731064 3.1998267941413676 C1.791405127324494 3.5195062909632306, 2.834126936558023 4.434067046242756, 2.634731828595755 4.100247972016382 C2.435336720633487 3.7664288977900067, 1.3561395780619996 1.6713592107377735, 0.8553924029994988 1.1969123487831184 C0.35464522793699804 0.7224654868284632, -0.5381092156700664 1.36604897745556, -0.3697512217792496 1.2535668002884512 C-0.20139322788843275 1.1410846231213425, 1.6792597076042937 0.7595258358161211, 1.8655403663443997 0.5220192857804662 C2.051821025084506 0.2845127357448113, 0.603914617401079 -0.19039291243539924, 0.747932730661387 -0.1714724999254782" stroke="#000000" stroke-width="1" fill="none"></path></g><g transform="translate(294.4710453213106 85.23395048771442) rotate(0 2.938983406847342 1.925540852762012)"><path d="M1.9644165635864388 0.9776940766658759 C2.4275997347779237 1.127382545264095, 3.252854157043547 1.2408284492877564, 3.970610589401968 1.1950086355925658 C4.6883670217603886 1.1491888218973751, 6.017194274717788 0.4962388907899671, 6.270955157736962 0.7027751944947316 C6.524716040756136 0.9093114981994961, 5.758126578370096 2.086223982519819, 5.493175887517012 2.4342264578211528 C5.228225196663928 2.7822289331224863, 5.255531388288242 2.510621759930973, 4.681251012618459 2.7907900463027335 C4.106970636948676 3.0709583326744943, 2.917948637162423 4.068275793091557, 2.0474936334983154 4.115236176051718 C1.177038629834208 4.16219655901188, -0.33487975640213385 3.6170812307963542, -0.5414790093661863 3.0725523440637064 C-0.7480782623302388 2.5280234573310585, 0.6374400250446974 1.1671842131781363, 0.8078981157140004 0.8480628556558325 C0.9783562063833033 0.5289414981335288, 0.2088927541459616 1.2724581120972194, 0.4812695346496316 1.1578241989298836 C0.7536463151533017 1.043190285762548, 1.8183898957289384 0.3476896580450568, 2.4421587987360205 0.16025937665181855 C3.0659277017431026 -0.02717090474141967, 4.104962337020897 0.1571263892269315, 4.223882952692123 0.03324251057045435 M2.770585249308107 0.15249880776889957 C3.4023552208239334 0.4036976497776043, 4.687201181881191 0.8182748949749535, 4.929833207689644 1.0865558341470432 C5.172465233498096 1.3548367733191329, 3.9609832009538946 1.636774023237887, 4.226377404158821 1.7621844428014373 C4.491771607363748 1.8875948623649876, 6.681165466816098 1.7041955668573054, 6.5221984269192035 1.8390183515283458 C6.363231387022309 1.9738411361993862, 4.0575422739189815 1.9919417785473685, 3.2725751647774555 2.5711211508276794 C2.4876080556359295 3.1503005231079904, 2.1314287689991587 5.08147224862517, 1.8123957720700485 5.314094585210211 C1.4933627751409382 5.546716921795252, 1.8508173715430447 4.645250515677495, 1.3583771832027938 3.9668551703379253 C0.8659369948625428 3.2884598249983554, -1.0634893437112236 1.7795547511712893, -1.1422453579714573 1.243722513172792 C-1.221001372231691 0.7078902751742947, 0.23346861055592527 1.135782256035282, 0.8858410976413911 0.7518617423469414 C1.538213584726857 0.36794122865860085, 2.577335210091255 -1.0795114873174192, 2.7719895645413373 -1.059800568957251 C2.9666439189914193 -1.0400896505970827, 2.0554556072432204 0.6696319585166272, 2.053767224341882 0.8701272525079506" stroke="#000000" stroke-width="1" fill="none"></path></g><g><g transform="translate(226.31123806061532 54.365382959883505) rotate(0 1.0177410999230005 14.879985444923406)"><path d="M0.8730224557220934 0.06696016117930403 C1.2049341251751 4.858858108208674, 1.9415039759378714 24.556931401720135, 2.1632616842092376 29.306969149774893 M-0.1277794843632727 -0.9434896995406599 C-0.018451099586341058 3.9806736486732683, 0.7030965827189221 25.653653329811853, 0.918034870831425 30.703460589387475" stroke="#000000" stroke-width="1" fill="none"></path></g><g transform="translate(226.31123806061532 54.365382959883505) rotate(0 1.0177410999230005 14.879985444923406)"><path d="M-4.589328849032781 16.24474172300638 C-3.183611437971082 20.578373769232122, -2.3420271091002367 24.35694951386598, 2.0107731582906165 32.11982327501211 M-4.1883124387397395 17.512014243616385 C-2.9986650666645636 21.961895356560277, -0.2889947504982415 25.198209434484234, 0.8164551635569512 30.99823371107525" stroke="#000000" stroke-width="1" fill="none"></path></g><g transform="translate(226.31123806061532 54.365382959883505) rotate(0 1.0177410999230005 14.879985444923406)"><path d="M5.562133417550929 15.870217219694174 C3.7788180867266643 20.395422086968125, 1.4296356831015307 24.29171686500734, 2.0107731582906165 32.11982327501211 M5.963149827843971 17.137489740304176 C3.889922066922239 21.776723185153763, 3.3354329626581154 25.13346402067823, 0.8164551635569512 30.99823371107525" stroke="#000000" stroke-width="1" fill="none"></path></g></g><g><g transform="translate(228.79082969876208 101.99696190725194) rotate(0 0.9940036142560302 17.01127274656102)"><path d="M0.691165179759264 0.8343921594321728 C1.287077503644817 6.092593973714832, 2.280139016327227 27.262534805331253, 2.3931190587186393 32.4965766159518 M-0.4051118302065879 0.22684409779496484 C0.14882895292989207 5.5668024135734635, 0.8195720210622645 28.303106370335318, 1.5206357690577532 33.79570139532707" stroke="#000000" stroke-width="1" fill="none"></path></g><g transform="translate(228.79082969876208 101.99696190725194) rotate(0 0.9940036142560302 17.01127274656102)"><path d="M-4.073094494540508 18.919143743629757 C-4.368645672201042 20.508142354611465, -3.3652899403710013 24.2161548781459, 0.19163479013642148 33.54048091695896 M-4.693438591404874 18.36173375860343 C-3.5947484173750883 22.340170287905448, -2.0439253117972815 26.16085357843019, 2.1679941057916974 33.78475667175004" stroke="#000000" stroke-width="1" fill="none"></path></g><g transform="translate(228.79082969876208 101.99696190725194) rotate(0 0.9940036142560302 17.01127274656102)"><path d="M7.194005254315352 18.112284496759454 C4.6348366106012024 19.92873660935316, 3.368204953047419 23.79930740930556, 0.19163479013642126 33.54048091695896 M6.573661157450987 17.55487451173313 C4.713435912583789 21.634662649799843, 3.3057215266575306 25.667212648301046, 2.1679941057916974 33.78475667175004" stroke="#000000" stroke-width="1" fill="none"></path></g></g><g><g transform="translate(232.54712260494034 86.15583130296346) rotate(0 25.25637504885856 -13.22537615079613)"><path d="M-0.9680408544838428 -0.30008678957819934 C3.3727398539636395 -4.264632779172456, 16.5648198039314 -21.91345885865254, 25.30629177171222 -24.330628427484008 C34.04776373949304 -26.747797996315477, 47.27584203772402 -16.4717520666968, 51.4807909522011 -14.80310420256701 M0.7245989675726743 -1.5032362994458528 C5.051643502807629 -5.736599430990241, 16.467088057188896 -23.82260586595958, 24.836300950222157 -25.917572574376067 C33.20551384325542 -28.012539282792552, 46.660652319706664 -16.134630482421066, 50.93987632577224 -14.073036549944772" stroke="#000000" stroke-width="1" fill="none"></path></g></g><g><g transform="translate(282.67298072851054 70.14095330868065) rotate(0 -2.1149248998071926 -2.7841864272486703)"><path d="M0.7350199408829212 0.9475663594901562 C0.011025148444794741 0.30349130140771785, -3.2354706982104826 -3.663319704580788, -4.4240872252677494 -4.863146563200336 M-0.3382333194930107 0.3994347528833897 C-1.145361876496128 -0.48458962187948007, -4.332787732337672 -5.583874058203508, -4.964869740497406 -6.515939213987496" stroke="#000000" stroke-width="1" fill="none"></path></g></g><g><g transform="translate(281.15124159807556 71.66269243911546) rotate(0 -2.560007388907138 0.7807213648355784)"><path d="M-0.6000010304152965 0.5502608232200146 C-1.5603179562242833 0.6643988649374251, -4.93605466790597 0.3674443475037833, -5.898932781459098 0.4504887918090844 M1.2858596992772071 -0.2064561899285764 C0.2530290116498113 0.09588511536963323, -5.032732672291874 1.323494635557013, -6.405874477091511 1.7678989195997294" stroke="#000000" stroke-width="1" fill="none"></path></g></g><g><g transform="translate(231.66275525989704 112.85655024697395) rotate(200.616860834322 24.40614680747001 -11.886411212536757)"><path d="M0.1562440104782581 -1.1453702040016651 C2.871295104402039 -4.799602741845186, 9.347808467043514 -20.615350500232285, 17.253502311424814 -22.703449208871934 C25.159196155806114 -24.791547917511583, 42.29813323328334 -15.074587704835604, 47.59040707676606 -13.673962455839556 M-1.2208666133601218 0.8677064935583623 C1.307435794428844 -3.0523544579504533, 8.096432424556413 -22.198297395025126, 16.638770231499798 -24.39567926929845 C25.181108038443185 -26.593061143571777, 44.54857468810926 -14.135121802713867, 50.03316022830019 -12.3165847520816" stroke="#000000" stroke-width="1" fill="none"></path></g></g><g><g transform="translate(235.94771942279203 102.7520080384776) rotate(200.616860834322 -2.1025919501118437 -2.8595577412970528)"><path d="M-1.1453702040016651 0.6348826356232167 C-1.705970346117664 -0.45015771915938085, -3.518320469978694 -5.425307708503088, -4.141654834506802 -6.353998118217326 M0.45417170955799513 -0.07740792601369328 C-0.12464588323635228 -1.0470099753587259, -3.6484630219465677 -4.1164337497571175, -4.659355609781809 -5.268121418074928" stroke="#000000" stroke-width="1" fill="none"></path></g></g><g><g transform="translate(242.33492102663467 97.8642035678965) rotate(8.24796325124281 -4.433761864968005 -0.6533857742384868)"><path d="M0.36535598561167726 0.8987814612686635 C-0.9371441317806934 0.7088930717959728, -7.091434214120257 -1.854558510653811, -8.431790624237237 -2.205553009745642 M-0.9019708512816579 0.32503778309561326 C-2.284030410776938 0.4213196440983293, -8.06668400378478 -0.16715540678626517, -9.232879715547515 -0.737079648154765" stroke="#000000" stroke-width="1" fill="none"></path></g></g><g><g transform="translate(43.424768126625395 47.91435148635378) rotate(15.196143037392037 -5.25181432404554 10.327700826381971)"><path d="M0.9849744267761709 -0.6994450874626637 C-0.5998609730182198 2.716617047197088, -8.77203507551457 16.523097884687107, -10.690803733365602 19.84686036724725 M0.04294727149419497 1.5477422962803393 C-1.5714616549806653 5.220098037996232, -9.638540623993606 18.243767253164645, -11.48860307486727 21.354846740226606" stroke="#000000" stroke-width="1" fill="none"></path></g><g transform="translate(43.424768126625395 47.91435148635378) rotate(15.196143037392037 -5.25181432404554 10.327700826381971)"><path d="M-9.943675543160289 10.477653086912671 C-9.839526640621877 12.896859530936068, -10.856109531012361 15.637943562272428, -11.30683809054325 21.822946448887212 M-9.337860856222717 10.242164204560803 C-10.427710452132876 14.054246170333954, -10.533977732819382 17.324282460801243, -11.043905680516575 21.792684732323423" stroke="#000000" stroke-width="1" fill="none"></path></g><g transform="translate(43.424768126625395 47.91435148635378) rotate(15.196143037392037 -5.25181432404554 10.327700826381971)"><path d="M-3.2941543783197873 14.504692897041432 C-4.508202847113967 16.16696086314819, -6.864779879303033 18.09652634742062, -11.306838090543248 21.822946448887212 M-2.6883396913822137 14.269204014689562 C-6.039289678045679 16.761938401127626, -8.400660131572426 18.666253758034554, -11.043905680516575 21.792684732323423" stroke="#000000" stroke-width="1" fill="none"></path></g></g><g><g transform="translate(27.329502467640737 100.04095330868068) rotate(0 14.186280264862262 19.154270852867242)"><path d="M0.9972256131470203 0.2775722198188304 C2.364357949629063 2.693240178233774, 5.04777561200851 12.084314500947627, 9.072655115781036 15.559015668817707 C13.09753461955356 19.033716836687788, 21.977388775593628 17.434752470798244, 25.14650263578217 21.12577922703931 C28.315616495970712 24.816805983280375, 27.743789272002516 35.00079954180238, 28.087338276912295 37.70517620626409 M0.061630330709740555 -0.6223063101153821 C1.149883033943931 2.45458514121996, 3.722030397067531 13.44704408489834, 7.856136661406291 16.736704545478247 C11.99024292574505 20.026365006058153, 21.457135660474215 15.416632541635458, 24.8662679167423 19.11565645336406 C28.275400173010382 22.814680365092663, 27.636688655187946 35.83692528575962, 28.31093019901479 38.93084801584986" stroke="#000000" stroke-width="1" fill="none"></path></g></g><g><g transform="translate(93.08517403620954 102.16318324278916) rotate(0 -17.91287383276392 17.68404365955522)"><path d="M-0.5113771252334117 -0.6852121420204639 C-2.8712988110636766 1.9067859325769332, -7.9205846534817255 12.741455406712817, -13.16230450183457 15.829560667403213 C-18.404024350187413 18.91766592809361, -27.987315066292496 14.646175437925153, -31.961696215350475 17.84341942212191 C-35.936077364408455 21.040663406318668, -36.32148173728376 32.10888942242922, -37.008591396182446 35.01302457258376 M1.4210111546795816 1.569447538079694 C-1.1032784647220222 3.786924190588944, -7.929600921856124 11.087164706130027, -13.624886387114657 14.039376312295143 C-19.32017185237319 16.99158791846026, -28.813722898022817 15.613729983597766, -32.75070163687162 19.282717175070392 C-36.68768037572042 22.95170436654302, -36.446007574707046 33.31219116328606, -37.24675882020746 36.0532994611309" stroke="#000000" stroke-width="1" fill="none"></path></g></g><g><g transform="translate(47.86589505934273 125.37753530495537) rotate(10.666565101244514 4.410444830572601 7.709092623535923)"><path d="M1.0666515536606311 1.1371467523276804 C2.62768050232759 3.6977532063782856, 7.503022478979372 12.659209569722737, 8.65338477115219 14.729640395111234 M0.16750488999299695 0.6885448519606143 C1.7038337212507264 2.9397838451047145, 6.947395278254817 10.548603394629758, 8.131052152496554 12.851805268862115" stroke="#000000" stroke-width="1" fill="none"></path></g></g><g><g transform="translate(65.99214384431059 128.68820791140172) rotate(342.2086044789964 -6.252325057617213 6.186213568273075)"><path d="M0.17986661866307263 -0.8584505148231982 C-1.6510085714924463 1.2794166491835934, -9.62352607005245 11.143928303524664, -11.80745072920211 13.230877651369346 M-1.18484213587828 1.3052590195555243 C-3.0899662410504503 3.053749414794482, -11.124586882646819 9.557443560736065, -12.68451673389748 11.41776500112578" stroke="#000000" stroke-width="1" fill="none"></path></g></g></svg>