<?xml version="1.0" ?><svg style="enable-background:new 0 0 64 64;" version="1.1" viewBox="0 0 64 64" xml:space="preserve" xmlns="http://www.w3.org/2000/svg" xmlns:xlink="http://www.w3.org/1999/xlink"><style type="text/css">
	.st0{enable-background:new    ;}
	.st1{fill-rule:evenodd;clip-rule:evenodd;fill:#A4C3FF;}
	.st2{fill-rule:evenodd;clip-rule:evenodd;fill:#54596E;}
	.st3{fill-rule:evenodd;clip-rule:evenodd;fill:#FFFFFF;}
	.st4{fill-rule:evenodd;clip-rule:evenodd;fill:#FF6669;}
	.st5{fill-rule:evenodd;clip-rule:evenodd;fill:#B0E7A7;}
	.st6{fill-rule:evenodd;clip-rule:evenodd;fill:#FFC483;}
</style><g class="st0" id="Rectangle_2_1_"/><g id="coloured_in_1_"><g id="twitter_3_"/><g id="instagram_3_"/><g id="youtube_3_"/><g id="whatsapp_3_"/><g id="facebook_3_"/><g id="reddit_3_"/><g id="telegram_3_"/><g id="nextdoor_3_"/><g id="linkedin_3_"/><g id="pinterest_3_"/></g><g id="outlines_1_"><g id="twitter_2_"/><g id="instagram_2_"/><g id="youtube_2_"/><g id="whatsapp_2_"/><g id="facebook_2_"/><g id="reddit_2_"/><g id="telegram_2_"><g id="Shape_21_1_"><g><path class="st2" d="M48.4,18.7c-0.2-0.1-0.5-0.1-0.8-0.1C40.5,20,33.9,23.4,27.1,26c-3.8,1.4-7.6,2.8-11.3,4.1      c-1.9,0.7-3.2,0.9-3.9,2.8c-0.2,0.5,0,1.1,0.4,1.5c1.6,1.8,5.7,3.7,8.9,4.2c0.7,3,1.4,6,2.3,9c0.3,1,1.2,1.3,2,0.9      c0.2-0.1,0.4-0.2,0.6-0.3c1.7-1.4,3.5-2.8,5.3-4.1c2.1,1.4,4.2,2.8,6,4.6c1.2,1.1,3,3.2,4.7,1.7c0.9-0.8,1-2.6,1.2-3.7      c0.6-2.6,1.2-5.2,1.8-7.8c1.3-6,2.4-12.1,4.3-18c0.1-0.2,0.1-0.4,0.2-0.6C49.6,19.4,49.1,18.8,48.4,18.7z M26.4,38      c-0.2,0.1-0.3,0.3-0.4,0.6c0,0.1,0,0.1-0.1,0.2c0,0,0,0.1,0,0.1C25.6,39.9,25.3,41,25,42c-0.3-1.2-0.6-2.3-0.8-3.5      c1.2-0.3,2.4-1,3.5-1.7C27.3,37.2,26.9,37.6,26.4,38z M27.8,43c0.1-0.4,0.2-0.7,0.3-1.1c0.2,0.1,0.4,0.3,0.6,0.4      C28.4,42.5,28.1,42.8,27.8,43z M41,43.3c-0.1,0.2-0.5,3.5-1,3.8c-0.3,0.1-2.7-2.7-3.2-3.2c-2.2-1.9-4.8-3-7.1-4.8      c2.9-2.8,5.3-5.9,8.1-8.8c0.1-0.1,0.1-0.2,0.2-0.2c0.7-0.5,1.4-0.9,2.1-1.4c1.6-1,0.1-3.7-1.5-2.6c-4.4,2.8-8.7,6.6-13.4,8.6      c-2.5,1.1-5.1,0.7-7.5-0.7c-2-1.2-1.3-0.3,0-1.2c1-0.7,3.3-1.2,4.4-1.6c7.9-2.9,15.8-6.9,23.9-9.1C43.8,29.1,42.6,36.3,41,43.3z       M63.6,24.3c-1.7-6.2-6.6-12.2-11-16.6c-5.3-5.3-13.1-6.8-20.3-7.4c-8.7-0.7-15.1,2.5-21.6,8c0,0-0.1,0.1-0.1,0.1      C1.1,15.9-2,31.3,1.6,42.6c2,6.2,5.7,12.1,10.8,16.2c5.3,4.3,12.5,5.1,19.1,5.3c13.6,0.4,25.3-6.6,30.7-19.5      c1.3-3.1,1.6-5.7,1.7-9.1C64,31.7,64.6,28,63.6,24.3z M61.1,31.1c-0.3-0.2-0.6-0.5-0.9-0.7c-0.6-0.5-1.5-0.6-2.1,0      c-0.5,0.5-0.6,1.6,0,2.2c0.6,0.5,1.2,0.9,1.7,1.4c0.3,0.3,0.7,0.4,1.1,0.4c0,0.4,0,0.8,0,1.1c0,0.5,0,0.9-0.1,1.4      c-0.9-0.9-1.9-1.7-2.9-2.5c-0.6-0.5-1.7-0.1-2,0.5c-0.4,0.8-0.1,1.6,0.5,2.1c1.2,0.9,2.3,1.9,3.3,3c0.2,0.2,0.3,0.3,0.5,0.3      c-0.1,0.5-0.2,1-0.4,1.4c-0.8-0.7-1.5-1.5-2.3-2.2c-0.6-0.5-1.5-0.6-2.1,0c-0.5,0.5-0.6,1.6,0,2.2c1,0.8,2,1.7,2.9,2.6      c0.1,0.1,0.3,0.2,0.5,0.3c-0.2,0.5-0.5,1.1-0.8,1.6c-1.1-0.9-2.3-1.8-3.5-2.6c-1.6-1.1-3.1,1.6-1.5,2.6c1.2,0.8,2.3,1.7,3.5,2.6      c-0.4,0.6-0.8,1.2-1.3,1.8l-4.1-3.5c-0.6-0.5-1.5-0.6-2.1,0c-0.5,0.5-0.6,1.6,0,2.2c1.4,1.2,2.8,2.4,4.2,3.6      c-0.4,0.4-0.7,0.8-1.1,1.1c-1.3-1.2-2.5-2.4-3.8-3.6c-1.4-1.3-3.5,0.8-2.1,2.2c1.2,1.1,2.4,2.2,3.6,3.3c-0.6,0.5-1.3,0.9-2,1.3      c0,0,0,0,0,0c-1.4-1.2-2.9-2.4-4.3-3.6c-0.6-0.5-1.5-0.6-2.1,0c-0.5,0.5-0.6,1.6,0,2.2c1.2,1,2.3,2,3.5,3      c-0.8,0.3-1.7,0.7-2.6,0.9c0-0.3-0.2-0.6-0.4-0.8c-1.5-1.3-2.9-2.6-4.2-4.1c-1.3-1.4-3.4,0.7-2.1,2.2c1.1,1.2,2.3,2.3,3.5,3.4      c-1.1,0.2-2.1,0.3-3.2,0.4c-1.2-1.6-2.3-3.3-3.5-4.9c-1.1-1.6-3.7,0-2.6,1.5c0.8,1.2,1.7,2.3,2.5,3.5c-0.9,0-1.7,0-2.6-0.1      c0,0,0,0-0.1,0c0.1-0.5,0-1.1-0.4-1.5c-0.6-0.7-1.2-1.4-1.7-2.2c-0.5-0.6-1.6-0.5-2.1,0c-0.6,0.6-0.5,1.5,0,2.2      c0.3,0.4,0.6,0.8,0.9,1.2c-7.1-0.9-12.7-3.5-17.3-9.9c-4.2-5.8-6.7-13.3-5.9-20.6c0.7-6.8,3.8-15.3,9.3-19.5      c0,0,0.1-0.1,0.1-0.1c0.1,0,0.1-0.1,0.2-0.1c7.2-6.1,14-8.3,23.3-6.6c3.3,0.6,7.1,1.2,10.1,2.8c3.3,1.7,5.7,4.7,8,7.6      c2.4,3,5.1,6.4,6.2,10.1C61.2,26.5,61.2,28.8,61.1,31.1z"/></g></g></g><g id="nextdoor_2_"/><g id="linkedin_2_"/><g id="pinterest_2_"/></g></svg>