<?xml version="1.0" ?><svg style="enable-background:new 0 0 64 64;" version="1.1" viewBox="0 0 64 64" xml:space="preserve" xmlns="http://www.w3.org/2000/svg" xmlns:xlink="http://www.w3.org/1999/xlink"><style type="text/css">
	.st0{enable-background:new    ;}
	.st1{fill-rule:evenodd;clip-rule:evenodd;fill:#A4C3FF;}
	.st2{fill-rule:evenodd;clip-rule:evenodd;fill:#54596E;}
	.st3{fill-rule:evenodd;clip-rule:evenodd;fill:#FFFFFF;}
	.st4{fill-rule:evenodd;clip-rule:evenodd;fill:#FF6669;}
	.st5{fill-rule:evenodd;clip-rule:evenodd;fill:#B0E7A7;}
	.st6{fill-rule:evenodd;clip-rule:evenodd;fill:#FFC483;}
</style><g class="st0" id="Rectangle_2_1_"/><g id="coloured_in_1_"><g id="twitter_3_"/><g id="instagram_3_"/><g id="youtube_3_"/><g id="whatsapp_3_"/><g id="facebook_3_"/><g id="reddit_3_"/><g id="telegram_3_"/><g id="nextdoor_3_"/><g id="linkedin_3_"/><g id="pinterest_3_"/></g><g id="outlines_1_"><g id="twitter_2_"><g id="Shape_10_1_"><g><path class="st2" d="M63.6,11.2c-0.4-0.5-1.1-0.6-1.7-0.3c-0.4,0.2-0.9,0.4-1.3,0.6c0.9-1.2,1.7-2.6,2.4-4      c0.3-0.7,0.1-1.4-0.5-1.8c-0.6-0.4-1.4-0.3-1.9,0.1c-1.1,1.1-2.8,1.6-4.3,2.1l-2.5,0.8c-0.9-0.9-1.9-1.9-3.2-2.5      c-0.6-0.3-1.2-0.5-2-0.7C43,4.2,36.9,5.8,33,9.6c-0.7,0.6-1.2,1.3-1.6,1.9c-0.7,1.1-1.3,2.5-1.6,4.1c-0.3,1.7-0.4,3.4-0.3,5.1      C20,18.7,13.2,14.7,7.1,7.9C6.8,7.5,6.2,7.3,5.7,7.4C5.2,7.5,4.8,7.9,4.6,8.3c-1,2.5-1.6,5.3-1.8,8.4c-0.1,2.3,0.8,4.7,2.7,6.6      L4.2,23c-0.5-0.1-0.9,0-1.3,0.3c-0.4,0.3-0.6,0.7-0.5,1.2c0.1,2.3,1.5,5.2,2.6,7.1c0.9,1.4,1.9,2.6,3.1,3.5      c-0.1,0.1-0.3,0.1-0.4,0.2c-0.4,0.3-0.6,0.8-0.6,1.4c0.3,3,1.9,5.8,4.3,7.7c1.2,0.9,2.5,1.6,4,2c-1.6,0.8-1.8,0.9-4.7,1.9      c-3.4,1.1-6.4,1.4-8.9,0.7c-0.6-0.2-1.3,0.1-1.6,0.7c-0.3,0.6-0.3,1.3,0.1,1.8c2.3,2.7,5.6,3.9,8.2,4.7c4,1.2,8.2,1.8,12.2,1.8      c3.3,0,6.5-0.4,9.7-1.2c0.2,0,0.4-0.1,0.5-0.1c3.9-1.1,7.6-2.7,10.9-5C51.5,45,57.7,32.5,58,19.2c2.2-1.5,4.5-3.8,5.8-6.2      C64.1,12.4,64,11.7,63.6,11.2z M55,17.6c-0.7,0.4-1,1.3-0.6,2c0.1,0.2,0.3,0.4,0.6,0.6c-0.1,2.9-0.6,5.7-1.3,8.4      c-0.1-0.1-0.2-0.2-0.4-0.2c-0.5-0.2-0.9-0.3-1.4-0.5c-0.7-0.3-1.7,0.3-1.8,1c-0.2,0.8,0.3,1.6,1,1.8c0.5,0.2,0.9,0.3,1.4,0.5      c0.1,0,0.2,0.1,0.4,0.1c-0.2,0.6-0.4,1.2-0.6,1.8c-0.8-0.5-1.6-1-2.4-1.5c-1.6-1-3.1,1.6-1.5,2.6c0.9,0.6,1.8,1.1,2.7,1.7      c-0.3,0.6-0.5,1.1-0.8,1.6c-1.2-1-2.5-2-3.9-2.7c-1.7-0.9-3.2,1.7-1.5,2.6c1.4,0.8,2.7,1.7,3.8,2.8c-0.4,0.6-0.7,1.1-1.1,1.7      c-0.1-0.1-0.2-0.2-0.4-0.3c-1.4-0.8-2.6-1.8-3.6-3.1c-0.5-0.6-1.6-0.5-2.1,0c-0.6,0.6-0.5,1.5,0,2.1c1.2,1.4,2.6,2.6,4.2,3.5      c0,0,0,0,0,0c-0.4,0.5-0.8,1-1.3,1.5c-1.5-1.5-3-2.9-4.6-4.2c-1.5-1.2-3.6,0.9-2.1,2.1c1.6,1.3,3.1,2.7,4.5,4.2      c-0.5,0.4-1,0.8-1.5,1.2c-0.1-0.4-0.3-0.7-0.7-1c-1.4-1-2.6-2.2-3.5-3.6c-0.5-0.7-1.3-1-2-0.5c-0.6,0.4-1,1.4-0.5,2      c1.3,1.8,2.7,3.3,4.5,4.6c-0.8,0.5-1.7,1-2.5,1.4c0,0,0-0.1,0-0.1c-1-1.6-2.3-3.1-3.6-4.5c-1.4-1.3-3.5,0.8-2.1,2.1      c1.1,1.1,2.1,2.3,3,3.6c-0.7,0.3-1.4,0.5-2.1,0.7c-0.4-0.7-0.9-1.5-1.3-2.2c-1-1.6-3.6-0.1-2.6,1.5c0.3,0.5,0.6,1,0.9,1.5      c-5.9,1.2-12.4,0.9-18.6-1c-0.9-0.3-1.9-0.6-2.8-1c1.6-0.2,3.3-0.5,5.1-1.1c3-1,3.4-1.2,5.2-2.1c1.1-0.6,3-1.8,4-2.8      c0.4-0.5,0.5-1.1,0.3-1.7c-0.3-0.6-0.9-0.9-1.5-0.8c-2.2,0.3-4.5-0.4-6.3-1.7c-1.2-0.9-2.1-2.2-2.6-3.5c1.5,0.1,3.1-0.1,4.5-0.8      c0.6-0.3,0.9-0.9,0.9-1.5c-0.1-0.6-0.6-1.2-1.2-1.3c-3.2-0.6-5.7-2.2-7.3-4.9c-0.6-1-1.3-2.3-1.7-3.5l3.9,0.9      c0.6,0.2,1.3-0.1,1.6-0.7c0.3-0.6,0.2-1.3-0.2-1.8l-1.2-1.3c-0.7-0.8-1.5-1.6-2.3-2.4c-1.3-1.3-1.9-2.9-1.9-4.4      c0.1-1.8,0.4-3.6,0.8-5.2c6.7,6.8,14.4,10.6,25.1,12.6c0.8,0.1,1.6-0.4,1.7-1.2c0.1-0.7-0.2-1.3-0.8-1.6      c-0.3-1.7-0.3-3.5,0.1-5.2c0.3-1.3,0.6-2.3,1.2-3.1c0.3-0.5,0.7-0.9,1.2-1.4c3.2-3.1,8.2-4.4,12.7-3.3c0.6,0.1,1,0.3,1.4,0.5      c1.1,0.5,2,1.5,2.9,2.5c0,0,0,0,0.1,0.1c0,0,0,0.1,0.1,0.1c0.5,0.6,1.3,0.6,2,0.2l2.9-0.9c0.1,0,0.2-0.1,0.3-0.1      c-0.8,0.9-1.7,1.8-2.7,2.6c-0.5,0.4-0.7,1.1-0.5,1.8c0.3,0.6,0.9,1,1.6,0.9c0.7-0.1,1.4-0.2,2-0.4C56.9,16.4,55.9,17.1,55,17.6z      "/></g></g></g><g id="instagram_2_"/><g id="youtube_2_"/><g id="whatsapp_2_"/><g id="facebook_2_"/><g id="reddit_2_"/><g id="telegram_2_"/><g id="nextdoor_2_"/><g id="linkedin_2_"/><g id="pinterest_2_"/></g></svg>