<svg version="1.1" xmlns="http://www.w3.org/2000/svg" viewBox="0 0 231.09381673710777 195.4599427330212" width="231.09381673710777" height="195.4599427330212">
  <!-- svg-source:excalidraw -->
  <g><g transform="translate(81.25 11.653652315419677) rotate(0 0.6434259171530812 15.548644859736491)"><path d="M1.018422219157219 1.0589409381151198 C1.1909684006723182 6.102489829394559, 1.2259864053887215 25.923879398571152, 1.1651494081928833 30.52800873418653 M0.09395515487529327 0.5692809852864595 C0.17919329821528657 5.266519126021827, 0.7066429259733197 24.074784537710073, 0.7095664159167065 28.90138857085572" stroke="#000000" stroke-width="1" fill="none"></path></g><g transform="translate(81.25 11.653652315419677) rotate(0 0.6434259171530812 15.548644859736491)"><path d="M-3.266744572942889 16.240628264491253 C-1.7352327733954798 19.85963249291362, -2.366991590894835 23.8971121411273, -0.701038768907067 28.58519472969436 M-4.936731623149319 15.338050159802032 C-3.120312695279604 18.870293524048254, -1.3360043544089337 23.074791718906233, 0.9981132975311594 29.104103953864584" stroke="#000000" stroke-width="1" fill="none"></path></g><g transform="translate(81.25 11.653652315419677) rotate(0 0.6434259171530812 15.548644859736491)"><path d="M6.85034617863958 16.078227757239887 C5.237597538789729 19.833571998834685, 1.4612173259426073 23.92152941009879, -0.7010387689070667 28.58519472969436 M5.18035912843315 15.175649652550666 C4.305200082104533 18.80581386510658, 3.397345773955631 23.05352691199458, 0.9981132975311595 29.104103953864584" stroke="#000000" stroke-width="1" fill="none"></path></g></g><g transform="translate(62.916666666666515 78.23698564875305) rotate(0 22.5 10.5)"><path d="M-0.15817467868328094 0.7500852793455124 C11.722577359527351 1.23789707608521, 24.806286551058296 1.685073532536626, 46.74889977276325 1.1409310549497604 M-0.593876875936985 0.969321645796299 C17.86180956289172 -0.5070597980171443, 35.52253597974777 -1.188903794065118, 45.757712088525295 -0.4797747954726219 M44.537332847714424 -1.4061079770326614 C46.55421556003392 9.771105327457189, 42.99388755328953 17.138672025501727, 44.18984492123127 22.004192754626274 M45.794190131127834 0.351819671690464 C45.507127616629006 7.899918325990439, 45.079714868292214 16.017024853825568, 45.41161008924246 21.8306178227067 M45.14905436336994 20.003174230456352 C26.335138920694586 21.254586843773723, 10.951719693839543 19.603893427178264, -0.8939139097929001 22.881660386919975 M45.53945776075125 21.165569223463535 C28.027777526527643 20.548209369555117, 11.443305239081383 20.98439210690558, -0.2513635531067848 21.429927982389927 M0.9977906495332718 21.352443620562553 C0.7729956208914518 15.507976488023996, 1.9301663934439421 12.985698686540125, 0.5215490609407425 -0.30527932941913605 M-0.13175562769174576 21.024095691740513 C-1.083179589137435 15.743595809489488, -1.1298397739976644 9.25524833202362, -0.9814529791474342 0.2832435742020607" stroke="#000000" stroke-width="1" fill="none"></path></g><g transform="translate(69.17753623188446 86.54133347484033) rotate(0 3.152173913043498 2.065217391304344)"><path d="M3.5048928789418765 0.9002947760873456 C4.122840935153974 0.9570258077556388, 4.900956211134244 1.0386885099538627, 5.342640696408634 1.2350860802781174 C5.784325181683024 1.431483650602372, 6.128346523058971 1.6558348928211937, 6.154999790588216 2.078680198032873 C6.181653058117462 2.5015255032445523, 5.726877085983481 3.50645430004967, 5.502560301584104 3.7721579115481934 C5.278243517184728 4.0378615230467165, 5.292200821404272 3.765952838151228, 4.809099084191956 3.6729018670240112 C4.325997346979641 3.5798508958967945, 3.1616749081897604 3.3448030254584284, 2.6039498783102095 3.2138520847848926 C2.0462248484306587 3.0829011441113567, 1.7648639745963046 3.248980183227476, 1.4627489049146516 2.8871962229827965 C1.1606338352329986 2.5254122627381173, 0.7566502508086109 1.4441823735585733, 0.7912594602202918 1.043148323316817 C0.8258686696319727 0.6421142730750609, 1.3862998428901077 0.5079920382509118, 1.6704041613847367 0.48099192153225934 C1.9545084798793657 0.45399180481360696, 2.0018179191917813 1.0983565495932446, 2.4958853711880664 0.8811476230049027 C2.9899528231843515 0.6639386964165608, 4.4169866733025245 -0.642345161675409, 4.634808873362449 -0.8222616379977921 M4.900559903458111 1.2560244678013461 C5.446465061298151 1.7213324544313158, 5.974489243292361 1.6674299039957872, 6.242425966125333 1.8935963312620887 C6.510362688958306 2.11976275852839, 6.5224471372048765 2.2407595263256344, 6.508180240455948 2.613023031399155 C6.493913343707019 2.9852865364726755, 6.4570921478966135 3.6876975691625047, 6.156824585631759 4.127177361703212 C5.856557023366905 4.566657154243919, 5.455218742256563 5.095645540621758, 4.706574866866821 5.249901786643399 C3.9579309914770784 5.404158032665039, 2.4113662144877215 5.615443244305923, 1.6649613332933053 5.052714837833053 C0.9185564520988891 4.489986431360182, 0.6808664824711923 2.529845931130723, 0.22814557970032423 1.8735313478061772 C-0.22457532307054384 1.2172167644816314, -1.2775681049758916 1.6158823020138682, -1.0513640833319031 1.1148273378857776 C-0.8251600616879146 0.6137723737576871, 0.8660090764497069 -1.1929913075313323, 1.5853697095642554 -1.1327984369623658 C2.3047303426788037 -1.0726055663933993, 2.672198553015761 1.3809505686764472, 3.264799715355388 1.4759845612995761 C3.8574008776950146 1.571018553922705, 4.9304794110659165 -0.49559267504965265, 5.140976683602016 -0.5625944812235919" stroke="#000000" stroke-width="1" fill="none"></path></g><g transform="translate(81.46014492753648 86.65002912701429) rotate(0 3.152173913043498 2.065217391304344)"><path d="M4.997608322285042 0.67088765336435 C5.7694944585920815 0.6376042097610634, 6.437645013188405 0.8117666994844478, 6.765122451772873 0.992727913465808 C7.0925998903573415 1.1736891274471681, 7.051139165664147 1.3014909316593286, 6.962472953791851 1.756654937252511 C6.873806741919554 2.2118189428456936, 6.882182547807859 3.3200966639295473, 6.233125180539092 3.7237119470249027 C5.584067813270326 4.127327230120258, 4.05116333335601 4.057023163645335, 3.06812875017925 4.178346635824644 C2.0850941670024894 4.299670108003953, 0.9146416443397943 4.600122206869173, 0.33491768147852996 4.45165278010076 C-0.24480628138273441 4.303183353332347, -0.25085451905596223 3.6965705859350857, -0.41021502698833645 3.287530075214167 C-0.5695755349207107 2.8784895644932487, -0.9791150596632887 2.6373104482056524, -0.6212453661157151 1.9974097157752482 C-0.2633756725681415 1.357508983344844, 0.740838546927205 -0.40159969743516044, 1.7370031342971055 -0.5518743193682589 C2.733167721667006 -0.7021489413013574, 4.999384117316856 0.8452180779674845, 5.355742158103688 1.0957619841766573 C5.71210019889052 1.34630589038583, 4.111528488896473 0.9873231785569656, 3.8751513790180963 0.9513891178867777 M5.415784407553541 0.6509028223633113 C6.4192506842065855 0.6437349601913147, 6.704735039682427 0.8220328694047516, 6.9100143844944295 1.2421761152835349 C7.1152937293064324 1.6623193611623182, 6.832383687688637 2.563691783654097, 6.647460476425559 3.171762297636011 C6.4625372651624815 3.779832811617925, 6.193767817579681 4.681998545628034, 5.800475116915964 4.8905991991750195 C5.407182416252247 5.099199852722005, 4.852142791688191 4.611525472163057, 4.287704272443257 4.42336621891792 C3.7232657531983233 4.235206965672782, 3.244904177177121 4.31632718903977, 2.4138440014463605 3.761643679704193 C1.5827838257156 3.206960170368616, -0.3499288423787537 1.5835225455393918, -0.698656781941307 1.0952651629044585 C-1.0473847215038603 0.6070077802695253, 0.0829494804782592 1.1053945213570353, 0.32147636407104097 0.8320993838945931 C0.5600032476638227 0.558804246432151, -0.1532068365480712 -0.6299184437915448, 0.7325045196153837 -0.544505661870194 C1.6182158757788385 -0.4590928799488431, 5.168543689292943 1.115013711328545, 5.63574450105177 1.3445760754226983 C6.102945312810596 1.5741384395168516, 3.653924586642498 0.9626759423200769, 3.535709390168342 0.8328685226947257" stroke="#000000" stroke-width="1" fill="none"></path></g><g transform="translate(95.80797101449298 87.51959434440555) rotate(0 3.152173913043498 2.065217391304344)"><path d="M3.7968429601309768 0.9420490411027127 C4.30154712585519 0.8945682251319323, 4.945387007173527 0.9062343549076601, 5.258347748783359 1.2032086298805627 C5.571308490393192 1.5001829048534652, 5.556108269855797 2.434039295081772, 5.674607409789971 2.723894690940128 C5.793106549724144 3.0137500867984834, 6.213527331984478 2.872518265518622, 5.969342588388399 2.9423410050306975 C5.725157844792319 3.012163744542773, 4.743997831773775 3.048396851115153, 4.209498948213495 3.142831128012581 C3.6750000646532155 3.2372654049100094, 3.267796829678718 3.6882941503364397, 2.7623492870267197 3.5089466664152655 C2.2569017443747215 3.3295991824940914, 1.4769540512582418 2.4136565944785993, 1.1768136923015065 2.0667462244855352 C0.8766733333447712 1.7198358544924712, 1.077585037605595 1.549729151357607, 0.9615071332863079 1.4274844464568812 C0.8454292289670206 1.3052397415561554, -0.14091488976326216 1.714082633795913, 0.4803462663857825 1.3332779950811802 C1.1016074225348271 0.9524733563664474, 3.9513651131913994 -0.5985664047188123, 4.689074070180576 -0.8573433858315158 C5.426783027169752 -1.1161203669442195, 4.984306661728776 -0.5186846695629472, 4.906600008320842 -0.21938389159504101 M2.368279458077762 1.2183358403361293 C2.8095947819074296 0.8858836238275185, 3.514439571739311 0.4155462834705515, 4.202907795582774 0.4641981710060381 C4.891376019426236 0.5128500585415248, 5.943535681656519 1.0227206978086874, 6.499088801138537 1.510247165549049 C7.054641920620556 1.9977736332894107, 7.676412153340042 2.8378773367944587, 7.536226512474883 3.3893569774482084 C7.396040871609724 3.940836618101958, 6.32798842003379 4.8213185428745025, 5.657974955947584 4.819125009471546 C4.987961491861377 4.816931476068589, 4.460286424097638 3.570944505607908, 3.5161457279576416 3.3761957770304716 C2.5720050318176453 3.1814470484530353, 0.5962169784700199 4.005062558879963, -0.006869220892394834 3.6506326380069276 C-0.6099554202548095 3.296202717133892, -0.042605563630794964 1.4263466367551716, -0.10237146821684684 1.2496162517922578 C-0.16213737280289872 1.072885866829344, -0.892852011634372 2.8785306585254875, -0.36546464840870607 2.5902503282294447 C0.16192271481695986 2.301969997933402, 2.5781024770474197 -0.22069451228092207, 3.061952711137149 -0.4800657299839999 C3.5458029452268782 -0.7394369476870777, 2.6779511776546103 0.8435036873673867, 2.537636756129671 1.0340230220109778" stroke="#000000" stroke-width="1" fill="none"></path></g><g><g transform="translate(83.31128703768422 51.42978544033805) rotate(0 -0.03151326556121603 11.84047651826873)"><path d="M0.19715099036693573 0.6754560023546219 C0.29606734152503494 4.429574842106872, 1.2574492035243754 18.74516376083878, 1.072298782221537 22.712109138676965 M-1.1584834690298886 -0.01553354174830024 C-1.1775231205244345 3.8343812521717933, 0.18466217542962182 19.94253059898664, 0.6160153900697196 23.69648657828576" stroke="#000000" stroke-width="1" fill="none"></path></g><g transform="translate(83.31128703768422 51.42978544033805) rotate(0 -0.03151326556121603 11.84047651826873)"><path d="M-3.8213765889270883 13.894135845968373 C-3.7810204165294365 15.56616206354858, -0.2975979963457849 20.835735175240423, 1.7394287046742625 22.903335977401284 M-4.735020617870659 12.613479103166174 C-2.3571104147283464 17.420264169989906, -1.2052580777263486 20.220145991195416, 0.39135244476816006 23.38095067566089" stroke="#000000" stroke-width="1" fill="none"></path></g><g transform="translate(83.31128703768422 51.42978544033805) rotate(0 -0.03151326556121603 11.84047651826873)"><path d="M4.270311029947015 13.12221595374677 C1.561507581826559 15.069911821362824, 2.294564925013428 20.60186054785884, 1.7394287046742625 22.903335977401284 M3.3566670010034447 11.84155921094457 C2.813421263630876 16.905134461900687, 1.0439613076909469 19.98369968964966, 0.39135244476816006 23.38095067566089" stroke="#000000" stroke-width="1" fill="none"></path></g></g><g><g transform="translate(83.63643717338073 107.69531898208636) rotate(0 0.6657482333665143 11.35525450955926)"><path d="M1.0914330035448072 -0.23748588860034947 C1.2077876618727332 3.4987336708507124, 1.0101463929932755 19.079073239068777, 0.8277064956571392 22.903296338558903 M0.2052966010663657 -1.4077699254546314 C0.2501755929309167 2.4365537804173867, 0.6041515139952496 19.95026912534358, 0.46696350260967856 24.11827894457314" stroke="#000000" stroke-width="1" fill="none"></path></g><g transform="translate(83.63643717338073 107.69531898208636) rotate(0 0.6657482333665143 11.35525450955926)"><path d="M-3.767004848960843 14.156553552351193 C-2.8477892350253793 16.742695088391294, -1.795740024845469 20.31720938452479, 0.5723405033717965 23.552800547618887 M-2.960373078818238 12.57086960790784 C-1.9324851900056341 16.5599911082442, -0.8391189326399127 19.848125889679697, 0.7719449551804249 23.989237596880987" stroke="#000000" stroke-width="1" fill="none"></path></g><g transform="translate(83.63643717338073 107.69531898208636) rotate(0 0.6657482333665143 11.35525450955926)"><path d="M4.277045935552271 14.17168453353853 C2.6961236694676716 16.826286241914406, 1.2480962774511175 20.39609785614694, 0.5723405033717965 23.552800547618887 M5.0836777056948765 12.586000589095176 C3.520387977136294 16.61645990608378, 2.0225649707937823 19.899720621323983, 0.7719449551804249 23.989237596880987" stroke="#000000" stroke-width="1" fill="none"></path></g></g><g><g transform="translate(84.88643717338061 141.69531898208635) rotate(0 0.12072575220122417 21.520129638259533)"><path d="M-0.7995509594678878 -0.7243644744157791 C-0.5400086140346123 6.485011740931076, 0.5798640491010778 35.221613186638564, 1.0410024638702908 42.474852317024485 M0.9815460574720056 1.5097402311768384 C1.1109539840004998 8.950581493823556, -0.11119050129892612 36.677410828055585, -0.010753874895554016 43.764623750934845" stroke="#000000" stroke-width="1" fill="none"></path></g><g transform="translate(84.88643717338061 141.69531898208635) rotate(0 0.12072575220122417 21.520129638259533)"><path d="M-8.202252228197901 23.120212106596195 C-6.11866797544663 29.931115507179967, -3.790172138045938 33.22275100395463, -0.0021919507956318363 45.057261978278405 M-7.565628957388251 23.562117359231674 C-4.0917388708290225 30.860540698044044, -1.7806222576160335 37.9615202173028, 0.0905348833227344 43.074271705935246" stroke="#000000" stroke-width="1" fill="none"></path></g><g transform="translate(84.88643717338061 141.69531898208635) rotate(0 0.12072575220122417 21.520129638259533)"><path d="M6.49008590093381 23.38368639957994 C4.799762982236708 30.028988489169784, 3.352635980494553 33.25291661701696, -0.0021919507956318363 45.057261978278405 M7.12670917174346 23.82559165221542 C5.501706008437461 30.908618666404372, 2.7146752476467206 37.918174290903366, 0.0905348833227344 43.074271705935246" stroke="#000000" stroke-width="1" fill="none"></path></g></g><g transform="translate(116.33333333333337 78.65365231541973) rotate(0 22.5 10.5)"><path d="M-0.19973857700824738 -1.5808507651090622 C14.06242922320962 0.8383255522698164, 30.087216041982174 2.224423937126994, 44.82292787730694 0.551565483212471 M0.3223501816391945 0.1656179055571556 C15.431159485131502 0.9629463586956263, 29.807218849658966 -0.795711812004447, 44.840180315077305 -0.6560109034180641 M43.217905446887016 0.5138266831636429 C44.088409570381046 6.60878708139062, 44.41592660300434 9.84859916418791, 43.71852295100689 22.82136805355549 M45.54353991895914 -0.784571923315525 C45.11394811488688 5.297612193971872, 45.67088890887797 10.906857773661613, 44.82642284780741 20.2572865113616 M44.69467727839947 22.76690562069416 C27.653861816972494 19.305667139962317, 14.632501311600212 22.67195961661637, -0.768648698925972 21.55865414440632 M45.35931126028299 21.313845120370388 C33.83084496483207 20.44851289354265, 23.230273261666294 21.618947130069138, -0.16477449983358383 21.170118533074856 M-1.6605363637208939 21.24918682873249 C0.5738222838193179 13.603260501474143, 1.199953818395734 7.735974921286106, -1.4828253537416458 -1.4626504629850388 M-0.8589979037642479 20.312187395989895 C0.5636878439038993 14.289863460510968, 0.8060381837934256 8.063643956184386, 0.8394886627793312 0.9572410210967064" stroke="#000000" stroke-width="1" fill="none"></path></g><g transform="translate(122.59420289855132 86.95800014150701) rotate(0 3.152173913043498 2.065217391304344)"><path d="M3.0894628775071675 0.011055767011457496 C3.6985447656926396 -0.04720350854320996, 4.102931951016437 0.27339437403379985, 4.615613507658944 0.4609157389364871 C5.128295064301451 0.6484371038391743, 5.8421087446166 0.7688463835925605, 6.165552217362212 1.136183956427581 C6.488995690107823 1.5035215292626016, 6.645707914775216 2.0751612595187714, 6.556274344132615 2.664941175946611 C6.466840773490014 3.2547210923744503, 6.211073872857001 4.560752343647195, 5.628950793506605 4.674863454994618 C5.046827714156209 4.788974566342041, 3.855416718639725 3.6386307245723306, 3.063535868030241 3.3496078440311483 C2.271655017420757 3.060584963489966, 1.4336982619119785 2.9802350536331765, 0.8776656898497013 2.9407261717475244 C0.321633117787424 2.901217289861872, -0.32965380934643634 3.590062454306091, -0.27265956434342264 3.112554552717236 C-0.21566531934040892 2.6350466511283805, 0.7390674286644741 0.6725630385365798, 1.2196311598677836 0.0756787622143924 C1.7001948910710931 -0.521205514107795, 2.31243464488855 -0.4077114832157113, 2.610722822876435 -0.46875110521588903 C2.9090110008643197 -0.5297907272160668, 3.162344834500035 -0.3064152995638304, 3.009360227795093 -0.29055896978667395 M4.3385492074735925 1.0257334872049102 C4.829189232121288 0.9485467503262234, 4.605548373934976 0.731144747155333, 4.856962177126423 1.121189700987801 C5.10837598031787 1.5112346548202689, 5.871437739402877 2.9664031892487572, 5.847032026622273 3.3660032101997173 C5.822626313841669 3.7656032311506773, 5.401077739259376 3.274029072774056, 4.7105279004428 3.5187898266935607 C4.019978061626224 3.763550580613065, 2.233093160422138 4.681082725662827, 1.7037329937228176 4.834567733716744 C1.1743728270234972 4.9880527417706615, 1.8552643867408134 4.656919126355687, 1.5343669002468778 4.439699875017063 C1.2134694137529423 4.22248062367844, 0.1456074170978358 4.376873057620308, -0.22165192524079558 3.5312522256850043 C-0.588911267579427 2.6856313937497, -1.2210916969116195 -0.22924153551434778, -0.6691891537849104 -0.6340251165947635 C-0.11728661065820123 -1.0388086976751791, 2.3179122493038187 0.8919775169248934, 3.089763333519459 1.1025507392025102 C3.8616144177350997 1.313123961480127, 3.8758224480111076 0.8904128844579879, 3.961917351508932 0.6294142170709378 C4.048012255006756 0.3684155496838876, 3.3310789812832606 -0.5143505418487184, 3.6063327545064054 -0.4634412651197908" stroke="#000000" stroke-width="1" fill="none"></path></g><g transform="translate(134.87681159420333 87.06669579368095) rotate(0 3.152173913043498 2.065217391304344)"><path d="M3.3960481586681963 0.28729808440720106 C4.134141697405495 0.1924695337057411, 5.240901589779185 0.5323470478746779, 5.730415724139331 0.8587012601860908 C6.219929858499478 1.1850554724975038, 6.310497577925809 1.7514409302524447, 6.33313296482908 2.245423358275678 C6.35576835173235 2.739405786298912, 6.106555286716538 3.5137844796323447, 5.8662280455589535 3.8225958283254915 C5.625900804401369 4.131407177018638, 5.704154171127607 4.108597564137596, 4.891169517883572 4.098291450434559 C4.078184864639537 4.0879853367315215, 1.867628966459355 4.010284178034367, 0.9883201260947438 3.7607591461072696 C0.10901128573013275 3.5112341141801715, -0.36789984826212035 2.856124954986162, -0.38468352430409425 2.601141258871971 C-0.40146720034606814 2.34615756275778, 0.7400229762977582 2.5628949279293844, 0.8876180698429006 2.2308569694221236 C1.035213163388043 1.8988190109148628, 0.12683157535380746 0.8974443349961749, 0.5008870369667602 0.608913507828406 C0.874942498579713 0.3203826806606372, 2.6381929990776505 0.7093826179243945, 3.131950839520617 0.4996720064155107 C3.625708679963583 0.28996139490662687, 3.4894735068973564 -0.7564489986254558, 3.463434079624557 -0.6493501612248971 M3.385571254358518 -1.1413619010656029 C3.7703635641854993 -1.267212561817317, 4.016635743429927 -0.44828928641604865, 4.590790837923903 -0.06855410798475359 C5.164945932417878 0.3111810704465415, 6.618015703485823 0.8529846443945848, 6.830501821322373 1.1370491695221674 C7.042987939158922 1.42111369464975, 6.091732063107396 1.0761382653252414, 5.865707544943199 1.6358330427807417 C5.639683026779001 2.195527820236242, 5.8550406843328116 4.122200708251165, 5.4743547123371865 4.495217834255169 C5.0936687403415615 4.868234960259174, 4.146423114109111 4.26711121949201, 3.58159171296945 3.8739357988047702 C3.016760311829789 3.4807603781175303, 2.9293888688164365 2.3178831151157357, 2.08536630549922 2.1361653101317293 C1.241343742182004 1.954447505147723, -1.4278209252414642 3.1098333883949314, -1.482543666933846 2.7836289689007327 C-1.537266408626228 2.457424549406534, 1.011730580151864 0.7876853776560131, 1.7570298553449293 0.17893879316653716 C2.5023291305379947 -0.4298077913229388, 2.9702671472611115 -1.0539856597526995, 2.989251984224545 -0.8688505380361229 C3.008236821187978 -0.6837154163195462, 1.8412442878201745 1.0267351329261547, 1.870938877125528 1.2897495234659972" stroke="#000000" stroke-width="1" fill="none"></path></g><g transform="translate(149.22463768115983 87.9362610110722) rotate(0 3.152173913043498 2.065217391304344)"><path d="M3.0097902943768253 0.32697319419234194 C3.5274653172964356 0.2658715175690182, 4.488669461665416 0.1442066331794576, 5.066830880668154 0.3573069097756487 C5.644992299670892 0.5704071863718398, 6.221745381940679 1.0266764832347297, 6.4787588083932555 1.6055748537694887 C6.7357722348458315 2.1844732243042477, 6.914964871071097 3.579020220925828, 6.6089114393836095 3.830697132984204 C6.302858007696122 4.082374045042579, 5.35780282696102 3.183014626372168, 4.642438218268328 3.115636326119742 C3.9270736095756362 3.0482580258673164, 3.031596323095232 3.263922815910974, 2.316723787227459 3.4264273314696494 C1.6018512513596859 3.588931847028325, 0.6160819432123086 4.480313420253783, 0.35320300306169106 4.090663419471796 C0.09032406291107353 3.7010134186898096, 0.6182368165326856 1.7474431488703979, 0.7394501463237537 1.0885273267777311 C0.8606634761148219 0.42961150468506437, 0.6054252455043354 0.3806244396683408, 1.0804829818081 0.13716848691579586 C1.5555407181118648 -0.10628746583674906, 3.310776572766631 -0.251530242112897, 3.5897965641463423 -0.37220838973753834 C3.8688165555260534 -0.4928865373621797, 2.6808902266190033 -0.6214830914030449, 2.7546029300863677 -0.5869003988320523 M3.3210637144034743 0.09070433717876236 C3.8961238004427488 0.2318520802208125, 5.2361866451963515 1.553423580146311, 5.681471517256989 1.9297823983685984 C6.126756389317627 2.306141216590886, 6.300717051644211 1.9240963392731292, 5.992772946767304 2.3488572465124866 C5.684828841890397 2.773618153751844, 4.246671646756226 4.025845396599678, 3.8338068879955465 4.478347841804743 C3.4209421292348665 4.930850287009807, 4.040606294836281 5.0029700301507205, 3.5155843942032248 5.063871917742874 C2.9905624935701685 5.124773805335028, 1.4801669807868625 5.56229113046043, 0.6836754841972099 4.843759167357664 C-0.11281601239244265 4.125227204254898, -1.3617697294565547 1.2408734156345835, -1.2633645853346902 0.7526801391262756 C-1.1649594412128257 0.2644868626179678, 0.7678214354148779 1.9589062222323044, 1.2741063489283966 1.914599508307817 C1.7803912624419151 1.8702927943833298, 1.3877667743289959 0.8914882514295055, 1.774344895746422 0.4868398555793525 C2.160923017163848 0.0821914597291995, 2.9418549338806113 -0.5611488447531012, 3.5935750774329533 -0.5132908667931007 C4.245295220985295 -0.4654328888331, 5.477909184749465 0.7199171235237246, 5.6846657570604755 0.7739877233393562" stroke="#000000" stroke-width="1" fill="none"></path></g><g transform="translate(10 79.48698564875305) rotate(0 22.5 10.5)"><path d="M-0.09610430896282196 0.9489020556211472 C16.574934389442205 0.605210592225194, 31.446488834917545 1.0979650516062975, 45.94938261806965 -0.3516431599855423 M-0.3939512148499489 -0.419092021882534 C17.633316468447447 -0.7276998732239008, 35.370751082897186 0.16349232457578183, 45.86072155088186 -0.11001738160848618 M43.60366041958332 1.2921137064695358 C44.7861207319051 4.953080811351538, 43.37528308160603 11.345905216038227, 43.282768562436104 20.521277353167534 M45.22892566770315 0.47090569883584976 C44.031038856729865 6.422210010141135, 44.520946359857916 12.605363991856576, 44.68424388021231 21.136341728270054 M46.955478981137276 21.925898477435112 C32.46336031332612 22.591780201718212, 24.618046455085278 19.29037572555244, -1.3133346289396286 21.024126455187798 M44.563739500939846 20.26944986730814 C29.74627849832177 20.968889022246003, 14.501777395606037 21.740314984694123, 0.7409433946013451 21.0786008015275 M-0.23547284305095673 22.490393087267876 C-1.1708910954743623 13.98975851908326, -0.24606590397655964 9.634067188203334, 1.1693738251924515 -1.1560841351747513 M-0.7803788557648659 21.332253374159336 C0.2318460337072611 16.969444746524097, 0.5043615690618753 10.67100532054901, -0.0866115465760231 -0.8259647712111473" stroke="#000000" stroke-width="1" fill="none"></path></g><g transform="translate(16.260869565217945 87.79133347484033) rotate(0 3.152173913043498 2.065217391304344)"><path d="M3.926320406807469 0.4878118829014144 C4.5102571279693855 0.7284345037954782, 4.706261356482919 1.4167815687874876, 5.2614157675962065 1.5591323066160299 C5.816570178709494 1.701483044444572, 7.251921996783106 1.1228616939793632, 7.257246873487192 1.3419163098726674 C7.262571750191278 1.5609709257659716, 5.853058983538515 2.584243005769282, 5.293365027820725 2.873460001975855 C4.7336710721029345 3.1626769981824285, 4.469694355111839 2.921224586019873, 3.8990831391804477 3.0772182871121068 C3.3284719232490563 3.2332119882043404, 2.3323784700626944 3.858964890618015, 1.8696977322323776 3.8094222085292584 C1.4070169944020607 3.7598795264405016, 1.5212507780164655 3.036936056559897, 1.1229987121985472 2.779962194579567 C0.7247466463806289 2.522988332599237, -0.597761215494335 2.7899643812026165, -0.5198146626751323 2.2675790366472786 C-0.4418681098559296 1.7451936920919404, 0.7165605160159213 0.039976984207077404, 1.5906780291137634 -0.3543498727524619 C2.4647955422116055 -0.7486767297120012, 4.223737803684855 -0.05389006911271965, 4.724890415911921 -0.09838210510995715 C5.226043028138987 -0.14287414110719465, 4.598062402706664 -0.5427050862235054, 4.597593702476157 -0.6213020887358869 M2.1509173542056033 0.3581613858437409 C2.953482856077858 0.12302673412457399, 4.771214310010693 -1.1099469464740859, 5.5819130402101695 -1.0305280857161176 C6.392611770409646 -0.9511092249581494, 6.714675065155385 0.2623759437480726, 7.015109735402461 0.8346745503915504 C7.315544405649538 1.4069731570350281, 7.75691619359003 2.053206202130714, 7.384521061692627 2.403263554144749 C7.012125929795225 2.7533209061587844, 5.753150494300633 2.7215899524532547, 4.780738944018046 2.935018662475763 C3.808327393735459 3.1484473724982713, 1.9974041119709287 3.50660468904675, 1.5500517599971055 3.6838358142798002 C1.1026994080232824 3.8610669395128503, 2.5985011091280192 4.0733545887039915, 2.096624832175107 3.998405413874064 C1.5947485552221943 3.9234562390441363, -1.3515660730684342 3.9906954255048457, -1.46120590172037 3.2341407653002356 C-1.5708457303723058 2.4775861050956256, 0.8967817708753069 -0.007377040750200847, 1.4387858602634918 -0.5409225473535966 C1.9807899496516765 -1.0744680539569922, 1.4907103663060577 0.12318616352253364, 1.7908186346087396 0.032867725679861515 C2.0909269029114217 -0.05745071216281061, 2.916028637169463 -1.0049263178630383, 3.2394354700795835 -1.0828331744096293" stroke="#000000" stroke-width="1" fill="none"></path></g><g transform="translate(28.54347826086996 87.90002912701426) rotate(0 3.152173913043498 2.065217391304344)"><path d="M3.899211675339336 -0.1680988357488844 C4.7614252075082035 -0.06812842676114035, 5.996403929687535 1.2863859149332433, 6.295917143725811 1.562687229554685 C6.595430357764087 1.8389885441761267, 5.859516615376629 1.207239473779455, 5.696290959568993 1.4897090519797653 C5.533065303761356 1.7721786301800757, 5.770196044584191 2.8088229618944895, 5.316563208879993 3.2575046987565477 C4.862930373175795 3.706186435618606, 3.5743319441648573 3.924996340105019, 2.9744939453438053 4.181799473152115 C2.3746559465227532 4.43860260619921, 2.1822294134351536 5.113555273251741, 1.717535215953681 4.798323497039122 C1.2528410184722083 4.483091720826502, 0.3235199453600396 2.8047516708980718, 0.1863287604549697 2.2904088158763964 C0.049137575549899865 1.7760659608547213, 0.8181042273750484 1.9239267005283327, 0.894388106523262 1.7122663669090712 C0.9706719856714755 1.5006060332898097, 0.154052628223652 1.2910640735198111, 0.6440320353442508 1.020446814160827 C1.1340114424648495 0.7498295548018429, 3.330460757378145 0.09192833526829003, 3.834264549246855 0.08856281075516681 C4.338068341115564 0.08519728624204359, 3.7928799579458508 1.0084058894867038, 3.666854786556508 1.0002536670820876 M3.1644982258182592 0.7177805567424289 C3.6395807396867745 0.8925934640636258, 3.149411097092294 0.8468674064579569, 3.547019026882144 1.198704851719491 C3.9446269566719945 1.550542296981025, 5.214842879016656 2.5104588379612442, 5.55014580455736 2.8288052283116327 C5.885448730098064 3.147151618662021, 5.890066746248167 3.074320109619938, 5.558836580126366 3.108783193821822 C5.227606414004565 3.143246278023706, 4.156133451569823 2.631056170415988, 3.5627648078265497 3.0355837335229356 C2.9693961640832764 3.4401112966298832, 2.376191333448585 5.739543733596308, 1.9986247176667253 5.535948572463508 C1.6210581018848658 5.332353411330708, 1.4155163873184047 2.318539327936189, 1.2973651131353918 1.814012766726133 C1.179213838952379 1.3094862055160768, 1.557663448039359 2.8700678059102134, 1.2897170725686489 2.5087892052031697 C1.0217706970979388 2.147510604496126, -0.568561055203157 -0.013445767668963216, -0.31031313968886876 -0.3536588375161289 C-0.05206522417458043 -0.6938719073632946, 2.5059663658395372 0.24685056132949293, 2.839204565654379 0.4675107861201755 C3.1724427654692207 0.6881710109108581, 1.7956792543840285 1.1947249176259236, 1.6891160592001815 0.9703025112279664" stroke="#000000" stroke-width="1" fill="none"></path></g><g transform="translate(42.89130434782646 88.76959434440552) rotate(0 3.152173913043498 2.065217391304344)"><path d="M2.349242297616007 0.9577946145629315 C3.059952379246137 0.669898883535681, 5.059310366709536 -0.33386739268213683, 5.616363101672864 -0.3451582410612599 C6.173415836636192 -0.356449089440383, 5.602613387334416 0.5449345360558411, 5.691558707395974 0.8900495242881931 C5.780504027457533 1.235164512520545, 6.278601070633869 1.2535518306224773, 6.150035022042213 1.7255316883328518 C6.021468973450558 2.197511546043226, 5.354229941359301 3.343250465905276, 4.9201624158460415 3.72192867055044 C4.486094890332782 4.100606875195604, 4.342089117529782 3.9144884733823044, 3.5456298689626586 3.9976009162038366 C2.7491706203955353 4.080713359025369, 0.7021623830513402 4.650167110820225, 0.14140692444330183 4.220603327479632 C-0.4193485341647365 3.79103954413904, -0.01736178728477822 2.025442966504897, 0.18109711731442868 1.4202182161602832 C0.3795560219136356 0.8149934658156696, 0.8507113597542613 0.9749923330880923, 1.3321603520385432 0.5892548254119503 C1.8136093443228252 0.20351731773580822, 2.5704734134452134 -0.6632180890766066, 3.0697910710201204 -0.8942068298965693 C3.5691087285950274 -1.125195570716532, 4.367789715534698 -0.9451860351469477, 4.328066297487986 -0.7966776195078258 M3.424988788021739 -1.3468904318819974 C4.300164284020706 -1.5933321010960677, 4.996438793020624 -0.6999547175297316, 5.673192007906904 -0.3160330497437738 C6.349945222793184 0.06788861804218399, 7.384810452683839 0.5924057763192239, 7.4855080773394205 0.9566395748337488 C7.586205701995002 1.3208733733482738, 6.901287696287679 1.445844516333601, 6.277377755840394 1.8693697413433767 C5.6534678153931095 2.2928949663531526, 4.128558099917817 3.0128497105105247, 3.742048434655712 3.4977909248924037 C3.355538769393607 3.9827321392742827, 4.715481246936099 4.592623509683634, 3.9583197642677654 4.77901702763465 C3.201158281599432 4.965410545585666, -0.23931831949306648 5.280016546842757, -0.8009204613542869 4.616152032598502 C-1.362522603215507 3.952287518354248, 0.4838640550631808 1.448708599063829, 0.5887069131004434 0.7958299421691247 C0.693549771137706 0.14295128527442036, -0.6028653305138847 1.0180164380379195, -0.17186331313071124 0.698880091230276 C0.25913870425246227 0.3797437444226324, 2.538557513824954 -0.9035327690041609, 3.1747190173994846 -1.1189881386767362 C3.810880520974015 -1.3344435083493114, 3.896532309873433 -0.7213506691014533, 3.645105708316473 -0.5938521268051757" stroke="#000000" stroke-width="1" fill="none"></path></g><g><g transform="translate(82.91666666666663 45.403652315419734) rotate(0 27.507363602519035 13.891405035203007)"><path d="M-0.327003863453865 -0.0034927815198897427 C4.925528279609145 0.8700294577413105, 23.038487431406935 0.037912557191303264, 32.31660992006457 4.844118105371774 C41.59473240872221 9.650323653552245, 51.70204818215635 25.040023091435415, 55.34173106849194 28.833740507562936 M1.7021803788933902 -1.0509304371569306 C7.284062274918989 -0.5254829407493719, 25.871324463942976 -1.775689895394171, 34.71353466447128 2.85845536191325 C43.55574486499959 7.492600619220671, 51.54805942875746 22.508907774081436, 54.75544158206321 26.75394110668759" stroke="#000000" stroke-width="1" fill="none"></path></g></g><g><g transform="translate(137.3611111111112 73.59809675986416) rotate(0 -0.6483550366427835 -4.323751563164947)"><path d="M0.8888261765241621 -0.2716330021619797 C0.43567368597897455 -1.5880967022092307, -1.9588638618035816 -7.080436087206585, -2.1855362498097066 -8.375870124167898" stroke="#000000" stroke-width="1.5" fill="none" stroke-dasharray="12 8"></path></g></g><g><g transform="translate(138.2500000000001 72.76476342653079) rotate(0 -4.037630591350137 -1.1301217791106808)"><path d="M-1.0559819251298903 0.2964920550584793 C-2.473840836573534 -0.009911129761619952, -6.893875820879603 -2.474194122795679, -8.120899161034185 -2.556735613279841 M0.5904888348374517 -0.5934535613749177 C-0.9519895161484857 -0.7348228922469007, -7.077890606905114 -1.4119303601521183, -8.665750017537658 -1.632429892363823" stroke="#000000" stroke-width="1" fill="none"></path></g></g><g><g transform="translate(92.07975971280882 104.8317724957288) rotate(124.72901861415266 22.55224608194959 12.684579462741894)"><path d="M-1.1079260855913162 0.8999224215745925 C3.5570964250464856 1.5635054827597745, 20.17648458288046 -0.7077107307742558, 28.063208638727435 3.3160323952835844 C35.949932694574414 7.339775521341425, 42.970078143032595 21.438231073223537, 46.21241824949055 25.042381177921634 M0.5112739901337773 0.32677774756215516 C5.025462309032019 1.2030913484864691, 19.744041580874416 0.736139435716046, 27.196649384358665 4.554264760524859 C34.64925718784291 8.372390085333672, 41.721464796375805 20.183374603583026, 45.22692081103927 23.235529696415032" stroke="#000000" stroke-width="1" fill="none"></path></g></g><g><g transform="translate(95.77442794754029 135.93847606982138) rotate(124.72901861415266 -0.4237606989494225 -3.782139686777356)"><path d="M0.8999224215745925 0.155211827158928 C0.7195927803002636 -0.9467156920281257, -1.5712493100350888 -6.624512534065647, -1.7474438194734803 -7.719491200713638" stroke="#000000" stroke-width="1.5" fill="none" stroke-dasharray="12 8"></path></g></g><g><g transform="translate(99.22448026782683 127.72627455787672) rotate(124.72901861415266 -4.4838172499314055 0.000577129647581387)"><path d="M0.155211827158928 -0.5698912113904953 C-0.985967445630894 -0.7460857208288948, -6.820771302079489 -0.20911103870334258, -7.955001722330248 -0.15724463505580455 M-1.2224406929221003 1.7453119572903963 C-2.4613309122122233 1.174018931804996, -8.168147801991259 -1.1001382797638526, -9.122846327021739 -1.7441576979952247" stroke="#000000" stroke-width="1" fill="none"></path></g></g><g><g transform="translate(80.69444444444514 43.320318982086334) rotate(0 -25.30411801300835 13.899605010817794)"><path d="M-0.6965887516736984 -1.0356320410966873 C-5.91378487359594 -0.20222594241301217, -21.62152681935715 1.3214954028526842, -30.10536688930456 6.0793308228254315 C-38.58920695925197 10.83716624279818, -47.77874223093186 23.85043735206132, -51.59962917135815 27.511380478739795 M1.1385634243581446 1.0350571919884533 C-4.253459728163214 2.0728692406819516, -21.711169490694502 -0.10989272242723302, -30.525396636483336 4.523404756030068 C-39.33962378227217 9.15670223448737, -48.01493761786875 25.292914521535906, -51.74679945037487 28.83484206273226" stroke="#000000" stroke-width="1" fill="none"></path></g></g><g><g transform="translate(27.98076923076985 71.90701006877747) rotate(0 1.3203882891649528 -4.291667272772415)"><path d="M0.8989894419908524 0.7193543404340743 C1.4963715649865472 -0.4400144069215799, 2.5037086850516026 -6.037203236828816, 2.728956408633235 -7.696166100395407 M-0.08817983030341559 0.0514114238228649 C0.4919425533529277 -1.362834973376482, 1.8902165502514217 -7.926042176355866, 2.1764286689388928 -9.302688885978919" stroke="#000000" stroke-width="1" fill="none"></path></g></g><g><g transform="translate(28.454517704518594 71.96989163165897) rotate(351.1002086488003 5.261426078520003 -2.102952293198271)"><path d="M-0.6515088111162185 0.6181786090135575 C1.3910474635633325 -0.057043843380701675, 9.418312872187542 -2.3651341801489005, 11.174360968156156 -3.0766511882072223 M1.207310333708301 -0.10288156659342351 C3.2651489022439963 -1.206497289063004, 9.414115953441087 -4.464598990350798, 10.698624243580175 -4.8240831954101004" stroke="#000000" stroke-width="1" fill="none"></path></g></g><g><g transform="translate(84.19421265200776 104.75066027841173) rotate(242.93619598325918 -29.91982042086977 11.903311046160852)"><path d="M-6.794426504621849 -0.14451489150524144 C-10.978750158248943 0.47419919132898813, -25.3874982501127 -1.0143616941585716, -32.996935294212776 3.188492662293349 C-40.60637233831285 7.39134701874527, -49.038135829646535 21.76050571403659, -52.451048769222304 25.072611247206282 M-8.230283260733456 -1.2659891548845916 C-12.399912617940927 -0.4988926005485347, -25.991947699433954 0.016270119537082905, -33.461102878831326 4.1150155400964215 C-40.9302580582287 8.21376096065576, -49.68985692671912 20.061428923217644, -53.0452143371177 23.32648336847144" stroke="#000000" stroke-width="1" fill="none"></path></g></g><g><g transform="translate(72.89977428978034 136.4680901485953) rotate(242.93619598325918 0.996369586847436 -3.552428553047733)"><path d="M0.9216721504926679 -1.1636235684156417 C1.2553356934695021 -2.2092940462905775, 2.0294459467672197 -5.2074711627158585, 2.0463278735331163 -6.418537758754857 M-0.053588699838146514 0.8398701128270476 C0.14676201370381595 -0.49939001573844366, 1.2789616964396475 -6.542718724954804, 1.2698151393975035 -7.944727218922518" stroke="#000000" stroke-width="1" fill="none"></path></g></g><g><g transform="translate(68.70226422498581 129.85987926935263) rotate(594.0364046320593 4.816034331120079 -1.5197488460632655)"><path d="M0.3267290085554122 1.13597197830677 C1.5475710789652815 0.6339976279704923, 6.861902400002952 -3.557024983182968, 8.246724572951884 -4.1754696704333085 M-0.9608769912924617 0.6867533215787263 C0.5703419011717936 0.41435635851576014, 9.148062410558712 -2.2271554461367886, 10.59294565353261 -3.0976889581957265" stroke="#000000" stroke-width="1" fill="none"></path></g></g><g><g transform="translate(83.11666597610906 10.8329520905707) rotate(0 -0.9620333742798266 0.03938168237339568)"><path d="M-0.1272191494703292 0.6044359177350997 C-0.33608228904114024 0.920948502421379, -0.2720886459999217 0.9545829743146897, -0.33697290373479527 0.8757006615400316 M-1.6531479322817177 -0.1238391707930715 C-2.106659193149888 -0.04678973094560217, -1.3634224751551134 -1.060684175947681, -1.323771247085906 -0.7871312399301678" stroke="#000000" stroke-width="1" fill="none"></path></g></g><g><g transform="translate(93.71320346320351 143.556249718017) rotate(353.72361805727564 36.99324962056494 4.116070654785105)"><path d="M-0.6660170517861843 1.090893229097128 C11.759354355953853 2.2486617033002974, 62.10140712272485 6.0959483257523175, 74.65251629291606 7.141248080473065" stroke="#000000" stroke-width="1.5" fill="none" stroke-dasharray="3 6"></path></g></g><g transform="translate(180.7366738799651 130.73762189224055) rotate(0 20.17857142857133 19.821428571428555)"><path d="M11.827481563904822 2.212990603952999 C15.287577088948563 0.36213774996631964, 21.000944830554328 -0.07126077737849479, 25.22627047569167 1.004056852050649 C29.451596120829013 2.0793744814797925, 34.542409692224865 5.2087794029789745, 37.17943543472887 8.664896380527862 C39.81646117723288 12.12101335807675, 41.72393280231294 17.50902615261547, 41.04842493071574 21.740758717343976 C40.37291705911854 25.972491282072482, 36.33487601868042 31.240119907347893, 33.12638820514568 34.055291768898904 C29.917900391610942 36.87046363044991, 26.044632075310023 38.245280852172186, 21.797498049507322 38.63178988665004 C17.55036402370462 39.018298921127894, 11.08726275042153 38.76814612374156, 7.643584050329473 36.37434597576601 C4.199905350237415 33.980545827790465, 2.2079716418784647 28.57181274316755, 1.1354258489549807 24.268988998796765 C0.06288005603149682 19.96616525442598, -1.1168125426766475 14.554915303712486, 1.2083092927885701 10.557403509541306 C3.533431128253788 6.559891715370126, 12.378642633091804 1.8749163094030596, 15.086156861746288 0.28391823376968617 C17.79367109040077 -1.3070798418636873, 17.31631724931394 0.5209302895542802, 17.453394664715475 1.0114150557410646 M16.876458761800926 -1.1095415990521715 C20.648333466436863 -1.732631985663636, 26.884630883448278 0.9977274249549701, 30.41212007761233 3.536768869029764 C33.93960927177638 6.075810313104558, 36.550315139773275 10.332044331501956, 38.04139392678524 14.124707065396592 C39.532472713797205 17.917369799291226, 41.06839204753557 22.20829827965672, 39.35859279968413 26.292745272397575 C37.648793551832696 30.37719226513843, 31.93768176175336 36.621875410535836, 27.78259843967662 38.63138902184172 C23.627515117599877 40.640902633147604, 18.462085539354078 39.34866778078692, 14.428092867223684 38.34982694023289 C10.39410019509329 37.350986099678856, 6.194660457900961 35.74395795758459, 3.578642406894261 32.63834397851754 C0.9626243558875602 29.53272999945049, -1.441907400052686 23.921985763571, -1.2680154388165192 19.71614306583059 C-1.0941234775803526 15.510300368090178, 1.5108646358925495 10.859309227342049, 4.621994174311261 7.40328779207506 C7.733123712729974 3.947266356808072, 15.337717728251503 -0.10798482059811543, 17.39876179169575 -1.0199855457713412 C19.459805855139997 -1.931986270944567, 16.83458035240398 1.4365931759880077, 16.98825855497675 1.9312834410357063" stroke="#000000" stroke-width="1" fill="none"></path></g><g><g transform="translate(192.35686788161865 155.6919904428711) rotate(356.3275320198776 8.186554838319807 3.5416443870459204)"><path d="M-0.3794373761862516 0.9784141134470701 C1.0769298679361778 2.0160848542264316, 4.977857387981132 4.350683754290747, 7.833188126149796 5.030615618727335 C10.68851886431846 5.710547483163923, 15.311435910444995 4.9066114216066685, 16.752547052825733 5.058005300066599 M1.6222192719765007 0.44647757766768326 C2.9496752122211 1.7465988316907202, 4.2206139957557784 5.344897644183891, 6.5846695193715625 6.288947826582172 C8.948725042987347 7.232998008980453, 14.170114942416838 5.952163734394291, 15.80655241367121 6.11077867205737" stroke="#000000" stroke-width="1" fill="none"></path></g></g><g transform="translate(193.31020329172952 143.57585718635846) rotate(0 1.5178571428571104 1.7857142857142776)"><path d="M1.9559894533037676 0.9805029607407569 C2.256485578228143 0.6776064960189596, 1.345231519948749 -0.21734650649064566, 1.4180697486985947 -0.23082192817091762 C1.4909079774484404 -0.2442973498511896, 1.9903012344876119 0.418059666573327, 2.3930188258028418 0.8996504306591252 C2.7957364171180714 1.3812411947449235, 3.93938627145238 2.176879809487252, 3.8343752965899736 2.6587226563438717 C3.729364321727567 3.1405655032004915, 2.2759781267815695 3.6013262460840423, 1.7629529766284024 3.790707511798843 C1.2499278264752356 3.980088777513644, 1.00215637160236 4.063960749318577, 0.7562243956709725 3.795010250632677 C0.5102924197395851 3.5260597519467765, 0.41762793814207516 2.3846001586998997, 0.28736112104007727 2.1770045196834413 C0.15709430393807938 1.9694088806669832, 0.04856020019252416 2.6536820300113324, -0.025376506941014787 2.5494364165339274 C-0.09931321407455374 2.4451908030565224, -0.4874832168719452 1.8792825788706056, -0.15625912176115642 1.55153083881901 C0.17496497334963235 1.2237790987674146, 1.7450179939101658 0.7197348606090478, 1.9619680637237178 0.5829259762243539 C2.1789181335372696 0.4461170918396601, 1.0918970927675709 0.8503717378794429, 1.1454412971201555 0.7306775325108468 M2.7671489707269425 1.4819874855478814 C2.7751680958615887 1.631906873545729, 2.077602326791758 0.41652116802427974, 2.0658362868607 0.5702161152336651 C2.0540702469296424 0.7239110624430505, 2.5012245780232227 1.9912667919448364, 2.6965527311405975 2.4041571688041934 C2.891880884257972 2.8170475456635504, 3.4982103812532506 3.1224264280593914, 3.237805205564948 3.047558376389807 C2.9774000298766454 2.9726903247202223, 1.6364020410221478 1.7226612598744893, 1.1341216770107823 1.954948858786686 C0.6318413129994167 2.1872364576988828, 0.1419140232237988 4.504605945511366, 0.22412302149675467 4.441283969862987 C0.30633201976971053 4.3779619942146075, 1.8205792915800758 1.9142777333753178, 1.6273756666485173 1.5750170048964123 C1.4341720417169588 1.2357562764175067, -0.6170798328816915 2.4157575754042186, -0.9350987280925964 2.4057195989895535 C-1.2531176233035013 2.3956816225748883, -0.7235248758078723 2.088982226111946, -0.2807377046169115 1.514789146408422 C0.16204946657404923 0.9405960667048979, 1.2927549932693312 -0.8641790064690331, 1.7216242990531676 -1.0394388792315907 C2.150493604837004 -1.2146987519941483, 2.5942269632622468 0.499996990229671, 2.2924781300861063 0.4632299098330763" stroke="#000000" stroke-width="1" fill="none"></path></g><g transform="translate(206.73361811220343 148.74526131164504) rotate(0 1.517857142857224 1.875)"><path d="M2.6150981045480743 0.3804940462085171 C2.7110607031411527 0.43677406497034554, 1.9150788506545149 -0.2051574765606695, 1.8289041844477574 -0.058937761329203586 C1.7427295182409999 0.08728195390226232, 1.8567465785589878 0.779035895786274, 2.0980501073075297 1.2578123375973125 C2.339353636056072 1.736588779408351, 3.3113550638677864 2.4947884429599845, 3.276725356939009 2.813720889537028 C3.2420956500102314 3.1326533361140716, 2.426925356773543 3.19238100111667, 1.8902718657348647 3.171407017059573 C1.3536183746961865 3.1504330330024763, 0.48743709986200895 2.869000223794526, 0.0568044107069392 2.687876985194448 C-0.37382827844813055 2.50675374659437, -0.5836529420891654 2.2283228752869757, -0.6935242691955539 2.0846675854591052 C-0.8033955963019423 1.9410122956312348, -0.7563677477376943 2.1155602724423614, -0.6024235519313914 1.8259452462272256 C-0.4484793561250885 1.53633022001209, -0.37985627584432413 0.7650948864141827, 0.23014090564226364 0.3469774281682916 C0.8401380871288514 -0.07114003007759945, 2.858989789075779 -0.7840902112155854, 3.057559536988135 -0.6827595032481204 C3.2561292849004912 -0.5814287952806554, 1.6581591162743574 0.934664457185738, 1.4215593931163988 0.9549616759730817 M2.2487441085737934 -0.7844952452081417 C2.303870602112987 -0.6568969388787007, 1.7353862574905403 -0.5792604169809497, 1.944295020333101 -0.13943923795973445 C2.1532037831756616 0.3003819410614807, 3.2405939881850276 1.4098938824111704, 3.502196685629158 1.8544318289191488 C3.7637993830732883 2.298969775427127, 4.0028603536323395 2.025879844261067, 3.513911204997883 2.5277884410881355 C3.0249620563634263 3.029697037915204, 0.8397697747221078 4.566713650085952, 0.5685017938224195 4.865883409881558 C0.29723381292273127 5.165053169677164, 1.7594352275475913 4.46411457802135, 1.8863033195997536 4.322806999861771 C2.013171411651916 4.181499421702192, 1.4972476854229244 4.530963231663408, 1.3297103461353939 4.0180379409240805 C1.1621730068478633 3.505112650184753, 0.9871761880966107 2.0297247319213456, 0.8810792838745709 1.245255255425806 C0.7749823796525311 0.4607857789302665, 0.37609199972339075 -0.44824576656915927, 0.6931289208031554 -0.6887789180491573 C1.01016584188292 -0.9293120695291552, 2.8232313880170463 -0.12063576382035664, 2.7833008103531585 -0.19794365345418208 C2.7433702326892706 -0.27525154308800753, 0.8345551714567385 -0.9876647647306513, 0.45354545481982855 -1.1526262558521099" stroke="#000000" stroke-width="1" fill="none"></path></g><g transform="translate(187.16524530853644 138.9729160098878) rotate(0 6.875 6.517857142857139)"><path d="M0.5624617275349202 1.8139535136241216 C0.5624617275349202 1.8139535136241216, 0.5624617275349202 1.8139535136241216, 0.5624617275349202 1.8139535136241216 M0.5624617275349202 1.8139535136241216 C0.5624617275349202 1.8139535136241216, 0.5624617275349202 1.8139535136241216, 0.5624617275349202 1.8139535136241216 M0.27335595537767354 7.389266017418738 C2.4631453764744986 5.20154858546812, 4.212734183752685 2.0946672451369572, 6.5141378291398055 1.930310541293606 M0.7660339729194396 7.84985077601337 C3.169091794855558 5.673697512511525, 5.0356003317453375 3.305204023275265, 5.913497753858543 1.2332366394764032 M1.2611962296472603 12.64708760986121 C5.197876970095232 9.78601945403177, 6.722041839828012 4.755731722558559, 10.867072450930698 1.3767934487003348 M2.0176790518158785 12.629396511241957 C5.419436302251148 8.252294404119839, 8.020755286773637 5.1078224749896, 10.550227114839924 1.9355750109802445 M5.338113118482697 12.621681005454224 C7.642241309726431 11.319595831159871, 10.649001026822782 7.817584661324492, 15.061356394213785 5.136668048834887 M6.172941189965177 13.40751953622566 C9.610237623140875 9.823577122238246, 11.681435120413955 6.931312366377938, 13.987851384689261 4.376353290526655" stroke="#ced4da" stroke-width="0.5" fill="none"></path><path d="M5.324680811992669 0.7065731357865355 C6.694890616453974 0.1266617082612621, 8.191090532912327 -0.811278877145745, 9.630345427008628 -0.15332528105314847 C11.069600321104929 0.504628315039448, 13.234097112138636 3.0955349456192103, 13.960210176570474 4.654294712342114 C14.686323241002311 6.213054479065018, 14.37897804847031 7.891147409824876, 13.987023813599654 9.199233319284277 C13.595069578728998 10.507319228743677, 12.933279732873762 11.87249719610592, 11.608484767346539 12.502810169098517 C10.283689801819316 13.133123142091113, 7.769290040289264 13.115468586182311, 6.038254020436316 12.981111157239855 C4.307218000583368 12.846753728297399, 2.2506290475209845 12.851481895468863, 1.2222686482288525 11.69666559544378 C0.19390824893672054 10.541849295418698, -0.020879955685869866 7.69811195721792, -0.1319083753164758 6.052213357089356 C-0.24293679494708176 4.406314756960793, -0.29681147821264375 2.895114576273696, 0.5560981304452168 1.8212739946723997 C1.4090077391030773 0.7474334130711033, 4.115316569103236 -0.15191149956071937, 4.985549276630688 -0.39083013251842136 C5.85578198415814 -0.6297487654761234, 5.53043943823564 0.1783332105545791, 5.777494375609932 0.38776219692618774 M10.235110393816576 0.6400568709081131 C11.830076353559297 0.7929186389054766, 12.491038024993383 0.8327938991420577, 13.281157375027659 1.7326826126223276 C14.071276725061935 2.6325713261025974, 15.240315444295314 4.203030881199839, 14.975826494022236 6.039389151789733 C14.711337543749158 7.875747422379626, 12.821185638648364 11.640898820187573, 11.694223673389189 12.750832236161685 C10.567261708130014 13.860765652135797, 9.676248456509368 12.86436689436267, 8.214054702467187 12.698989647634406 C6.751860948425008 12.533612400906142, 4.114818138431042 12.667533418773381, 2.921061149136108 11.758568755792101 C1.7273041598411731 10.849604092810821, 1.634815114485714 8.513956231588738, 1.051512766697579 7.2452016697467325 C0.46821041890944415 5.976447107904727, -0.9196743809425305 5.465116777354389, -0.578752937592701 4.146041384740071 C-0.23783149424287142 2.826965992125753, 1.6240607869063919 -0.0005763288903692931, 3.0970414267965563 -0.6692506859391765 C4.570022066686721 -1.3379250429879836, 7.0292844250509345 0.008463095143632415, 8.259130901748284 0.13399524244722816 C9.488977378445632 0.2595273897508239, 10.490794918946278 -0.2696751926051042, 10.476120286980652 0.08394219788239798" stroke="#000000" stroke-width="1" fill="none"></path></g><g><g transform="translate(186.09381673710777 142.34476474938361) rotate(9.809925787652494 -4.37344296832174 0.5826757661200048)"><path d="M-0.5459867645055055 -0.927109445258975 C-1.9393081013751878 -0.39292767348566326, -7.84270873138947 1.5489961399297574, -9.324555077414425 2.0924609774989675 M1.3682314547896386 1.2005541506409645 C-0.07245911187359222 1.4746445580305787, -8.203020879945582 0.3912731877873996, -10.115117391433031 0.2590009853137325" stroke="#000000" stroke-width="1" fill="none"></path></g></g><g><g transform="translate(177.92787288722798 141.98762189224067) rotate(0 2.5411262132346906 13.322442323103388)"><path d="M-0.8245719920843839 1.0853700947016478 C-0.8823865782469511 0.7174814414232971, -0.20954003266090265 -4.364734733406271, -0.10015865676105018 -1.1585205126553773 C0.00922271913880228 2.047693708095517, -0.6593383621122695 15.449084162410493, -0.1682837366852692 20.322655419207013 C0.32277088874173104 25.196226676003533, 2.0372244521793026 28.430476805408084, 2.846169095800951 28.082907028123735 C3.655113739422599 27.735337250839386, 4.133565154045823 19.81607882151645, 4.685384125044621 18.23723675550093 M0.9433889827318489 0.6095854490809143 C0.6972004500217736 0.8629230010323227, -0.7403214367947888 -3.183893680222149, -1.1007874151878059 -0.2293185305781662 C-1.461253393580823 2.725256619065817, -1.8608601113665855 13.492725907318437, -1.2194068876262538 18.337036346944814 C-0.5779536638859221 23.18134678657119, 1.4378929036114412 28.817295886174374, 2.747931927254185 28.83654410718009 C4.057970950896928 28.855792328185803, 6.357412823650989 20.326938332470917, 6.640827254230208 18.452525672979103" stroke="#000000" stroke-width="1" fill="none"></path></g></g><g><g transform="translate(205.94247786211213 147.03744352655946) rotate(8.939419042207662 5.460775651983681 -4.380795612542798)"><path d="M0.5540796708315612 -3.4798900369036203 C1.3357221588614472 -3.7978641437409344, 2.464224730748768 -5.058720636719061, 4.294497874824934 -5.247847857611191 C6.1247710189011 -5.4369750785033215, 10.236724731983522 -4.82298157573531, 11.53571853528856 -4.614653362256404 M-0.6141672313213349 -4.3261038593429335 C0.5908181259903198 -4.500434865918559, 4.74070903072142 -3.935076656767321, 6.627074906750254 -3.801939790459287 C8.513440782779087 -3.6688029241512528, 9.715280982391812 -3.694218117081025, 10.704028024851667 -3.527282661494728" stroke="#000000" stroke-width="1" fill="none"></path></g></g></svg>