<svg version="1.1" xmlns="http://www.w3.org/2000/svg" viewBox="0 0 507.4906481090933 156.47698312220416" width="507.4906481090933" height="156.47698312220416">
  <!-- svg-source:excalidraw -->
  
  <defs>
    <style>
      @font-face {
        font-family: "Virgil";
        src: url("https://excalidraw.com/FG_Virgil.woff2");
      }
      @font-face {
        font-family: "Cascadia";
        src: url("https://excalidraw.com/Cascadia.woff2");
      }
    </style>
  </defs>
  <g transform="translate(10 38) rotate(0 39 16)"><text x="0" y="23" font-family="Virgil, Segoe UI Emoji" font-size="20px" fill="#000000" text-anchor="start" style="white-space: pre;" direction="ltr">Request</text></g><g transform="translate(425 10) rotate(0 30.5 13)"><text x="0" y="19" font-family="Virgil, Segoe UI Emoji" font-size="16px" fill="#087f5b" text-anchor="start" style="white-space: pre;" direction="ltr">Success</text></g><g transform="translate(419 96) rotate(0 32 16)"><text x="0" y="23" font-family="Virgil, Segoe UI Emoji" font-size="20px" fill="#c92a2a" text-anchor="start" style="white-space: pre;" direction="ltr">Failure</text></g><g transform="translate(137 38.5) rotate(0 38.5 16)"><text x="0" y="23" font-family="Virgil, Segoe UI Emoji" font-size="20px" fill="#000000" text-anchor="start" style="white-space: pre;" direction="ltr">Validate</text></g><g transform="translate(129 36.5) rotate(0 46.5 18.75)"><path d="M-0.6301252543926239 -0.7761547863483429 C22.280022357404235 -0.7378114132583141, 49.36769072115422 0.8906761737167835, 94.9965732395649 0.5868470370769501 M0.1282557100057602 -0.9686223119497299 C26.10634922236204 1.3381118462979793, 52.42414915561676 0.8843035386502743, 92.69539199769497 0.26712073385715485 M92.06071355938911 -0.2957747280597687 C91.44537471793592 13.176826659590006, 92.76422904990613 23.537825264036655, 94.11786249279976 37.8403899371624 M92.83257232606411 0.09875144064426422 C93.53168385662138 8.433719735592604, 92.02732413448393 18.790553875267506, 92.30826269090176 36.64835251867771 M92.72179773449898 36.39844200015068 C62.63659871965646 38.315699966400864, 33.34806108176707 38.96060601040721, 0.7220924198627472 37.62319919466972 M93.9118736833334 36.55456818640232 C69.05121038109064 38.10062765493989, 46.83005818724632 38.83734058752656, -0.2805420309305191 37.45562495291233 M1.608010083436966 37.754737585783005 C0.6865744087845087 25.213428493589163, 1.9196743462234735 17.035125993192196, 1.5953958332538605 -0.6477330029010773 M-0.7690941244363785 36.55751933157444 C-0.7380288485437632 24.00457375124097, -1.1873043421655893 9.37681432813406, -0.721901074051857 -0.8867455571889877" stroke="#000000" stroke-width="1" fill="none"></path></g><g transform="translate(255 38) rotate(0 33.5 16)"><text x="0" y="23" font-family="Virgil, Segoe UI Emoji" font-size="20px" fill="#000000" text-anchor="start" style="white-space: pre;" direction="ltr">Update</text></g><g transform="translate(249 35.5) rotate(0 39 19)"><path d="M-0.013143083080649376 1.5702366139739752 C30.05746860187501 -1.3741169974394143, 58.285041727870706 1.8337194517068565, 79.42652753926814 -0.08915198780596256 M0.08010673057287931 0.8319914834573865 C24.584044783189896 0.5256397421471775, 50.42477005962283 0.3557115192525089, 78.77322908770293 0.5412925081327558 M77.11230091191828 1.8773192074149847 C77.95862663811073 12.760653051547706, 77.13496167486534 27.805720522999763, 79.47205553390086 39.59267692826688 M77.63212844263762 0.4720545606687665 C78.82670391274615 10.995395021140578, 77.98401264024898 23.050188614241783, 77.63448065053672 38.01548205781728 M78.66550407744944 38.54732256196439 C59.59896797928959 35.99972641127184, 41.07721070498228 38.92530959503725, 0.3199154529720545 36.63883041404188 M77.87101214658469 37.62732778955251 C59.3063562490046 37.8612558307685, 39.11407107133418 38.423121965173635, -0.1790085779502988 37.07693376112729 M-0.946245988830924 37.75987314246595 C1.041993639562279 24.81497977618128, 1.0389730549789966 9.063924529403444, 0.5902855191379786 1.6722943093627691 M-0.2335461126640439 38.49559559393674 C0.8017055220343172 28.332770870998502, 0.6215985543467104 18.283979847095907, -0.9446128653362393 0.5923773543909192" stroke="#000000" stroke-width="1" fill="none"></path></g><g transform="translate(364 38.5) rotate(0 22 16)"><text x="0" y="23" font-family="Virgil, Segoe UI Emoji" font-size="20px" fill="#000000" text-anchor="start" style="white-space: pre;" direction="ltr">Send</text></g><g transform="translate(354.5 37.5) rotate(0 33.25 17.75)"><path d="M1.3391667511314154 -1.0817561354488134 C18.792447087215262 -0.3324069399805739, 40.245595816243444 1.4502990226773544, 67.25939660333097 0.833439389243722 M-0.3406963748857379 0.24528789054602385 C16.759685507928953 -0.7895839705271646, 33.43143751556054 0.33887706257868566, 66.9381246464327 0.7148079527541995 M67.79454760812223 1.1075916681438684 C66.72207540547942 11.287744198506699, 68.06824422156905 24.60880592381582, 64.57749985717237 34.49560556747019 M66.60590909887105 0.3381116045638919 C67.15921585408505 11.879408450098708, 66.60972716060932 23.716202236246318, 66.31910683680326 35.60611933004111 M64.87865733169019 35.66805801726878 C43.645451825065535 35.09378808077891, 18.147344203572715 35.349115961161445, -1.0543423388153315 37.34096304513514 M65.63452770281583 36.286742622964084 C43.655373635748404 36.506460268641824, 19.353607759904115 35.478352774525995, 0.47231822181493044 34.77288522850722 M-1.1058307383209467 35.94443050958216 C0.9100387666514144 28.46347305723466, -1.9862507607648148 16.999523432645947, 0.29740273021161556 -0.07280995510518551 M-0.9154545767232776 35.592126990668476 C-1.0107593103265389 22.5693042084109, -0.6120229824399576 8.85217123785987, 0.8123401002958417 0.4689813805744052" stroke="#000000" stroke-width="1" fill="none"></path></g><g><g transform="translate(225 56.5) rotate(0 10.71040488595142 0.5202338175330965)"><path d="M0.34856817685067654 -0.6655352409929037 C3.955348233009378 -0.6521110709756613, 18.683604462568958 -0.0623206671327353, 22.348382031545043 -0.05095528922975068 M-0.9275722596421838 1.5994548121467234 C2.489746037187675 1.8242944196239115, 17.803877936465042 1.658537770844996, 21.583237134478985 1.4597184351459145" stroke="#087f5b" stroke-width="1" fill="none"></path></g><g transform="translate(225 56.5) rotate(0 10.71040488595142 0.5202338175330965)"><path d="M10.742890627808258 5.82153370096301 C14.983098990188044 4.33045359869268, 18.154657141075095 1.8893906856837503, 20.682483628299085 1.9872216252423822 M11.431409099311887 5.89667165270028 C14.961441382177087 4.104569204093707, 17.998444698842537 2.6341098314414007, 21.754106950154526 1.7165909092221407" stroke="#087f5b" stroke-width="1" fill="none"></path></g><g transform="translate(225 56.5) rotate(0 10.71040488595142 0.5202338175330965)"><path d="M10.537873276219614 -1.7001158954190818 C14.843435277599177 -0.49170629268757504, 18.088589561224506 -0.23268397965745036, 20.682483628299085 1.9872216252423822 M11.226391747723243 -1.6249779436818121 C14.792022957264297 -0.9518691799953694, 17.8962438060541 0.04373941406458293, 21.754106950154526 1.7165909092221407" stroke="#087f5b" stroke-width="1" fill="none"></path></g></g><g><g transform="translate(331 55) rotate(0 11.126472836649043 0.6583065902475482)"><path d="M-0.7201459463685751 -0.5649771574884653 C2.5663156890620793 -0.45870661772787574, 16.919072757537165 -0.4555875901132822, 20.687630874291063 -0.27006709612905977 M1.1026387024484574 1.752805889490992 C4.685221407668044 2.1192362108267844, 19.60171708629156 1.6688057132996619, 22.973091619666665 1.125572929624468" stroke="#087f5b" stroke-width="1" fill="none"></path></g><g transform="translate(331 55) rotate(0 11.126472836649043 0.6583065902475482)"><path d="M12.69193378463205 4.871218071452434 C16.71169160771177 4.304887569531995, 21.16640443334893 1.8447328452965204, 23.385512576620094 0.09758602858055365 M13.540082655414512 5.565359611628204 C16.195936135860432 4.043291924159432, 18.70040994417165 2.6848016579492677, 22.59681572125526 1.1116807127255015" stroke="#087f5b" stroke-width="1" fill="none"></path></g><g transform="translate(331 55) rotate(0 11.126472836649043 0.6583065902475482)"><path d="M12.103415686732093 -2.4586267108448303 C16.291801384414832 -0.23067185389427491, 20.970585661852418 0.09992695638651805, 23.385512576620094 0.09758602858055365 M12.951564557514555 -1.7644851706690607 C15.727846087034346 -1.0570152380607567, 18.411300550818307 -0.18634648888912714, 22.59681572125526 1.1116807127255015" stroke="#087f5b" stroke-width="1" fill="none"></path></g></g><g><g transform="translate(434 56) rotate(0 30.836990846013634 0.21522721552287294)"><path d="M-0.234444385394454 -0.8649273756891489 C10.540764401728907 -0.6282308105379343, 52.8440850281467 1.0950603362172844, 63.49064810909331 1.0748740430921317 M-1.8166664170660078 1.2953818067349494 C8.857505694484958 1.250711816791445, 51.523610798971106 -0.2364561990462243, 62.27519290274009 -0.483391833063215" stroke="#087f5b" stroke-width="1" fill="none"></path></g><g transform="translate(434 56) rotate(0 30.836990846013634 0.21522721552287294)"><path d="M32.95495545411535 9.748236271465753 C41.88710527331352 7.807359823125228, 44.119502661535634 5.172175605323442, 63.428160275649276 -1.5953341336362064 M35.37913401065447 11.271338971244727 C44.326567545942744 5.99292902676786, 54.406147927483175 1.8121086953149863, 62.79921669917181 -1.3307142774946987" stroke="#087f5b" stroke-width="1" fill="none"></path></g><g transform="translate(434 56) rotate(0 30.836990846013634 0.21522721552287294)"><path d="M32.35489141130331 -10.764197166095077 C41.34999857727506 -8.534073309849509, 43.70437875362651 -6.999429570112824, 63.428160275649276 -1.5953341336362064 M34.77906996784243 -9.241094466316103 C43.78887271640833 -6.900317473783868, 54.09147317136325 -3.4574775210504036, 62.79921669917181 -1.3307142774946987" stroke="#087f5b" stroke-width="1" fill="none"></path></g></g><g><g transform="translate(146.5 84.97347504039999) rotate(0 146.2074258777584 30.029629935706566)"><path d="M-0.17101179398596278 1.0896925035864113 C16.995762265396305 10.17826981263114, 54.25619963192596 45.27181902678142, 103.30716550937109 54.61404405745881 C152.3581313868162 63.9562690881362, 262.4384377052686 56.80620227183092, 294.13478347068485 57.14304268765075 M-1.7199317151680589 0.6161771226301789 C15.23984900872875 9.339457213113734, 52.95728265998169 43.1606663048027, 102.22621137106978 52.77683411478269 C151.49514008215786 62.39300192476267, 261.94539507028225 57.55516884616453, 293.8936405513605 58.3131839825101" stroke="#c92a2a" stroke-width="1" fill="none"></path></g><g transform="translate(146.5 84.97347504039999) rotate(0 146.2074258777584 30.029629935706566)"><path d="M267.583402681273 68.32705882173215 C275.82234905860855 67.0570207186703, 283.6050275500785 62.57713999222907, 292.57928338052534 56.97819059959424 M264.9825201501293 69.12639798298662 C272.02042441268634 65.36140610336889, 277.7578976230682 64.39796958065747, 294.8356959751045 58.27054353023691" stroke="#c92a2a" stroke-width="1" fill="none"></path></g><g transform="translate(146.5 84.97347504039999) rotate(0 146.2074258777584 30.029629935706566)"><path d="M267.45572086815866 47.806247440589345 C275.75035499392277 53.21680660822246, 283.5745994607089 55.41734119334353, 292.57928338052534 56.97819059959424 M264.85483833701494 48.60558660184381 C271.78449858910477 49.492616149638174, 277.55091990486505 53.18167159757594, 294.8356959751045 58.27054353023691" stroke="#c92a2a" stroke-width="1" fill="none"></path></g></g><g><g transform="translate(288.11049504436687 85.98622077729556) rotate(0 87.7239185037584 29.035978567043458)"><path d="M0.845720874890685 -0.20764815174043183 C4.088646754807082 6.179005645742539, 7.178384975679819 29.690430861278948, 18.755536732067753 39.18261976073994 C30.332688488455688 48.67480866020093, 44.18832216889284 53.415252507419964, 70.3086314132183 56.74548524502552 C96.42894065754375 60.075717982631076, 157.8897669295318 58.71023300997427, 175.47739219802048 59.16401618637329 M-0.16941439513117085 -1.3622673767432572 C3.5008227109147585 4.594582919372144, 9.268589378223421 27.43714604360568, 20.950926620689618 37.36793342686756 C32.63326386315582 47.29872081012944, 44.146888262672945 54.959165366643745, 69.92460905966601 58.22245692282802 C95.70232985665908 61.4857484790123, 158.19739452076175 57.20168927210828, 175.61725140264804 56.947682763973226" stroke="#c92a2a" stroke-width="1" fill="none"></path></g><g transform="translate(288.11049504436687 85.98622077729556) rotate(0 87.7239185037584 29.035978567043458)"><path d="M147.50351440580366 66.6637290786724 C155.45122496691732 66.57714859132574, 161.68594870867977 62.28322937771831, 176.69599961950058 57.202858453208556 M148.08715039072362 67.35635715031582 C159.26034530325109 63.58416446197235, 168.69651711061763 59.85024933775137, 175.13256480912293 56.64112671330755" stroke="#c92a2a" stroke-width="1" fill="none"></path></g><g transform="translate(288.11049504436687 85.98622077729556) rotate(0 87.7239185037584 29.035978567043458)"><path d="M146.70045827614234 46.15823949079733 C154.98952251681376 51.01804336747232, 161.41818307267044 51.6761681956579, 176.69599961950058 57.202858453208556 M147.2840942610623 46.85086756244074 C158.66828280432426 50.85897217326356, 168.40904155822128 54.902476621590345, 175.13256480912293 56.64112671330755" stroke="#c92a2a" stroke-width="1" fill="none"></path></g></g><g><g transform="translate(370.5403146364704 84.5) rotate(0 58.10839528428755 30.528467123980022)"><path d="M-0.036960494890809104 -0.9200488742440939 C0.822891451930217 5.353321681568954, -0.7342369834187785 27.09196580062391, 5.255658711956215 37.261958186849554 C11.245554407331209 47.4319505730752, 17.284441941385236 56.59763366844499, 35.90241367735916 60.099905443109755 C54.520385413333074 63.60217721777452, 103.69179267724503 58.78245491231448, 116.96348912779975 58.27558883483813 M-1.5155034840479493 1.2113215214386583 C-0.7940514469616493 7.732649272295269, -2.145628929160851 28.841352885130366, 4.476028714084398 38.86233091641178 C11.097686357329646 48.883308947693195, 19.338398152333763 58.44789236478502, 38.214442375423545 61.33718970912713 C57.09048659851332 64.22648705346924, 104.51932370656628 56.872771278532504, 117.73229405262309 56.19811498246447" stroke="#c92a2a" stroke-width="1" fill="none"></path></g><g transform="translate(370.5403146364704 84.5) rotate(0 58.10839528428755 30.528467123980022)"><path d="M89.17568767029692 69.76147080442124 C99.27437981659078 63.37322143917261, 107.14431011669893 62.86511660816387, 119.25186630130547 55.47013112961606 M91.01408415898581 68.99837630564534 C99.042439875605 65.78630139100132, 105.16279994829952 62.43165450127241, 117.78965042975533 56.847795532674645" stroke="#c92a2a" stroke-width="1" fill="none"></path></g><g transform="translate(370.5403146364704 84.5) rotate(0 58.10839528428755 30.528467123980022)"><path d="M87.12322429584955 49.343160480538124 C97.78980593175969 49.245313649673406, 106.29198851462712 55.026979185864725, 119.25186630130547 55.47013112961606 M88.96162078453844 48.580065981762225 C97.4779184953766 50.97946611344882, 104.16182745493883 53.23111466265402, 117.78965042975533 56.847795532674645" stroke="#c92a2a" stroke-width="1" fill="none"></path></g></g><g><g transform="translate(96.5 52.5) rotate(0 12.72986351810394 0.3323683883093622)"><path d="M-0.9624363306909799 -0.9641187842935324 C3.329419231042266 -1.1042983587831259, 21.730403554067014 0.009958368912339165, 26.422163366898893 0.04788357652723785 M0.7331458663567902 1.1441149086132647 C4.7577043091878295 1.134708805717528, 20.872746550999583 1.768763300813735, 25.17075367089361 1.6104477054253223" stroke="#000000" stroke-width="1" fill="none"></path></g><g transform="translate(96.5 52.5) rotate(0 12.72986351810394 0.3323683883093622)"><path d="M11.376900613611111 5.512934799674679 C17.00513269881722 4.856229686355957, 20.646079977299774 4.316137888532875, 23.95027812802233 2.035517765795812 M12.534800628992276 5.804577263883095 C17.606586945761794 4.821009745479372, 22.341840308814106 2.66095767935, 24.671546977213584 1.9041370769077917" stroke="#000000" stroke-width="1" fill="none"></path></g><g transform="translate(96.5 52.5) rotate(0 12.72986351810394 0.3323683883093622)"><path d="M11.423968263850886 -3.721489119522089 C17.103856761373066 -1.0918632663723091, 20.728051761019053 1.6547533990780365, 23.95027812802233 2.035517765795812 M12.58186827923205 -3.4298466553136726 C17.59099872225744 -0.7834748359104643, 22.307749672957968 0.6865484961102829, 24.671546977213584 1.9041370769077914" stroke="#000000" stroke-width="1" fill="none"></path></g></g></svg>
