<svg version="1.1" xmlns="http://www.w3.org/2000/svg" viewBox="0 0 733.4665471266258 565.9215965111871" width="733.4665471266258" height="565.9215965111871">
  <!-- svg-source:excalidraw -->
  <g transform="translate(222.51736244706547 10) rotate(0 3.3822525597269646 27.058020477815717)"><text x="0" y="40.11604095563142" font-family="Virgil, Segoe UI Emoji" font-size="33.82252559726963px" fill="#c92a2a" text-anchor="start" style="white-space: pre;" direction="ltr">1</text></g><g transform="translate(305.8523074603379 10) rotate(0 12.683447098976103 27.058020477815717)"><text x="0" y="40.11604095563142" font-family="Virgil, Segoe UI Emoji" font-size="33.822525597269625px" fill="#000000" text-anchor="start" style="white-space: pre;" direction="ltr">2</text></g><g transform="translate(406.94407841217696 10) rotate(0 12.683447098976103 27.058020477815717)"><text x="0" y="40.11604095563142" font-family="Virgil, Segoe UI Emoji" font-size="33.822525597269625px" fill="#000000" text-anchor="start" style="white-space: pre;" direction="ltr">3</text></g><g transform="translate(488.1181398456241 10) rotate(0 10.146757679180894 27.058020477815717)"><text x="0" y="40.11604095563142" font-family="Virgil, Segoe UI Emoji" font-size="33.82252559726963px" fill="#000000" text-anchor="start" style="white-space: pre;" direction="ltr">4</text></g><g transform="translate(573.4655042749002 10) rotate(0 12.683447098976103 27.058020477815717)"><text x="0" y="40.11604095563142" font-family="Virgil, Segoe UI Emoji" font-size="33.822525597269625px" fill="#000000" text-anchor="start" style="white-space: pre;" direction="ltr">5</text></g><g transform="translate(115.79514022484318 19.058020477815717) rotate(0 41.0625 18)"><text x="0" y="26" font-family="Virgil, Segoe UI Emoji" font-size="22.499999999999996px" fill="#000000" text-anchor="start" style="white-space: pre;" direction="ltr">reverse</text></g><g><g transform="translate(251.32854378730326 35.83545641208383) rotate(0 15.800427761620256 1.2225640657318877)"><path d="M-0.14315931424498562 -0.8432579196989536 C5.2158083123938255 -0.39962845882530984, 25.733459181078278 2.794749723833999, 31.04045460923076 3.2883860511627208 M-1.6774566835630687 1.3284277271199971 C4.151891723474588 1.3527078206731034, 27.864626708319914 1.122457204668796, 33.27831220680349 1.4124784843638698" stroke="#000000" stroke-width="1" fill="none"></path></g><g transform="translate(251.32854378730326 35.83545641208383) rotate(0 15.800427761620256 1.2225640657318877)"><path d="M16.998893698493227 5.447872085549145 C21.86597383267904 5.259365497290261, 23.442864207129254 5.414160726180457, 33.331710450760895 0.7638450443402264 M18.759743016898177 6.620640552768348 C24.028411550507705 4.814041849503915, 28.862780351449217 2.8909803430454293, 32.51228886756984 1.8526932625449508" stroke="#000000" stroke-width="1" fill="none"></path></g><g transform="translate(251.32854378730326 35.83545641208383) rotate(0 15.800427761620256 1.2225640657318877)"><path d="M17.17446376478123 -5.518488693006283 C22.06242566949507 -3.434747367677841, 23.602934285334968 -1.0074947711145534, 33.331710450760895 0.7638450443402264 M18.93531308318618 -4.34572022578708 C24.193072756388087 -2.4373541672721055, 28.96795285581609 -0.6446651654703499, 32.51228886756984 1.8526932625449508" stroke="#000000" stroke-width="1" fill="none"></path></g></g><g><g transform="translate(346.15071271761155 36.85194607852901) rotate(0 18.91094900960468 0.2060743992866918)"><path d="M-0.41761609688401224 -1.1466126881539822 C5.9885893180792324 -1.2667132578790188, 31.750684647175074 -0.20982751473784444, 38.239514116093396 0.01578038111329083 M1.563996722912416 0.8658117052260788 C7.887137592184649 0.8870260845962913, 31.524669719316584 1.4335898282472044, 37.637406965007884 1.5614903324190528" stroke="#000000" stroke-width="1" fill="none"></path></g><g transform="translate(346.15071271761155 36.85194607852901) rotate(0 18.91094900960468 0.2060743992866918)"><path d="M18.048947254572585 8.633417519530324 C24.87676472721098 7.41475572914776, 30.22098261017552 4.5068551444829215, 36.99466648596077 2.365974144657128 M19.34649716693073 7.105889215662133 C26.03822711332775 6.30218631432283, 33.36417017643569 3.5388146561925993, 38.02162349331712 2.0593258448326317" stroke="#000000" stroke-width="1" fill="none"></path></g><g transform="translate(346.15071271761155 36.85194607852901) rotate(0 18.91094900960468 0.2060743992866918)"><path d="M18.32920005428547 -4.216843536143591 C25.15641531482731 -1.7931300536077335, 30.421174951859662 -1.0576800480178439, 36.99466648596077 2.365974144657128 M19.626749966643615 -5.744371840011782 C26.196450579086587 -1.8583982403598953, 33.42011199708616 0.06808812324185509, 38.02162349331712 2.0593258448326317" stroke="#000000" stroke-width="1" fill="none"></path></g></g><g><g transform="translate(442.44791800262124 36.298042372641305) rotate(0 17.57112676789518 0.759978105174369)"><path d="M-0.3972001276910305 0.3526362262666225 C5.047083000093698 0.5434975229203701, 27.53762734308839 0.8094782195985317, 33.40327811613679 0.8379440389573575 M1.5951310759317132 -0.5078337002824993 C7.330891556991263 -0.14365247468464087, 30.10751282925717 1.721781073110178, 35.539453663481396 2.0277899106312542" stroke="#000000" stroke-width="1" fill="none"></path></g><g transform="translate(442.44791800262124 36.298042372641305) rotate(0 17.57112676789518 0.759978105174369)"><path d="M19.44427215234405 5.191018309105758 C23.997661545313413 5.53711797310611, 29.54637099802727 4.611773115922015, 35.16883653680372 3.30505660838938 M18.696171350475286 6.076654425700911 C24.316752035147115 4.494419815145267, 29.31987399099661 3.0834924550021663, 36.12905890487796 2.825629445862257" stroke="#000000" stroke-width="1" fill="none"></path></g><g transform="translate(442.44791800262124 36.298042372641305) rotate(0 17.57112676789518 0.759978105174369)"><path d="M20.28091652982335 -6.590154254605446 C24.50172617567876 -1.9883429823509549, 29.748018013845147 1.3447930624988127, 35.16883653680372 3.30505660838938 M19.53281572795459 -5.704518138010292 C24.872824295738038 -3.439576225279365, 29.603211496455685 -1.0100006180678878, 36.12905890487796 2.825629445862257" stroke="#000000" stroke-width="1" fill="none"></path></g></g><g><g transform="translate(517.9479180026212 36.60545453573508) rotate(0 22.658068912378553 0.45256594208065337)"><path d="M0.748490933328867 0.8058427177369596 C8.398379631588856 1.0629189469986862, 38.19299145912131 1.4893358511595447, 45.63382788076997 1.3839677750013493 M-0.3176900560129434 0.18330619920976465 C7.165368920021381 0.09286087334577779, 37.05569310620738 -0.6294576572043431, 44.493542054547 -0.4731498340357372" stroke="#000000" stroke-width="1" fill="none"></path></g><g transform="translate(517.9479180026212 36.60545453573508) rotate(0 22.658068912378553 0.45256594208065337)"><path d="M24.258001288278926 6.8887884555313 C29.764329511369077 4.138383595506624, 33.743256038616245 4.57466338837531, 44.723300171894955 -1.8190673308659622 M23.07947966444396 8.471484317809642 C27.690747162659925 5.413260514480255, 33.93363406202923 2.3363787628562553, 44.88144948321395 0.20633934827257905" stroke="#000000" stroke-width="1" fill="none"></path></g><g transform="translate(517.9479180026212 36.60545453573508) rotate(0 22.658068912378553 0.45256594208065337)"><path d="M24.181989915450757 -8.846822323902401 C29.68865701591293 -7.225174103907025, 33.688705176091645 -2.4163671158233555, 44.723300171894955 -1.8190673308659622 M23.00346829161579 -7.264126461624059 C27.648624551422703 -6.218118198912459, 33.911337157047086 -5.190751001335956, 44.88144948321395 0.20633934827257905" stroke="#000000" stroke-width="1" fill="none"></path></g></g><g transform="translate(255.6515111008389 66.80555555555571) rotate(0 3.3822525597269646 27.058020477815717)"><text x="0" y="40.11604095563142" font-family="Virgil, Segoe UI Emoji" font-size="33.82252559726963px" fill="#000000" text-anchor="start" style="white-space: pre;" direction="ltr">1</text></g><g transform="translate(338.9864561141112 66.80555555555571) rotate(0 12.683447098976103 27.058020477815717)"><text x="0" y="40.11604095563142" font-family="Virgil, Segoe UI Emoji" font-size="33.822525597269625px" fill="#c92a2a" text-anchor="start" style="white-space: pre;" direction="ltr">2</text></g><g transform="translate(440.0782270659504 66.80555555555571) rotate(0 12.683447098976103 27.058020477815717)"><text x="0" y="40.11604095563142" font-family="Virgil, Segoe UI Emoji" font-size="33.822525597269625px" fill="#000000" text-anchor="start" style="white-space: pre;" direction="ltr">3</text></g><g transform="translate(521.2522884993975 66.80555555555571) rotate(0 10.146757679180894 27.058020477815717)"><text x="0" y="40.11604095563142" font-family="Virgil, Segoe UI Emoji" font-size="33.82252559726963px" fill="#000000" text-anchor="start" style="white-space: pre;" direction="ltr">4</text></g><g transform="translate(606.5996529286735 66.80555555555571) rotate(0 12.683447098976103 27.058020477815717)"><text x="0" y="40.11604095563142" font-family="Virgil, Segoe UI Emoji" font-size="33.822525597269625px" fill="#000000" text-anchor="start" style="white-space: pre;" direction="ltr">5</text></g><g transform="translate(148.9292888786166 75.86357603337143) rotate(0 41.0625 18)"><text x="0" y="26" font-family="Virgil, Segoe UI Emoji" font-size="22.499999999999996px" fill="#000000" text-anchor="start" style="white-space: pre;" direction="ltr">reverse</text></g><g><g transform="translate(285.4626924410768 100.14101196763954) rotate(0 16.297464022927272 1.023955010493097)"><path d="M-0.5246948875486851 -0.3469168625771999 C4.852211686767737 0.4276559443200033, 27.646371602006756 2.990220362407168, 33.11962293340326 3.6225621817555433 M1.40070156714879 -1.5746521607693285 C6.647406869394804 -1.045683464530294, 27.731818150235835 1.4205499284928798, 32.78904390116654 1.922097083517925" stroke="#000000" stroke-width="1" fill="none"></path></g><g transform="translate(285.4626924410768 100.14101196763954) rotate(0 16.297464022927272 1.023955010493097)"><path d="M16.751986197855462 7.307777998348845 C24.10818664936898 4.8834924555701615, 29.65959088880696 2.275710976862737, 32.99796992189333 1.7289536460513935 M17.50608172854907 5.110407835511243 C20.975132438991874 4.397220841561195, 23.982882109491484 4.433633791511056, 32.50902131630866 1.4464961267978984" stroke="#000000" stroke-width="1" fill="none"></path></g><g transform="translate(285.4626924410768 100.14101196763954) rotate(0 16.297464022927272 1.023955010493097)"><path d="M17.94377878662098 -3.5950438381748904 C24.764093186331685 -1.9739754200401038, 29.87272825578925 -0.5311918755145274, 32.99796992189333 1.7289536460513935 M18.697874317314593 -5.792414001012492 C21.888409094059575 -4.043147932706425, 24.625938481609857 -1.5346910806684815, 32.50902131630866 1.4464961267978984" stroke="#000000" stroke-width="1" fill="none"></path></g></g><g><g transform="translate(379.284861371385 93.65750163408472) rotate(0 19.018842758186054 -0.17940224947984973)"><path d="M-0.3469168625771999 1.1761265359818933 C6.22132931051898 1.3254618011415003, 31.95858719340205 0.6539814077317716, 38.3846023789494 0.3713167034089566 M1.6718130552303045 0.747989022033289 C8.242066080655261 0.5700930496025829, 31.84172110231273 -1.5191015649866315, 37.858666565863295 -1.5563167760800571" stroke="#000000" stroke-width="1" fill="none"></path></g><g transform="translate(379.284861371385 93.65750163408472) rotate(0 19.018842758186054 -0.17940224947984973)"><path d="M22.401297820107093 7.038814252154422 C24.885418286616943 5.239837051716881, 27.202220865015178 2.926105515117565, 37.632318397161036 -2.933000284851101 M19.826161336862775 6.0442891314951215 C24.974096860705416 3.223296159261333, 31.08833695171197 1.0989202704712213, 37.301301495640416 -2.18553807652129" stroke="#000000" stroke-width="1" fill="none"></path></g><g transform="translate(379.284861371385 93.65750163408472) rotate(0 19.018842758186054 -0.17940224947984973)"><path d="M21.732910578690436 -5.797112256135817 C24.304338246947665 -4.839647198312282, 26.764572568892035 -4.398868766690345, 37.632318397161036 -2.9330002848511008 M19.157774095446122 -6.7916373767951175 C24.397844298227167 -5.861939840072217, 30.7075149909664 -4.233202734073919, 37.301301495640416 -2.18553807652129" stroke="#000000" stroke-width="1" fill="none"></path></g></g><g><g transform="translate(475.58206665639455 93.10359792819702) rotate(0 17.602885470720935 1.1147170557322)"><path d="M1.1761265359818933 0.8040183819830415 C7.0754618011415005 1.216602901369333, 29.403981407731774 1.9865326203405855, 34.87131670340896 2.128590253740549 M0.3344542380329223 0.1805240871850402 C6.154169228589162 0.2728332274500282, 28.683702777838334 -0.14321096575818953, 34.118212509071455 0.33602538817562166" stroke="#000000" stroke-width="1" fill="none"></path></g><g transform="translate(475.58206665639455 93.10359792819702) rotate(0 17.602885470720935 1.1147170557322)"><path d="M18.899487171925728 6.34432082131169 C22.85955849750354 3.498685846985477, 26.37675445363306 2.635845251190104, 32.85318555487132 0.2046509890756214 M17.985623472500535 5.164366858585936 C20.997122604415317 5.061021433342174, 24.610966325160994 3.0223550213442594, 33.54002449407476 -0.13574172914360788" stroke="#000000" stroke-width="1" fill="none"></path></g><g transform="translate(475.58206665639455 93.10359792819702) rotate(0 17.602885470720935 1.1147170557322)"><path d="M19.212013887224153 -5.462386079536407 C23.05785941472897 -5.279189121387709, 26.49496245374725 -3.116260876067049, 32.85318555487132 0.2046509890756214 M18.29815018779896 -6.642340042262163 C21.28383353159929 -4.156247067694703, 24.829069534022533 -3.603035148282058, 33.54002449407476 -0.13574172914360805" stroke="#000000" stroke-width="1" fill="none"></path></g></g><g><g transform="translate(551.0820666563945 93.41101009129079) rotate(0 23.197789778462607 0.5718126646369655)"><path d="M0.8040183819830415 0.3713167034089566 C8.633269568035999 0.23504118706521443, 39.06986595367392 0.2980624003081043, 46.62859025374055 0.3584734379194402 M-0.2330106968153267 -0.4793459726404399 C7.523576073103275 0.050347289447233434, 38.39292671040011 1.2138503302472103, 46.010554673327135 1.6229713019143515" stroke="#000000" stroke-width="1" fill="none"></path></g><g transform="translate(551.0820666563945 93.41101009129079) rotate(0 23.197789778462607 0.5718126646369655)"><path d="M24.68086367900956 9.559302726020272 C29.07808876439315 6.757746278416049, 35.65364332834115 3.164371386764879, 45.858380293650555 0.013489933700459478 M23.314092347952606 8.140381275867279 C31.872090167060776 5.784305593580237, 38.28266217455263 3.1475898042346255, 45.46409456449561 1.4470578953783684" stroke="#000000" stroke-width="1" fill="none"></path></g><g transform="translate(551.0820666563945 93.41101009129079) rotate(0 23.197789778462607 0.5718126646369655)"><path d="M25.387890629236384 -6.160599857083806 C29.747519215254773 -4.69590661456478, 36.131405658412234 -4.027769004963868, 45.858380293650555 0.013489933700459478 M24.021119298179432 -7.579521307236799 C32.218656659303505 -4.647887907476507, 38.391495275565866 -1.9988847441292705, 45.46409456449561 1.4470578953783684" stroke="#000000" stroke-width="1" fill="none"></path></g></g><g transform="translate(289.151511100839 126.80555555555571) rotate(0 3.3822525597269646 27.058020477815717)"><text x="0" y="40.11604095563142" font-family="Virgil, Segoe UI Emoji" font-size="33.82252559726963px" fill="#000000" text-anchor="start" style="white-space: pre;" direction="ltr">1</text></g><g transform="translate(372.4864561141113 126.80555555555571) rotate(0 12.683447098976103 27.058020477815717)"><text x="0" y="40.11604095563142" font-family="Virgil, Segoe UI Emoji" font-size="33.822525597269625px" fill="#000000" text-anchor="start" style="white-space: pre;" direction="ltr">2</text></g><g transform="translate(473.5782270659505 126.80555555555571) rotate(0 12.683447098976103 27.058020477815717)"><text x="0" y="40.11604095563142" font-family="Virgil, Segoe UI Emoji" font-size="33.822525597269625px" fill="#c92a2a" text-anchor="start" style="white-space: pre;" direction="ltr">3</text></g><g transform="translate(554.7522884993977 126.80555555555571) rotate(0 10.146757679180894 27.058020477815717)"><text x="0" y="40.11604095563142" font-family="Virgil, Segoe UI Emoji" font-size="33.82252559726963px" fill="#000000" text-anchor="start" style="white-space: pre;" direction="ltr">4</text></g><g transform="translate(640.0996529286735 126.80555555555571) rotate(0 12.683447098976103 27.058020477815717)"><text x="0" y="40.11604095563142" font-family="Virgil, Segoe UI Emoji" font-size="33.822525597269625px" fill="#000000" text-anchor="start" style="white-space: pre;" direction="ltr">5</text></g><g transform="translate(182.4292888786166 135.86357603337143) rotate(0 41.0625 18)"><text x="0" y="26" font-family="Virgil, Segoe UI Emoji" font-size="22.499999999999996px" fill="#000000" text-anchor="start" style="white-space: pre;" direction="ltr">reverse</text></g><g><g transform="translate(317.9626924410769 152.64101196763954) rotate(0 15.56903606443882 0.8660965614633653)"><path d="M-0.869389859586954 0.08208787813782692 C4.369089743293921 0.4483225197518271, 26.625787042566145 1.1529516045870394, 32.0074619884646 1.7015890477147113 M0.8750417347904293 -0.9204199311789125 C5.910645905597235 -0.40416693699676276, 26.175426697088902 2.2787150728171826, 31.09299846013509 2.6526130541056556" stroke="#000000" stroke-width="1" fill="none"></path></g><g transform="translate(317.9626924410769 152.64101196763954) rotate(0 15.56903606443882 0.8660965614633653)"><path d="M15.632768357693484 6.567001343625213 C19.465575364085996 4.563097398886967, 27.11913812566335 4.202023632111917, 31.963206342852235 3.104373071038652 M15.14857287153797 6.439011556833509 C20.813960385155294 5.035008616338274, 26.81939225650154 3.6516103572708465, 31.362158327993257 3.0793079831901355" stroke="#000000" stroke-width="1" fill="none"></path></g><g transform="translate(317.9626924410769 152.64101196763954) rotate(0 15.56903606443882 0.8660965614633653)"><path d="M16.814252993467846 -4.336942329608078 C20.190792642073355 -2.554302636539155, 27.43314121493707 0.8797269908396308, 31.963206342852235 3.104373071038652 M16.330057507312333 -4.464932116399782 C21.658655007662425 -1.9669236805513908, 27.24053378941354 0.5586574002117928, 31.362158327993257 3.0793079831901355" stroke="#000000" stroke-width="1" fill="none"></path></g></g><g><g transform="translate(412.7848613713851 153.65750163408472) rotate(0 18.627613910635887 -0.10397847737186794)"><path d="M0.08208787813782692 0.06396559104323396 C6.241995885950804 0.121724470704794, 30.12131843558192 -0.5462273277342319, 36.46362924490857 -0.5228365816175937 M-1.3339547151792794 -0.948056418998167 C5.223582608188793 -0.6556063793133944, 32.08988624663703 0.3105801134277135, 38.58918253645103 0.7400994642544538" stroke="#000000" stroke-width="1" fill="none"></path></g><g transform="translate(412.7848613713851 153.65750163408472) rotate(0 18.627613910635887 -0.10397847737186794)"><path d="M20.740754229998412 4.551971884357981 C24.505166334079043 5.719820154102026, 30.286747280580684 4.431509306834496, 39.11860799282153 1.8391859878169403 M20.590760762796528 5.99585279768612 C27.29194055404865 4.465548435572391, 34.09208345574761 2.4787661991751064, 39.08923377846928 0.7045016758065249" stroke="#000000" stroke-width="1" fill="none"></path></g><g transform="translate(412.7848613713851 153.65750163408472) rotate(0 18.627613910635887 -0.10397847737186794)"><path d="M21.365471586701684 -8.286154110309242 C24.875269563419977 -3.796889381996857, 30.495247520524806 -1.764211118381445, 39.11860799282153 1.8391859878169408 M21.2154781194998 -6.842273196981103 C27.603819153250935 -3.5025238069213076, 34.166837860688666 -0.6163338909608849, 39.08923377846928 0.7045016758065249" stroke="#000000" stroke-width="1" fill="none"></path></g></g><g><g transform="translate(509.08206665639466 153.10359792819702) rotate(0 16.307786107691925 0.4692069925367832)"><path d="M0.06396559104323396 -1.1169547520577907 C5.871724470704793 -0.7880746088922024, 28.203772672265764 1.5106629408895973, 33.9771634183824 2.0553687371313574 M-1.361591202998534 0.9110400577727704 C4.318469799673184 0.8757000243011861, 26.85338445625268 0.3510877730790525, 32.75462874940597 0.22436257534660387" stroke="#000000" stroke-width="1" fill="none"></path></g><g transform="translate(509.08206665639466 153.10359792819702) rotate(0 16.307786107691925 0.4692069925367832)"><path d="M15.057537555749803 5.736135084539055 C21.120770789549955 5.348427026305355, 24.92005565975623 4.11554782172413, 33.764573350649755 1.598248078632052 M16.384311837840073 6.30997230698715 C20.747945181048415 4.797132835935587, 24.739907882519564 3.9368778278889525, 32.72191813610259 -0.6101383972706463" stroke="#000000" stroke-width="1" fill="none"></path></g><g transform="translate(509.08206665639466 153.10359792819702) rotate(0 16.307786107691925 0.4692069925367832)"><path d="M14.795410960065446 -6.0717982840968086 C20.926368723848103 -3.7727408518757954, 24.78530072240835 -2.318714840313798, 33.764573350649755 1.598248078632052 M16.122185242155716 -5.497961061648714 C20.49383591242329 -4.164670134414436, 24.548977326415557 -2.1789337778003146, 32.72191813610259 -0.6101383972706463" stroke="#000000" stroke-width="1" fill="none"></path></g></g><g><g transform="translate(584.5820666563947 153.4110100912908) rotate(0 22.719206992536726 0.4422017500489801)"><path d="M-1.1169547520577907 -0.5228365816175937 C6.628592057774465 -0.3530566475218828, 38.59399627422293 0.7927656216292102, 46.55536873713136 1.0826451956174992 M0.4975052737724037 1.817070267694071 C8.126442869954433 1.5934980917019104, 38.277225449237356 -0.47172725723810305, 45.89889186049812 -0.9326667675961084" stroke="#000000" stroke-width="1" fill="none"></path></g><g transform="translate(584.5820666563947 153.4110100912908) rotate(0 22.719206992536726 0.4422017500489801)"><path d="M23.960810396793686 9.233486750942212 C31.631911960268027 6.754053660853648, 38.319020857098344 4.0030589825763325, 47.490299133462834 -2.1121934877921174 M24.62550096024891 8.51167529806171 C29.95284543708482 6.371542658612359, 36.04107961221012 3.6574275314818125, 44.93226770299487 -0.8473736068446465" stroke="#000000" stroke-width="1" fill="none"></path></g><g transform="translate(584.5820666563947 153.4110100912908) rotate(0 22.719206992536726 0.4422017500489801)"><path d="M22.94977497502354 -6.469794170780975 C30.93947389144917 -4.121411559973336, 37.9368095608518 -2.0540012108448216, 47.490299133462834 -2.1121934877921174 M23.614465538478765 -7.191605623661477 C29.189560466433193 -5.351057683785327, 35.533874213446204 -4.087775610898129, 44.93226770299487 -0.8473736068446465" stroke="#000000" stroke-width="1" fill="none"></path></g></g><g transform="translate(316.651511100839 189.3055555555557) rotate(0 3.3822525597269646 27.058020477815717)"><text x="0" y="40.11604095563142" font-family="Virgil, Segoe UI Emoji" font-size="33.82252559726963px" fill="#000000" text-anchor="start" style="white-space: pre;" direction="ltr">1</text></g><g transform="translate(399.9864561141113 189.3055555555557) rotate(0 12.683447098976103 27.058020477815717)"><text x="0" y="40.11604095563142" font-family="Virgil, Segoe UI Emoji" font-size="33.822525597269625px" fill="#000000" text-anchor="start" style="white-space: pre;" direction="ltr">2</text></g><g transform="translate(501.0782270659505 189.3055555555557) rotate(0 12.683447098976103 27.058020477815717)"><text x="0" y="40.11604095563142" font-family="Virgil, Segoe UI Emoji" font-size="33.822525597269625px" fill="#000000" text-anchor="start" style="white-space: pre;" direction="ltr">3</text></g><g transform="translate(582.2522884993977 189.3055555555557) rotate(0 10.146757679180894 27.058020477815717)"><text x="0" y="40.11604095563142" font-family="Virgil, Segoe UI Emoji" font-size="33.82252559726963px" fill="#c92a2a" text-anchor="start" style="white-space: pre;" direction="ltr">4</text></g><g transform="translate(667.5996529286735 189.3055555555557) rotate(0 12.683447098976103 27.058020477815717)"><text x="0" y="40.11604095563142" font-family="Virgil, Segoe UI Emoji" font-size="33.822525597269625px" fill="#000000" text-anchor="start" style="white-space: pre;" direction="ltr">5</text></g><g transform="translate(209.9292888786166 198.36357603337143) rotate(0 41.0625 18)"><text x="0" y="26" font-family="Virgil, Segoe UI Emoji" font-size="22.499999999999996px" fill="#000000" text-anchor="start" style="white-space: pre;" direction="ltr">reverse</text></g><g><g transform="translate(345.4626924410769 215.14101196763949) rotate(0 15.608555155389297 1.7178777339829026)"><path d="M-0.4655825100839138 -0.5333442606031894 C4.75081538388888 0.3267196790302198, 26.26697318006357 3.248994742793044, 31.682692820862535 3.9690997285690317 M1.4908479427825658 1.8010460572410376 C6.492777507504549 2.4603887309027863, 25.628235556772477 2.4251808585813404, 30.597725479541946 2.4505668424084943" stroke="#000000" stroke-width="1" fill="none"></path></g><g transform="translate(345.4626924410769 215.14101196763949) rotate(0 15.608555155389297 1.7178777339829026)"><path d="M14.798784126182634 7.532189610633428 C22.111674160504137 6.250157126312082, 26.8777833161846 5.052248029924234, 29.679967336536933 2.7405550762979747 M16.012934158698275 7.414097474105025 C20.023895473118767 6.333054413407413, 26.15582401168749 4.3497599058086465, 29.800946012342674 2.9917396070620157" stroke="#000000" stroke-width="1" fill="none"></path></g><g transform="translate(345.4626924410769 215.14101196763949) rotate(0 15.608555155389297 1.7178777339829026)"><path d="M14.837912863427634 -3.435506706986641 C22.028930826433847 -1.0761366476642584, 26.78204824533666 1.367508613389147, 29.679967336536933 2.7405550762979742 M16.052062895943276 -3.553598843515044 C20.09303597246217 -0.9929134420481798, 26.2119729862406 0.6652869882191439, 29.800946012342674 2.9917396070620157" stroke="#000000" stroke-width="1" fill="none"></path></g></g><g><g transform="translate(440.2848613713851 216.15750163408478) rotate(0 19.098897832579894 0.1120426154974723)"><path d="M-0.5333442606031894 -0.26080357655882835 C6.120393045229196 -0.16900000199675558, 32.217361573787926 -0.047902985662221925, 38.73113992576289 0.08523893728852272 M1.3875112732406705 -1.443329399591312 C8.088138276088342 -1.0989612001832576, 32.23635203240119 1.6805247350875288, 38.38713632475387 1.6674146305862814" stroke="#000000" stroke-width="1" fill="none"></path></g><g transform="translate(440.2848613713851 216.15750163408478) rotate(0 19.098897832579894 0.1120426154974723)"><path d="M19.948903054834773 8.760477830754544 C24.130352674507982 7.493782508778642, 28.45845337288807 3.839199170935882, 38.72697860232264 2.269080476792274 M19.810508816894522 6.401994477704388 C26.846290578532752 5.810321726266116, 32.75077252574504 2.3225002107828097, 39.02134614227403 2.4657922172925897" stroke="#000000" stroke-width="1" fill="none"></path></g><g transform="translate(440.2848613713851 216.15750163408478) rotate(0 19.098897832579894 0.1120426154974723)"><path d="M20.765804520507338 -4.066853256657936 C24.73351232305776 -2.7623960935465948, 28.897639379359685 -3.842196198733819, 38.72697860232264 2.269080476792274 M20.627410282567087 -6.425336609708092 C27.46264650180329 -2.6607522877311487, 33.090028085188656 -1.7974271097463796, 39.02134614227403 2.4657922172925897" stroke="#000000" stroke-width="1" fill="none"></path></g></g><g><g transform="translate(536.5820666563947 215.60359792819708) rotate(0 17.162217680364847 1.5888678501779054)"><path d="M-0.26080357655882835 1.15055592879653 C5.580999998003244 1.6509036146104337, 28.702097014337777 2.5249790988862517, 34.58523893728852 2.4687418542802337 M1.8031358164083215 0.7089938460756096 C7.535114978803321 0.9351418151427062, 28.223329077912492 0.6779199140239508, 33.68194391573779 0.8547565789986402" stroke="#000000" stroke-width="1" fill="none"></path></g><g transform="translate(536.5820666563947 215.60359792819708) rotate(0 17.162217680364847 1.5888678501779054)"><path d="M19.064957914969384 6.7507587771553315 C23.079406730136466 5.92964381785036, 24.94761339760344 3.959739524911644, 34.23481137439695 1.5317515347626112 M16.897760448280643 6.999986247149836 C23.923834339693563 4.823861216922077, 28.221126640904806 3.152453189709988, 34.41556871793676 0.48315471998520026" stroke="#000000" stroke-width="1" fill="none"></path></g><g transform="translate(536.5820666563947 215.60359792819708) rotate(0 17.162217680364847 1.5888678501779054)"><path d="M19.16095195897919 -5.059693624587116 C23.097835014910288 -2.7961098328218905, 24.94096789817126 -1.6811067447736914, 34.23481137439695 1.5317515347626114 M16.99375449229045 -4.810466154592611 C24.059185088256847 -2.73915427098248, 28.32195015372184 -0.16256672147779083, 34.41556871793676 0.4831547199852003" stroke="#000000" stroke-width="1" fill="none"></path></g></g><g><g transform="translate(612.0820666563947 215.91101009129073) rotate(0 23.632100458177717 0.2368988162372716)"><path d="M1.15055592879653 0.08523893728852272 C9.0675702812771 0.3647700482183401, 39.608312432219584 1.2480282781390866, 46.96874185428023 1.4163830890200757 M0.2954590620752424 -0.9156145659741015 C8.185884660795953 -0.9718161972942498, 39.21405759018225 -0.997451706060542, 46.529285864150154 -0.42371648015717955" stroke="#000000" stroke-width="1" fill="none"></path></g><g transform="translate(612.0820666563947 215.91101009129073) rotate(0 23.632100458177717 0.2368988162372716)"><path d="M24.817071220556137 8.373007130604812 C31.17232500366204 3.5686872732562938, 36.2222621744932 3.518434467866576, 47.31346671021544 0.7699039371099046 M25.10575787415528 7.56646301483793 C32.845985155633315 3.2901510844106845, 41.23873656796609 2.5298544197643373, 46.098849776377904 -0.004109334445399959" stroke="#000000" stroke-width="1" fill="none"></path></g><g transform="translate(612.0820666563947 215.91101009129073) rotate(0 23.632100458177717 0.2368988162372716)"><path d="M25.313401852379243 -7.354957780169357 C31.507633457919233 -8.135164347704043, 36.430731030357165 -4.166062664538988, 47.31346671021544 0.7699039371099046 M25.602088505978386 -8.16150189593624 C33.070834022792525 -6.738454720756363, 41.28363674677582 -1.7964503895835495, 46.098849776377904 -0.004109334445399959" stroke="#000000" stroke-width="1" fill="none"></path></g></g><g transform="translate(347.151511100839 252.8055555555557) rotate(0 3.3822525597269646 27.058020477815717)"><text x="0" y="40.11604095563142" font-family="Virgil, Segoe UI Emoji" font-size="33.82252559726963px" fill="#000000" text-anchor="start" style="white-space: pre;" direction="ltr">1</text></g><g transform="translate(430.4864561141113 252.8055555555557) rotate(0 12.683447098976103 27.058020477815717)"><text x="0" y="40.11604095563142" font-family="Virgil, Segoe UI Emoji" font-size="33.822525597269625px" fill="#000000" text-anchor="start" style="white-space: pre;" direction="ltr">2</text></g><g transform="translate(531.5782270659505 252.8055555555557) rotate(0 12.683447098976103 27.058020477815717)"><text x="0" y="40.11604095563142" font-family="Virgil, Segoe UI Emoji" font-size="33.822525597269625px" fill="#000000" text-anchor="start" style="white-space: pre;" direction="ltr">3</text></g><g transform="translate(612.7522884993977 252.8055555555557) rotate(0 10.146757679180894 27.058020477815717)"><text x="0" y="40.11604095563142" font-family="Virgil, Segoe UI Emoji" font-size="33.82252559726963px" fill="#000000" text-anchor="start" style="white-space: pre;" direction="ltr">4</text></g><g transform="translate(698.0996529286735 252.8055555555557) rotate(0 12.683447098976103 27.058020477815717)"><text x="0" y="40.11604095563142" font-family="Virgil, Segoe UI Emoji" font-size="33.822525597269625px" fill="#c92a2a" text-anchor="start" style="white-space: pre;" direction="ltr">5</text></g><g transform="translate(240.4292888786166 261.86357603337143) rotate(0 41.0625 18)"><text x="0" y="26" font-family="Virgil, Segoe UI Emoji" font-size="22.499999999999996px" fill="#000000" text-anchor="start" style="white-space: pre;" direction="ltr">reverse</text></g><g><g transform="translate(375.9626924410769 278.6410119676395) rotate(0 16.3543419999325 2.0177814769752445)"><path d="M-0.6108775578439235 1.1294053159654138 C4.594347850777309 1.8824288503253856, 25.799186677225435 3.1267162431897724, 31.06750336392284 3.3588237924423225 M1.269272994948551 0.6767391615081579 C6.8641645195094005 1.1728452171279145, 27.964861139944325 1.018706146686351, 33.31956155770891 1.5198960398152628" stroke="#000000" stroke-width="1" fill="none"></path></g><g transform="translate(375.9626924410769 278.6410119676395) rotate(0 16.3543419999325 2.0177814769752445)"><path d="M19.56633088970593 5.263237046282034 C23.196936209260883 3.842385013004913, 26.449174706415338 2.598057481639642, 34.16518386805896 1.7027970233732652 M18.11012194569938 6.390083747333666 C23.313414483973148 5.2308046729366655, 28.124205094366893 3.533857369108927, 33.71296759173997 1.188169005560305" stroke="#000000" stroke-width="1" fill="none"></path></g><g transform="translate(375.9626924410769 278.6410119676395) rotate(0 16.3543419999325 2.0177814769752445)"><path d="M19.97849820003806 -5.696781734810849 C23.38519659108184 -3.9813754217266686, 26.519412664955052 -2.08734640873098, 34.16518386805896 1.7027970233732652 M18.52228925603151 -4.569935033759219 C23.50522565834646 -2.0325354034588003, 28.176882790529326 -0.029758114763145382, 33.71296759173997 1.188169005560305" stroke="#000000" stroke-width="1" fill="none"></path></g></g><g><g transform="translate(470.7848613713851 279.6575016340848) rotate(0 19.19203418357199 0.1668695277830068)"><path d="M1.1294053159654138 -0.8759930334985255 C7.676102216524363 -0.9315924130380153, 32.09508307418466 -0.9533573351800442, 38.120863989636184 -0.944473835080862 M0.2632043775077908 1.27850667857565 C6.8005947623134695 1.3980853729788216, 31.439877320506202 0.29970685207284997, 37.456465522160634 0.0971026527229697" stroke="#000000" stroke-width="1" fill="none"></path></g><g transform="translate(470.7848613713851 279.6575016340848) rotate(0 19.19203418357199 0.1668695277830068)"><path d="M18.69044005885885 8.050271973837875 C22.157228537845352 5.130765344211789, 25.885761096252974 5.140502654273218, 37.67081038018549 0.8029700057197717 M20.011011394529625 7.283611283555331 C24.44591093485983 5.266799263271372, 28.330363535360704 4.442941017783074, 37.06770881524092 0.2867218164109926" stroke="#000000" stroke-width="1" fill="none"></path></g><g transform="translate(470.7848613713851 279.6575016340848) rotate(0 19.19203418357199 0.1668695277830068)"><path d="M18.191544371727073 -4.793358896133357 C21.69442096987893 -5.105292137020847, 25.52442402961605 -2.483285976211165, 37.67081038018549 0.8029700057197717 M19.512115707397847 -5.560019586415901 C23.96479818274875 -4.675888770535802, 27.9619472592706 -2.5984753159589817, 37.06770881524092 0.2867218164109926" stroke="#000000" stroke-width="1" fill="none"></path></g></g><g><g transform="translate(567.0820666563947 279.1035979281971) rotate(0 17.447819452188014 1.1817980912793473)"><path d="M-0.8759930334985255 0.5402799926698207 C4.818407586961984 0.5526302419602871, 27.796642664819956 0.9380735240876675, 33.55552616491914 1.203506811708212 M0.8649718945752829 -0.22167695651762198 C6.9821615519654 0.48027492185123266, 29.892511194897818 2.52788891245611, 35.77163193787448 2.5852731390763073" stroke="#000000" stroke-width="1" fill="none"></path></g><g transform="translate(567.0820666563947 279.1035979281971) rotate(0 17.447819452188014 1.1817980912793473)"><path d="M20.0212743595598 6.2221761433865 C22.887211032941973 5.2736163124656645, 28.341400883587724 5.409875560935683, 36.420249591780994 1.305700054965317 M19.316794040187865 7.950561249734949 C22.68297423239923 6.788827484114317, 27.138110216265424 4.973766620273271, 35.94587195133435 2.911864726923802" stroke="#000000" stroke-width="1" fill="none"></path></g><g transform="translate(567.0820666563947 279.1035979281971) rotate(0 17.447819452188014 1.1817980912793473)"><path d="M20.676750592116807 -5.570463582258569 C23.490401289041042 -3.5863380136083576, 28.781316246600458 -0.512608427122758, 36.420249591780994 1.3057000549653166 M19.972270272744872 -3.84207847591012 C23.198020349781423 -2.3378447929074437, 27.504952702677826 -1.4865816327004944, 35.94587195133435 2.911864726923802" stroke="#000000" stroke-width="1" fill="none"></path></g></g><g><g transform="translate(642.5820666563945 279.41101009129073) rotate(0 22.53414753559514 0.17435332994628538)"><path d="M0.5402799926698207 -0.944473835080862 C7.969296908626953 -0.7892011470026072, 38.021406857421 -0.2709728243084233, 45.70350681170821 0.05564309497100339 M-0.6352117405179889 1.1740734561625867 C6.5110177675044785 1.5383777299938055, 36.79402658861441 0.9560716127070057, 44.59980242422782 1.1611550289179853" stroke="#000000" stroke-width="1" fill="none"></path></g><g transform="translate(642.5820666563945 279.41101009129073) rotate(0 22.53414753559514 0.17435332994628538)"><path d="M21.396368789932808 8.500631833320195 C30.181004888081688 6.864835864530657, 40.30478389895474 3.473978565334102, 43.11763967669569 -0.31683109449486224 M23.398402163273772 8.653596375008757 C29.98636182187508 7.065514644874314, 35.82370878611006 4.374892867100001, 44.97810194551013 2.0573468475576213" stroke="#000000" stroke-width="1" fill="none"></path></g><g transform="translate(642.5820666563945 279.41101009129073) rotate(0 22.53414753559514 0.17435332994628538)"><path d="M21.42130452621744 -7.235142775503019 C30.08124278293755 -2.669088468147239, 40.195194193498764 0.14179223980638067, 43.11763967669569 -0.31683109449486224 M23.423337899558405 -7.082178233814457 C29.99509229110391 -3.8457788633117858, 35.82479416214639 -1.7119405983784581, 44.97810194551013 2.0573468475576213" stroke="#000000" stroke-width="1" fill="none"></path></g></g><g transform="translate(317.151511100839 312.3055555555557) rotate(0 3.3822525597269646 27.05802047781569)"><text x="0" y="40.11604095563142" font-family="Virgil, Segoe UI Emoji" font-size="33.82252559726963px" fill="#000000" text-anchor="start" style="white-space: pre;" direction="ltr">1</text></g><g transform="translate(400.4864561141113 312.3055555555557) rotate(0 12.683447098976103 27.05802047781569)"><text x="0" y="40.11604095563142" font-family="Virgil, Segoe UI Emoji" font-size="33.822525597269625px" fill="#000000" text-anchor="start" style="white-space: pre;" direction="ltr">2</text></g><g transform="translate(501.5782270659505 312.3055555555557) rotate(0 12.683447098976103 27.05802047781569)"><text x="0" y="40.11604095563142" font-family="Virgil, Segoe UI Emoji" font-size="33.822525597269625px" fill="#000000" text-anchor="start" style="white-space: pre;" direction="ltr">3</text></g><g transform="translate(582.7522884993978 312.3055555555557) rotate(0 10.146757679180894 27.05802047781569)"><text x="0" y="40.11604095563142" font-family="Virgil, Segoe UI Emoji" font-size="33.82252559726963px" fill="#c92a2a" text-anchor="start" style="white-space: pre;" direction="ltr">4</text></g><g transform="translate(668.0996529286735 312.3055555555557) rotate(0 12.683447098976103 27.05802047781569)"><text x="0" y="40.11604095563142" font-family="Virgil, Segoe UI Emoji" font-size="33.822525597269625px" fill="#000000" text-anchor="start" style="white-space: pre;" direction="ltr">5</text></g><g transform="translate(210.4292888786166 321.3635760333714) rotate(0 41.0625 18)"><text x="0" y="26" font-family="Virgil, Segoe UI Emoji" font-size="22.499999999999996px" fill="#000000" text-anchor="start" style="white-space: pre;" direction="ltr">reverse</text></g><g><g transform="translate(345.9626924410769 338.14101196763954) rotate(0 16.513678128926415 1.913870853205026)"><path d="M0.5566744409501552 0.8319391049444673 C5.631848379768531 1.4704637856209675, 26.181880639978253 3.34699228451868, 31.276031171814207 3.604638516708852 M-0.6102102068904787 0.22310318970121434 C4.786352826221015 0.5445984934536765, 27.938469433142373 1.354627109712934, 33.637566464743244 1.8947634943217198" stroke="#000000" stroke-width="1" fill="none"></path></g><g transform="translate(345.9626924410769 338.14101196763954) rotate(0 16.513678128926415 1.913870853205026)"><path d="M19.378330192759087 5.565858356630085 C24.993666366542417 3.605605480663418, 29.022426248407633 2.0223584034627424, 33.60909942406649 3.4624043809392533 M17.51058292212881 7.206093602063511 C21.738888713332344 5.906722414019909, 24.497377621143354 3.869732876016646, 33.4677898258399 1.4825301204463386" stroke="#000000" stroke-width="1" fill="none"></path></g><g transform="translate(345.9626924410769 338.14101196763954) rotate(0 16.513678128926415 1.913870853205026)"><path d="M20.0414277380776 -5.381844380428851 C25.39158271884784 -3.3020671616751813, 29.175826069453702 -0.8483602229499837, 33.60909942406649 3.4624043809392533 M18.173680467447323 -3.7416091349954255 C22.261273639501027 -2.807397108470938, 24.88435312506379 -2.6087847911564737, 33.4677898258399 1.4825301204463386" stroke="#000000" stroke-width="1" fill="none"></path></g></g><g><g transform="translate(440.7848613713851 339.15750163408484) rotate(0 19.088123559801772 0.384278118413107)"><path d="M0.8319391049444673 -0.6674652256071567 C7.264137151819944 -0.8972307600080967, 32.31535911551356 -0.8085663475096225, 38.36667871390271 -0.8219187654554844 M-0.19043159429915257 1.5965115856099876 C6.172348038639233 1.4504868938494477, 31.775798283532783 0.520513108270243, 37.83133297666709 0.28399913390167075" stroke="#000000" stroke-width="1" fill="none"></path></g><g transform="translate(440.7848613713851 339.15750163408484) rotate(0 19.088123559801772 0.384278118413107)"><path d="M19.380253583986875 8.593674759232165 C23.99878973551382 4.5619621996720605, 29.008420544482163 3.2287057445995204, 39.66847871934942 -1.5159718885214553 M21.30247392403387 7.750791457864148 C25.975864892195386 5.379887853066186, 29.818115733848366 3.149293100430069, 37.34822948385069 1.0266967108896485" stroke="#000000" stroke-width="1" fill="none"></path></g><g transform="translate(440.7848613713851 339.15750163408484) rotate(0 19.088123559801772 0.384278118413107)"><path d="M18.902324923826082 -4.2507534112436804 C23.71480309615753 -4.674899738155255, 28.858791218671 -2.39727656439792, 39.66847871934942 -1.5159718885214553 M20.824545263873077 -5.093636712611698 C25.599897919437225 -3.6689239887952985, 29.583212216089148 -2.108410222006116, 37.34822948385069 1.0266967108896485" stroke="#000000" stroke-width="1" fill="none"></path></g></g><g><g transform="translate(537.0820666563945 338.60359792819713) rotate(0 17.645531596723004 1.2592533070687182)"><path d="M-0.6674652256071567 0.7860947169363499 C4.852769239991903 0.8239836491644383, 27.941433652490375 0.9438393630087376, 33.678081234544514 1.0592726983129979 M1.1829768016096205 0.153190497988835 C7.034563072836026 0.28408886783756315, 30.113317451095206 1.9266818168107418, 35.95852841905318 2.365316116148606" stroke="#000000" stroke-width="1" fill="none"></path></g><g transform="translate(537.0820666563945 338.60359792819713) rotate(0 17.645531596723004 1.2592533070687182)"><path d="M20.482542580859253 5.908197678176412 C24.437072125317744 4.470667144042317, 30.793074289134946 5.597605616050284, 34.30454488134297 2.281676129665186 M19.70802172063075 7.450519134354369 C23.81956438236909 4.831530747091171, 28.166322153545195 3.944278766944526, 36.6409891645499 3.0605837737991552" stroke="#000000" stroke-width="1" fill="none"></path></g><g transform="translate(537.0820666563945 338.60359792819713) rotate(0 17.645531596723004 1.2592533070687182)"><path d="M21.33036091177916 -5.87217603695103 C25.07288633704962 -3.2338241209885314, 31.135213101974845 1.9737125448953747, 34.30454488134297 2.281676129665186 M20.555840051550657 -4.329854580773073 C24.32773485943623 -3.7654413185923423, 28.445956918194547 -1.4772062853675543, 36.6409891645499 3.0605837737991552" stroke="#000000" stroke-width="1" fill="none"></path></g></g><g><g transform="translate(612.5820666563945 338.9110100912908) rotate(181.05231805327236 22.649464206150697 0.35074604084186944)"><path d="M0.7860947169363499 -0.8219187654554844 C8.240650315831104 -0.6888819954222735, 38.02717269634207 -0.3481622653336805, 45.559272698312995 0.1307553945921086 M-0.2603442860115319 1.3609699373412876 C6.924831713490809 1.6913644361538145, 36.80281949296904 1.4483577151434888, 44.379845401300116 1.2757012858401708" stroke="#0b7285" stroke-width="1" fill="none"></path></g><g transform="translate(612.5820666563945 338.9110100912908) rotate(181.05231805327236 22.649464206150697 0.35074604084186944)"><path d="M21.501327044179433 8.700241644609234 C29.614361618562313 6.244998728814673, 40.7595015877906 1.3512744366175404, 44.28296303193085 0.6668494618843965 M23.28783805746376 9.373363892290255 C26.256981924057303 7.456017640551427, 31.12863109620447 6.78013990272872, 45.185191992698236 2.1610146644871406" stroke="#0b7285" stroke-width="1" fill="none"></path></g><g transform="translate(612.5820666563945 338.9110100912908) rotate(181.05231805327236 22.649464206150697 0.35074604084186944)"><path d="M21.288836811367737 -7.034117962047436 C29.392832217730017 -3.6796092205870825, 40.61645083464305 -2.762189876784186, 44.28296303193085 0.6668494618843965 M23.075347824652063 -6.360995714366414 C26.23508166712108 -5.04297190139037, 31.150435892302553 -2.4826019681062466, 45.185191992698236 2.1610146644871406" stroke="#0b7285" stroke-width="1" fill="none"></path></g></g><g transform="translate(285.651511100839 375.30555555555566) rotate(0 3.3822525597269646 27.058020477815717)"><text x="0" y="40.11604095563142" font-family="Virgil, Segoe UI Emoji" font-size="33.82252559726963px" fill="#000000" text-anchor="start" style="white-space: pre;" direction="ltr">1</text></g><g transform="translate(368.9864561141113 375.30555555555566) rotate(0 12.683447098976103 27.058020477815717)"><text x="0" y="40.11604095563142" font-family="Virgil, Segoe UI Emoji" font-size="33.822525597269625px" fill="#000000" text-anchor="start" style="white-space: pre;" direction="ltr">2</text></g><g transform="translate(470.0782270659505 375.30555555555566) rotate(0 12.683447098976103 27.058020477815717)"><text x="0" y="40.11604095563142" font-family="Virgil, Segoe UI Emoji" font-size="33.822525597269625px" fill="#c92a2a" text-anchor="start" style="white-space: pre;" direction="ltr">3</text></g><g transform="translate(551.2522884993977 375.30555555555566) rotate(0 10.146757679180894 27.058020477815717)"><text x="0" y="40.11604095563142" font-family="Virgil, Segoe UI Emoji" font-size="33.82252559726963px" fill="#000000" text-anchor="start" style="white-space: pre;" direction="ltr">4</text></g><g transform="translate(636.5996529286735 375.30555555555566) rotate(0 12.683447098976103 27.058020477815717)"><text x="0" y="40.11604095563142" font-family="Virgil, Segoe UI Emoji" font-size="33.822525597269625px" fill="#000000" text-anchor="start" style="white-space: pre;" direction="ltr">5</text></g><g transform="translate(178.9292888786166 384.3635760333714) rotate(0 41.0625 18)"><text x="0" y="26" font-family="Virgil, Segoe UI Emoji" font-size="22.499999999999996px" fill="#000000" text-anchor="start" style="white-space: pre;" direction="ltr">reverse</text></g><g><g transform="translate(314.4626924410769 401.14101196763954) rotate(0 16.11811100427741 1.6260061468424283)"><path d="M-1.1796872578561306 0.11637602671980862 C4.059931461311977 0.6688929692829054, 25.716058129556973 2.0285917391004173, 31.130682189301254 2.6639036340560924 M0.4018382024299352 -0.8681305045913905 C6.049179525574768 -0.06779700146186829, 28.448090104749923 3.614066277950084, 33.41590926641099 4.1201427982762615" stroke="#000000" stroke-width="1" fill="none"></path></g><g transform="translate(314.4626924410769 401.14101196763954) rotate(0 16.11811100427741 1.6260061468424283)"><path d="M17.892235913256236 6.3876724029131715 C21.850902239054104 5.8585420786130165, 27.842841290669725 6.9929457385232645, 34.039826246480764 3.3241100930516945 M17.22581718236994 7.908272544400456 C23.279595115785405 6.094878879394059, 29.73539154146052 4.520546550398466, 32.70251921075019 3.864064667767574" stroke="#000000" stroke-width="1" fill="none"></path></g><g transform="translate(314.4626924410769 401.14101196763954) rotate(0 16.11811100427741 1.6260061468424283)"><path d="M19.40483052659042 -4.475289951312659 C22.889469981321287 -2.0383395323732136, 28.46633165845968 2.0770147757070685, 34.039826246480764 3.3241100930516945 M18.738411795704124 -2.954689809825375 C24.17853666639433 -0.6095610019571254, 30.05661768223817 1.9650707689655689, 32.70251921075019 3.864064667767574" stroke="#000000" stroke-width="1" fill="none"></path></g></g><g><g transform="translate(409.2848613713851 402.15750163408484) rotate(0 18.072139271329092 0.3236120389070152)"><path d="M0.11637602671980862 -0.8128142081201076 C6.462566335481881 -0.7221062146127224, 30.996958570095302 -0.9212942324578762, 37.42594383124995 -0.6354392968118191 M-1.2816652885917574 1.3748543872777375 C4.949952543723686 1.7175518255773934, 29.765237451769927 0.9586030837241559, 36.39671228062163 0.5683803235832601" stroke="#000000" stroke-width="1" fill="none"></path></g><g transform="translate(409.2848613713851 402.15750163408484) rotate(0 18.072139271329092 0.3236120389070152)"><path d="M17.749116356722126 7.480944056600206 C22.366777541758946 7.685724821793221, 29.04426386798597 4.921114666329129, 35.46382764618557 2.107995025539058 M19.531134228355427 7.1878858114152155 C23.615586545650903 5.936592915952495, 27.90929780645731 3.1783551496752884, 36.09660984563528 -0.2401572719314944" stroke="#000000" stroke-width="1" fill="none"></path></g><g transform="translate(409.2848613713851 402.15750163408484) rotate(0 18.072139271329092 0.3236120389070152)"><path d="M17.215099996502126 -5.36127449619409 C21.837738543266397 -2.001248330262051, 28.646450577798657 -1.6100951958020704, 35.46382764618557 2.1079950255390583 M18.997117868135426 -5.654332741379081 C23.305260791352616 -3.4744124876967097, 27.741510237311427 -2.804840429773564, 36.09660984563528 -0.2401572719314946" stroke="#000000" stroke-width="1" fill="none"></path></g></g><g><g transform="translate(505.58206665639466 401.60359792819713) rotate(175.66410136237815 17.71504770030731 0.6641366993123938)"><path d="M-0.8128142081201076 -0.1546401657164096 C5.0278937853872785 0.2609144292771817, 27.828705767542125 2.256105025857687, 33.86456070318818 2.6097035966813564 M0.9613196032773703 -1.2814301980566234 C7.301628004563971 -1.1845916924905033, 30.55140742654912 0.8778869526553899, 36.24290960873477 1.0697232361603528" stroke="#0b7285" stroke-width="1" fill="none"></path></g><g transform="translate(505.58206665639466 401.60359792819713) rotate(175.66410136237815 17.71504770030731 0.6641366993123938)"><path d="M19.450008104394943 5.007938094909991 C24.60664176688673 6.354069249473268, 27.023940822791896 3.219824503285627, 37.657653146118726 0.4985068814200857 M19.180718484124448 5.923425676372461 C25.73314803515284 3.7551690497249757, 30.971678947384103 2.0318690175760774, 35.49994882995461 1.4347421052295202" stroke="#0b7285" stroke-width="1" fill="none"></path></g><g transform="translate(505.58206665639466 401.60359792819713) rotate(175.66410136237815 17.71504770030731 0.6641366993123938)"><path d="M20.207603493811202 -6.7785817483789765 C25.22286624467199 -3.06032678276641, 27.487363819377688 -3.8173161821003965, 37.657653146118726 0.4985068814200857 M19.938313873540707 -5.863094166916507 C26.140474569936806 -3.746475674609999, 31.103852972244383 -1.189007154768217, 35.49994882995461 1.4347421052295202" stroke="#0b7285" stroke-width="1" fill="none"></path></g></g><g><g transform="translate(581.0820666563947 401.9110100912908) rotate(179.37015104663323 22.70736930731215 0.5726056184094546)"><path d="M-0.1546401657164096 -0.6354392968118191 C7.677581095943848 -0.20319517318668928, 39.33943835919102 1.6276491163043698, 47.109703596681356 1.7806505336306715 M-1.6949649820569903 1.6453511270228773 C6.066151153162743 1.8220368400630806, 38.80402462881369 0.191470072141515, 46.744252521311864 0.13179137287397902" stroke="#0b7285" stroke-width="1" fill="none"></path></g><g transform="translate(581.0820666563947 401.9110100912908) rotate(179.37015104663323 22.70736930731215 0.5726056184094546)"><path d="M24.321947694585987 10.513874550774336 C33.55881974080998 6.827628671382552, 37.678170072224624 5.045588660501195, 46.0825977770146 1.3956293995465807 M25.382380745203562 8.677660911768317 C30.01752974914105 5.880222626170751, 35.11029342764833 3.8935036894105357, 47.16706336080097 -0.3661756486658283" stroke="#0b7285" stroke-width="1" fill="none"></path></g><g transform="translate(581.0820666563947 401.9110100912908) rotate(179.37015104663323 22.70736930731215 0.5726056184094546)"><path d="M23.835361357092047 -5.214394841208804 C33.116393546357486 -4.029000063155285, 37.38643869440479 -0.9400264648568859, 46.0825977770146 1.3956293995465807 M24.895794407709623 -7.050608480214823 C29.731164336584918 -6.1291680674574245, 34.93889341659688 -4.3997801876225235, 47.16706336080097 -0.3661756486658283" stroke="#0b7285" stroke-width="1" fill="none"></path></g></g><g transform="translate(250.151511100839 435.30555555555566) rotate(0 3.3822525597269646 27.058020477815717)"><text x="0" y="40.11604095563142" font-family="Virgil, Segoe UI Emoji" font-size="33.82252559726963px" fill="#000000" text-anchor="start" style="white-space: pre;" direction="ltr">1</text></g><g transform="translate(333.4864561141113 435.30555555555566) rotate(0 12.683447098976103 27.058020477815717)"><text x="0" y="40.11604095563142" font-family="Virgil, Segoe UI Emoji" font-size="33.822525597269625px" fill="#c92a2a" text-anchor="start" style="white-space: pre;" direction="ltr">2</text></g><g transform="translate(434.5782270659505 435.30555555555566) rotate(0 12.683447098976103 27.058020477815717)"><text x="0" y="40.11604095563142" font-family="Virgil, Segoe UI Emoji" font-size="33.822525597269625px" fill="#000000" text-anchor="start" style="white-space: pre;" direction="ltr">3</text></g><g transform="translate(515.7522884993977 435.30555555555566) rotate(0 10.146757679180894 27.058020477815717)"><text x="0" y="40.11604095563142" font-family="Virgil, Segoe UI Emoji" font-size="33.82252559726963px" fill="#000000" text-anchor="start" style="white-space: pre;" direction="ltr">4</text></g><g transform="translate(601.0996529286737 435.30555555555566) rotate(0 12.68344709897616 27.058020477815717)"><text x="0" y="40.11604095563142" font-family="Virgil, Segoe UI Emoji" font-size="33.822525597269625px" fill="#000000" text-anchor="start" style="white-space: pre;" direction="ltr">5</text></g><g transform="translate(143.4292888786166 444.3635760333714) rotate(0 41.0625 18)"><text x="0" y="26" font-family="Virgil, Segoe UI Emoji" font-size="22.499999999999996px" fill="#000000" text-anchor="start" style="white-space: pre;" direction="ltr">reverse</text></g><g><g transform="translate(279.9626924410769 468.64101196763954) rotate(0 16.215365852608613 1.8178771640600644)"><path d="M0.5976893462240696 0.6624315820634366 C6.278844015099208 0.9967768327320021, 27.72950956273874 2.1427228559674827, 32.97839418156505 2.3694821996536266 M-0.5476624763477593 -0.03539578269235788 C5.163021170100297 0.4322258902980041, 27.248603540352114 3.1781162311723588, 32.57367005461328 3.6711501108125013" stroke="#000000" stroke-width="1" fill="none"></path></g><g transform="translate(279.9626924410769 468.64101196763954) rotate(0 16.215365852608613 1.8178771640600644)"><path d="M17.88127418135542 8.851844092187687 C19.618886074761924 6.800029321946276, 22.390152665103773 5.959805911479814, 31.14673436308939 5.269262754149425 M17.014043107225014 7.78939863231127 C22.130717901201564 6.453797045547111, 28.300931826559122 5.530176027746231, 32.538561848683806 3.7357512388297494" stroke="#000000" stroke-width="1" fill="none"></path></g><g transform="translate(279.9626924410769 468.64101196763954) rotate(0 16.215365852608613 1.8178771640600644)"><path d="M19.084464959768635 -2.0497257729444254 C20.605282319040462 -1.8321400488971924, 23.126739816178628 -0.40895575098945036, 31.14673436308939 5.269262754149425 M18.21723388563823 -3.1121712328208417 C22.92860894774016 -0.7311192454958768, 28.687585285080523 2.0712983478454112, 32.538561848683806 3.7357512388297494" stroke="#000000" stroke-width="1" fill="none"></path></g></g><g><g transform="translate(373.7848613713851 462.15750163408484) rotate(179.8590031908988 18.341295915077353 0.95493221108336)"><path d="M0.6624315820634366 1.0348977841436862 C6.790450198930979 0.9598663367331026, 31.111089686962366 0.30184805765748013, 37.13152239684749 0.14750066176056853 M-0.4489305666927248 0.5326151754800232 C5.449975435483561 0.6225599663797768, 29.329287404992208 1.6038950761500748, 35.94771959315787 1.7623637604061515" stroke="#0b7285" stroke-width="1" fill="none"></path></g><g transform="translate(373.7848613713851 462.15750163408484) rotate(179.8590031908988 18.341295915077353 0.95493221108336)"><path d="M19.709037893109258 6.900824422385892 C24.189011501747537 4.330278554442521, 30.027039618936932 1.9743580794010978, 37.82057571990008 2.5475946312419393 M18.463939497101208 7.384137066088316 C23.778175089247505 6.587280753033566, 29.672048034632464 3.990252055666819, 36.02342678370292 1.5123648555019944" stroke="#0b7285" stroke-width="1" fill="none"></path></g><g transform="translate(373.7848613713851 462.15750163408484) rotate(179.8590031908988 18.341295915077353 0.95493221108336)"><path d="M20.132367716528048 -5.945519130988383 C24.536506518337678 -4.27078348694805, 30.23471547303354 -2.383759342044619, 37.82057571990008 2.5475946312419393 M18.887269320519998 -5.462206487285959 C23.971997106627853 -2.3350940003630347, 29.736565316349928 -1.0082482964678943, 36.02342678370292 1.5123648555019944" stroke="#0b7285" stroke-width="1" fill="none"></path></g></g><g><g transform="translate(470.08206665639466 461.60359792819713) rotate(174.62121833240565 17.3832905266201 0.046889614211409025)"><path d="M1.0348977841436862 -0.4490616001188755 C6.709866336733102 -0.4420595563948155, 29.05184805765748 0.5575911842286587, 34.64750066176057 0.704443844407797 M0.1190803914796561 -1.7304228855203838 C5.5966361453663565 -1.6466270206402989, 28.14669941897504 1.3376533441711218, 33.776893045557664 1.8242021139431746" stroke="#0b7285" stroke-width="1" fill="none"></path></g><g transform="translate(470.08206665639466 461.60359792819713) rotate(174.62121833240565 17.3832905266201 0.046889614211409025)"><path d="M16.353812182809566 6.117992875868059 C21.70142468620105 4.489881086543456, 27.178195145046573 4.626511834746922, 34.49843740237506 1.9182480053974156 M16.797925530353833 6.079471753720098 C21.432498206219098 5.509584714343369, 24.41015302557156 4.096089465786718, 33.547170417800906 1.298946189647138" stroke="#0b7285" stroke-width="1" fill="none"></path></g><g transform="translate(470.08206665639466 461.60359792819713) rotate(174.62121833240565 17.3832905266201 0.046889614211409025)"><path d="M17.65529661506854 -5.620922707050872 C22.612442077340045 -3.1314502285299124, 27.633943591554736 1.111540592893763, 34.49843740237506 1.9182480053974156 M18.099409962612807 -5.659443829198834 C22.447672377875065 -3.618105770140627, 25.13639926478936 -2.425576294642756, 33.547170417800906 1.298946189647138" stroke="#0b7285" stroke-width="1" fill="none"></path></g></g><g><g transform="translate(545.5820666563947 461.9110100912908) rotate(178.31398914255564 23.524834899487928 0.8805176956519176)"><path d="M-0.4490616001188755 0.14750066176056853 C6.974607110271852 0.13954245384272965, 37.64092451756199 0.6659998414783197, 45.2044438444078 0.9871485366366528 M1.5160423304792494 -0.8206654361542314 C9.264115825012947 -0.09528827871705559, 39.87379102032942 2.384954928031789, 47.49873139909469 2.581700827458101" stroke="#0b7285" stroke-width="1" fill="none"></path></g><g transform="translate(545.5820666563947 461.9110100912908) rotate(178.31398914255564 23.524834899487928 0.8805176956519176)"><path d="M25.709275062225913 7.861743072799776 C33.41481872602988 5.1437629893265475, 43.05388582876704 5.412998326962716, 47.60766719854437 1.0216760630693011 M25.664655045636152 10.008922268457148 C32.765078179808505 7.1989201301025245, 38.8370740309193 4.980097719157181, 46.8903138154652 1.6565214483972364" stroke="#0b7285" stroke-width="1" fill="none"></path></g><g transform="translate(545.5820666563947 461.9110100912908) rotate(178.31398914255564 23.524834899487928 0.8805176956519176)"><path d="M26.61831865278895 -7.847772008229481 C34.13644882699664 -4.989092794757263, 43.452621253909776 0.8602036445689851, 47.60766719854437 1.0216760630693011 M26.57369863619919 -5.700592812572109 C33.46215251649366 -3.7648368655370352, 39.25940820557652 -1.2357739566276162, 46.8903138154652 1.6565214483972364" stroke="#0b7285" stroke-width="1" fill="none"></path></g></g><g transform="translate(210.1515111008389 501.80555555555566) rotate(0 3.3822525597269646 27.058020477815717)"><text x="0" y="40.11604095563142" font-family="Virgil, Segoe UI Emoji" font-size="33.82252559726963px" fill="#c92a2a" text-anchor="start" style="white-space: pre;" direction="ltr">1</text></g><g transform="translate(293.4864561141113 501.80555555555566) rotate(0 12.683447098976103 27.058020477815717)"><text x="0" y="40.11604095563142" font-family="Virgil, Segoe UI Emoji" font-size="33.822525597269625px" fill="#000000" text-anchor="start" style="white-space: pre;" direction="ltr">2</text></g><g transform="translate(394.5782270659504 501.80555555555566) rotate(0 12.683447098976103 27.058020477815717)"><text x="0" y="40.11604095563142" font-family="Virgil, Segoe UI Emoji" font-size="33.822525597269625px" fill="#000000" text-anchor="start" style="white-space: pre;" direction="ltr">3</text></g><g transform="translate(475.75228849939754 501.80555555555566) rotate(0 10.146757679180894 27.058020477815717)"><text x="0" y="40.11604095563142" font-family="Virgil, Segoe UI Emoji" font-size="33.82252559726963px" fill="#000000" text-anchor="start" style="white-space: pre;" direction="ltr">4</text></g><g transform="translate(561.0996529286735 501.80555555555566) rotate(0 12.683447098976103 27.058020477815717)"><text x="0" y="40.11604095563142" font-family="Virgil, Segoe UI Emoji" font-size="33.822525597269625px" fill="#000000" text-anchor="start" style="white-space: pre;" direction="ltr">5</text></g><g transform="translate(103.4292888786166 510.8635760333714) rotate(0 41.0625 18)"><text x="0" y="26" font-family="Virgil, Segoe UI Emoji" font-size="22.499999999999996px" fill="#000000" text-anchor="start" style="white-space: pre;" direction="ltr">reverse</text></g><g><g transform="translate(238.96269244107668 527.6410119676395) rotate(175.19117799253445 16.950268702453343 1.2698132160080604)"><path d="M1.073268751055002 -1.0441178239881992 C6.305770771004359 -0.4217888697063523, 26.02177292753061 2.7876047243299094, 31.33201466305614 3.5837442560043344 M0.17759611601941305 1.0221163730788976 C5.814084472855653 1.3189131940795136, 28.304305171659717 1.7215610804250596, 33.72294128888719 1.8628997467473307" stroke="#0b7285" stroke-width="1" fill="none"></path></g><g transform="translate(238.96269244107668 527.6410119676395) rotate(175.19117799253445 16.950268702453343 1.2698132160080604)"><path d="M17.14444602763971 6.1982697452279405 C24.043726731026677 6.685253271265394, 28.71808935743148 2.998728298523416, 33.486244234904134 1.946295152247985 M17.79313263234587 6.5385824568486735 C24.167382813952436 5.704832975049111, 29.00757169593604 3.261686425093422, 33.34937208305795 2.520216444467293" stroke="#0b7285" stroke-width="1" fill="none"></path></g><g transform="translate(238.96269244107668 527.6410119676395) rotate(175.19117799253445 16.950268702453343 1.2698132160080604)"><path d="M17.38478637970774 -4.766862724960597 C24.19949932974964 -1.0457544977326996, 28.80302158644306 -1.5003043508633338, 33.486244234904134 1.946295152247985 M18.033472984413898 -4.426550013339865 C24.29565988057927 -1.2194603944243532, 29.047326087214298 0.37609422860419506, 33.34937208305795 2.5202164444672936" stroke="#0b7285" stroke-width="1" fill="none"></path></g></g><g><g transform="translate(333.784861371385 528.6575016340846) rotate(179.15358058536933 18.650833314604995 0.5352023376943293)"><path d="M-1.0441178239881992 -0.6114817343652248 C5.3718844964926245 -0.6251560650765895, 31.75597155532479 0.9945157803595067, 38.34578445319819 0.9912227667868139 M0.6085815890785309 1.6818864097539334 C6.9466627392650695 1.8654008036199956, 31.53273225424491 -0.3897866467293353, 37.7994692290927 -0.6109600294288249" stroke="#0b7285" stroke-width="1" fill="none"></path></g><g transform="translate(333.784861371385 528.6575016340846) rotate(179.15358058536933 18.650833314604995 0.5352023376943293)"><path d="M19.641692878742557 8.151978093199874 C27.028394102989864 6.360192270871635, 29.432601076642417 2.476615048118525, 37.8972017617682 0.6728331302247015 M20.04051129096431 6.982372803650713 C26.169234087333166 4.153989516569341, 30.320885605949485 2.4620967163597056, 38.56979015087972 -0.5585802466036899" stroke="#0b7285" stroke-width="1" fill="none"></path></g><g transform="translate(333.784861371385 528.6575016340846) rotate(179.15358058536933 18.650833314604995 0.5352023376943293)"><path d="M18.803271514708957 -4.673964384725426 C26.545716875628493 -2.7712419193153623, 29.19095395875006 -2.967605943415168, 37.8972017617682 0.6728331302247017 M19.20208992693071 -5.843569674274588 C25.678431506063063 -5.0917192131925235, 30.063609696560526 -3.2111843665216977, 38.56979015087972 -0.5585802466036899" stroke="#0b7285" stroke-width="1" fill="none"></path></g></g><g><g transform="translate(430.08206665639466 528.1035979281969) rotate(179.5176610055628 17.43987051621076 1.2677511583501655)"><path d="M-0.6114817343652248 0.7652004562318324 C5.12484393492341 1.341582687944174, 29.744515780359503 2.321233733743429, 35.49122276678681 2.4141755662858486 M1.2683516257535667 0.12132675041444596 C6.839476982606573 0.46342740197665994, 29.813017696095628 0.3672082321811468, 35.06356925572268 0.7715429898072035" stroke="#0b7285" stroke-width="1" fill="none"></path></g><g transform="translate(430.08206665639466 528.1035979281969) rotate(179.5176610055628 17.43987051621076 1.2677511583501655)"><path d="M19.77153628402784 7.619301474915093 C26.417156124488756 3.2569864501930157, 31.230988804765374 2.1437014191093837, 36.24323977565884 0.4008596822572683 M18.696792374023744 6.970935752466346 C24.31340119277598 4.372361814492332, 31.07100224421397 2.7809431212507216, 35.11170075196476 0.08346902380430765" stroke="#0b7285" stroke-width="1" fill="none"></path></g><g transform="translate(430.08206665639466 528.1035979281969) rotate(179.5176610055628 17.43987051621076 1.2677511583501655)"><path d="M20.121888846035546 -4.186343525363545 C26.528347010102337 -3.952864512866846, 31.205738717055404 -0.468570221796238, 36.24323977565884 0.4008596822572683 M19.04714493603145 -4.834709247812292 C24.417566499178093 -2.8435116393236055, 31.03889645952672 0.15692455778481518, 35.11170075196476 0.08346902380430765" stroke="#0b7285" stroke-width="1" fill="none"></path></g></g><g><g transform="translate(505.58206665639455 528.4110100912908) rotate(181.30175150071582 23.310983766349977 0.8501074860358244)"><path d="M0.7652004562318324 0.9912227667868139 C8.758249354610841 1.1343189411931938, 39.40456706707676 0.2555074689655025, 46.91417556628585 0.24709531207305424 M-0.29220803358592096 0.4660107740107926 C7.714170247629906 0.811745864492402, 38.903345908339446 1.1489540599497425, 46.446072274958716 1.4531196599986127" stroke="#0b7285" stroke-width="1" fill="none"></path></g><g transform="translate(505.58206665639455 528.4110100912908) rotate(181.30175150071582 23.310983766349977 0.8501074860358244)"><path d="M26.30103105431172 10.330670271033458 C28.276963849054546 6.806490206961427, 34.07561854862693 6.9018670513360565, 46.016700169211255 3.2322031242932847 M25.550012193003028 7.899216039070897 C29.423137326839388 6.8129422503458965, 34.53206059162797 5.8131792316308335, 45.64905832349323 0.7926684694524577" stroke="#0b7285" stroke-width="1" fill="none"></path></g><g transform="translate(505.58206665639455 528.4110100912908) rotate(181.30175150071582 23.310983766349977 0.8501074860358244)"><path d="M26.673567190146755 -5.400713684554381 C28.48999132955509 -5.571887887110133, 34.20929949000238 -2.125880721395088, 46.016700169211255 3.2322031242932847 M25.92254832883806 -7.832167916516942 C29.625052071919413 -5.6635797501218255, 34.65689938034433 -3.4085941775811155, 45.64905832349323 0.7926684694524577" stroke="#0b7285" stroke-width="1" fill="none"></path></g></g><g><g transform="translate(173.77647556949967 220.21119749788755) rotate(0 8.96329549346433 -1.286608556502813)"><path d="M0.6940728463232517 -0.40963513031601906 C3.728056485798316 -0.8766089515864024, 15.434856794011377 -1.8838708872492953, 18.327268625625113 -2.1635819826896006 M-0.40067763869650674 -1.6702975190710276 C2.473469763049961 -1.9723027373860695, 14.501255943710513 -0.7005157602257626, 17.43310103260603 -0.5274646068519617" stroke="#000000" stroke-width="1" fill="none"></path></g></g><g><g transform="translate(173.56641935613402 215.86357603337143) rotate(0 -1.118870831518052 61.88524147858692)"><path d="M-0.2426810704171658 -0.057950107008218676 C-0.5781896950780521 20.427719626329964, -1.0602494041021513 103.01346827995093, -1.2611823756868656 123.60048765318169 M-1.8292273617256434 -1.1339778585266322 C-2.2931371922242563 19.45708488191118, -1.6516886556014014 103.96935915962854, -1.636775921021279 124.9044608157005" stroke="#000000" stroke-width="1" fill="none"></path></g></g><g><g transform="translate(172.44791800262135 339.8633991008217) rotate(0 7.656101717250408 -0.2197469576960316)"><path d="M0.12416880503296857 0.9523877464234827 C2.726597538986246 0.8387950025498865, 13.971811403823098 0.7532269321382046, 16.581984736165047 0.47914300784468655 M-1.2697813016641886 0.40678736795671266 C1.1520069800829538 0.43792618175037185, 13.298922278280381 -1.367752140266821, 16.006115766707822 -1.391881661815569" stroke="#000000" stroke-width="1" fill="none"></path></g></g><g><g transform="translate(122.81350080106108 160.28099143274278) rotate(0 19.24393757631924 -2.418408835064497)"><path d="M0.9864834107458591 0.14072011336684231 C7.43766901234914 -0.8474443222519905, 32.359477730598506 -4.09216341745712, 38.44262668059046 -4.977537783495874 M0.04524847204796978 -0.8310057724546641 C6.422857220077929 -1.707469045914054, 31.772444642195683 -2.9663737101075065, 37.86239219065594 -3.4966014126593037" stroke="#000000" stroke-width="1" fill="none"></path></g></g><g><g transform="translate(121.1390099802511 152.35396746559286) rotate(0 -2.920676007070483 129.02907644747677)"><path d="M0.14072011336684231 0.7005923308432103 C-0.8474443222519905 43.308290651558316, -4.09216341745712 213.8455263143702, -4.977537783495874 256.6326733350365 M-1.2445405564550311 0.022799359196796987 C-2.483392866927475 42.726090621255686, -5.173569367282541 215.4789222914743, -5.982072127507792 258.0353535357567" stroke="#000000" stroke-width="1" fill="none"></path></g></g><g><g transform="translate(119.59523586139085 409.07603500117716) rotate(0 16.112350884898774 -0.06609217311256543)"><path d="M0.7005923308432103 -0.1075978673994542 C5.972084628152424 -0.18131558075547227, 27.164496197340757 -0.3960637964308262, 32.61543719460114 -0.3015861667692661 M-0.39073542480356993 -1.209690693123266 C4.6139607768363735 -1.1177424577903001, 25.980696517269802 1.1495794986654073, 31.53264668047286 1.0775063468981534" stroke="#000000" stroke-width="1" fill="none"></path></g></g><g><g transform="translate(72.9018921996801 113.44958392458443) rotate(0 26.861853239763576 -4.367417947034141)"><path d="M-0.9746494732797145 -0.10472468510270128 C7.630908583958022 -1.0801286202184075, 43.40418921092685 -5.32452363943642, 52.38817057749076 -6.628363090909549 M0.7145208239089698 -1.205309090120718 C9.63904912001113 -2.498312800729569, 46.14313741584469 -7.6357240507095865, 54.698355952806835 -8.630111208965532" stroke="#000000" stroke-width="1" fill="none"></path></g></g><g><g transform="translate(69.12760722136215 102.6981397413499) rotate(0 -3.7801533044583664 181.10829422019688)"><path d="M-0.10472468510270128 -0.7652745924890041 C-1.0801286202184075 59.657524680507, -5.32452363943642 301.05015698081166, -6.628363090909549 361.56214616469634 M-1.6188438741210849 1.44735230111517 C-2.6642366217429903 62.14018308738489, -6.7929197078846215 303.1835369177098, -7.455581923814021 362.9818630328827" stroke="#000000" stroke-width="1" fill="none"></path></g></g><g><g transform="translate(65.6364249209405 463.7696744423265) rotate(0 22.652727539711947 -0.4195531882345449)"><path d="M-0.7652745924890041 0.23014596328139314 C7.075621931709758 0.06939135417342199, 38.140643236825426 -0.9946862377226352, 46.070729671912865 -1.0692523397505282 M1.0338175171148034 -0.6946313513349742 C8.782356517574229 -0.7354143820237369, 37.45682751654852 -0.37331972430460153, 45.004975825250746 -0.09318456689827137" stroke="#000000" stroke-width="1" fill="none"></path></g></g><g><g transform="translate(15.097873642038621 46.30926039452149) rotate(4.111436033981278 36.05659730562738 -5.313831308840875)"><path d="M1.1047698296606538 0.3444475494325161 C13.041498462819435 -1.1260726032431254, 60.12970721256424 -7.3949991125739265, 71.8875593503617 -9.01282685191949 M0.2256352608930321 -0.5203214324545116 C11.948383826977516 -2.3526593286103585, 59.02047807685537 -9.714608916084757, 70.7440346816514 -10.972110167114261" stroke="#000000" stroke-width="1" fill="none"></path></g></g><g><g transform="translate(18.08589845565001 40.4421419239373) rotate(359.6030176204583 -4.726566666265114 245.4151454370634)"><path d="M0.3444475494325161 -0.3723413430154323 C-1.1260726032431254 81.31444694966318, -7.3949991125739265 409.02322743685255, -9.01282685191949 491.22549958573234 M-0.9338562164548785 -1.613424493437633 C-2.5185831496237796 80.73786260911503, -8.261804573259791 410.336834669507, -9.79758088196275 492.44371536756444" stroke="#000000" stroke-width="1" fill="none"></path></g></g><g><g transform="translate(11.134094597360672 532.4842420807917) rotate(359.6030176204583 32.17421411321473 0.4535932121146402)"><path d="M-0.3723413430154323 0.3110313020646571 C9.831534435784665 0.2471799217164516, 51.608664867459964 -0.09603203907608979, 62.32802450246123 -0.03866073265671721 M1.6330407225620003 -0.5712812096904964 C12.1390262742231 -0.4642868165206165, 54.375076442939395 1.6071279286313804, 64.72076956944485 1.4784676339197906" stroke="#000000" stroke-width="1" fill="none"></path></g></g></svg>