<svg version="1.1" xmlns="http://www.w3.org/2000/svg" viewBox="0 0 243.571428571428 174.2142857142859" width="243.571428571428" height="174.2142857142859">
  <!-- svg-source:excalidraw -->
  
  <defs>
    <style>
      @font-face {
        font-family: "Virgil";
        src: url("https://excalidraw.com/Virgil.woff2");
      }
      @font-face {
        font-family: "Cascadia";
        src: url("https://excalidraw.com/Cascadia.woff2");
      }
    </style>
  </defs>
  <g stroke-opacity="0.9" fill-opacity="0.9" transform="translate(32.142857142857565 57) rotate(0 11.428571428571445 11.428571428571445)"><path d="M10.916858790496903 0.5529732436085055 C12.971885157929952 0.4165851704494895, 15.737160590537036 1.0174483721426792, 17.70231993595082 2.532655544418949 C19.667479281364603 4.047862716695219, 21.99500209036153 7.327984708609252, 22.707814862979603 9.644216277266125 C23.420627635597675 11.960447845922998, 23.267168548824785 14.453005212009018, 21.97919657165924 16.430044956360188 C20.691224594493697 18.40708470071136, 17.38585379766627 20.65551097188961, 14.979982999986344 21.506454743373144 C12.574112202306415 22.35739851485668, 9.90675069625989 22.181549262577054, 7.543971785579669 21.535707585261406 C5.181192874899448 20.889865907945758, 1.9446482560343274 19.608815202109454, 0.8033095359050204 17.63140467947925 C-0.3380291842242866 15.653994156849045, 0.0209635890878469 12.192744379627234, 0.6959394648038266 9.671244449480175 C1.3709153405198062 7.149744519333117, 2.7465189822567697 4.004509785923193, 4.853164790200899 2.5024050985968973 C6.959810598145028 1.000300411270602, 11.704869194849845 1.1135683491853101, 13.335814312468601 0.658616325522404 C14.966759430087357 0.20366430185949785, 14.81296631807227 -0.17991067602289915, 14.638835495913437 -0.22730704338053975 M8.571505012672773 1.2046656135354556 C10.75662066814335 0.29983080075276514, 13.047210397020491 -0.07545514451070245, 15.295880827443352 0.8203975642271519 C17.54455125786621 1.7162502729650062, 21.04754723990954 4.470823748860036, 22.063527595209933 6.579781865962582 C23.079507950510326 8.688739983065128, 22.180569896144355 11.258617938476384, 21.391762959245703 13.474146266842425 C20.60295602234705 15.689674595208466, 19.294173517529057 18.44388409868575, 17.33068597381802 19.87295183615883 C15.367198430106987 21.30201957363191, 11.641374991216024 22.20251953337634, 9.610837696979495 22.048552691680914 C7.5803004027429655 21.89458584998549, 6.694146852456755 20.69992726171316, 5.147462208398845 18.94915078598629 C3.6007775643409348 17.19837431025942, 1.0444084393727389 13.785715797464775, 0.33072983263203604 11.543893837319702 C-0.3829487741086667 9.30207187717463, -0.3961872563298281 7.508053651767908, 0.8653905679546288 5.49821902511586 C2.1269683922390854 3.488384398463812, 6.6983789212297165 0.11318815284762407, 7.900196778338778 -0.5151139225925867 C9.102014635447839 -1.1434159980327974, 8.01350647593202 1.1698684139302418, 8.076297710608998 1.7284065724745954" stroke="#000000" stroke-width="1" fill="none"></path></g><g transform="translate(39.071428571429124 58.928571428571445) rotate(0 4.5 9.5)"><text x="0" y="15" font-family="Cascadia, Segoe UI Emoji" font-size="16px" fill="#000000" text-anchor="start" style="white-space: pre;" direction="ltr">1</text></g><g stroke-opacity="0.9" fill-opacity="0.9" transform="translate(107.14285714285734 57) rotate(0 11.428571428571445 11.428571428571445)"><path d="M11.015408681781333 0.6911116540072797 C13.292847873436147 0.24939601974317077, 15.579806278369045 1.228716392365258, 17.435450069347063 2.640458621580507 C19.29109386032508 4.052200850795756, 21.463492636661712 6.776123757438947, 22.149271427649445 9.161565029298773 C22.83505021863718 11.547006301158598, 22.623365927890035 14.936462345648668, 21.55012281527346 16.95310625273946 C20.476879702656888 18.96975015983025, 17.72136750760413 20.44204443557849, 15.70981275195 21.261428471843523 C13.698257996295872 22.080812508108554, 11.844444156098682 22.47784354358593, 9.480794281348693 21.86941047032965 C7.117144406598705 21.260977397073372, 3.133840591132868 19.4501907657705, 1.5279135034500655 17.61083003230585 C-0.07801358423273697 15.771469298841197, -0.32582805771944245 13.14764961018695, -0.15476824474812112 10.833246069541746 C0.016291568223200187 8.518842528896542, 0.43447163103607034 5.378936226785141, 2.5542723812779933 3.724408788434629 C4.674073131519917 2.069881350084117, 10.81037232352285 1.5362529290060447, 12.564036256703416 0.9060814394386743 C14.31770018988398 0.2759099498713039, 13.121295122325654 0.018714795591637134, 13.076255980361388 -0.056620148969592776 M10.748145951699222 1.2683767334465585 C13.307829430068118 0.6774313907989291, 16.28898474302978 -0.3516207410129689, 18.311633778530187 0.5521193941935749 C20.334282814030594 1.4558595294001186, 22.301820997489628 4.158470010591248, 22.884040164701677 6.690817544685822 C23.466259331913726 9.223165078780395, 22.928984151153927 13.192657360656804, 21.804948781802487 15.746204598761015 C20.680913412451048 18.299751836865223, 18.183615977912368 21.044286651693355, 16.13982794859304 22.012100973311078 C14.096039919273716 22.9799152949288, 11.977129153445919 21.921000824286974, 9.542220605886534 21.553090528467365 C7.10731205832715 21.185180232647756, 3.168380183739245 21.790241643770823, 1.530376663236737 19.804639198393428 C-0.10762685726577104 17.819036753016032, -0.6583348050176747 12.308790248287087, -0.2858005171285143 9.639475856203 C0.08673377076064614 6.970161464118911, 2.0827279369488005 5.554937999312603, 3.7655823905716996 3.7887528458889035 C5.448436844194599 2.022567692465204, 8.792065911229505 -0.424724232193157, 9.811326204608878 -0.9576350643392004 C10.830586497988252 -1.4905458964852438, 9.997223108031644 0.03293005784557279, 9.881144150847938 0.5912878530126431" stroke="#000000" stroke-width="1" fill="none"></path></g><g transform="translate(114.0714285714289 58.92857142857156) rotate(0 4.5 9.5)"><text x="0" y="15" font-family="Cascadia, Segoe UI Emoji" font-size="16px" fill="#000000" text-anchor="start" style="white-space: pre;" direction="ltr">2</text></g><g stroke-opacity="0.9" fill-opacity="0.9" transform="translate(185.00000000000045 57) rotate(0 11.428571428571445 11.428571428571445)"><path d="M16.515885100332255 2.0832827466704327 C18.45298814686539 3.111333719055552, 20.899111532652523 5.832412541455001, 21.80298954185723 8.143658578099451 C22.706867551061936 10.454904614743901, 22.79763079611914 13.850760431936795, 21.939153155560494 15.950758966537133 C21.080675515001847 18.050757501137472, 18.552737879488852 19.722363815797195, 16.65212369850535 20.743649785701486 C14.751509517521846 21.764935755605777, 12.94391259498168 22.460930778090038, 10.53546806965948 22.07847478596287 C8.12702354433728 21.696018793835705, 3.9869535952301787 20.14395952549999, 2.201456546572155 18.448913832938487 C0.4159594979141312 16.753868140376984, -0.11825154431987381 14.227477782083485, -0.17751422228866254 11.908200630593859 C-0.23677690025745127 9.588923479104233, 0.2186634485955794 6.33241077043668, 1.8458804787594225 4.533250924000732 C3.4730975089232654 2.7340910775647833, 7.058252214832471 1.6292503102103706, 9.585787958694397 1.1132415519781684 C12.113323702556322 0.5972327937459663, 15.450739161107007 1.2536045450920996, 17.011094941930978 1.4371983746075188 C18.571450722754946 1.620792204122938, 18.95264470779364 2.0538319351251135, 18.947922643638215 2.2148045290706833 M10.55343283391214 -1.056816978966129 C12.778013275518317 -1.9414177474350067, 16.060315890205246 -1.0091240421072936, 17.975117807917677 0.4714253360359457 C19.889919725630108 1.951974714179185, 21.46937927598448 5.222088503534751, 22.042244340186727 7.826479289893306 C22.615109404388974 10.43087007625186, 22.188876677650896 14.000260741400831, 21.412308193131164 16.097770054187276 C20.635739708611432 18.195279366973722, 19.57314943317043 19.09949586987765, 17.38283343306834 20.411535166611976 C15.192517432966246 21.723574463346303, 10.800897734204769 24.51147117094749, 8.270412192518613 23.970005834593245 C5.739926650832457 23.428540498239, 3.439340228342192 19.299460718186353, 2.1999201829514057 17.162743148486506 C0.9605001375606195 15.026025578786658, 0.7282127645086686 13.544037006420469, 0.8338919201738957 11.149700416394166 C0.9395710758391228 8.755363826367864, 1.3499867840482855 4.5914805344253375, 2.833995116942768 2.796723608328689 C4.318003449837251 1.00196668223204, 8.730536834892057 0.596776106719742, 9.737941917540791 0.3811588598142741 C10.745347000189525 0.16554161290880623, 8.820678266154214 1.286343730274524, 8.878425612835173 1.5030201268958816" stroke="#000000" stroke-width="1" fill="none"></path></g><g transform="translate(191.928571428572 58.92857142857156) rotate(0 4.5 9.5)"><text x="0" y="15" font-family="Cascadia, Segoe UI Emoji" font-size="16px" fill="#000000" text-anchor="start" style="white-space: pre;" direction="ltr">3</text></g><g stroke-opacity="0.9" fill-opacity="0.9" transform="translate(107.14285714285757 10) rotate(0 11.428571428571445 11.428571428571445)"><path d="M12.174946579173833 -0.15111762966187214 C14.516190526896066 0.09048505298118345, 18.385340079746186 1.7183535185825072, 20.211217353923182 3.5799999945062115 C22.037094628100178 5.441646470429916, 23.092098668987717 8.536127367915594, 23.130210224235817 11.018761225880354 C23.168321779483918 13.501395083845114, 21.851771695098872 16.693958200943065, 20.439886685411793 18.47580314229477 C19.028001675724713 20.257648083646473, 17.034663362643236 20.987881414703676, 14.658900166113332 21.709830873990576 C12.283136969583426 22.431780333277477, 8.596117390993305 23.52422295183244, 6.1853075062323555 22.807499898016165 C3.7744976214714065 22.09077684419989, 1.1898212487805888 19.90883428569741, 0.19404085754763756 17.40949255109294 C-0.8017395336853136 14.910150816488468, -0.6170538033964688 10.380550797885789, 0.21062515883464883 7.811449490389343 C1.0383041210657664 5.242348182892897, 2.991740221716235 3.4266314014255457, 5.160114630934343 1.9948847061142612 C7.328489040152451 0.5631380108029764, 11.81331659081969 -0.3963315510295322, 13.220871614143297 -0.7790306814783658 C14.628426637466903 -1.1617298119271995, 13.560047648662543 -0.571294105646283, 13.605444770875984 -0.30131007657874065 M12.651826814591956 -0.9141701608397312 C15.3127891822323 -0.22079166991334986, 19.621063002222336 3.3614596754138235, 21.19207622277148 5.239718139999628 C22.763089443320624 7.117976604585432, 22.517510496219693 8.147552857321172, 22.07790613788682 10.355380626675093 C21.63830177955395 12.563208396029014, 20.11728612998473 16.21796474934582, 18.55445007277425 18.486684756123157 C16.991614015563773 20.755404762900493, 14.940707569751083 23.562017626602724, 12.700889794623938 23.967700667339102 C10.461072019496793 24.37338370807548, 7.0270581396322385 22.66869733462613, 5.115543422011385 20.92078300054142 C3.204028704390531 19.172868666456708, 1.9223118950893618 15.574302492216953, 1.2318014888988156 13.480214662830827 C0.5412910827082692 11.3861268334447, 0.25681899875915315 10.285120098940954, 0.9724809848681062 8.356256024224662 C1.6881429709770592 6.42739194950837, 3.2320015527614605 3.0747529341316984, 5.525773405552534 1.9070302145330746 C7.819545258343608 0.7393074949344507, 13.255832747985782 1.8367804448564573, 14.735112101614545 1.3499197066329174 C16.21439145524331 0.8630589684093775, 14.457485971331968 -0.9640035631323013, 14.401449527325116 -1.0141342148081645" stroke="#000000" stroke-width="1" fill="none"></path></g><g stroke-opacity="0.9" fill-opacity="0.9" transform="translate(170.00000000000023 98.857142857143) rotate(0 11.428571428571445 11.428571428571445)"><path d="M9.318317865568812 0.6477647194498477 C11.488055766984477 0.14407646068800517, 14.852475018400899 0.8557369879432457, 17.058408709443317 1.796362450745054 C19.264342400485734 2.736987913546862, 21.693003880322657 4.013805383977525, 22.553920011823315 6.291517496260697 C23.414836143323974 8.56922960854387, 22.96606664105978 12.881286751747355, 22.22390549844728 15.462635124444084 C21.48174435583478 18.043983497140815, 19.94082662474544 20.549989198003406, 18.100953156148318 21.77960773244107 C16.261079687551195 23.009226266878738, 13.757017269551046 23.129327550063437, 11.184664686864537 22.840346331070084 C8.612312104178027 22.55136511207673, 4.615406474254286 21.63414759674664, 2.6668376600292643 20.045720418480954 C0.7182688458042426 18.457293240215268, -0.5685037809191714 15.71664328408382, -0.5067481984855942 13.309783261475973 C-0.44499261605201684 10.902923238868125, 1.5510073740920818 7.905064692807015, 3.037371154630728 5.604560282833867 C4.523734935169374 3.304055872860719, 7.086257768748828 0.29096161343476445, 8.411434484746284 -0.4932431983629151 C9.73661120074374 -1.2774480101605947, 10.805660772116362 0.6141695945096357, 10.988431450615465 0.8993314120477898 M7.937341054759005 1.3099495933888061 C9.754056504513404 0.23203287694104846, 12.71793607471836 -0.9490973813301005, 15.003647969337717 -0.05213858682048311 C17.289359863957074 0.8448202076891342, 20.40495785772296 4.353250761730834, 21.65161242247515 6.69170236044651 C22.89826698722734 9.030153959162186, 23.246431776812976 11.562081141625585, 22.48357535785087 13.978571005473576 C21.720718938888766 16.395060869321565, 18.802385638766204 19.657008022530157, 17.07447390870252 21.19064154353445 C15.346562178638834 22.724275064538745, 14.47543469057556 23.205209093608012, 12.11610497746876 23.180372131499333 C9.756775264361961 23.155535169390653, 4.821330686296843 22.82977000379791, 2.918495630061722 21.04161977088237 C1.0156605738266011 19.25346953796683, 0.9482212588955145 14.901337686623078, 0.6990946400580356 12.451470734006088 C0.4499680212205567 10.001603781389099, 0.21706837149310165 8.549027974795045, 1.4237359170368489 6.342418055180428 C2.6304034625805963 4.13580813556581, 6.838940271450657 0.16029293245375875, 7.9390999133205185 -0.788188783681619 C9.03925955519038 -1.7366704998169968, 7.822459413515364 0.4813692800116479, 8.024693768256018 0.6515277583681609" stroke="#000000" stroke-width="1" fill="none"></path></g><g transform="translate(176.9285714285718 100.78571428571433) rotate(0 4.5 9.5)"><text x="0" y="15" font-family="Cascadia, Segoe UI Emoji" font-size="16px" fill="#000000" text-anchor="start" style="white-space: pre;" direction="ltr">1</text></g><g stroke-opacity="0.9" fill-opacity="0.9" transform="translate(90.00000000000045 98.857142857143) rotate(0 11.428571428571445 11.428571428571445)"><path d="M6.410476550571024 0.19972014715592756 C8.192117507016665 -1.0249020825336024, 10.770818125635314 -1.1941854243193086, 13.195627157464527 -0.41290807791825124 C15.62043618929374 0.36836926848280604, 19.384606359647652 2.828584832672085, 20.959330741546303 4.887384225562271 C22.534055123444954 6.946183618452457, 22.854502700384103 9.697638901794308, 22.643973448856425 11.939888279422867 C22.433444197328747 14.182137657051426, 21.331436805120298 16.44686094385995, 19.696155232380246 18.340880491333625 C18.060873659640194 20.2349000388073, 15.342370983350664 22.952832172364793, 12.832284012416117 23.304005564264926 C10.322197041481571 23.65517895616506, 6.723513209210925 21.869071970958913, 4.635633406772966 20.447920842734426 C2.5477536043350075 19.02676971450994, 0.8655922196401082 16.9352164678779, 0.3050051977883683 14.777098794918007 C-0.2555818240633716 12.618981121958114, -0.09437329671888506 9.947671378615604, 1.2721112756625264 7.499214804975067 C2.6385958480439378 5.05075823133453, 7.026253772474331 1.3973714695567352, 8.503912632076837 0.08635935307478348 C9.981571491679343 -1.2246527634071682, 10.022198520527727 -0.5492896824595505, 10.13806443327756 -0.36685789391664336 M9.660321180484205 0.12431040106781133 C12.147248124365067 -0.7634257607230058, 15.062015148629932 -0.6580957913488286, 17.016848011030362 0.2403750251082588 C18.971680873430792 1.1388458415653462, 20.598610763646295 3.203027766282094, 21.38931835488678 5.515135299810336 C22.180025946127262 7.827242833338577, 22.077787827932948 11.826703760375272, 21.761093558473267 14.113020226277708 C21.444399289013585 16.399336692180146, 21.229347979542645 17.713220747541158, 19.48915273812869 19.233034095224955 C17.748957496714738 20.752847442908752, 13.940175011823026 23.1090996705899, 11.319922109989552 23.231900312380503 C8.699669208156077 23.354700954171108, 5.437683967932791 21.55636939181527, 3.7676353271278433 19.969837945968585 C2.097586686322896 18.3833065001219, 1.5780228470409288 16.146713143937195, 1.299630265159868 13.712711637300389 C1.021237683278807 11.278710130663583, 0.9595741457194891 7.5910568371400124, 2.097279835841478 5.365828906147756 C3.2349855259634674 3.140600975155501, 6.953570364130995 1.3170433890912303, 8.125864405891802 0.36134405134685643 C9.29815844765261 -0.5943552863975174, 9.085343542843598 -0.5809143632260435, 9.13104408640632 -0.36836712031848684" stroke="#000000" stroke-width="1" fill="none"></path></g><g transform="translate(96.92857142857201 100.78571428571456) rotate(0 4.5 9.5)"><text x="0" y="15" font-family="Cascadia, Segoe UI Emoji" font-size="16px" fill="#000000" text-anchor="start" style="white-space: pre;" direction="ltr">1</text></g><g stroke-opacity="0.9" fill-opacity="0.9" transform="translate(10.000000000000227 98.857142857143) rotate(0 11.428571428571445 11.428571428571445)"><path d="M7.365721150700186 0.4302700549812464 C9.564802252440609 -0.4905626805065012, 12.226051024078943 0.010246014001741854, 14.501685149948322 0.8685000426334106 C16.777319275817703 1.7267540712650793, 19.50634667697563 3.632354859829186, 21.019525905916463 5.579794226771259 C22.532705134857295 7.527233593713333, 23.775214136142697 10.381198503072635, 23.580760523593312 12.553136244285852 C23.386306911043928 14.725073985499069, 21.743347724322625 16.989890078184256, 19.85280423062016 18.611420674050564 C17.962260736917692 20.23295126991687, 14.640793284332416 21.789200914022725, 12.237499561378502 22.282319819483693 C9.83420583842459 22.77543872494466, 7.44497827917213 22.966868549742333, 5.4330418928966795 21.570134106816376 C3.4211055066212297 20.173399663890418, 0.7684619628455613 16.512351753885927, 0.1658812437258046 13.901913161927954 C-0.43669947539395215 11.291474569969981, 0.49158727115615997 8.109417356192003, 1.817557578178139 5.907502555068538 C3.1435278852001183 3.7055877539450734, 6.807891451430662 1.4913937812850082, 8.121703085857678 0.6904243551871669 C9.435514720284694 -0.11054507091067445, 9.632498527802502 1.0595598249250813, 9.700427384740236 1.1016859984814893 M13.981988260236324 1.3263682984919072 C16.22685462947425 1.7254629493135585, 19.76758596491836 2.834201268232192, 21.226334160200018 4.640903159968241 C22.685082355481676 6.44760505170429, 23.16659304394541 9.621358225820956, 22.734477431926273 12.166579648908199 C22.302361819907134 14.711801071995442, 20.469334536987567 17.94697235931553, 18.633640488085195 19.912231698491702 C16.797946439182823 21.877491037667873, 14.14915875594034 23.789003115708937, 11.72031313851204 23.95813568396523 C9.29146752108374 24.127268252221526, 5.969806488475254 22.399239853390835, 4.060566783515399 20.927027108029474 C2.1513270785555436 19.454814362668113, 0.9142613188923518 17.276875416426666, 0.2648749087529083 15.124859211797071 C-0.3845115013865352 12.972843007167477, -0.7350507769095002 10.496592556916196, 0.16424832267873768 8.014929880251909 C1.0635474222669754 5.533267203587622, 3.153161160695975 1.4350479232538544, 5.660669506282336 0.23488315181134922 C8.168177851868696 -0.965281619631156, 13.751129462187448 0.6687218942134573, 15.209298396196901 0.8139412515968782 C16.667467330206357 0.9591606089802992, 14.677685298432463 0.9050526790487069, 14.40968311033906 1.1061992961118747" stroke="#000000" stroke-width="1" fill="none"></path></g><g transform="translate(16.928571428571786 100.78571428571456) rotate(0 4.5 9.5)"><text x="0" y="15" font-family="Cascadia, Segoe UI Emoji" font-size="16px" fill="#000000" text-anchor="start" style="white-space: pre;" direction="ltr">2</text></g><g stroke-opacity="0.9" fill-opacity="0.9" transform="translate(130.00000000000023 98.857142857143) rotate(0 11.428571428571445 11.428571428571445)"><path d="M7.925662275702688 1.4053866312103587 C10.034088740556722 0.5890482143797736, 13.658371687766751 0.5219647948183463, 15.906089939494823 1.112501202613137 C18.153808191222893 1.7030376104079274, 20.169210286764713 2.904873758115777, 21.411971786071117 4.948605077979102 C22.65473328537752 6.992336397842427, 23.768447299800343 10.658193596673533, 23.362658935333254 13.374889121793087 C22.956870570866165 16.091584646912644, 21.149286084945302 19.52257583435479, 18.977241599268588 21.24877822869643 C16.805197113591873 22.97498062303807, 12.700261415040929 23.776811595444027, 10.330392021272957 23.732103487842934 C7.960522627504984 23.687395380241842, 6.55934464177122 22.781531642944355, 4.7580252366607505 20.98052958308987 C2.9567058315502814 19.179527523235382, 0.06658517064478042 15.441340051164815, -0.4775244093898561 12.92609112871601 C-1.0216339894244926 10.410842206267205, -0.1427600271095455 7.864897594939041, 1.4933677564529315 5.88903604839704 C3.1294955400154087 3.913174501855039, 8.066089549048357 1.892624699909501, 9.339242291985006 1.0709218494640051 C10.612395034921654 0.24921899901850908, 9.34650337238552 0.925961567766144, 9.132284214072822 0.9588189457240635 M10.632559547160643 -0.9401547012888116 C13.03240799668065 -1.1505788125334453, 16.8403416876337 -0.25535516582415774, 19.03528538254175 1.4679764134863493 C21.230229077449803 3.1913079927968564, 23.36947110761701 6.645329810384771, 23.802221716608955 9.39983477457423 C24.2349723256009 12.15433973876369, 23.033434050294865 15.624968217588362, 21.631789036493423 17.995006198623113 C20.23014402269198 20.36504417965786, 17.897967359646014 22.791665193017508, 15.392351633800303 23.62006266078273 C12.886735907954591 24.44846012854795, 9.098374590810874 24.231445394187396, 6.598094681419161 22.96539100521443 C4.097814772027447 21.69933661624146, 1.5475784018186216 18.275295970208433, 0.3906721774500195 16.02373632694492 C-0.7662340469185827 13.772176683681408, -0.9584371487759548 11.731531216723548, -0.343342664792452 9.45603314563335 C0.27175181919105074 7.180535074543153, 2.068267983575589 3.9381973542184374, 4.081239081351036 2.3707479004037317 C6.094210179126483 0.803298446589026, 10.241158153476023 0.4897580363118556, 11.734483921860232 0.051336422745116295 C13.22780969024444 -0.387085190821623, 13.235389910545312 -0.4654197646909516, 13.041193691656288 -0.259781780996704" stroke="#000000" stroke-width="1" fill="none"></path></g><g transform="translate(136.9285714285718 100.78571428571456) rotate(0 4.5 9.5)"><text x="0" y="15" font-family="Cascadia, Segoe UI Emoji" font-size="16px" fill="#000000" text-anchor="start" style="white-space: pre;" direction="ltr">3</text></g><g stroke-opacity="0.9" fill-opacity="0.9" transform="translate(50.000000000000455 98.857142857143) rotate(0 11.428571428571445 11.428571428571445)"><path d="M10.961801329617927 0.40476565743395554 C13.227711487413183 -0.19998718797479198, 16.039471552220117 -0.1013547141683302, 18.07935061067439 1.2283207392536593 C20.11922966912866 2.557996192675649, 22.537250304540375 5.700744090926404, 23.20107568034355 8.382818377965892 C23.864901056146724 11.06489266500538, 23.392721586282537 14.933551014797875, 22.062302865493436 17.32076646149058 C20.731884144704335 19.70798190818329, 17.368601008891346 21.70346717647786, 15.218563355608946 22.706111058122133 C13.068525702326546 23.708754939766404, 11.468220349356825 24.194008520859718, 9.162076945799033 23.336629751356202 C6.855933542241241 22.479250981852687, 2.919079492309753 19.67872459685319, 1.3817029342621918 17.561838441101038 C-0.1556736237853691 15.444952285348885, -0.5569900654316047 12.905798402694735, -0.06218240248633222 10.635312816843284 C0.4326252604589402 8.364827230991832, 2.3111506767588863 5.621543323782201, 4.350548911933826 3.938924925992332 C6.389947147108765 2.2563065282024626, 10.690778552618495 1.1516253062638926, 12.174207008563307 0.5396024301040683 C13.65763546450812 -0.07242044605575604, 13.240102718774375 0.2108820171906173, 13.251119647602701 0.2667876690333859 M9.11173877854657 -1.218298236709126 C11.733011021280355 -1.7395695276494103, 15.686663283213116 -0.5323791458645104, 17.927048045946933 0.9632962049055731 C20.167432808680747 2.4589715556756566, 21.761804191872397 5.188110480198663, 22.554047354949464 7.755753867911375 C23.34629051802653 10.323397255624087, 23.632525210552497 13.97918040256541, 22.68050702440933 16.369156531181844 C21.728488838266163 18.759132659798276, 19.155856800095787 21.16679312398441, 16.841938238090464 22.095610639609976 C14.52801967608514 23.024428155235544, 11.221977267293516 22.39246107729862, 8.796995652377388 21.942061624935242 C6.372014037461261 21.491662172571864, 3.806119624766307 21.104046390306113, 2.2920485485937014 19.393213925429713 C0.7779774724210962 17.682381460553312, -0.30640640130543 14.1805585806707, -0.2874308046582428 11.677066835676838 C-0.26845520801105555 9.173575090682975, 0.6280324909869393 6.362044839818135, 2.405902128476825 4.372263455466534 C4.183771765966711 2.382482071114933, 9.450148948011297 0.3681814623880513, 10.379787020281071 -0.2616214704327664 C11.309425092550846 -0.8914244032535841, 8.1403226876491 0.37163811926660717, 7.98373056209547 0.593445858541628" stroke="#000000" stroke-width="1" fill="none"></path></g><g transform="translate(56.92857142857201 100.78571428571456) rotate(0 4.5 9.5)"><text x="0" y="15" font-family="Cascadia, Segoe UI Emoji" font-size="16px" fill="#000000" text-anchor="start" style="white-space: pre;" direction="ltr">3</text></g><g stroke-opacity="0.9" fill-opacity="0.9" transform="translate(210.00000000000045 98.857142857143) rotate(0 11.428571428571445 11.428571428571445)"><path d="M13.205563410907258 -0.46026181355662565 C15.537075951734522 0.005401978590129641, 18.452360702015643 2.77559016293707, 19.92601501006684 4.786917780469451 C21.39966931811804 6.798245398001832, 22.00720364233953 9.172536298039088, 22.047489259214444 11.60770389163766 C22.08777487608936 14.042871485236233, 21.706514479643236 17.51361821637074, 20.167728711316336 19.397923342060885 C18.628942942989436 21.28222846775103, 15.158071833900113 22.465751095840503, 12.814774649253048 22.913534645778515 C10.471477464605982 23.361318195716528, 7.9873202017348595 23.227299501219942, 6.107945603433944 22.08462464168896 C4.228571005133028 20.94194978215798, 2.461134461118544 18.558334900356712, 1.5385270594475546 16.057485488592622 C0.6159196577765652 13.556636076828532, -0.31451238063849785 9.358569365503401, 0.5723011934080073 7.079528171104425 C1.4591147674545124 4.800486976705448, 4.384923087644948 3.412921123312884, 6.859408503726586 2.3832383221987623 C9.333893919808224 1.3535555210846406, 13.950826569363356 1.1649426518997401, 15.41921368989784 0.901431364419695 C16.887600810432325 0.6379200769396498, 15.795154417763268 0.591352865789859, 15.66973122693349 0.8021705973184918 M9.810361578411865 1.35625618151869 C12.166996093296358 1.2047355447587254, 15.143584815722315 0.6978274086316567, 17.316927253000138 2.114902749262871 C19.49026969027796 3.5319780898940856, 21.94732468798439 7.279279502972637, 22.850416202078797 9.858708225305977 C23.753507716173203 12.438136947639316, 23.88489141433242 15.687557169534337, 22.735476337566567 17.591475083262914 C21.586061260800715 19.49539299699149, 18.279987009027266 20.54952552914612, 15.953925741483689 21.282215707677445 C13.627864473940111 22.01490588620877, 11.12768504493314 22.70930453054565, 8.779108732305104 21.987616154450865 C6.4305324196770695 21.26592777835608, 3.4334412683601068 19.09433654554023, 1.8624678657154803 16.95208545110872 C0.2914944630708538 14.809834356677205, -1.1447960854655637 11.607786609981673, -0.6467316835626544 9.13410958786179 C-0.14866728165974524 6.660432565741907, 2.9375287325541937 3.8271113209971803, 4.850854277132935 2.110023318389418 C6.764179821711677 0.3929353157816555, 9.930504579067815 -0.8207234202340425, 10.833221583909793 -1.1684184277847844 C11.735938588751772 -1.5161134353355263, 10.293718807401344 -0.21872780662551636, 10.267156306184805 0.023853273084966986" stroke="#000000" stroke-width="1" fill="none"></path></g><g transform="translate(216.928571428572 100.78571428571456) rotate(0 4.5 9.5)"><text x="0" y="15" font-family="Cascadia, Segoe UI Emoji" font-size="16px" fill="#000000" text-anchor="start" style="white-space: pre;" direction="ltr">2</text></g><g stroke-opacity="0.9" fill-opacity="0.9" transform="translate(10.000000000000455 141.357142857143) rotate(0 11.428571428571445 11.428571428571445)"><path d="M15.718175779781886 -0.06743978955585206 C17.976795419413435 0.5751811261353996, 21.02351156928011 3.3994915468494304, 22.225209634945585 5.872474299657046 C23.42690770061106 8.345457052464662, 23.71234706189477 12.197676787866426, 22.92836417377474 14.770456727289844 C22.144381285654706 17.34323666671326, 19.372034383095627 19.813117223328305, 17.52131230622539 21.309153936197553 C15.670590229355152 22.8051906490668, 14.218032880681186 24.033698593470287, 11.824031712553309 23.74667700450533 C9.430030544425431 23.45965541554037, 5.128603336585386 21.323465491895792, 3.157305297458122 19.5870244024078 C1.1860072583308583 17.850583312919806, 0.07838432893649368 15.585997576119999, -0.003756522210274227 13.328030467577374 C-0.08589737335704213 11.07006335903475, 1.3619154067777555 8.082316412789178, 2.6644601905775147 6.039221751152051 C3.967004974377274 3.996127089514925, 5.480413524802298 1.844480111437007, 7.811512180588282 1.0694624977546159 C10.142610836374265 0.2944448840722246, 14.838764967251315 1.142827622449535, 16.65105212529342 1.3891160690577031 C18.46333928333552 1.6354045156658712, 18.740931788470807 2.4738973919372467, 18.685235128840905 2.5471931774036243 M8.942923452965811 0.15006374913716414 C11.195892598295913 -0.3799542621802793, 14.031480324673685 0.1528575428100234, 16.194544380570616 1.3578976919575965 C18.357608436467544 2.5629378411051693, 20.947351768366083 5.152996469480868, 21.92130778834739 7.380304644022602 C22.8952638083287 9.607612818564336, 22.772256278899377 12.679547749602207, 22.03828050045847 14.721746739208 C21.304304722017562 16.76394572881379, 19.447796159151647 18.21543069751769, 17.517453117701947 19.63349858165735 C15.587110076252248 21.05156646579701, 12.792405850384782 23.191709942347646, 10.45622225176027 23.23015404404596 C8.120038653135758 23.268598145744274, 5.235563961659733 21.556075086738517, 3.5003515259548736 19.864163191847226 C1.7651390902500144 18.172251296955935, 0.13253746632751912 15.574328156987704, 0.04494763753111464 13.078682674698205 C-0.04264219126528983 10.583037192408707, 1.8677857629119599 6.953298403326909, 2.974812553176447 4.890290298110232 C4.081839343440934 2.8272821928935548, 5.844419470251261 1.4326755914452476, 6.687108379118037 0.7006340433981428 C7.529797287984812 -0.031407504648961804, 7.825562874900224 0.10615020259177693, 8.0309460063771 0.49804100982760424" stroke="#000000" stroke-width="1" fill="none"></path></g><g transform="translate(16.928571428572013 143.28571428571456) rotate(0 4.5 9.5)"><text x="0" y="15" font-family="Cascadia, Segoe UI Emoji" font-size="16px" fill="#000000" text-anchor="start" style="white-space: pre;" direction="ltr">3</text></g><g stroke-opacity="0.9" fill-opacity="0.9" transform="translate(50.14285714285734 141.357142857143) rotate(0 11.428571428571445 11.428571428571445)"><path d="M8.042183989919266 -0.058975176537471086 C10.258832118771943 -0.9576172169349727, 13.684495820618434 -0.7710211122497495, 15.914308632396663 0.44201658367022745 C18.144121444174893 1.6550542795902043, 20.468564437700476 4.887591065240448, 21.42106086058864 7.21925099898239 C22.373557283476803 9.550910932724332, 22.19413729860921 12.08641363301278, 21.62928716972565 14.43197618612188 C21.06443704084209 16.77753873923098, 19.976709721193018 19.865936394841228, 18.031960087287274 21.292626317636987 C16.08721045338153 22.719316240432747, 12.320923531847317 23.15583429899696, 9.960789366291179 22.992115722896433 C7.600655200735041 22.828397146795904, 5.370361578001103 21.932250128884952, 3.871155093950442 20.310314861033824 C2.371948609899781 18.688379593182695, 1.2888695400042733 15.884120946716374, 0.9655504619872133 13.260504115789665 C0.6422313839701532 10.636887284862956, 0.26776845936918203 6.601777900147146, 1.9312406258480816 4.56861387547357 C3.5947127923269813 2.5354498507999934, 9.207039483367756 1.7058051115447457, 10.946383460860611 1.061519967748204 C12.685727438353466 0.4172348239516621, 12.435676878943324 0.6952564594441935, 12.367304490805209 0.7029030126943194 M12.819386493377113 -0.6526128765832713 C14.805981042923637 -0.020268191977335426, 18.11101295488754 3.78785196382496, 19.629826665117434 5.878442232573404 C21.14864037534733 7.9690325013218475, 21.853562442874903 9.484958618009161, 21.932268754756485 11.89092873590739 C22.010975066638068 14.29689885380562, 21.43920669663954 18.323703016881186, 20.10206453640692 20.31426293996278 C18.7649223761743 22.304822863044375, 16.396431859742833 23.821464480721282, 13.909415793360768 23.83428827439695 C11.422399726978703 23.84711206807262, 7.3151193417429745 21.966971008396737, 5.179968138114528 20.3912057020168 C3.0448169344860823 18.815440395636866, 1.8169927074065613 16.747049684966814, 1.0985085715900915 14.379696436117344 C0.3800244357736219 12.012343187267872, 0.13350068213903354 8.542186680459874, 0.8690633232157108 6.18708620891997 C1.6046259642923881 3.8319857373800654, 3.110093954666137 1.4032099213535545, 5.511884418050155 0.24909360687791526 C7.913674881434172 -0.905022707597724, 13.858170314942406 -0.5834152581347389, 15.279806103519817 -0.7376116779338648 C16.70144189209723 -0.8918080977329907, 14.378881221739203 -0.9955295182830506, 14.041699149514626 -0.6760849119168402" stroke="#000000" stroke-width="1" fill="none"></path></g><g transform="translate(57.071428571428896 143.28571428571456) rotate(0 4.5 9.5)"><text x="0" y="15" font-family="Cascadia, Segoe UI Emoji" font-size="16px" fill="#000000" text-anchor="start" style="white-space: pre;" direction="ltr">2</text></g><g stroke-opacity="0.9" fill-opacity="0.9" transform="translate(90.28571428571445 141.357142857143) rotate(0 11.428571428571445 11.428571428571445)"><path d="M5.9329914324179445 1.0336641819118224 C7.894102276868365 -0.21454111203716608, 11.209955636163361 -0.21340669801222978, 13.509684648520544 0.4604672720755971 C15.809413660877727 1.134341242163424, 18.289666310659875 3.066419249454452, 19.731365506561048 5.076908002438784 C21.17306470246222 7.087396755423116, 22.070362926604638 10.036819537282776, 22.15987982392759 12.523399789981587 C22.24939672125054 15.009980042680398, 21.931799786040152 18.223539993636674, 20.26846689049875 19.996389518631652 C18.60513399495735 21.76923904362663, 14.685510933985105 22.82440436746756, 12.179882450679173 23.16049693995145 C9.674253967373241 23.49658951243534, 7.148990335077655 23.379778923722355, 5.2346959906631545 22.012944953534983 C3.320401646248654 20.64611098334761, 1.352121757672863 17.506645085872627, 0.6941163841921707 14.959493118827211 C0.036111010711478375 12.412341151781796, 0.10655251698770862 8.941779806535322, 1.2866637497790006 6.730033151262495 C2.4667749825702927 4.518286495989667, 6.58373064292454 2.8588347439945583, 7.774783780939923 1.6890131871902447 C8.965836918955306 0.5191916303859312, 8.395901764450413 -0.37944115266454254, 8.432982577871297 -0.2888961895633866 M13.55274105501162 -1.2326865599843178 C15.966461721442993 -1.2478678995589814, 19.149734789855906 0.11210290807096923, 20.528937603663138 2.1734928383083307 C21.90814041747037 4.234882768545692, 21.676964626377732 8.383262390090671, 21.82795793785501 11.135653021439852 C21.97895124933229 13.888043652789033, 22.832309382081895 16.595427540361253, 21.434897472526824 18.687836626403413 C20.037485562971753 20.780245712445574, 16.016125918632465 23.338096277219464, 13.443486480524582 23.69010753769281 C10.870847042416699 24.042118798166157, 8.106753870147738 22.20640265275795, 5.99906084387953 20.799904189243502 C3.8913678176113207 19.393405725729053, 1.6630353411519048 17.385112931483672, 0.7973283229153267 15.251116756606109 C-0.06837869532125129 13.117120581728546, 0.10485118452788822 10.155017171435713, 0.8048187344600617 7.995927139978122 C1.5047862843922353 5.836837108520532, 3.186465600341532 3.7383033932451584, 4.997133622508367 2.296576567860571 C6.8078016446752025 0.8548497424759833, 10.613191761401907 -0.5188764652119783, 11.668826867461073 -0.6544338123294029 C12.724461973520238 -0.7899911594468275, 10.99363302861551 1.241948926408192, 11.330944258863363 1.483232485156023" stroke="#000000" stroke-width="1" fill="none"></path></g><g transform="translate(97.214285714286 143.28571428571456) rotate(0 4.5 9.5)"><text x="0" y="15" font-family="Cascadia, Segoe UI Emoji" font-size="16px" fill="#000000" text-anchor="start" style="white-space: pre;" direction="ltr">3</text></g><g stroke-opacity="0.9" fill-opacity="0.9" transform="translate(130.4285714285711 141.357142857143) rotate(0 11.428571428571445 11.428571428571445)"><path d="M15.081309760426544 1.1490824346030415 C17.18181213688318 1.9257238425018488, 19.054872162807815 3.8544236925036977, 20.290674325231524 5.726458021876619 C21.526476487655234 7.59849235124954, 22.652969862731183 10.140113651998092, 22.4961227349688 12.381288410840568 C22.339275607206417 14.622463169683044, 21.23252077925708 17.324503981061522, 19.34959155865723 19.173506574931476 C17.466662338057382 21.02250916880143, 13.490029101141399 23.21751660686479, 11.19854741136971 23.475303974060292 C8.90706572159802 23.733091341255793, 7.461397859451283 22.415857672469876, 5.600701420027089 20.720230778104483 C3.740004980602894 19.02460388373909, 0.7112339338822701 15.53794724996251, 0.034368774824542925 13.301542607867923 C-0.6424963842331842 11.065137965773335, 0.535750448299914 9.304956913946885, 1.539510465680726 7.301802925536956 C2.543270483061538 5.298648937127027, 3.8992696800834845 2.500786392948907, 6.056928879109415 1.2826186774083475 C8.214588078135344 0.06445096186778798, 12.81245637904967 0.13622513115222526, 14.485465659836308 -0.007203367706400954 C16.158474940622945 -0.15063186656502717, 15.926173930952388 0.08436788309536575, 16.094984563829232 0.4220476842565901 M14.243941999393778 0.9482049760171911 C16.345823643691535 1.3626677195796197, 19.608911321940585 2.984037076695227, 21.05923804416863 5.115545132886002 C22.509564766396675 7.247053189076777, 23.295139390843566 11.202124573390364, 22.94590233276204 13.73725331316184 C22.59666527468051 16.272382052933317, 20.793601774802095 18.725608258068025, 18.963815695679465 20.326317571514863 C17.134029616556834 21.927026884961702, 14.260276566369539 23.286130146943393, 11.967185858026255 23.341509193842874 C9.674095149682971 23.396888240742356, 7.2669036390920505 22.26359487143999, 5.205271445619763 20.658591852911762 C3.1436392521474756 19.053588834383532, 0.23011321831428988 16.16011335938201, -0.4026073028074695 13.711491082673492 C-1.035327823929229 11.262868805964976, -0.008399272157864068 7.928551631319351, 1.4089483188892071 5.966858192660665 C2.8262959099362783 4.00516475400198, 5.86723321551104 2.699353079890227, 8.101478243474958 1.9413304507213756 C10.335723271438876 1.183307821552524, 13.838854829406758 1.678159802638011, 14.814418486672714 1.4187224176475546 C15.789982143938671 1.1592850326570983, 13.95796312575332 0.5794394462798618, 13.954860187070693 0.3847061407786381" stroke="#000000" stroke-width="1" fill="none"></path></g><g transform="translate(137.35714285714266 143.28571428571456) rotate(0 4.5 9.5)"><text x="0" y="15" font-family="Cascadia, Segoe UI Emoji" font-size="16px" fill="#000000" text-anchor="start" style="white-space: pre;" direction="ltr">1</text></g><g stroke-opacity="0.9" fill-opacity="0.9" transform="translate(170.571428571428 141.357142857143) rotate(0 11.428571428571445 11.428571428571445)"><path d="M14.477397046542466 0.3362349318657927 C16.77705725555909 0.6191727452985549, 20.049928999240343 2.416761153256382, 21.451648895777957 4.348536725599826 C22.85336879231557 6.2803122979432695, 23.383305723528238 9.206247581198218, 22.887716425768144 11.926888365926457 C22.39212712800805 14.647529150654696, 20.216857823828295 18.752656812318065, 18.4781131092174 20.67238143396926 C16.739368394606505 22.592106055620455, 14.695487761977029 23.361817585227854, 12.455248138102778 23.445236095833636 C10.215008514228527 23.528654606439417, 7.100904657275206 22.77981647432043, 5.0366753659719 21.17289249760396 C2.9724460746685937 19.56596852088749, 0.6404802412952505 16.150589027920386, 0.06987239028294212 13.803692235534811 C-0.5007354607293663 11.456795443149236, 0.5882968968923408 9.151507111109249, 1.6130282598980497 7.09151174329051 C2.6377596229037588 5.031516375471771, 3.575508505455757 2.5616191323210113, 6.218260568317196 1.4437200286223781 C8.861012631178635 0.3258209249237447, 15.257939417321888 0.1397111884437686, 17.469540637066682 0.38411712109870955 C19.68114185681148 0.6285230537536505, 19.81693445228929 2.504520409331199, 19.487867886785963 2.910155624552024 M12.64660945169237 1.1496217150249262 C14.778679974717399 1.4484414701379338, 17.825337040817082 1.6117890011188265, 19.395152649241076 3.405873636906371 C20.96496825766507 5.199958272693915, 22.150814134386604 9.312769742723493, 22.06550310223634 11.914129529750193 C21.98019207008608 14.515489316776893, 20.39429622807438 17.116497443618265, 18.883286456339498 19.014032359066576 C17.372276684604614 20.911567274514887, 15.10039595621654 22.712398862955336, 12.999444471827045 23.29933902244006 C10.898492987437551 23.88627918192478, 8.492827212476456 23.702478654273097, 6.277577550002534 22.535673315974904 C4.062327887528613 21.36886797767671, 0.5619287269452594 19.062381168257158, -0.29205350301648103 16.298506992650896 C-1.1460357329782216 13.534632817044635, 0.23612883408917185 8.479690833293006, 1.1536841702320917 5.952428262337336 C2.0712395063750115 3.425165691381667, 2.9563878327637974 2.06470994016302, 5.213278513841038 1.1349315669168814 C7.470169194918279 0.2051531936707428, 13.3996891940903 0.6050609385076783, 14.695028256695535 0.3737580228605051 C15.99036731930077 0.14245510721333185, 13.050246947682757 -0.5241681204612385, 12.985312889472453 -0.2528859269661581" stroke="#000000" stroke-width="1" fill="none"></path></g><g transform="translate(177.49999999999955 143.28571428571456) rotate(0 4.5 9.5)"><text x="0" y="15" font-family="Cascadia, Segoe UI Emoji" font-size="16px" fill="#000000" text-anchor="start" style="white-space: pre;" direction="ltr">2</text></g><g stroke-opacity="0.9" fill-opacity="0.9" transform="translate(210.7142857142851 141.357142857143) rotate(0 11.428571428571445 11.428571428571445)"><path d="M10.661574265023411 -0.4068604763944226 C12.99192322788089 -0.8028367671152037, 16.23444480494811 0.34367279677707696, 18.218104039416186 1.848547960846357 C20.20176327388426 3.353423124915637, 22.154672123814734 6.083323723269183, 22.563529671831866 8.622390508021258 C22.972387219848997 11.161457292773333, 21.73786696873295 14.71596518191711, 20.671249327518986 17.08294866935881 C19.604631686305023 19.44993215680051, 18.40616216282745 21.86645388072874, 16.163823824548082 22.824291432671462 C13.921485486268717 23.782128984614182, 9.501661032541987 23.827196426398316, 7.217219297842789 22.82997398101513 C4.93277756314359 21.832751535631942, 3.748969428991236 19.209405695606765, 2.4571734163528873 16.840956760372336 C1.1653774037145388 14.472507825137907, -0.9079887874058155 10.906819852667804, -0.5335567779873021 8.619280369608557 C-0.1591247685687886 6.33174088654931, 2.2771604999741277 4.488005135237028, 4.703765472863968 3.1157198620168565 C7.130370445753808 1.743434588796685, 11.898898859272428 0.6617651187026314, 14.026073059351742 0.3855687302875275 C16.153247259431055 0.10937234187242356, 17.465896808498112 1.3946347214242998, 17.466810673339843 1.4585415315262331 M10.112175268007912 1.3632193571003128 C12.22348971015281 0.7655819420660174, 14.295836949471752 -0.14482540320115755, 16.307768542055882 1.0358799276192148 C18.319700134640012 2.2165852584395873, 21.373661039302387 5.86093792631386, 22.183764823512696 8.447451342022546 C22.993868607723005 11.033964757731233, 21.983114233747173 14.483876604466206, 21.168391247317736 16.554960421871332 C20.3536682608883 18.626044239276457, 19.05847028322323 20.046807645171384, 17.295426904936072 20.8739542464533 C15.532383526648914 21.70110084773522, 12.828763275343182 22.111203976258718, 10.590130977594784 21.51784002956283 C8.351498679846387 20.924476082866942, 5.388096836888774 18.83465760040103, 3.8636331184456907 17.31377056627798 C2.339169400002607 15.792883532154931, 1.4821422654161847 14.423169651140498, 1.4433486669362825 12.392517824824534 C1.4045550684563803 10.36186599850857, 2.2760366024042353 7.386213577474146, 3.6308715275662777 5.129859608382192 C4.98570645272832 2.873505639290238, 8.649873667379559 -0.4217830074462521, 9.572358217908535 -1.1456059897271942 C10.494842768437511 -1.8694289720081363, 8.967996028638758 0.5081767204385967, 9.16577883074014 0.7869217146965397" stroke="#000000" stroke-width="1" fill="none"></path></g><g transform="translate(217.64285714285666 143.28571428571456) rotate(0 4.5 9.5)"><text x="0" y="15" font-family="Cascadia, Segoe UI Emoji" font-size="16px" fill="#000000" text-anchor="start" style="white-space: pre;" direction="ltr">1</text></g><g><g stroke-opacity="0.9" fill-opacity="0.9" transform="translate(107.85714285714289 27.428571428571445) rotate(0 -26.87269198186698 15.489629014464413)"><path d="M-1.1591638762503862 -0.3994704823940992 C-10.28870716082553 4.821401695570088, -44.89865339187284 25.725930429800034, -53.8396556455642 31.210904399146056 M0.43313635937869543 -1.6547964309901 C-8.83493843841056 3.761401388606167, -44.861565291558705 27.23562069366741, -54.17852032311261 32.63405445991895" stroke="#000000" stroke-width="1" fill="none"></path></g></g><g><g stroke-opacity="0.9" fill-opacity="0.9" transform="translate(128.57142857142867 24.57142857142867) rotate(0 33.24990378281768 16.717105320362066)"><path d="M0.998148276284337 -0.7845554787665605 C12.22243695161528 4.8683771350376635, 55.712283515522216 28.509006341990247, 66.43677017364125 34.21876611949076 M0.06303739199414848 1.4179489495418967 C11.272056333061673 6.695538933794233, 55.14761349221874 26.88231145975755, 65.86802905117567 32.4360435834447" stroke="#000000" stroke-width="1" fill="none"></path></g></g><g><g stroke-opacity="0.9" fill-opacity="0.9" transform="translate(119.14285714285734 32.000000000000114) rotate(0 0.10194871553210305 13.030041206811688)"><path d="M-0.790876768156886 0.3875242989510297 C-0.8495728354901074 4.555372342733392, 0.5067989606410266 21.12120053156142, 0.585434665158391 25.23100757497757 M0.9947741992212831 -0.4546293894387783 C0.7472414077259598 3.8557066255302224, 0.31924954602494826 22.103407598853604, -0.0552575992606581 26.514711803062106" stroke="#000000" stroke-width="1" fill="none"></path></g></g><g><g stroke-opacity="0.9" fill-opacity="0.9" transform="translate(22 120.28571428571433) rotate(0 0.09546607844526989 11.06041728512514)"><path d="M0.43927455358207235 0.2219759602099658 C0.254696122929454 3.7270261181429682, -1.0984078127890824 18.00884981057826, -0.9984247047454118 21.583934377080595 M-0.7892450351268054 -0.7070906060189008 C-0.618748430684209 2.904978633029825, 0.9213092165440321 18.919572749354273, 1.1893568616360426 22.82792517626921" stroke="#000000" stroke-width="1" fill="none"></path></g></g><g><g stroke-opacity="0.9" fill-opacity="0.9" transform="translate(62.85714285714289 121) rotate(0 0.12063884072006203 11.368908969323513)"><path d="M0.03828344754874702 -0.019703374430537268 C-0.13490124531090264 3.8724637878969963, -0.5264893729239701 18.683860539414315, -0.7015871364623307 22.230192969686186 M-1.4007564718276262 -1.075651591345668 C-1.2128844172507525 3.126771079404718, 1.1834848373383284 19.948964110829266, 1.6420341532677414 23.813469529992737" stroke="#000000" stroke-width="1" fill="none"></path></g></g><g><g stroke-opacity="0.9" fill-opacity="0.9" transform="translate(102.85714285714289 121.357142857143) rotate(0 0.3145623981479275 11.400452441723473)"><path d="M-0.9823418598622083 0.5760825913399459 C-1.0362924437969923 4.417921665860778, -0.7550091486424207 19.405766834088, -0.7172334294766187 22.967982876992618 M0.7027899343706667 -0.1670779935456812 C1.0724940050579608 3.3485943432994842, 1.4449921793676912 17.38987121020663, 1.618173556420952 21.278599138635045" stroke="#000000" stroke-width="1" fill="none"></path></g></g><g><g stroke-opacity="0.9" fill-opacity="0.9" transform="translate(143.57142857142867 122.42857142857133) rotate(0 0.012982553774463668 10.23944281309042)"><path d="M-0.8613450150936841 -0.38522358722984784 C-0.9099874477833508 3.286384240342742, 0.06696654744446269 17.394592644043595, 0.07222082801163188 21.114446092343723 M0.8873101226426661 -1.6330699158646167 C0.6551091239787638 2.232999769384479, -0.9614948840998113 17.982830570388913, -0.8379087009094656 22.11195554204548" stroke="#000000" stroke-width="1" fill="none"></path></g></g><g><g stroke-opacity="0.9" fill-opacity="0.9" transform="translate(182.50000000000045 119.57142857142867) rotate(0 -0.017087466879729618 11.654768537572977)"><path d="M-1.037580380961299 0.5574306171387433 C-1.185468266531825 4.351782432748443, -1.2469809155911207 18.236604453392655, -1.0666800957173108 22.027956772542392 M0.6185511896945535 -0.1955222542025148 C0.8450008753873407 3.857732012803174, 1.304735234770924 19.87689857964623, 1.0852673904038967 23.50505932934845" stroke="#000000" stroke-width="1" fill="none"></path></g></g><g><g stroke-opacity="0.9" fill-opacity="0.9" transform="translate(222.85714285714266 120.64285714285734) rotate(0 -0.4228709527535557 10.79240495056041)"><path d="M0.20796817727386951 -0.3681148130446672 C0.1762431640177965 3.5242464935318294, 0.3334202427417039 19.380918337174087, 0.32985952086746684 23.191788936353124 M-1.1419872589968145 -1.6069790352322162 C-1.3483891930244865 1.9857397054978372, -0.5551529987715186 17.961977252412918, -0.44500969430431736 21.619903379159815" stroke="#000000" stroke-width="1" fill="none"></path></g></g><g><g stroke-opacity="0.9" fill-opacity="0.9" transform="translate(36.34711779448617 76.25689223057645) rotate(0 -6.597891987048456 11.326105436192506)"><path d="M-0.7302401382476091 -0.621713350340724 C-3.2057986904458478 3.319483663723399, -12.38655106339667 19.333969655561095, -14.28302903392987 23.273924222725803 M1.0872450598329304 1.6662831953912973 C-1.084687231607862 5.290713232145239, -9.926530293264129 18.286564723479394, -12.161770003528163 21.488580743509704" stroke="#000000" stroke-width="1" fill="none"></path></g></g><g><g stroke-opacity="0.9" fill-opacity="0.9" transform="translate(115.03132832080178 76.52005012531322) rotate(0 -6.888381440721901 11.798732672281233)"><path d="M0.5559485334903003 -0.6083398897200822 C-1.8210523319022132 3.2109569235002295, -12.191638512798287 18.757699590104465, -14.332711414933964 22.655710774052316 M-0.6113172157667577 1.6866777228377758 C-2.632949034828819 5.735209953304906, -10.239288653601593 20.457752873658038, -12.237535634559407 24.20580523428264" stroke="#000000" stroke-width="1" fill="none"></path></g></g><g><g stroke-opacity="0.9" fill-opacity="0.9" transform="translate(194.50501253132825 79.67794486215541) rotate(0 -5.436278575592155 10.980961927281442)"><path d="M-0.29738910980522637 -0.8697194080799817 C-2.309361236222215 2.851836492702891, -9.990784995891786 18.95781418375934, -12.183442165643736 22.831643262642796 M1.7473428782075646 1.2880739573389293 C-0.32762011391682133 4.577551296338965, -9.932987040319183 17.102927628981714, -12.619900029391811 20.814102279383118" stroke="#000000" stroke-width="1" fill="none"></path></g></g><g><g stroke-opacity="0.9" fill-opacity="0.9" transform="translate(49.50501253132825 77.36215538847125) rotate(6.8065771234362185 7.7699539834708276 9.935102246329166)"><path d="M-0.3765937428921461 -0.9565631467849016 C1.82785131992088 2.691765654211243, 11.236227257608682 17.529460795844596, 13.550867861803544 20.82676763944328 M1.626555812750012 1.1556372558139265 C4.196892192096126 4.56370642553394, 13.514522435742677 16.07600450188542, 15.916501709833664 19.138245901372283" stroke="#000000" stroke-width="1" fill="none"></path></g></g><g><g stroke-opacity="0.9" fill-opacity="0.9" transform="translate(126.08395989974906 77.83583959899761) rotate(6.8065771234362185 7.292842925980608 10.09851523346265)"><path d="M-1.1396533470600843 0.5932840626686811 C0.9673326856015745 3.796768427019318, 10.996676106809884 16.955860587085287, 13.42551539569713 20.337876216694713 M0.46288991639390575 -0.14084574976935982 C2.884601274759185 3.1988356540662544, 13.149206930774511 15.201264183527478, 15.725339199021382 18.39268648168072" stroke="#000000" stroke-width="1" fill="none"></path></g></g><g><g stroke-opacity="0.9" fill-opacity="0.9" transform="translate(206.08395989974906 77.30952380952385) rotate(359.24214690424185 6.8870283212214645 9.606198940044294)"><path d="M0.5265263814479113 -0.04504112787544723 C2.9184847957013664 3.4602750541021434, 12.277734680532724 16.934272762263817, 14.430242640074265 20.326689545437695 M-0.6561859976314008 -1.1142916653491557 C1.590108242661369 2.075683260367563, 10.832821255701841 14.558342750674734, 13.597548246696515 18.375626808013767" stroke="#000000" stroke-width="1" fill="none"></path></g></g></svg>