<svg xmlns="http://www.w3.org/2000/svg" viewBox="0 0 628 710.64"><defs><marker id="a" orient="auto" overflow="visible" refX="0" refY="0"><path fill-rule="evenodd" stroke="#000" stroke-width=".8pt" d="M-10 0l-4 4L0 0l-14-4 4 4z"/></marker></defs><path fill="none" stroke="#000" d="M295.5 29.705h-285M306.457 29.705H215.5c-28.93 0-60 30-60 60v40M155.5 119.705v-30c0-28.284-31.716-60-60-60h-30"/><text x="240.525" y="44.545" font-family="Bitstream Vera Sans" font-size="10" font-weight="400"><tspan x="240.525" y="44.545">Input</tspan></text><text x="37.767" y="44.989" font-family="Bitstream Vera Sans" font-size="10" font-weight="400"><tspan x="37.767" y="44.989">Output</tspan></text><text x="63.008" y="119.865" font-family="Bitstream Vera Sans" font-size="10" font-weight="400"><tspan x="63.008" y="119.865">Operator stack</tspan></text><path fill="none" stroke="#000" stroke-width=".6" marker-end="url(#a)" d="M192.5 16.705h-75"/><text x="281.582" y="76.007" font-family="Bitstream Vera Sans" font-size="10" font-weight="400" transform="translate(-72.667 -52.703)"><tspan x="281.582" y="76.007">A</tspan></text><path fill="none" stroke="#000" stroke-width=".667" d="M207.333 14.659h10v10h-10zM222.333 14.659h10v10h-10z"/><text x="296.811" y="75.497" font-family="Bitstream Vera Sans" font-size="10" font-weight="400" transform="translate(-73.667 -52.703)"><tspan x="296.811" y="75.497">+</tspan></text><path fill="none" stroke="#000" stroke-width=".667" d="M237.333 14.659h10v10h-10z"/><text x="313.433" y="76.007" font-family="Bitstream Vera Sans" font-size="10" font-weight="400" transform="translate(-74.667 -52.703)"><tspan x="313.433" y="76.007">B</tspan></text><path fill="none" stroke="#000" stroke-width=".667" d="M252.333 14.659h10v10h-10z"/><text style="text-align:start;line-height:125%" x="328.808" y="75.497" font-family="Bitstream Vera Sans" font-size="10" font-weight="400" transform="translate(-75.667 -52.703)"><tspan x="328.808" y="75.497">×</tspan></text><path fill="none" stroke="#000" stroke-width=".667" d="M267.333 14.659h10v10h-10z"/><text x="347.499" y="76.002" font-family="Bitstream Vera Sans" font-size="10" font-weight="400" transform="translate(-78.667 -52.703)"><tspan x="347.499" y="76.002">C</tspan></text><path fill="none" stroke="#000" d="M297.5 165.705h-285M297.5 165.705h-80c-28.93 0-60 30-60 60l-.5 40.5"/><path fill="none" stroke="#000" d="M157.5 255.705v-30c0-28.284-31.716-60-60-60h-30"/><text x="242.525" y="180.545" font-family="Bitstream Vera Sans" font-size="10" font-weight="400"><tspan x="242.525" y="180.545">Input</tspan></text><text x="39.767" y="180.989" font-family="Bitstream Vera Sans" font-size="10" font-weight="400"><tspan x="39.767" y="180.989">Output</tspan></text><text x="65.008" y="255.865" font-family="Bitstream Vera Sans" font-size="10" font-weight="400"><tspan x="65.008" y="255.865">Operator stack</tspan></text><path fill="none" stroke="#000" stroke-width=".6" marker-end="url(#a)" d="M194.5 152.705h-75"/><text x="281.582" y="76.007" font-family="Bitstream Vera Sans" font-size="10" font-weight="400" transform="translate(-257.5 81.343)"><tspan x="281.582" y="76.007">A</tspan></text><path fill="none" stroke="#000" stroke-width=".667" d="M22.5 148.705h10v10h-10zM162.5 248.705h10v10h-10z"/><text x="296.811" y="75.497" font-family="Bitstream Vera Sans" font-size="10" font-weight="400" transform="translate(-133.5 181.343)"><tspan x="296.811" y="75.497">+</tspan></text><path fill="none" stroke="#000" stroke-width=".667" d="M213.5 148.705h10v10h-10z"/><text x="313.433" y="76.007" font-family="Bitstream Vera Sans" font-size="10" font-weight="400" transform="translate(-98.5 81.343)"><tspan x="313.433" y="76.007">B</tspan></text><path fill="none" stroke="#000" stroke-width=".667" d="M228.5 148.705h10v10h-10z"/><text style="text-align:start;line-height:125%" x="328.808" y="75.497" font-family="Bitstream Vera Sans" font-size="10" font-weight="400" transform="translate(-99.5 81.343)"><tspan x="328.808" y="75.497">×</tspan></text><path fill="none" stroke="#000" stroke-width=".667" d="M243.5 148.705h10v10h-10z"/><text x="347.499" y="76.002" font-family="Bitstream Vera Sans" font-size="10" font-weight="400" transform="translate(-102.5 81.343)"><tspan x="347.499" y="76.002">C</tspan></text><path fill="none" stroke="#000" d="M295.5 311.705h-285M295.5 311.705h-80c-28.93 0-60 30-60 60l-.5 35.5M155 402.205v-30c0-28.284-31.216-60.5-59.5-60.5h-30"/><text x="240.525" y="326.545" font-family="Bitstream Vera Sans" font-size="10" font-weight="400"><tspan x="240.525" y="326.545">Input</tspan></text><text x="37.767" y="326.989" font-family="Bitstream Vera Sans" font-size="10" font-weight="400"><tspan x="37.767" y="326.989">Output</tspan></text><text x="63.008" y="401.865" font-family="Bitstream Vera Sans" font-size="10" font-weight="400"><tspan x="63.008" y="401.865">Operator stack</tspan></text><path fill="none" stroke="#000" stroke-width=".6" marker-end="url(#a)" d="M227.83 298.705H74.24"/><text x="281.582" y="76.007" font-family="Bitstream Vera Sans" font-size="10" font-weight="400" transform="translate(-259.5 226.343)"><tspan x="281.582" y="76.007">A</tspan></text><path fill="none" stroke="#000" stroke-width=".667" d="M20.5 293.705h10v10h-10zM160.5 393.705h10v10h-10z"/><text x="296.811" y="75.497" font-family="Bitstream Vera Sans" font-size="10" font-weight="400" transform="translate(-135.5 326.343)"><tspan x="296.811" y="75.497">+</tspan></text><path fill="none" stroke="#000" stroke-width=".667" d="M35.5 293.705h10v10h-10z"/><text x="313.433" y="76.007" font-family="Bitstream Vera Sans" font-size="10" font-weight="400" transform="translate(-276.5 226.343)"><tspan x="313.433" y="76.007">B</tspan></text><path fill="none" stroke="#000" stroke-width=".667" d="M160.5 378.705h10v10h-10z"/><text style="text-align:start;line-height:125%" x="328.808" y="75.497" font-family="Bitstream Vera Sans" font-size="10" font-weight="400" transform="translate(-167.5 311.343)"><tspan x="328.808" y="75.497">×</tspan></text><path fill="none" stroke="#000" stroke-width=".667" d="M241.5 291.705h10v10h-10z"/><text x="347.499" y="76.002" font-family="Bitstream Vera Sans" font-size="10" font-weight="400" transform="translate(-104.5 224.343)"><tspan x="347.499" y="76.002">C</tspan></text><path fill="none" stroke="#000" d="M617.5 29.705h-285M617.5 29.705l-81.5.5c-28.93.177-60 30-60 60v40M476 120.205v-30c0-28.284-30.216-60.5-58.5-60.5h-30"/><text x="562.525" y="44.545" font-family="Bitstream Vera Sans" font-size="10" font-weight="400"><tspan x="562.525" y="44.545">Input</tspan></text><text x="359.767" y="44.989" font-family="Bitstream Vera Sans" font-size="10" font-weight="400"><tspan x="359.767" y="44.989">Output</tspan></text><text x="385.008" y="119.865" font-family="Bitstream Vera Sans" font-size="10" font-weight="400"><tspan x="385.008" y="119.865">Operator stack</tspan></text><text x="281.582" y="76.007" font-family="Bitstream Vera Sans" font-size="10" font-weight="400" transform="translate(62.333 -52.703)"><tspan x="281.582" y="76.007">A</tspan></text><path fill="none" stroke="#000" stroke-width=".667" d="M342.333 14.659h10v10h-10zM528.333 14.659h10v10h-10z"/><text x="296.811" y="75.497" font-family="Bitstream Vera Sans" font-size="10" font-weight="400" transform="translate(232.333 -52.703)"><tspan x="296.811" y="75.497">+</tspan></text><path fill="none" stroke="#000" stroke-width=".667" d="M543.333 14.659h10v10h-10z"/><text x="313.433" y="76.007" font-family="Bitstream Vera Sans" font-size="10" font-weight="400" transform="translate(231.333 -52.703)"><tspan x="313.433" y="76.007">B</tspan></text><path fill="none" stroke="#000" stroke-width=".667" d="M558.333 14.659h10v10h-10z"/><text style="text-align:start;line-height:125%" x="328.808" y="75.497" font-family="Bitstream Vera Sans" font-size="10" font-weight="400" transform="translate(230.333 -52.703)"><tspan x="328.808" y="75.497">×</tspan></text><path fill="none" stroke="#000" stroke-width=".667" d="M573.333 14.659h10v10h-10z"/><text x="347.499" y="76.002" font-family="Bitstream Vera Sans" font-size="10" font-weight="400" transform="translate(227.333 -52.703)"><tspan x="347.499" y="76.002">C</tspan></text><path fill="none" stroke="#000" d="M617.5 165.705h-285M617.5 165.705h-80c-28.93 0-60 30-60 60v42M477.5 255.705v-30c0-28.284-31.716-60-60-60h-30"/><text x="562.525" y="180.545" font-family="Bitstream Vera Sans" font-size="10" font-weight="400"><tspan x="562.525" y="180.545">Input</tspan></text><text x="359.767" y="180.989" font-family="Bitstream Vera Sans" font-size="10" font-weight="400"><tspan x="359.767" y="180.989">Output</tspan></text><text x="385.008" y="255.865" font-family="Bitstream Vera Sans" font-size="10" font-weight="400"><tspan x="385.008" y="255.865">Operator stack</tspan></text><text x="281.582" y="76.007" font-family="Bitstream Vera Sans" font-size="10" font-weight="400" transform="translate(64.5 81.343)"><tspan x="281.582" y="76.007">A</tspan></text><path fill="none" stroke="#000" stroke-width=".667" d="M344.5 148.705h10v10h-10zM484.5 248.705h10v10h-10z"/><text x="296.811" y="75.497" font-family="Bitstream Vera Sans" font-size="10" font-weight="400" transform="translate(188.5 181.343)"><tspan x="296.811" y="75.497">+</tspan></text><path fill="none" stroke="#000" stroke-width=".667" d="M359.5 148.705h10v10h-10z"/><text x="313.433" y="76.007" font-family="Bitstream Vera Sans" font-size="10" font-weight="400" transform="translate(47.5 81.343)"><tspan x="313.433" y="76.007">B</tspan></text><path fill="none" stroke="#000" stroke-width=".667" d="M556.5 148.705h10v10h-10z"/><text style="text-align:start;line-height:125%" x="328.808" y="75.497" font-family="Bitstream Vera Sans" font-size="10" font-weight="400" transform="translate(228.5 81.343)"><tspan x="328.808" y="75.497">×</tspan></text><path fill="none" stroke="#000" stroke-width=".667" d="M571.5 148.705h10v10h-10z"/><text x="347.499" y="76.002" font-family="Bitstream Vera Sans" font-size="10" font-weight="400" transform="translate(225.5 81.343)"><tspan x="347.499" y="76.002">C</tspan></text><text style="text-align:start;line-height:125%;-inkscape-font-specification:Bitstream Vera Sans" x="14.148" y="129.453" font-family="Bitstream Vera Sans" font-size="14" font-weight="400"><tspan x="14.148" y="129.453">a)</tspan></text><text style="text-align:start;line-height:125%;-inkscape-font-specification:Bitstream Vera Sans" x="336.787" y="127.6" font-family="Bitstream Vera Sans" font-size="14" font-weight="400"><tspan x="336.787" y="127.6">b)</tspan></text><text x="14.169" y="266.324" font-family="Bitstream Vera Sans" font-size="14" font-weight="400"><tspan x="14.169" y="266.324">c)</tspan></text><text x="338.24" y="268.324" font-family="Bitstream Vera Sans" font-size="14" font-weight="400"><tspan x="338.24" y="268.324">d)</tspan></text><text x="15.474" y="412.749" font-family="Bitstream Vera Sans" font-size="14" font-weight="400"><tspan x="15.474" y="412.749">e)</tspan></text><path fill="none" stroke="#000" stroke-width=".667" d="M282.333 14.659h10v10h-10z"/><text x="296.811" y="75.497" font-family="Bitstream Vera Sans" font-size="10" font-weight="400" transform="translate(-13.667 -52.703)">−</text><path fill="none" stroke="#000" stroke-width=".667" d="M297.333 14.659h10v10h-10z"/><text x="304.433" y="23.007" font-family="Bitstream Vera Sans" font-size="10" font-weight="400" transform="translate(-5.667 .297)"><tspan x="304.433" y="23.007">D</tspan></text><path fill="none" stroke="#000" stroke-width=".667" d="M588.333 14.659h10v10h-10z"/><text x="296.811" y="75.497" font-family="Bitstream Vera Sans" font-size="10" font-weight="400" transform="translate(292.333 -52.703)">−</text><path fill="none" stroke="#000" stroke-width=".667" d="M603.333 14.659h10v10h-10z"/><text x="304.433" y="23.007" font-family="Bitstream Vera Sans" font-size="10" font-weight="400" transform="translate(300.333 .297)"><tspan x="304.433" y="23.007">D</tspan></text><path fill="none" stroke="#000" stroke-width=".667" d="M258.333 148.659h10v10h-10z"/><text x="296.811" y="75.497" font-family="Bitstream Vera Sans" font-size="10" font-weight="400" transform="translate(-37.667 81.297)">−</text><path fill="none" stroke="#000" stroke-width=".667" d="M273.333 148.66h10v10h-10z"/><text x="304.433" y="23.007" font-family="Bitstream Vera Sans" font-size="10" font-weight="400" transform="translate(-29.667 134.297)"><tspan x="304.433" y="23.007">D</tspan></text><path fill="none" stroke="#000" stroke-width=".667" d="M588.333 148.659h10v10h-10z"/><text x="296.811" y="75.497" font-family="Bitstream Vera Sans" font-size="10" font-weight="400" transform="translate(292.333 81.297)">−</text><path fill="none" stroke="#000" stroke-width=".667" d="M603.333 148.66h10v10h-10z"/><text x="304.433" y="23.007" font-family="Bitstream Vera Sans" font-size="10" font-weight="400" transform="translate(300.333 134.297)"><tspan x="304.433" y="23.007">D</tspan></text><path fill="none" stroke="#000" stroke-width=".667" d="M258.333 291.705h10v10h-10z"/><text x="259.143" y="299.84" font-family="Bitstream Vera Sans" font-size="10" font-weight="400"><tspan x="259.143" y="299.84">−</tspan></text><path fill="none" stroke="#000" stroke-width=".667" d="M273.333 291.705h10v10h-10z"/><text x="304.433" y="23.007" font-family="Bitstream Vera Sans" font-size="10" font-weight="400" transform="translate(-29.667 277.343)"><tspan x="304.433" y="23.007">D</tspan></text><path fill="none" stroke="#000" stroke-width=".6" marker-end="url(#a)" d="M253.588 425.421l-163.684.721" transform="translate(328 14.005)"/><path fill="none" stroke="#000" d="M615.5 451.705h-285M615.5 451.705h-80c-28.93 0-60 30-60 60v42M475.5 541.705v-30c0-28.284-31.716-60-60-60h-30"/><text x="232.525" y="452.54" font-family="Bitstream Vera Sans" font-size="10" font-weight="400" transform="translate(328 14.005)"><tspan x="232.525" y="452.54">Input</tspan></text><text x="29.767" y="452.984" font-family="Bitstream Vera Sans" font-size="10" font-weight="400" transform="translate(328 14.005)"><tspan x="29.767" y="452.984">Output</tspan></text><text x="55.008" y="527.86" font-family="Bitstream Vera Sans" font-size="10" font-weight="400" transform="translate(328 14.005)"><tspan x="55.008" y="527.86">Operator stack</tspan></text><text x="281.582" y="76.007" font-family="Bitstream Vera Sans" font-size="10" font-weight="400" transform="translate(55.5 368.343)"><tspan x="281.582" y="76.007">A</tspan></text><path fill="none" stroke="#000" stroke-width=".667" d="M335.5 435.705h10v10h-10zM480.5 533.705h10v10h-10z"/><text x="296.811" y="75.497" font-family="Bitstream Vera Sans" font-size="10" font-weight="400" transform="translate(184.5 466.343)">−</text><path fill="none" stroke="#000" stroke-width=".667" d="M350.5 435.705h10v10h-10z"/><text x="313.433" y="76.007" font-family="Bitstream Vera Sans" font-size="10" font-weight="400" transform="translate(38.5 368.343)"><tspan x="313.433" y="76.007">B</tspan></text><path fill="none" stroke="#000" stroke-width=".667" d="M380.5 435.705h10v10h-10z"/><text x="328.808" y="75.497" style="text-align:start;line-height:125%" font-family="Bitstream Vera Sans" font-size="10" font-weight="400" transform="translate(52.5 368.343)"><tspan x="328.808" y="75.497">×</tspan></text><path fill="none" stroke="#000" stroke-width=".667" d="M365.5 435.705h10v10h-10z"/><text x="347.499" y="76.002" font-family="Bitstream Vera Sans" font-size="10" font-weight="400" transform="translate(19.5 368.343)"><tspan x="347.499" y="76.002">C</tspan></text><text x="8.843" y="530.726" font-family="Bitstream Vera Sans" font-size="14" font-weight="400" transform="translate(328 14.005)"><tspan x="8.843" y="530.726">h)</tspan></text><path fill="none" stroke="#000" stroke-width=".667" d="M394.333 435.705h10v10h-10z"/><text x="296.811" y="75.497" font-family="Bitstream Vera Sans" font-size="10" font-weight="400" transform="translate(98.333 368.343)"><tspan x="296.811" y="75.497">+</tspan></text><g><path fill="none" stroke="#000" stroke-width=".667" d="M591.333 435.705h10v10h-10z"/><text x="304.433" y="23.007" font-family="Bitstream Vera Sans" font-size="10" font-weight="400" transform="translate(288.333 421.343)"><tspan x="304.433" y="23.007">D</tspan></text></g><g><path fill="none" stroke="#000" stroke-width="1.029" d="M617.5 599.705H315.946"/><path fill="none" stroke="#000" d="M617.5 599.705h-80c-28.93 0-60 30-60 60v32M477.5 689.705v-30c0-28.284-31.716-60-60-60h-30"/><text x="386.525" y="600.54" font-family="Bitstream Vera Sans" font-size="10" font-weight="400" transform="translate(176 14.005)"><tspan x="386.525" y="600.54">Input</tspan></text><text x="183.766" y="600.984" font-family="Bitstream Vera Sans" font-size="10" font-weight="400" transform="translate(176 14.005)"><tspan x="183.766" y="600.984">Output</tspan></text><text x="209.008" y="675.86" font-family="Bitstream Vera Sans" font-size="10" font-weight="400" transform="translate(176 14.005)"><tspan x="209.008" y="675.86">Operator stack</tspan></text><text x="281.582" y="76.007" font-family="Bitstream Vera Sans" font-size="10" font-weight="400" transform="translate(39.5 517.343)"><tspan x="281.582" y="76.007">A</tspan></text><path fill="none" stroke="#000" stroke-width=".667" d="M319.5 584.705h10v10h-10zM379.5 584.705h10v10h-10z"/><text x="296.811" y="75.497" font-family="Bitstream Vera Sans" font-size="10" font-weight="400" transform="translate(83.5 517.343)"><tspan x="296.811" y="75.497">+</tspan></text><path fill="none" stroke="#000" stroke-width=".667" d="M334.5 584.705h10v10h-10z"/><text x="313.433" y="76.007" font-family="Bitstream Vera Sans" font-size="10" font-weight="400" transform="translate(22.5 517.343)"><tspan x="313.433" y="76.007">B</tspan></text><path fill="none" stroke="#000" stroke-width=".667" d="M364.5 584.705h10v10h-10z"/><text x="328.808" y="75.497" style="text-align:start;line-height:125%" font-family="Bitstream Vera Sans" font-size="10" font-weight="400" transform="translate(36.5 517.343)"><tspan x="328.808" y="75.497">×</tspan></text><g><path fill="none" stroke="#000" stroke-width=".667" d="M349.5 584.705h10v10h-10z"/><text x="347.499" y="76.002" font-family="Bitstream Vera Sans" font-size="10" font-weight="400" transform="translate(3.5 517.343)"><tspan x="347.499" y="76.002">C</tspan></text></g><text x="168.197" y="678.789" font-family="Bitstream Vera Sans" font-size="14" font-weight="400" transform="translate(176 14.005)"><tspan x="168.197" y="678.789">j)</tspan></text><g><path fill="none" stroke="#000" stroke-width=".667" d="M395.5 584.705h10v10h-10z"/><text x="304.433" y="23.007" font-family="Bitstream Vera Sans" font-size="10" font-weight="400" transform="translate(92.5 570.343)"><tspan x="304.433" y="23.007">D</tspan></text></g><g><path fill="none" stroke="#000" stroke-width=".667" d="M410.5 584.705h10v10h-10z"/><text x="296.811" y="75.497" font-family="Bitstream Vera Sans" font-size="10" font-weight="400" transform="translate(114.5 517.343)">−</text></g></g><path fill="none" stroke="#000" stroke-width=".6" d="M523.482 19.634c-11.26.466-18.864 3.606-27.318 8.4-9.42 5.343-17.991 23.373-17.991 23.373M544.346 153.164c-5.63.233-15.062.752-24.143 1.812-9.081 1.06-14.97 4.803-19.49 6.588-10.95 4.323-20.54 21.843-20.54 21.843"/><path fill="none" stroke="#000" d="M617.5 311.705h-285M617.5 311.705h-80c-28.93 0-60.5 29.5-60.5 59.5v36M477 401.205v-30c0-28.284-31.216-59.5-59.5-59.5h-30"/><text x="562.525" y="326.545" font-family="Bitstream Vera Sans" font-size="10" font-weight="400"><tspan x="562.525" y="326.545">Input</tspan></text><text x="359.767" y="326.989" font-family="Bitstream Vera Sans" font-size="10" font-weight="400"><tspan x="359.767" y="326.989">Output</tspan></text><text x="385.008" y="401.865" font-family="Bitstream Vera Sans" font-size="10" font-weight="400"><tspan x="385.008" y="401.865">Operator stack</tspan></text><g><text x="281.582" y="76.007" font-family="Bitstream Vera Sans" font-size="10" font-weight="400" transform="translate(64.5 226.343)"><tspan x="281.582" y="76.007">A</tspan></text><path fill="none" stroke="#000" stroke-width=".667" d="M344.5 293.705h10v10h-10z"/></g><g><path fill="none" stroke="#000" stroke-width=".667" d="M484.5 388.705h10v10h-10z"/><text x="296.811" y="75.497" font-family="Bitstream Vera Sans" font-size="10" font-weight="400" transform="translate(188.5 321.343)"><tspan x="296.811" y="75.497">+</tspan></text></g><g><path fill="none" stroke="#000" stroke-width=".667" d="M359.5 293.705h10v10h-10z"/><text x="313.433" y="76.007" font-family="Bitstream Vera Sans" font-size="10" font-weight="400" transform="translate(47.5 226.343)"><tspan x="313.433" y="76.007">B</tspan></text></g><g><path fill="none" stroke="#000" stroke-width=".667" d="M484.5 373.705h10v10h-10z"/><text style="text-align:start;line-height:125%" x="328.808" y="75.497" font-family="Bitstream Vera Sans" font-size="10" font-weight="400" transform="translate(156.5 306.343)"><tspan x="328.808" y="75.497">×</tspan></text></g><g><path fill="none" stroke="#000" stroke-width=".667" d="M374.5 293.705h10v10h-10z"/><text x="347.499" y="76.002" font-family="Bitstream Vera Sans" font-size="10" font-weight="400" transform="translate(28.5 226.343)"><tspan x="347.499" y="76.002">C</tspan></text></g><text x="345.545" y="411.402" font-family="Bitstream Vera Sans" font-size="14" font-weight="400"><tspan x="345.545" y="411.402">f)</tspan></text><g><path fill="none" stroke="#000" stroke-width=".667" d="M588.333 292.66h10v10h-10z"/><text x="296.811" y="75.497" font-family="Bitstream Vera Sans" font-size="10" font-weight="400" transform="translate(292.333 225.297)">−</text></g><g><path fill="none" stroke="#000" stroke-width=".667" d="M603.333 292.66h10v10h-10z"/><text x="304.433" y="23.007" font-family="Bitstream Vera Sans" font-size="10" font-weight="400" transform="translate(300.333 278.297)"><tspan x="304.433" y="23.007">D</tspan></text></g><path fill="none" stroke="#000" stroke-width=".6" d="M575.406 296.654c-5.63.233-43.612-.777-52.693.283-9.082 1.06-15.908 6.005-20 8.627-9.93 6.362-20.54 21.843-20.54 21.843"/><path fill="none" stroke="#000" d="M305.302 599.512h-285M305.302 599.512h-80c-28.93 0-60 30-60 60v32M165.302 689.512v-30c0-28.284-31.716-60-60-60h-30"/><text x="250.327" y="614.352" font-family="Bitstream Vera Sans" font-size="10" font-weight="400"><tspan x="250.327" y="614.352">Input</tspan></text><text x="47.568" y="614.796" font-family="Bitstream Vera Sans" font-size="10" font-weight="400"><tspan x="47.568" y="614.796">Output</tspan></text><text x="72.81" y="689.672" font-family="Bitstream Vera Sans" font-size="10" font-weight="400"><tspan x="72.81" y="689.672">Operator stack</tspan></text><path fill="none" stroke="#000" stroke-width=".6" marker-end="url(#a)" d="M182.679 666.52c.36-24.153-7.235-49.183-15.618-60.075-8.382-10.892-19.88-17.551-44.755-18.272"/><g><text x="281.582" y="76.007" font-family="Bitstream Vera Sans" font-size="10" font-weight="400" transform="translate(-252.698 517.15)"><tspan x="281.582" y="76.007">A</tspan></text><path fill="none" stroke="#000" stroke-width=".667" d="M27.302 584.512h10v10h-10z"/></g><g><path fill="none" stroke="#000" stroke-width=".667" d="M87.302 584.512h10v10h-10z"/><text x="296.811" y="75.497" font-family="Bitstream Vera Sans" font-size="10" font-weight="400" transform="translate(-208.698 517.15)"><tspan x="296.811" y="75.497">+</tspan></text></g><g><path fill="none" stroke="#000" stroke-width=".667" d="M42.302 584.512h10v10h-10z"/><text x="313.433" y="76.007" font-family="Bitstream Vera Sans" font-size="10" font-weight="400" transform="translate(-269.698 517.15)"><tspan x="313.433" y="76.007">B</tspan></text></g><g><path fill="none" stroke="#000" stroke-width=".667" d="M72.302 584.512h10v10h-10z"/><text x="328.808" y="75.497" style="text-align:start;line-height:125%" font-family="Bitstream Vera Sans" font-size="10" font-weight="400" transform="translate(-255.698 517.15)"><tspan x="328.808" y="75.497">×</tspan></text></g><g><path fill="none" stroke="#000" stroke-width=".667" d="M57.302 584.512h10v10h-10z"/><text x="347.499" y="76.002" font-family="Bitstream Vera Sans" font-size="10" font-weight="400" transform="translate(-288.698 517.15)"><tspan x="347.499" y="76.002">C</tspan></text></g><text x="31.999" y="692.602" font-family="Bitstream Vera Sans" font-size="14" font-weight="400"><tspan x="31.999" y="692.602">i)</tspan></text><g><path fill="none" stroke="#000" stroke-width=".667" d="M103.302 584.512h10v10h-10z"/><text x="304.433" y="23.007" font-family="Bitstream Vera Sans" font-size="10" font-weight="400" transform="translate(-199.698 570.15)"><tspan x="304.433" y="23.007">D</tspan></text></g><g><path fill="none" stroke="#000" stroke-width=".667" d="M172.302 681.512h10v10h-10z"/><text x="296.811" y="75.497" font-family="Bitstream Vera Sans" font-size="10" font-weight="400" transform="translate(-123.698 614.15)">−</text></g><path fill="none" stroke="#000" d="M298.092 452.465h-285M298.092 452.465h-80c-28.93 0-60.5 29.5-60.5 59.5v36"/><path fill="none" stroke="#000" d="M157.592 541.965v-30c0-28.284-31.216-59.5-59.5-59.5h-30"/><text x="243.117" y="467.305" font-family="Bitstream Vera Sans" font-size="10" font-weight="400"><tspan x="243.117" y="467.305">Input</tspan></text><text x="40.358" y="467.749" font-family="Bitstream Vera Sans" font-size="10" font-weight="400"><tspan x="40.358" y="467.749">Output</tspan></text><text x="65.6" y="542.625" font-family="Bitstream Vera Sans" font-size="10" font-weight="400"><tspan x="65.6" y="542.625">Operator stack</tspan></text><g><text x="281.582" y="76.007" font-family="Bitstream Vera Sans" font-size="10" font-weight="400" transform="translate(-254.908 367.103)"><tspan x="281.582" y="76.007">A</tspan></text><path fill="none" stroke="#000" stroke-width=".667" d="M25.092 434.465h10v10h-10z"/></g><g><path fill="none" stroke="#000" stroke-width=".667" d="M165.092 529.465h10v10h-10z"/><text x="296.811" y="75.497" font-family="Bitstream Vera Sans" font-size="10" font-weight="400" transform="translate(-130.908 462.103)"><tspan x="296.811" y="75.497">+</tspan></text></g><g><path fill="none" stroke="#000" stroke-width=".667" d="M40.092 434.465h10v10h-10z"/><text x="313.433" y="76.007" font-family="Bitstream Vera Sans" font-size="10" font-weight="400" transform="translate(-271.908 367.103)"><tspan x="313.433" y="76.007">B</tspan></text></g><g><path fill="none" stroke="#000" stroke-width=".667" d="M165.092 514.465h10v10h-10z"/><text x="328.808" y="75.497" style="text-align:start;line-height:125%" font-family="Bitstream Vera Sans" font-size="10" font-weight="400" transform="translate(-162.908 447.103)"><tspan x="328.808" y="75.497">×</tspan></text></g><g><path fill="none" stroke="#000" stroke-width=".667" d="M55.092 434.465h10v10h-10z"/><text x="347.499" y="76.002" font-family="Bitstream Vera Sans" font-size="10" font-weight="400" transform="translate(-290.908 367.103)"><tspan x="347.499" y="76.002">C</tspan></text></g><text x="26.137" y="552.162" font-family="Bitstream Vera Sans" font-size="14" font-weight="400"><tspan x="26.137" y="552.162">g)</tspan></text><g><path fill="none" stroke="#000" stroke-width=".667" d="M283.924 433.42h10v10h-10z"/><text x="304.433" y="23.007" font-family="Bitstream Vera Sans" font-size="10" font-weight="400" transform="translate(-19.076 419.057)"><tspan x="304.433" y="23.007">D</tspan></text></g><path fill="#fff" stroke="#000" stroke-width=".667" d="M174.259 465.358h10v10h-10z"/><text x="175.069" y="473.493" font-family="Bitstream Vera Sans" font-size="10" font-weight="400">−</text><path fill="none" stroke="#000" stroke-width=".6" marker-end="url(#a)" d="M170.679 506.52c.72-20.909-7.58-40.207-22.784-53.174-15.203-12.967-48.876-15.486-77.356-15.486"/><text style="line-height:125%;-inkscape-font-specification:'Times New Roman,'" x="347.706" y="665.265" font-family="Times New Roman" font-size="12" font-weight="400" letter-spacing="0" word-spacing="0"/><path fill-rule="evenodd" stroke="#000" stroke-linecap="square" stroke-width=".6" d="M294.173 50.47l-10.358 4.539 1.249-11.24z" transform="matrix(.66946 0 0 .72745 285.623 13.226)"/><path fill-rule="evenodd" stroke="#000" stroke-linecap="square" stroke-width=".6" d="M294.173 50.47l-10.358 4.539 1.249-11.24z" transform="matrix(.66946 0 0 .72745 288.507 145.412)"/><path fill-rule="evenodd" stroke="#000" stroke-linecap="square" stroke-width=".6" d="M294.173 50.47l-10.358 4.539 1.249-11.24z" transform="matrix(.66946 0 0 .72745 290.31 288.893)"/></svg>