<?xml version="1.0" encoding="utf-8"?>
<!-- Generator: Adobe Illustrator 27.3.1, SVG Export Plug-In . SVG Version: 6.00 Build 0)  -->
<svg version="1.1" id="Layer_1" xmlns="http://www.w3.org/2000/svg" xmlns:xlink="http://www.w3.org/1999/xlink" x="0px" y="0px"
	 viewBox="0 0 800 800" style="enable-background:new 0 0 800 800;" xml:space="preserve">
<style type="text/css">
	.st0{fill:#7F52FF;}
	.st1{fill:#FFFFFF;}
	.st2{fill:#FE2857;}
</style>
<g>
	<g>
		<path class="st0" d="M495.5,534.6c-0.5,0-1,0-1.6-0.1c-10.5-0.9-18.2-10-17.4-20.5c3.1-38.4,34.4-58.4,63.6-58.4h56.3
			c-13.3-14.2-33.9-33.3-42.5-41.2c-7.7-7.1-8.2-19.2-1-26.9c7.1-7.7,19.2-8.2,26.9-1c25,23.2,39.8,37.7,49.2,48.5
			c7.6,8.6,21.6,24.7,15,41.3c-6.9,17.5-27.9,17.3-38,17.3h-65.9c-8.8,0-24.2,5-25.8,23.5C513.6,527.1,505.3,534.6,495.5,534.6z"/>
	</g>
	<g>
		<path class="st0" d="M445.1,657.2c-10.5,0-19-8.5-19-19V623c-28.4-6.8-56.8-27.9-74.9-56.8c-12.3-19.7-19.6-42.4-20.9-65.6
			c-1.5-26.4,4.3-53.2,17.2-79.8c4.6-9.4,16-13.4,25.4-8.8c9.4,4.6,13.4,16,8.8,25.4c-25.2,51.9-9.7,90.3,1.8,108.7
			c12.5,19.9,37.1,41.3,61.7,41.3c0,0,0,0,0.1,0c5,0,9.9,2,13.4,5.6c3.6,3.6,5.6,8.4,5.6,13.4v31.9
			C464.1,648.7,455.6,657.2,445.1,657.2z"/>
	</g>
	<g>
		<path class="st0" d="M362.4,657.2h-33.1c-10.5,0-19-8.5-19-19s8.5-19,19-19h18.3l47.9-189.8c2.6-10.2,12.9-16.3,23.1-13.8
			s16.3,12.9,13.8,23.1l-51.5,204.2C378.7,651.3,371.1,657.2,362.4,657.2z"/>
	</g>
	<g>
		<polygon points="222.1,458.2 241,558 303.6,558 322.2,458.2 		"/>
	</g>
	<g>
		<path class="st0" d="M237.2,529.2c-41.6,0-73.4-23.6-84.4-63.5c-7-25.4-0.1-57.5,17.7-81.8c18.3-25.1,46.1-39.6,78.3-41
			c10.5-0.5,19.3,7.7,19.8,18.2s-7.7,19.3-18.2,19.8c-26.1,1.1-41.1,14.4-49.1,25.4c-12.6,17.3-14.9,37.7-11.7,49.3
			c9.5,34.4,38.7,36.8,55.3,35.2c10.5-1,19.7,6.6,20.8,17c1,10.4-6.6,19.7-17,20.8C244.7,529,240.9,529.2,237.2,529.2z"/>
	</g>
	<g>
		<g>
			<g>
				<g>
					<path class="st0" d="M275.2,433.5l255,35.8c19.9,2.8,38.2-11,41-30.9l28.3-201.6c4.5-32.3-29.7-55.9-58.3-40.3l-101.7,55.8
						c-5.8,3.2-12.9,2.2-17.6-2.5l-82.2-81.6c-23.2-23-62.6-9.7-67.2,22.6l-28.3,201.6C241.5,412.4,255.4,430.7,275.2,433.5z"/>
				</g>
				<g>
					<g>
						<path d="M521.8,448.5l-232.4-32.8c-15.3-2.2-26-16.3-23.8-31.6l14.5-103c2.2-15.3,16.3-26,31.6-23.8l232.4,32.8
							c15.3,2.2,26,16.3,23.8,31.6l-14.5,103C551.3,440,537.2,450.7,521.8,448.5z"/>
					</g>
				</g>
			</g>
		</g>
		<g>
			<g>
				<path class="st1" d="M508.5,344.1c-1.2,8.6-5.7,16.2-12.6,21.4c-6.9,5.2-15.5,7.4-24,6.2c-0.8-0.1-1.5-0.2-2.3-0.4c0,0,0,0,0,0
					c-16.6-3.5-27.7-19.4-25.3-36.2c0.2-1.2,0.4-2.4,0.7-3.5c1.3-5.2-2.1-10.4-7.5-11.1h0c-4.5-0.6-8.8,2.2-10,6.6
					c-0.5,1.8-0.8,3.7-1.1,5.6c-3.7,26.4,13.7,50.9,39.4,56.4c1.2,0.2,2.3,0.5,3.5,0.6c27.6,3.9,53.1-15.3,57-42.9
					c0.3-1.9,0.4-3.8,0.5-5.6c0.1-4.6-3.2-8.4-7.8-9.1l0,0c-5.3-0.7-10.1,3.3-10.2,8.7C508.8,341.7,508.7,342.9,508.5,344.1z"/>
			</g>
			<g>
				<path class="st1" d="M390.7,327.5c-1.2,8.6-5.7,16.2-12.6,21.4c-6.9,5.2-15.5,7.4-24,6.2c-0.8-0.1-1.5-0.2-2.3-0.4c0,0,0,0,0,0
					c-16.6-3.5-27.7-19.4-25.3-36.2c0.2-1.2,0.4-2.4,0.7-3.5c1.3-5.2-2.1-10.4-7.5-11.1h0c-4.5-0.6-8.8,2.2-10,6.6
					c-0.5,1.8-0.8,3.7-1.1,5.5c-3.7,26.4,13.7,50.9,39.4,56.4c1.2,0.2,2.3,0.5,3.5,0.6c27.6,3.9,53.1-15.3,57-42.9
					c0.3-1.9,0.4-3.8,0.5-5.6c0.1-4.6-3.2-8.4-7.8-9.1h0c-5.3-0.7-10.1,3.3-10.2,8.7C391,325.1,390.9,326.3,390.7,327.5z"/>
			</g>
		</g>
	</g>
	<g>
		<path class="st0" d="M513.4,657.1c-0.3,0-0.5-0.2-0.5-0.5V493.2c0-0.3,0.2-0.5,0.5-0.5h161.5c0.3,0,0.5,0.2,0.5,0.5
			s-0.2,0.5-0.5,0.5h-161v162.9C513.9,656.8,513.7,657.1,513.4,657.1z"/>
	</g>
	<g>
		<path class="st1" d="M373.8,412.3c-0.2,0-0.4,0-0.6-0.1c-1.6-0.4-2.6-1.9-2.3-3.6c1-4.8,4.5-7,8.1-7.9c-2.6-4.5-2.1-9.3-2.1-9.6
			c0.2-1.6,1.6-2.8,3.3-2.7c1.6,0.2,2.8,1.6,2.7,3.3c0,0.3-0.5,6.5,4.9,9.2c1.4,0.7,2,2.2,1.5,3.7c-0.5,1.4-2,2.3-3.5,2
			c-0.3-0.1-8.1-1.6-9.1,3.3C376.4,411.3,375.2,412.3,373.8,412.3z"/>
	</g>
	<g>
		<path class="st1" d="M262.2,540.8c-0.4,0-0.9-0.1-1.3-0.3c-1.5-0.7-2.1-2.5-1.4-4l62.2-128.7c7.4-15.3,25.6-22.2,41.3-15.7l16,6.7
			c1.5,0.6,2.3,2.4,1.6,3.9s-2.4,2.3-3.9,1.6l-16-6.7c-12.8-5.3-27.6,0.3-33.6,12.8l-62.2,128.7
			C264.3,540.2,263.3,540.8,262.2,540.8z"/>
	</g>
</g>
</svg>
