<svg xmlns="http://www.w3.org/2000/svg" width="1em" height="1em" viewBox="0 0 32 32"><g fill="none"><circle cx="3.055" cy="19.945" r="1.055" fill="url(#f2395id0)"/><circle cx="3.055" cy="19.945" r="1.055" fill="url(#f2395id1)"/><circle cx="3.055" cy="17.945" r="1.055" fill="url(#f2395id2)"/><path fill="url(#f2395idj)" d="M14.375 7H23a3 3 0 0 1 3 3v17a3 3 0 0 1-3 3h-8.625V7Z"/><path fill="url(#f2395id3)" d="M14.375 7H23a3 3 0 0 1 3 3v17a3 3 0 0 1-3 3h-8.625V7Z"/><path fill="url(#f2395id4)" d="M14.375 7H23a3 3 0 0 1 3 3v17a3 3 0 0 1-3 3h-8.625V7Z"/><path fill="url(#f2395idk)" d="M14.375 7H23a3 3 0 0 1 3 3v17a3 3 0 0 1-3 3h-8.625V7Z"/><path fill="url(#f2395id5)" d="M14.375 7H23a3 3 0 0 1 3 3v17a3 3 0 0 1-3 3h-8.625V7Z"/><path fill="url(#f2395id6)" d="M14.375 7H23a3 3 0 0 1 3 3v17a3 3 0 0 1-3 3h-8.625V7Z"/><path fill="url(#f2395id7)" d="M14.375 7H23a3 3 0 0 1 3 3v17a3 3 0 0 1-3 3h-8.625V7Z"/><path fill="url(#f2395idl)" d="M14.375 7H23a3 3 0 0 1 3 3v17a3 3 0 0 1-3 3h-8.625V7Z"/><circle cx="14.5" cy="18.5" r="11.5" fill="url(#f2395id8)"/><circle cx="14.5" cy="18.5" r="11.5" fill="url(#f2395id9)"/><circle cx="14.5" cy="18.5" r="11.5" fill="url(#f2395ida)"/><circle cx="14.5" cy="18.5" r="11.5" fill="url(#f2395idb)"/><path fill="url(#f2395idc)" d="M6.7 10.05a10.791 10.791 0 0 1 3.988 8.388c0 3.417-1.586 6.464-4.06 8.445A11.468 11.468 0 0 1 3 18.5a11.47 11.47 0 0 1 3.7-8.45Z"/><g filter="url(#f2395idp)"><path fill="#4D82FD" d="M17.61 21.717v-5.873a.7.7 0 0 0-1.174-.516l-2.998 2.753a1 1 0 0 0 .01 1.483l2.995 2.675a.7.7 0 0 0 1.166-.522Z"/></g><path fill="url(#f2395idm)" d="M18 21.452v-5.874a.7.7 0 0 0-1.174-.516l-2.997 2.754a1 1 0 0 0 .01 1.482l2.995 2.676A.7.7 0 0 0 18 21.452Z"/><path fill="url(#f2395idn)" d="M18 21.452v-5.874a.7.7 0 0 0-1.174-.516l-2.997 2.754a1 1 0 0 0 .01 1.482l2.995 2.676A.7.7 0 0 0 18 21.452Z"/><path fill="url(#f2395idd)" d="M18 21.452v-5.874a.7.7 0 0 0-1.174-.516l-2.997 2.754a1 1 0 0 0 .01 1.482l2.995 2.676A.7.7 0 0 0 18 21.452Z"/><circle cx="7.422" cy="16.391" r=".5" fill="url(#f2395ide)"/><circle cx="7.422" cy="16.391" r=".5" fill="url(#f2395idf)"/><circle cx="7.422" cy="16.391" r=".5" fill="url(#f2395ido)"/><path fill="url(#f2395idg)" d="M30.063 15.955c0-.672-.766-1.476-1.82-.956A4.498 4.498 0 0 0 26 18.893c0 1.662.901 3.114 2.242 3.893c.759.441 1.82-.073 1.82-.83v-6Z"/><path fill="url(#f2395idh)" d="M30.063 15.955c0-.672-.766-1.476-1.82-.956A4.498 4.498 0 0 0 26 18.893c0 1.662.901 3.114 2.242 3.893c.759.441 1.82-.073 1.82-.83v-6Z"/><path fill="url(#f2395idi)" d="M30.063 15.955c0-.672-.766-1.476-1.82-.956A4.498 4.498 0 0 0 26 18.893c0 1.662.901 3.114 2.242 3.893c.759.441 1.82-.073 1.82-.83v-6Z"/><defs><radialGradient id="f2395id0" cx="0" cy="0" r="1" gradientTransform="matrix(1.3125 -.53906 .83075 2.02268 2 20.484)" gradientUnits="userSpaceOnUse"><stop stop-color="#6D5A93"/><stop offset="1" stop-color="#5F498C"/></radialGradient><radialGradient id="f2395id1" cx="0" cy="0" r="1" gradientTransform="rotate(98.219 -6.59 10.698)scale(.71042 .794)" gradientUnits="userSpaceOnUse"><stop stop-color="#442E79"/><stop offset="1" stop-color="#442E79" stop-opacity="0"/></radialGradient><radialGradient id="f2395id2" cx="0" cy="0" r="1" gradientTransform="matrix(1.625 0 0 2.50428 1.875 17.945)" gradientUnits="userSpaceOnUse"><stop stop-color="#6D5A93"/><stop offset="1" stop-color="#5F498C"/></radialGradient><radialGradient id="f2395id3" cx="0" cy="0" r="1" gradientTransform="matrix(8.0625 -3.625 5.13835 11.4284 17.188 31.625)" gradientUnits="userSpaceOnUse"><stop stop-color="#FF835D"/><stop offset="1" stop-color="#FF835D" stop-opacity="0"/></radialGradient><radialGradient id="f2395id4" cx="0" cy="0" r="1" gradientTransform="rotate(46.65 -12.942 36.264)scale(5.37182 7.61442)" gradientUnits="userSpaceOnUse"><stop stop-color="#FF835D"/><stop offset="1" stop-color="#FF835D" stop-opacity="0"/></radialGradient><radialGradient id="f2395id5" cx="0" cy="0" r="1" gradientTransform="matrix(16.7498 18.68764 -12.28497 11.01107 9.25 10.625)" gradientUnits="userSpaceOnUse"><stop offset=".943" stop-color="#FF835D" stop-opacity="0"/><stop offset="1" stop-color="#FF835D"/></radialGradient><radialGradient id="f2395id6" cx="0" cy="0" r="1" gradientTransform="rotate(143.673 11.127 8.392)scale(3.95643 5.87059)" gradientUnits="userSpaceOnUse"><stop stop-color="#FFE65E"/><stop offset=".654" stop-color="#FFE65E" stop-opacity="0"/></radialGradient><radialGradient id="f2395id7" cx="0" cy="0" r="1" gradientTransform="matrix(0 -6.0625 11.8125 0 27.125 14.938)" gradientUnits="userSpaceOnUse"><stop stop-color="#FFE65E"/><stop offset="1" stop-color="#FFE65E" stop-opacity="0"/></radialGradient><radialGradient id="f2395id8" cx="0" cy="0" r="1" gradientTransform="matrix(-10.49993 18.125 -19.41091 -11.24487 22.813 9.75)" gradientUnits="userSpaceOnUse"><stop stop-color="#76CDFF"/><stop offset="1" stop-color="#5181FF"/></radialGradient><radialGradient id="f2395id9" cx="0" cy="0" r="1" gradientTransform="matrix(0 23.0625 -17.9752 0 14.5 9.063)" gradientUnits="userSpaceOnUse"><stop offset=".786" stop-color="#5A67FF" stop-opacity="0"/><stop offset=".929" stop-color="#5A67FF"/></radialGradient><radialGradient id="f2395ida" cx="0" cy="0" r="1" gradientTransform="matrix(-3.6875 0 0 -6.17092 28.5 18.813)" gradientUnits="userSpaceOnUse"><stop offset=".017" stop-color="#5A67FF"/><stop offset="1" stop-color="#5A67FF" stop-opacity="0"/></radialGradient><radialGradient id="f2395idb" cx="0" cy="0" r="1" gradientTransform="matrix(2.37499 2.81251 -7.52137 6.35133 7.875 8.125)" gradientUnits="userSpaceOnUse"><stop stop-color="#65AFE3"/><stop offset="1" stop-color="#65AFE3" stop-opacity="0"/></radialGradient><radialGradient id="f2395idc" cx="0" cy="0" r="1" gradientTransform="matrix(23.875 0 0 34.7797 .625 18.467)" gradientUnits="userSpaceOnUse"><stop offset=".065" stop-color="#80739F"/><stop offset=".262" stop-color="#6F53A3"/></radialGradient><radialGradient id="f2395idd" cx="0" cy="0" r="1" gradientTransform="matrix(0 4.5 -.71873 0 18 15.844)" gradientUnits="userSpaceOnUse"><stop stop-color="#FFD65C"/><stop offset="1" stop-color="#FFD65C" stop-opacity="0"/></radialGradient><radialGradient id="f2395ide" cx="0" cy="0" r="1" gradientTransform="matrix(-.40625 .5625 -.5015 -.3622 7.57 16.23)" gradientUnits="userSpaceOnUse"><stop offset=".006" stop-color="#433437"/><stop offset="1" stop-color="#3B2838"/></radialGradient><radialGradient id="f2395idf" cx="0" cy="0" r="1" gradientTransform="rotate(137.643 .653 9.607)scale(.35946 .31624)" gradientUnits="userSpaceOnUse"><stop stop-color="#5C5051"/><stop offset="1" stop-color="#5C5051" stop-opacity="0"/></radialGradient><radialGradient id="f2395idg" cx="0" cy="0" r="1" gradientTransform="matrix(-4.375 0 0 -8.85937 30.375 18.89)" gradientUnits="userSpaceOnUse"><stop offset=".329" stop-color="#FFC256"/><stop offset="1" stop-color="#FF8646"/></radialGradient><radialGradient id="f2395idh" cx="0" cy="0" r="1" gradientTransform="matrix(0 4.59375 -1.28023 0 30.063 17.094)" gradientUnits="userSpaceOnUse"><stop stop-color="#FFD661"/><stop offset="1" stop-color="#FFD661" stop-opacity="0"/></radialGradient><radialGradient id="f2395idi" cx="0" cy="0" r="1" gradientTransform="matrix(-5.375 0 0 -5.125 31.188 18.89)" gradientUnits="userSpaceOnUse"><stop offset=".892" stop-color="#F37539" stop-opacity="0"/><stop offset="1" stop-color="#F37539"/></radialGradient><linearGradient id="f2395idj" x1="30.813" x2="20.5" y1="17.375" y2="17.375" gradientUnits="userSpaceOnUse"><stop stop-color="#FFE359"/><stop offset="1" stop-color="#FFBE3E"/></linearGradient><linearGradient id="f2395idk" x1="26" x2="26" y1="30.656" y2="29.438" gradientUnits="userSpaceOnUse"><stop offset=".118" stop-color="#FF835D"/><stop offset="1" stop-color="#FF835D" stop-opacity="0"/></linearGradient><linearGradient id="f2395idl" x1="19.094" x2="19.219" y1="6.313" y2="7.625" gradientUnits="userSpaceOnUse"><stop stop-color="#FFB941"/><stop offset="1" stop-color="#FFB941" stop-opacity="0"/></linearGradient><linearGradient id="f2395idm" x1="18" x2="13.813" y1="17.875" y2="17.875" gradientUnits="userSpaceOnUse"><stop stop-color="#FFD65C"/><stop offset="1" stop-color="#FF8C42"/></linearGradient><linearGradient id="f2395idn" x1="15.752" x2="14.281" y1="19.594" y2="20.625" gradientUnits="userSpaceOnUse"><stop stop-color="#FF8C42" stop-opacity="0"/><stop offset="1" stop-color="#FF8C42"/></linearGradient><linearGradient id="f2395ido" x1="7.324" x2="6.98" y1="15.998" y2="15.779" gradientUnits="userSpaceOnUse"><stop stop-color="#5C5051" stop-opacity="0"/><stop offset="1" stop-color="#5C5051"/></linearGradient><filter id="f2395idp" width="5.995" height="8.777" x="12.364" y="14.392" color-interpolation-filters="sRGB" filterUnits="userSpaceOnUse"><feFlood flood-opacity="0" result="BackgroundImageFix"/><feBlend in="SourceGraphic" in2="BackgroundImageFix" result="shape"/><feGaussianBlur result="effect1_foregroundBlur_28327_5989" stdDeviation=".375"/></filter></defs></g></svg>